<svg width="80" height="208" viewBox="0 0 80 208" fill="none" xmlns="http://www.w3.org/2000/svg">
<path d="M12.3239 206.975H19.5081L79.0268 207.415V149.831L12.8212 147.565L12.3239 206.975Z" fill="#4EA2DA"/>
<path d="M0.442166 158.065L12.8212 147.565L12.3238 206.975H0L0.442166 158.065Z" fill="#428DB6"/>
<path d="M11.937 149.389C11.937 149.389 -1.54728 135.296 19.6739 118.828L24.7581 66.9908L20.3923 64.5592L20.5581 58.7013C20.5581 58.7013 5.85802 52.0697 12.4896 44.3881L20.5028 27.588C20.5028 27.588 21.7186 22.6143 26.6371 25.709C26.6371 25.709 28.7923 27.5327 29.8976 25.3775C30.0081 25.4327 29.8976 21.6195 29.8976 21.6195C29.8976 21.6195 28.4608 19.4643 29.7871 17.9169C29.7871 17.9169 30.4502 14.4906 31.0581 14.1037L31.3897 8.08001C31.3897 8.08001 31.8871 4.92999 33.8766 3.99051C33.8766 3.99051 32.7713 0.343129 36.0871 0.011549H38.795C38.795 0.011549 39.845 -0.209505 39.7897 1.28261L40.0661 2.00103C40.0661 2.00103 42.774 2.33261 43.1056 3.82472C43.1056 3.82472 45.095 5.15105 45.3161 6.03526V15.0985C45.3161 15.0985 46.2556 16.0379 45.1503 18.1379C45.1503 18.1379 44.9845 22.9459 43.824 24.438L43.4924 28.5275L49.6819 29.4117L50.124 26.4827C50.124 26.3169 50.3451 26.2617 50.5109 26.3722L51.2845 27.1459C51.3398 27.2564 51.4503 27.2564 51.6161 27.3117L52.0582 27.3669C52.2793 27.3669 52.4451 27.2011 52.4451 26.9801L52.6661 21.3432C52.6661 20.9011 53.053 20.5143 53.4951 20.5695C53.9372 20.5695 54.324 20.9564 54.324 21.3985V24.3274L54.8767 24.3827C55.153 24.438 55.4293 24.659 55.374 24.9906L55.2082 29.0248C55.2082 29.0248 64.4372 36.7617 66.9241 50.5223C67.0899 51.4618 66.7583 52.4565 66.0399 53.1749C63.8293 55.2197 59.0767 59.9171 57.474 63.5645C57.1977 64.1724 56.7004 64.6697 56.0925 64.8908L54.8767 65.3882C54.8767 65.3882 54.8767 68.8698 52.1135 69.2566L52.3345 70.3619L56.9767 72.3513C56.9767 72.3513 58.6346 73.2356 57.0319 74.8382C57.0319 74.8382 50.4556 81.8014 51.6714 90.2014C51.6714 90.2014 53.7714 96.9988 50.953 102.691C50.953 102.691 54.8214 108.88 52.5556 114.186C52.5556 114.186 59.2425 132.754 60.2925 145.631C60.2925 145.631 55.153 147.233 54.7109 151.102L11.937 149.389Z" fill="#4EA2DA"/>
</svg>
