<?xml version="1.0" encoding="utf-8"?>
<!-- Generator: Adobe Illustrator 26.0.1, SVG Export Plug-In . SVG Version: 6.00 Build 0)  -->
<svg version="1.1" id="Слой_1" xmlns="http://www.w3.org/2000/svg" xmlns:xlink="http://www.w3.org/1999/xlink" x="0px" y="0px"
	 viewBox="0 0 108 203" style="enable-background:new 0 0 108 203;" xml:space="preserve">
<style type="text/css">
	.st0{fill:#4EA2DA;}
</style>
<path class="st0" d="M108.1,152.5H83.4v-6.3h-8.9c0,0-0.2-0.7-3.4-1.3l-0.8-1.4l0.7-0.3c0,0,1.5-4.5,1.4-9l0.2-5.2l5.6-3.3l6.7-3.9
	l0.3-1.2c0,0,4.1-0.5,4.4-3.6c0,0-0.4-1.4,1.5-2.5l5.2-4.7l-4-14.4l0.1-0.7c0,0,3,0.8,2.7-1.2c0,0-1.5-10.6-1.7-14.6l-0.6-8.7
	l-0.3-3.6l-1.2-7.1c0,0-0.9-3.4-0.7-5.6c0,0-0.5-4.9-2.1-6.7c0,0,0.9-4.5-1.5-7.3c-0.1,0-0.4-3.2-6.4-8.9c0,0,0-2.5,2.8-5.1l2.2-3
	c0,0-0.1-1.6-12-2.9l-3.2-0.4c0,0-0.1-1.5,0.3-1.9c0,0,0.7,0.4,0.6-0.7c0,0,1.3-2.6,1.8-2.9c0,0.1,0.8-1.3-1-1.3l0.8-1.8
	c0,0,1.1-2.5,0.3-3.6l0.3-1.1c0,0,1.2-2.2-1.2-2.8c0,0-2.1-1.8-3.4-1.9v0.3l-1.6-0.3L66.7,1l-3-0.2c0,0-1.3-1.4-2.3,1.5l-0.3,0.5
	c0,0-2.3,1.5-2,4L59,10.3c0,0-2-0.6-0.8,2.5l0.3,1c0,0-0.1,0.6,0.6,0.9l0,2.7c0,0-0.9,0-0.8,2l-3.7-0.8c0,0-1.9-0.6-1.7,1.1
	c0,0-0.1,1.1-1.3,1.4l-4.2,1.9c0,0-7.5,3.2-9.1,8.9c0,0-3.8,5.7-4.9,16.9c0,0.3-0.9,18.1-0.9,18.1l1.3,17.7l0.6,6
	c0,0,1.8,1.4,5.7,0.4l0.2-8.1c0,0,0.2-1.4,0.9-1.4c0,0,0.9,13.1,0.9,13.1c0,0.1,0.6,2.2,0.6,2.2s1.4,9.9,3.6,12c0,0,0.5,1.9-1.1,3
	c0,0-1,9.8-1.8,10.6c0,0-0.3,1.2,1.1,1.3c0,0,0.4,4.1-0.5,5.6c0,0-1,5.2,0.1,7l-0.4,1c0,0-1,0.4-0.2,2.7l0.3,3.8c0,0-2,0.4-1.1,2.4
	h-7.6v7.2L0,154.4l0.3,38.6h10.1l0.3,9.9H108L108.1,152.5z"/>
</svg>
