<svg width="108" height="205" viewBox="0 0 108 205" fill="none" xmlns="http://www.w3.org/2000/svg">
<g clip-path="url(#clip0)">
<path d="M70.2975 21.3606C70.2975 21.3606 70.2349 19.9018 70.5892 19.5059C70.5892 19.5059 71.3187 19.881 71.2353 18.7973C71.2353 18.7973 72.5275 16.2132 72.986 15.9423C72.986 16.0048 73.7779 14.6294 72.0064 14.6711L72.7776 12.8372C72.7776 12.8372 73.8405 10.2947 73.0902 9.23189L73.3611 8.16907C73.3611 8.16907 74.5282 5.9809 72.1523 5.39739C72.1523 5.39739 70.0891 3.58434 68.7135 3.4593V3.79273L67.0879 3.4593L66.7336 3.0425L63.7325 2.81327C63.7325 2.81327 62.4403 1.39617 61.3983 4.35541L61.1482 4.81388C61.1482 4.81388 58.8973 6.27266 59.1474 8.79426L58.9807 12.2953C58.9807 12.2953 56.9382 11.7327 58.147 14.7544L58.418 15.7964C58.418 15.7964 58.2721 16.3799 59.064 16.7342L59.0224 19.4225C59.0224 19.4225 58.0845 19.4642 58.1887 21.4648L54.4998 20.6937C54.4998 20.6937 52.6241 20.131 52.8325 21.8399C52.8325 21.8399 52.77 22.9236 51.4987 23.2362L47.3096 25.1534C47.3096 25.1534 39.8067 28.321 38.1811 34.0728C38.1811 34.0728 34.3672 39.762 33.2418 50.9946C33.2418 51.3072 32.3873 69.1043 32.3873 69.1043L33.6586 86.818L34.2213 92.8407C34.2213 92.8407 35.972 94.2786 39.8901 93.2158L40.0777 85.0675C40.0777 85.0675 40.2444 83.6921 41.0155 83.6504C41.0155 83.6504 41.87 96.7169 41.8909 96.8003C41.9117 96.8836 42.4744 99.0301 42.4744 99.0301C42.4744 99.0301 43.8291 108.908 46.0591 111.075C46.0591 111.075 46.601 112.93 44.9337 114.118C44.9337 114.118 43.9125 123.954 43.183 124.684C43.183 124.684 42.9121 125.934 44.2668 125.997C44.2668 125.997 44.6211 130.102 43.7249 131.644C43.7249 131.644 42.7454 136.854 43.8499 138.646L43.4748 139.626C43.4748 139.626 42.4327 139.98 43.3081 142.293L43.579 146.044C43.579 146.044 41.5782 146.44 42.4327 148.441H34.8049V155.672L0 156.423L0.312618 195.059H10.3789L10.6915 205H165V192.767H108.083V154.505H83.3857V148.17H74.4449C74.4449 148.17 74.2365 147.482 71.0061 146.836L70.1724 145.482L70.8393 145.169C70.8393 145.169 72.3191 140.668 72.194 136.208L72.3816 131.04L77.967 127.706L84.6779 123.767L84.9697 122.6C84.9697 122.6 89.0754 122.12 89.388 119.036C89.388 119.036 88.992 117.661 90.8678 116.515L96.0364 111.784L92.0765 97.3421L92.1391 96.6752C92.1391 96.6752 95.1402 97.5088 94.8276 95.4874C94.8276 95.4874 93.3062 84.9008 93.1603 80.8996L92.5559 72.1677L92.285 68.5208L91.1179 61.4353C91.1179 61.4353 90.2217 58.0384 90.4301 55.8294C90.4301 55.8294 89.9299 50.9529 88.3043 49.0982C88.3043 49.0982 89.2421 44.576 86.8454 41.7835C86.7204 41.8043 86.4911 38.595 80.4888 32.8641C80.4888 32.8641 80.468 30.3425 83.3024 27.7375L85.4907 24.6949C85.4907 24.6949 85.3865 23.0694 73.5278 21.7982L70.2975 21.3606Z" fill="#4EA2DA"/>
</g>
<defs>
<clipPath id="clip0">
<rect width="108" height="205" fill="white"/>
</clipPath>
</defs>
</svg>
