<svg width="118" height="205" viewBox="0 0 118 205" fill="none" xmlns="http://www.w3.org/2000/svg">
<g clip-path="url(#clip0)">
<path opacity="0.44" d="M108.23 118.668L104.713 116.897L108.23 118.786V118.668Z" fill="white"/>
<path d="M108.23 118.786L104.713 116.897L101.22 115.127V115.032L73.1836 100.019L101.22 115.032L101.386 114.206L71.6496 98.4136L28.792 108.588V110.901L21.1456 112.341L-0.0235596 217.081V221.071H69.148L73.1364 100.137L69.148 221.071H112.902L115.805 220.693L108.23 118.786Z" fill="#4EA2DA"/>
<path d="M80.2872 17.02C80.1692 16.902 89.1844 9.44245 82.8596 5.47663C82.8596 5.47663 78.2104 0.637386 74.4344 3.13963C74.4344 3.13963 66.9768 4.67402 68.6288 10.6936L66.0328 10.6228C66.0328 10.6228 63.7672 10.8824 63.2716 12.3696C63.2716 12.3696 57.0648 16.0285 57.112 21.5288C57.112 21.5288 55.0824 37.4156 53.1708 39.3985C53.1708 39.3985 51.566 48.8646 55.46 51.2488C55.46 51.2488 52.746 65.9082 49.678 70.8654C49.678 70.8654 46.7044 88.4519 45.3592 90.9542C45.3592 90.9542 42.716 102.285 45.3592 105.826L86.9424 110.429C86.9424 110.429 84.7948 98.4609 86.2816 92.9843C86.2816 92.9843 88.6888 70.0392 86.1164 66.3331C86.1164 66.3331 90.2936 63.6656 87.4144 59.8414L87.0368 57.1031C87.0368 57.1031 88.1696 55.9936 86.7536 54.1759L86.4704 52.1222C86.4704 52.1222 90.034 47.401 88.3112 45.4417L93.1964 37.1088L94.2584 35.1495C94.2584 35.1495 95.8868 34.1344 93.928 27.7135L92.748 23.6297L91.1904 24.0782C91.1904 24.0782 89.0664 23.252 88.8304 25.3057C88.8068 25.4001 85.7388 24.4559 86.9188 26.8165C86.9188 26.8165 85.1724 27.1234 86.0928 28.5162C86.0928 28.5162 84.5588 32.0571 83.4496 30.145L83.0484 27.3831C83.0484 27.3831 83.8036 25.471 81.302 24.5503L79.5084 22.4258C79.5084 22.4022 82.0336 18.7904 80.2872 17.02Z" fill="#4EA2DA"/>
<path d="M115.805 220.693L108.23 118.786L73.1363 100.137L69.1479 221.071H112.902L115.805 220.693Z" fill="#6FBDF1"/>
</g>
<defs>
<clipPath id="clip0">
<rect width="118" height="205" fill="white"/>
</clipPath>
</defs>
</svg>
