<svg width="106" height="218" viewBox="0 0 106 218" fill="none" xmlns="http://www.w3.org/2000/svg">
<path d="M29.4057 216.375C29.6382 214.401 30.1031 210.919 30.8004 209.062C30.8004 208.946 30.9167 208.83 30.9167 208.714C31.1491 206.276 34.0548 175.747 31.7303 170.407C31.614 170.059 31.614 169.826 31.7303 169.478C32.1952 168.201 33.125 164.487 31.7303 161.469C31.7303 161.353 31.614 161.236 31.614 161.12L30.4518 146.61C30.4518 146.61 29.6382 133.609 31.9627 125.019C31.9627 124.903 31.9627 124.787 31.9627 124.671L32.3114 108.42C32.3114 108.187 32.3114 107.955 32.1952 107.839C31.614 106.562 29.2895 101.339 29.9868 96.8115C30.1031 96.4633 29.9868 95.9989 29.6382 95.6507C28.5921 94.4899 26.0351 91.0075 27.3136 86.7125C27.4298 86.4803 27.4298 86.1321 27.3136 85.8999C27.0811 85.3195 26.6162 84.0426 26.7325 82.6496C26.7325 81.9531 26.2675 81.2567 25.5702 81.2567L19.1776 80.7923C18.9452 80.7923 18.7127 80.6762 18.5965 80.5602C18.0154 80.0958 16.8531 78.8189 17.0855 75.5687C17.0855 75.1044 16.8531 74.64 16.3882 74.4079C14.9934 73.5953 11.739 71.9702 8.48465 71.738C8.48465 71.738 4.30044 71.5059 4.41667 68.4878C4.41667 68.2556 4.41666 68.1395 4.30044 67.9073L1.97587 61.639C1.97587 61.639 -0.464916 55.4867 0.232453 50.147L0.348688 46.6645L0 45.852L0.813593 45.3876L0.464923 41.7891C0.464923 41.557 0.464912 41.3248 0.58114 41.2087L0.929828 40.2801C0.929828 40.164 1.04606 40.0479 1.04606 39.9318C1.16229 39.0032 1.85965 34.0117 1.51097 32.5027C1.51097 32.5027 1.27852 30.9936 2.4408 30.5293L3.60308 28.9041V28.4398H2.9057C2.9057 28.4398 3.48685 27.279 3.60308 26.9308V26.8147L4.64912 24.1448C4.64912 24.1448 4.76536 23.4483 5.3465 23.1001C5.81141 22.8679 6.04386 22.4036 6.04386 21.9393V19.3855C6.04386 18.8051 5.69519 18.3408 5.11405 18.1086C4.18422 17.8765 3.02194 16.9478 3.02194 14.1619C3.02194 13.9297 3.13816 13.6975 3.25439 13.4654V13.3493C3.7193 12.6528 4.5329 12.5367 5.23026 13.0011C5.34649 13.1171 5.57896 13.2332 5.69519 13.2332L5.8114 12.4207L3.95177 10.9116C3.60308 10.6794 3.48684 10.3312 3.48684 9.86688V0L4.30044 1.16081L4.88158 0.580405L5.57895 2.55378C5.69518 2.90202 5.92764 3.13417 6.16009 3.25025C6.625 3.48241 7.4386 4.06283 7.32237 5.4558C7.32237 5.80404 7.4386 6.03621 7.55483 6.38445C8.01974 7.08094 8.94957 8.35782 9.06579 9.98295C9.06579 10.3312 9.18202 10.6794 9.41448 10.9116C10.2281 11.7242 11.9715 13.9297 10.8092 16.7156C10.693 16.9478 10.693 17.296 10.693 17.5282L10.9255 18.689C10.9255 18.689 11.1579 19.1533 11.2741 19.2694C11.3903 19.3855 11.2741 20.7785 11.2741 20.7785L10.3443 21.0106C9.76317 21.1267 9.29825 21.7071 9.41448 22.4036L9.64693 25.77C9.64693 26.2343 9.99562 26.5825 10.4605 26.8147C10.5768 26.9308 10.8092 27.0469 10.8092 27.1629C10.5768 27.1629 14.2961 24.8413 13.3662 28.7881C13.3662 28.7881 11.8553 32.0383 12.5526 34.5921C12.5526 34.8243 12.6689 34.9403 12.5526 35.1725C12.4364 35.869 11.9715 37.9585 11.3904 39.0032C11.1579 39.3514 11.1579 39.6997 11.2741 40.164C11.5066 40.7444 11.739 41.673 11.2741 42.4856C11.2741 42.4856 10.9254 43.8786 8.36842 42.9499V44.459C8.36842 44.6911 8.48466 44.9233 8.60089 45.0394C9.18203 45.968 11.0417 49.2183 11.6228 50.4952C11.6228 50.6113 11.739 50.6113 11.739 50.7274C12.204 51.3078 14.4123 54.2098 14.9934 57.5761C15.1097 58.2726 15.807 58.853 16.5044 58.7369C18.9452 58.3887 23.943 57.8083 27.3136 59.2013C27.7785 59.3174 28.2434 59.3174 28.5921 59.0852C29.057 58.7369 29.6382 58.6209 30.4518 59.6656C30.4518 59.6656 30.2193 58.853 29.9868 58.1565C29.7544 57.6922 29.2895 57.344 28.8246 57.344C27.8947 57.344 26.2675 57.344 25.5702 57.6922C25.5702 57.6922 24.2917 56.6475 25.5702 56.0671L27.3136 55.3706C27.3136 55.3706 27.7785 54.6741 26.8487 54.6741H23.3619C23.3619 54.6741 21.8509 53.6294 23.0132 52.4686H23.943L23.0132 51.5399C23.0132 51.5399 22.6645 49.9148 24.4079 50.263L25.3377 50.9595H25.9189C26.6162 50.9595 27.3136 50.263 27.1974 49.5666C27.0812 48.9862 27.4298 48.4058 28.7083 48.754C28.7083 48.754 31.9627 50.9595 33.4737 52.5847C33.4737 52.5847 35.2171 54.2098 35.2171 55.8349H36.1469C36.1469 55.8349 37.4254 53.5133 45.329 46.5484C45.6776 46.3163 45.7939 45.852 45.7939 45.3876L45.6776 44.6912C45.5614 44.1108 45.2127 43.6464 44.6316 43.5304C42.6557 43.1821 38.704 41.9052 40.7961 37.9585L40.5636 37.0298C40.5636 37.0298 40.2149 36.4494 40.5636 35.6368C40.5636 35.6368 39.75 34.5921 40.7961 34.0117V33.1991H39.4013C39.4013 33.1991 38.9364 32.0383 39.6338 31.4579L42.6557 28.672C42.8882 28.4398 43.1206 28.0916 43.1206 27.7433V25.4217C43.1206 25.4217 42.4233 24.6092 43.4693 24.0288C43.4693 24.0288 43.3531 23.4483 44.3991 22.984C44.7478 22.7519 45.0965 22.4036 45.0965 21.9393C45.0965 21.591 45.329 21.1267 45.6776 20.7785V19.9659C45.6776 19.7338 45.7939 19.3855 45.9101 19.1534L46.4912 18.4569C46.6075 18.2247 46.7237 18.1086 46.7237 17.8765C46.8399 17.2961 47.0724 16.0192 47.886 14.394L48.3509 14.2779L48.8158 14.6262L48.932 15.4388C49.0483 16.1352 49.6294 16.5996 50.2105 16.5996H50.6754C51.3728 16.5996 51.9539 16.0192 51.9539 15.3227V14.9744H53.2325L53.1162 15.2066H53.8136V13.5815H55.7895V12.3046H56.7193C57.4167 12.3046 57.9978 12.885 57.9978 13.5815V14.5101H59.0439V16.2513H58.6952V16.9478H59.9737V18.2247H59.625V18.8051C59.625 18.8051 61.8333 18.689 64.6228 21.1267V21.9393H65.0877V21.0106H65.7851V21.2428H66.1338V21.8232H66.8312V20.5463H67.5285L67.8772 21.591L68.2259 20.1981H69.1557L69.8531 22.1714L69.1557 22.8679V23.5644L69.7369 23.9127V24.4931L69.1557 24.9574L68.4584 25.3056L68.3421 26.1182L68.807 26.4664L68.3421 27.0468C67.9934 27.5112 67.9934 28.2077 68.3421 28.672L68.6908 29.0202V29.6006H68.1096V30.6454C68.1096 30.6454 70.6667 31.8062 70.4342 33.4313L70.0855 33.5474C70.0855 33.5474 71.0154 35.7529 69.1557 35.1725V36.2173L71.5965 38.3067C71.9452 38.5389 72.0614 38.8871 72.0614 39.3514V42.0213L71.5965 42.7178C71.5965 42.7178 74.8509 44.9233 75.5483 47.0128C75.6645 47.2449 75.7807 47.5932 76.0132 47.7093C77.1755 48.6379 80.8948 52.1203 82.522 56.4153C82.522 56.5314 82.522 56.5314 82.522 56.6475C82.6382 57.344 83.6842 61.9872 83.3355 63.8445C83.2193 64.1928 83.3355 64.6571 83.568 64.8892C84.9627 66.5144 89.2632 72.0863 89.0307 77.426C89.0307 77.426 88.4496 86.2481 89.9605 89.1501C90.0768 89.3823 90.3092 89.4984 90.5417 89.6145C92.4013 90.427 100.77 94.9542 101.583 105.169C101.583 105.401 101.7 105.634 101.816 105.866L104.14 109.232L104.954 109.348V110.045C104.954 110.045 106.349 111.206 104.489 111.902C104.489 111.902 93.6798 115.965 91.3553 117.938C91.1228 118.17 91.0066 118.519 90.8904 118.867C90.7741 120.724 90.193 128.734 92.8662 131.404C92.8662 131.404 94.8421 133.377 94.7259 135.815C94.7259 136.163 94.8421 136.627 95.1908 136.859C96.7018 138.252 100.77 142.547 96.4693 146.03C96.4693 146.03 95.1908 148.467 89.9605 150.557C89.3794 150.789 89.0307 151.253 89.0307 151.834C89.0307 153.923 89.4956 159.263 92.2851 167.737C92.2851 167.737 92.2851 167.737 92.2851 167.853C92.6338 168.666 98.2127 183.06 98.6777 192.81C98.6777 193.043 98.7939 193.275 98.9101 193.507C99.8399 194.668 103.094 199.543 103.327 207.088C103.327 207.321 103.443 207.553 103.443 207.669C104.024 208.714 106.116 212.66 105.303 215.911C105.186 216.259 105.303 216.607 105.419 216.955L106 218H30.4518C29.8706 217.884 29.2895 217.187 29.4057 216.375Z" fill="#4EA2DA"/>
</svg>
