<svg width="20" height="21" viewBox="0 0 20 21" fill="none" xmlns="http://www.w3.org/2000/svg">
<path d="M0 1.78473C0.100264 1.51033 0.216361 1.24647 0.453828 1.05122C0.844329 0.729324 1.28232 0.745155 1.75198 0.819034C3.94723 1.16204 6.14776 1.48922 8.34829 1.82695C9.08707 1.93777 9.82586 2.04859 10.5646 2.16996C11.2665 2.28605 11.6728 2.76626 11.6728 3.48394C11.6781 4.96679 11.6728 6.44964 11.6728 7.93777C11.6728 8.01692 11.6728 8.0908 11.6728 8.19107C12.0739 8.27022 12.4644 8.35465 12.8549 8.42853C14.8971 8.83487 16.934 9.23592 18.9763 9.64225C19.6095 9.7689 20 10.2544 20 10.9035C20 13.695 20 16.4866 20 19.2781C20 19.9642 19.6623 20.3969 18.9974 20.5816C18.9815 20.5868 18.9604 20.5974 18.9446 20.608C12.9815 20.608 7.01847 20.608 1.05541 20.608C0.733509 20.5182 0.43272 20.381 0.242746 20.0908C0.142482 19.9378 0.0791557 19.7583 0 19.5948C0 13.6581 0 7.72141 0 1.78473ZM3.32982 19.7795C3.32982 19.6792 3.32982 19.6 3.32982 19.5262C3.32982 18.4021 3.34565 17.2729 3.32454 16.1488C3.30871 15.3204 3.92084 14.7452 4.70185 14.7768C5.45646 14.8032 6.21108 14.7821 6.9657 14.7821C7.82586 14.7821 8.32718 15.2834 8.32718 16.1383C8.32718 17.2729 8.32718 18.4021 8.32718 19.5367C8.32718 19.6106 8.32718 19.6897 8.32718 19.7742C9.1715 19.7742 9.98417 19.7742 10.8179 19.7742C10.8232 19.7003 10.8285 19.637 10.8285 19.5737C10.8285 14.2227 10.8285 8.87708 10.8285 3.52616C10.8285 3.15676 10.7282 3.03012 10.3694 2.97207C9.40369 2.82431 8.44327 2.67655 7.47757 2.53407C5.44063 2.228 3.40369 1.92194 1.36148 1.61587C1.05013 1.56837 0.844328 1.73196 0.828497 2.05386C0.82322 2.21745 0.828497 2.38104 0.828497 2.53935C0.828497 8.09608 0.828497 13.6528 0.828497 19.2095C0.828497 19.6423 0.965701 19.7795 1.4037 19.7795C1.89974 19.7795 2.3905 19.7795 2.88654 19.7795C3.02902 19.7795 3.17151 19.7795 3.32982 19.7795ZM11.6834 9.04067C11.6834 12.6343 11.6834 16.1963 11.6834 19.7795C11.7678 19.7795 11.8364 19.7795 11.9103 19.7795C14.1372 19.7795 16.3641 19.7795 18.591 19.7795C19.0343 19.7795 19.1715 19.6423 19.1715 19.1937C19.1715 16.4707 19.1715 13.7531 19.1715 11.0301C19.1715 10.5974 19.0818 10.4971 18.6649 10.4127C16.971 10.0802 15.2718 9.74252 13.5778 9.40479C12.9499 9.28341 12.3272 9.16732 11.6834 9.04067ZM7.50396 19.7689C7.50396 19.695 7.50396 19.6317 7.50396 19.5684C7.50396 18.4233 7.50396 17.2781 7.50396 16.133C7.50396 15.7583 7.3562 15.6106 6.98681 15.6106C6.22691 15.6106 5.46702 15.6106 4.70185 15.6106C4.30607 15.6106 4.17414 15.7425 4.17414 16.1383C4.17414 17.2834 4.17414 18.4285 4.17414 19.5737C4.17414 19.637 4.17942 19.7003 4.1847 19.7689C5.29288 19.7689 6.38522 19.7689 7.50396 19.7689Z" fill="black"/>
<path d="M3.76707 4.78207C4.03093 4.78207 4.30005 4.77679 4.56391 4.78207C4.83304 4.78735 5.00718 4.96149 5.0019 5.20423C4.99663 5.43642 4.82248 5.60529 4.56918 5.61057C4.02565 5.61584 3.47684 5.61584 2.9333 5.61057C2.68528 5.61057 2.50586 5.43115 2.50586 5.19896C2.50586 4.96677 2.67472 4.79262 2.92802 4.78735C3.20771 4.77679 3.48739 4.78207 3.76707 4.78207Z" fill="black"/>
<path d="M3.74597 8.11193C3.48211 8.11193 3.21298 8.11721 2.94913 8.11193C2.68528 8.10666 2.50586 7.93251 2.50586 7.69505C2.50586 7.4523 2.68 7.28344 2.94913 7.28344C3.48739 7.27816 4.02565 7.27816 4.56391 7.28344C4.82248 7.28344 4.99135 7.4523 4.99663 7.68449C5.0019 7.92196 4.82248 8.10138 4.55863 8.10666C4.2895 8.11721 4.02037 8.11193 3.74597 8.11193Z" fill="black"/>
<path d="M3.75273 10.6079C3.49415 10.6079 3.23557 10.6079 2.97172 10.6079C2.68676 10.6079 2.50734 10.4444 2.50207 10.2016C2.49679 9.95359 2.67621 9.78472 2.96117 9.78472C3.48887 9.77944 4.0113 9.77944 4.539 9.78472C4.82397 9.78472 5.00339 9.95359 5.00339 10.2016C5.00339 10.4444 4.81869 10.6132 4.539 10.6132C4.27515 10.6132 4.01658 10.6079 3.75273 10.6079Z" fill="black"/>
<path d="M3.74217 13.1092C3.48359 13.1092 3.22502 13.1092 2.96117 13.1092C2.68148 13.104 2.49679 12.9351 2.50206 12.6871C2.50206 12.4443 2.67621 12.2808 2.95061 12.2808C3.48359 12.2755 4.01657 12.2755 4.54956 12.2808C4.82396 12.2808 4.9981 12.4443 4.9981 12.6871C5.00338 12.9351 4.81868 13.104 4.539 13.1092C4.27515 13.1145 4.0113 13.1092 3.74217 13.1092Z" fill="black"/>
<path d="M7.90475 5.61059C7.64617 5.61059 7.3876 5.61587 7.12375 5.61059C6.84406 5.60531 6.66992 5.44173 6.66992 5.18843C6.6752 4.94041 6.83879 4.78737 7.11847 4.78209C7.65145 4.77682 8.18443 4.77682 8.71741 4.78209C8.98654 4.78209 9.16596 4.95624 9.16596 5.1937C9.16596 5.44173 8.98127 5.61059 8.70158 5.61059C8.43773 5.61587 8.17388 5.61059 7.90475 5.61059Z" fill="black"/>
<path d="M7.93172 7.28341C8.19557 7.28341 8.4647 7.27814 8.72855 7.28341C8.99241 7.28869 9.17182 7.46283 9.17182 7.7003C9.16655 7.93777 8.98713 8.10663 8.718 8.11191C8.18502 8.11719 7.65204 8.11719 7.11905 8.11191C6.84993 8.11191 6.67578 7.94304 6.67578 7.7003C6.67578 7.45228 6.83937 7.29397 7.11378 7.28341C7.12433 7.28341 7.14016 7.28341 7.15072 7.28341C7.40929 7.28341 7.66787 7.28341 7.93172 7.28341Z" fill="black"/>
<path d="M7.92128 9.77945C8.18513 9.77945 8.45426 9.77417 8.71811 9.77945C8.98724 9.78472 9.16666 9.94831 9.16666 10.1858C9.16666 10.4338 8.98196 10.6027 8.70756 10.6027C8.17985 10.6079 7.65743 10.6079 7.12972 10.6027C6.85004 10.6027 6.67062 10.4338 6.67589 10.1805C6.68117 9.93248 6.84476 9.77945 7.12444 9.77417C7.3883 9.77945 7.65215 9.77945 7.92128 9.77945Z" fill="black"/>
<path d="M7.92598 12.2808C8.18983 12.2808 8.45896 12.2755 8.72281 12.2808C8.98666 12.2861 9.17136 12.4602 9.16608 12.6924C9.16608 12.9299 8.98139 13.104 8.71753 13.104C8.18455 13.1093 7.65157 13.1093 7.11859 13.104C6.84946 13.104 6.67532 12.9404 6.67004 12.6977C6.66476 12.4391 6.83363 12.2861 7.12387 12.2755C7.13442 12.2755 7.15025 12.2755 7.16081 12.2755C7.41938 12.2808 7.67268 12.2808 7.92598 12.2808Z" fill="black"/>
<path d="M15.4298 12.2808C15.6936 12.2808 15.9627 12.2755 16.2266 12.2808C16.4905 12.2861 16.6699 12.4655 16.6646 12.703C16.6593 12.9351 16.4852 13.1093 16.2319 13.1093C15.6883 13.1146 15.1395 13.1146 14.596 13.1093C14.3427 13.1093 14.1738 12.9351 14.1738 12.6977C14.1738 12.4549 14.3321 12.2913 14.5907 12.2861C14.8704 12.2755 15.1501 12.2808 15.4298 12.2808Z" fill="black"/>
<path d="M15.4305 15.6106C15.1666 15.6106 14.8975 15.6106 14.6336 15.6106C14.3539 15.6053 14.1745 15.4417 14.1798 15.1884C14.1798 14.9404 14.3487 14.7821 14.6283 14.7821C15.1613 14.7768 15.6943 14.7768 16.2273 14.7821C16.4964 14.7821 16.6758 14.951 16.6758 15.1884C16.6758 15.4364 16.4911 15.6053 16.2167 15.6053C15.9476 15.6106 15.689 15.6106 15.4305 15.6106Z" fill="black"/>
<path d="M15.435 17.2781C15.6989 17.2781 15.968 17.2728 16.2319 17.2781C16.4905 17.2834 16.6593 17.447 16.6699 17.6792C16.6751 17.9166 16.4957 18.1013 16.2319 18.1013C15.6883 18.1066 15.1395 18.1066 14.596 18.1013C14.3427 18.1013 14.1738 17.9219 14.1738 17.6844C14.1738 17.4417 14.3321 17.2781 14.596 17.2728C14.8757 17.2728 15.1554 17.2781 15.435 17.2781Z" fill="black"/>
</svg>
