<svg width="29" height="25" viewBox="0 0 29 25" fill="none" xmlns="http://www.w3.org/2000/svg">
<path d="M16.3291 3.1696L16.3286 3.17007L15.2128 4.30286L14.5004 5.02614L13.788 4.30286L12.6722 3.17007L12.671 3.16889C10.1515 0.602502 6.11843 0.242404 3.45895 2.47505C0.353715 5.08652 0.188588 9.77873 2.96852 12.6102L13.9277 23.7589C13.9277 23.759 13.9278 23.759 13.9278 23.7591C14.244 24.0804 14.7514 24.0803 15.0675 23.7589L26.0271 12.6097L26.0273 12.6095C28.812 9.77823 28.647 5.0867 25.5421 2.47527L16.3291 3.1696ZM16.3291 3.1696C18.8548 0.602031 22.8825 0.242762 25.5416 2.47478L16.3291 3.1696Z" stroke="#404654" stroke-width="2"/>
</svg>
