<svg width="22" height="26" viewBox="0 0 22 26" fill="none" xmlns="http://www.w3.org/2000/svg">
<path d="M15.1788 16.5384C17.8424 12.3587 17.5076 12.8802 17.5844 12.7712C18.5541 11.4034 19.0667 9.79352 19.0667 8.11556C19.0667 3.66569 15.4557 0 11 0C6.55884 0 2.93333 3.65845 2.93333 8.11556C2.93333 9.79244 3.45664 11.4444 4.45818 12.8307L6.82108 16.5384C4.29474 16.9267 0 18.0836 0 20.6311C0 21.5598 0.606124 22.8832 3.4937 23.9144C5.50997 24.6345 8.17574 25.0311 11 25.0311C16.2812 25.0311 22 23.5414 22 20.6311C22 18.0832 17.7103 16.9274 15.1788 16.5384ZM5.68328 12.024C5.67522 12.0114 5.66681 11.999 5.65801 11.9869C4.8246 10.8404 4.4 9.48156 4.4 8.11556C4.4 4.44801 7.35318 1.46667 11 1.46667C14.6392 1.46667 17.6 4.44933 17.6 8.11556C17.6 9.48376 17.1834 10.7965 16.3951 11.9128C16.3244 12.006 16.693 11.4334 11 20.3666L5.68328 12.024ZM11 23.5644C5.2314 23.5644 1.46667 21.8688 1.46667 20.6311C1.46667 19.7992 3.4011 18.4314 7.68768 17.8982L10.3816 22.1253C10.5162 22.3366 10.7494 22.4644 11 22.4644C11.2505 22.4644 11.4838 22.3365 11.6183 22.1253L14.3122 17.8982C18.5988 18.4314 20.5333 19.7992 20.5333 20.6311C20.5333 21.8583 16.8025 23.5644 11 23.5644Z" fill="#404654"/>
<path d="M11.0002 4.44873C8.97836 4.44873 7.3335 6.0936 7.3335 8.1154C7.3335 10.1372 8.97836 11.7821 11.0002 11.7821C13.022 11.7821 14.6668 10.1372 14.6668 8.1154C14.6668 6.0936 13.022 4.44873 11.0002 4.44873ZM11.0002 10.3154C9.78708 10.3154 8.80016 9.32848 8.80016 8.1154C8.80016 6.90232 9.78708 5.9154 11.0002 5.9154C12.2132 5.9154 13.2002 6.90232 13.2002 8.1154C13.2002 9.32848 12.2132 10.3154 11.0002 10.3154Z" fill="#404654"/>
</svg>
