<svg width="112" height="40" viewBox="0 0 112 40" fill="none" xmlns="http://www.w3.org/2000/svg">
<path d="M48.4031 15.3093H43.4247V28.892C43.1081 28.9496 42.7628 28.9784 42.3599 29.0072C41.9571 29.0359 41.583 29.0647 41.2089 29.0647C40.0578 29.0647 39.252 28.7194 38.8204 28C38.3887 27.2805 38.1873 26.1295 38.1873 24.5179V15.3093H33.2089V25.1223C33.2089 26.3309 33.324 27.4244 33.583 28.4316C33.842 29.4388 34.2448 30.3021 34.8204 31.0215C35.3959 31.741 36.2017 32.3165 37.1801 32.7194C38.1873 33.1223 39.4247 33.3237 40.9211 33.3237C42.3887 33.3237 43.7988 33.2086 45.1513 33.0072C46.5038 32.8057 47.5973 32.5755 48.4319 32.3165V15.3093H48.4031ZM60.4607 29.1223C59.8563 29.0647 59.3671 28.9784 59.0218 28.8345C58.6765 28.6906 58.3887 28.4892 58.2161 28.2302C58.0146 27.9712 57.8995 27.6834 57.8419 27.3381C57.7844 26.9928 57.7556 26.5899 57.7556 26.1295V6.93521L52.7772 7.74097V27.1367C52.7772 28.0863 52.8635 28.9208 53.065 29.669C53.2664 30.4172 53.6117 31.0503 54.1297 31.5683C54.6477 32.0863 55.3671 32.4892 56.2592 32.7769C57.1513 33.0647 58.3312 33.2374 59.7988 33.2374L60.4607 29.1223ZM68.6333 6.93521L63.6549 7.74097V32.9208H68.6333V25.2086C69.1801 25.669 69.7556 26.2158 70.3312 26.8489C70.9067 27.482 71.4247 28.1726 71.9427 28.892C72.4607 29.5827 72.9499 30.3021 73.4103 30.9928C73.8707 31.7122 74.2736 32.3453 74.6189 32.9208H80.3455C79.9714 32.1726 79.511 31.3669 78.9355 30.4748C78.3887 29.5827 77.7556 28.6906 77.0938 27.7985C76.4319 26.9064 75.7412 26.0431 75.0218 25.2086C74.3024 24.3741 73.6117 23.6546 72.9499 23.0503C74.3024 21.7266 75.511 20.4604 76.6621 19.223C77.7844 17.9856 78.9355 16.6906 80.1153 15.3381H74.1873C73.8707 15.7122 73.4966 16.1726 73.065 16.6618C72.6333 17.1798 72.1729 17.6978 71.6837 18.2733C71.1945 18.8489 70.6765 19.4244 70.1585 20C69.6405 20.5755 69.1225 21.1223 68.6333 21.669V6.93521ZM88.3455 27.9712C87.7124 27.4532 86.993 27.1942 86.1873 27.1942C85.3815 27.1942 84.6621 27.4532 84.029 27.9712C83.3959 28.4892 83.0794 29.2661 83.0794 30.2733C83.0794 31.2805 83.3959 32.0287 84.029 32.5755C84.6621 33.0935 85.3815 33.3525 86.1873 33.3525C86.993 33.3525 87.7124 33.0935 88.3455 32.5755C88.9786 32.0575 89.2952 31.2805 89.2952 30.2733C89.2952 29.2661 88.9786 28.4892 88.3455 27.9712ZM91.511 25.7266C91.511 26.8777 91.6261 27.9136 91.8276 28.8345C92.029 29.7841 92.4031 30.5611 92.9499 31.223C93.4966 31.8848 94.1873 32.4028 95.0794 32.7769C95.9714 33.151 97.0938 33.3237 98.4463 33.3237C99.511 33.3237 100.432 33.2374 101.151 33.0647C101.899 32.892 102.561 32.6618 103.166 32.4316L102.475 28.5467C102.015 28.7194 101.497 28.8633 100.921 28.9784C100.346 29.0647 99.7988 29.1223 99.252 29.1223C98.1297 29.1223 97.3815 28.8057 97.0362 28.1726C96.6621 27.5395 96.4894 26.705 96.4894 25.669V19.482H102.475V15.3381H96.4894V10.1582L91.511 10.964V25.7266ZM109.813 37.4388C110.964 36.3165 111.511 34.5899 111.511 32.2877V15.3093H106.533V32.1438C106.533 33.0359 106.389 33.7266 106.072 34.187C105.756 34.6474 105.209 34.8777 104.432 34.8777C104 34.8777 103.655 34.8489 103.367 34.8201C103.079 34.7625 102.792 34.705 102.446 34.5899L101.784 38.6474C102.331 38.8201 102.907 38.9352 103.511 39.0215C104.115 39.0791 104.576 39.1079 104.892 39.1079C107.051 39.1079 108.691 38.5611 109.813 37.4388ZM111.108 8.05752C110.504 7.53953 109.813 7.28054 109.007 7.28054C108.202 7.28054 107.511 7.53953 106.907 8.05752C106.302 8.5755 106.015 9.29493 106.015 10.2158C106.015 11.1367 106.302 11.8561 106.907 12.3741C107.511 12.892 108.202 13.151 109.007 13.151C109.813 13.151 110.504 12.892 111.108 12.3741C111.712 11.8561 112 11.1367 112 10.2158C112 9.29493 111.684 8.5755 111.108 8.05752Z" fill="url(#paint0_linear_2401_2394)"/>
<path d="M48.403 32.3165C47.5684 32.5755 46.4749 32.777 45.1224 33.0072C43.7699 33.2374 42.3886 33.3237 40.8922 33.3237C39.3958 33.3237 38.1583 33.1223 37.1512 32.7194C36.144 32.3165 35.367 31.741 34.7914 31.0216C34.2159 30.3021 33.7842 29.4388 33.554 28.4316C33.295 27.4244 33.1799 26.3309 33.1799 25.1223V15.3093H38.1871V24.518C38.1871 26.1295 38.3886 27.2806 38.8202 28C39.2519 28.7194 40.0289 29.0647 41.2087 29.0647C41.554 29.0647 41.9569 29.036 42.3598 29.0072C42.7627 28.9784 43.108 28.9209 43.4245 28.8921V15.3093H48.403V32.3165ZM59.7699 33.2374C58.331 33.2086 57.1512 33.0647 56.2303 32.777C55.3382 32.4892 54.6188 32.0863 54.1008 31.5683C53.5828 31.0503 53.2087 30.4173 53.036 29.6691C52.8346 28.9208 52.7483 28.0863 52.7483 27.1367V7.74099L57.7267 6.93524V26.1295C57.7267 26.5899 57.7555 26.964 57.813 27.3381C57.8706 27.6834 58.0145 28 58.1871 28.2302C58.3886 28.4892 58.6476 28.6906 58.9929 28.8345C59.3382 28.9784 59.8274 29.0935 60.4317 29.1223L59.7699 33.2374ZM68.6619 21.6403C69.1511 21.0935 69.6691 20.5468 70.1871 19.9712C70.7051 19.3957 71.2231 18.8201 71.7123 18.2446C72.2015 17.6691 72.6619 17.1511 73.0936 16.6331C73.5252 16.1151 73.8994 15.6834 74.2159 15.3093H80.144C78.9641 16.6619 77.813 17.9568 76.6907 19.1942C75.5684 20.4316 74.331 21.6978 72.9785 23.0216C73.6404 23.6259 74.331 24.3453 75.0504 25.1798C75.7699 26.0144 76.4605 26.8777 77.1224 27.7698C77.7842 28.6619 78.4173 29.5539 78.9641 30.446C79.5109 31.3381 80.0001 32.1439 80.3742 32.8921H74.6476C74.3022 32.3165 73.8706 31.6547 73.4389 30.964C72.9785 30.2734 72.4893 29.5539 71.9713 28.8633C71.4533 28.1726 70.9065 27.482 70.3598 26.8201C69.813 26.1583 69.2375 25.6115 68.6619 25.1798V32.8921H63.6835V7.71222L68.6619 6.90646V21.6403ZM89.3238 30.2734C89.3238 31.2806 89.0073 32.0288 88.3742 32.5755C87.7411 33.1223 87.0217 33.3525 86.2159 33.3525C85.4101 33.3525 84.6907 33.0935 84.0576 32.5755C83.4245 32.0575 83.108 31.2806 83.108 30.2734C83.108 29.2662 83.4245 28.518 84.0576 27.9712C84.6907 27.4532 85.4101 27.1942 86.2159 27.1942C87.0217 27.1942 87.7411 27.4532 88.3742 27.9712C89.0073 28.4892 89.3238 29.2662 89.3238 30.2734ZM91.5109 10.9065L96.4893 10.1007V15.2806H102.475V19.4244H96.4893V25.6115C96.4893 26.6475 96.6619 27.5108 97.036 28.1151C97.4101 28.7482 98.1583 29.0647 99.2519 29.0647C99.7986 29.0647 100.345 29.0072 100.921 28.9208C101.496 28.8345 102.014 28.6906 102.475 28.4892L103.166 32.3741C102.561 32.6331 101.899 32.8345 101.151 33.0072C100.403 33.1798 99.5109 33.2662 98.4461 33.2662C97.0936 33.2662 95.9713 33.0935 95.0792 32.7194C94.1871 32.3453 93.4677 31.8273 92.9497 31.1655C92.4029 30.5036 92.0289 29.6978 91.8274 28.777C91.626 27.8273 91.5109 26.7914 91.5109 25.6691V10.9065ZM104.892 39.1079C104.576 39.1079 104.115 39.0791 103.511 39.0216C102.907 38.964 102.331 38.8201 101.784 38.6475L102.446 34.5899C102.791 34.705 103.079 34.7913 103.367 34.8201C103.655 34.8777 104 34.8777 104.432 34.8777C105.209 34.8777 105.755 34.6475 106.072 34.187C106.389 33.7266 106.532 33.036 106.532 32.1439V15.3093H111.511V32.2878C111.511 34.6187 110.935 36.3165 109.813 37.4388C108.691 38.5324 107.05 39.1079 104.892 39.1079ZM112 10.2158C112 11.1367 111.712 11.8561 111.108 12.3741C110.504 12.8921 109.813 13.1511 109.007 13.1511C108.201 13.1511 107.511 12.8921 106.907 12.3741C106.302 11.8561 106.014 11.1367 106.014 10.2158C106.014 9.29495 106.302 8.57553 106.907 8.05754C107.511 7.53956 108.201 7.28057 109.007 7.28057C109.813 7.28057 110.504 7.53956 111.108 8.05754C111.712 8.57553 112 9.29495 112 10.2158Z" fill="url(#paint1_linear_2401_2394)"/>
<path d="M31.165 13.8417H23.0499L15.5967 7.22302L19.6542 3.6259L31.165 13.8417ZM15.5967 7.22302L19.6542 3.6259L15.5967 0.0287743L0.0283203 13.8705H8.14343L15.5967 7.22302ZM27.1938 0H22.3017V4.14388L27.1938 8.28777V0Z" fill="#E52621"/>
<path d="M27.5683 35.5683H3.56834C1.58273 35.5683 0 33.9568 0 32V13.8417L15.5683 7.25177L31.1367 13.8417V32C31.1655 33.9856 29.554 35.5683 27.5683 35.5683Z" fill="#E52621"/>
<path d="M13.1225 23.6834C13.1225 22.1007 12.921 20.9784 12.5181 20.3165C12.1153 19.6547 11.3958 19.3093 10.4174 19.3093C10.1009 19.3093 9.78434 19.3381 9.4678 19.3669C9.12247 19.3957 8.80592 19.4245 8.51815 19.482V32.9209H3.59729V16.0863C4.02894 15.9712 4.51815 15.8561 5.06491 15.741C5.64045 15.6259 6.216 15.5108 6.84909 15.3957C7.48218 15.3093 8.11527 15.223 8.77714 15.1655C9.43901 15.1079 10.1009 15.0791 10.734 15.0791C12.0002 15.0791 13.0074 15.2518 13.7843 15.5683C14.5613 15.8849 15.2232 16.259 15.7124 16.7194C16.4318 16.2014 17.2376 15.8273 18.1584 15.5396C19.0793 15.2518 19.9138 15.1079 20.6908 15.1079C22.0721 15.1079 23.2232 15.3093 24.1153 15.6834C25.0074 16.0575 25.7268 16.6043 26.2448 17.3237C26.7628 18.0432 27.1369 18.8777 27.3383 19.8273C27.5397 20.8057 27.6261 21.8705 27.6261 23.0791V32.9209H22.7052V23.6834C22.7052 22.1007 22.5038 20.9784 22.1009 20.3165C21.698 19.6547 20.9786 19.3093 20.0002 19.3093C19.7412 19.3093 19.3671 19.3669 18.8779 19.5108C18.3887 19.6547 18.0146 19.7985 17.698 20C17.8419 20.518 17.957 21.036 17.9858 21.6115C18.0433 22.187 18.0433 22.7626 18.0433 23.4245V32.9209H13.1225V23.6834Z" fill="white"/>
<defs>
<linearGradient id="paint0_linear_2401_2394" x1="33.1901" y1="23.0231" x2="111.993" y2="23.0231" gradientUnits="userSpaceOnUse">
<stop stop-color="#1B7BBF"/>
<stop offset="0.6872" stop-color="#58A8DE"/>
<stop offset="1" stop-color="#1B7BBF"/>
</linearGradient>
<linearGradient id="paint1_linear_2401_2394" x1="33.199" y1="23.0191" x2="112.002" y2="23.0191" gradientUnits="userSpaceOnUse">
<stop stop-color="#1B7BBF"/>
<stop offset="0.6872" stop-color="#58A8DE"/>
<stop offset="1" stop-color="#1B7BBF"/>
</linearGradient>
</defs>
</svg>
