<svg width="25" height="24" viewBox="0 0 25 24" fill="none" xmlns="http://www.w3.org/2000/svg">
<path d="M0.816406 21.796C0.816406 15.9081 0.816406 10.0201 0.816406 4.13216C1.14214 2.98485 1.94072 2.67788 2.92457 2.68878C5.69327 2.71845 8.46257 2.69908 11.2319 2.69908C11.3281 2.69908 11.4244 2.69908 11.5195 2.69908C11.5401 2.61371 11.5564 2.55558 11.5679 2.49686C11.7707 1.44823 12.3592 0.698078 13.3316 0.262763C13.5961 0.144096 13.8874 0.0859732 14.1665 0C14.4087 0 14.6508 0 14.893 0C14.9269 0.0133198 14.9602 0.0332995 14.9959 0.0393539C16.2771 0.245205 17.2542 1.17699 17.4982 2.45932C17.5388 2.67122 17.6199 2.70271 17.804 2.7021C19.294 2.69665 20.7846 2.69544 22.2746 2.70029C23.1664 2.70331 23.7967 3.19736 24.0262 4.05467C24.0334 4.08191 24.0522 4.10613 24.0661 4.13216C24.0661 10.0201 24.0661 15.9081 24.0661 21.796C23.9111 22.3694 23.5884 22.8102 23.0459 23.0723C22.9061 23.1401 22.7577 23.1904 22.613 23.2491C15.8321 23.2491 9.05107 23.2491 2.27008 23.2491C1.82205 23.1365 1.41035 22.9482 1.15546 22.548C1.00833 22.3185 0.927203 22.0479 0.816406 21.796ZM5.51345 3.39049C8.54492 6.42196 11.5606 9.43768 14.606 12.4831C14.6417 12.4365 14.6823 12.3717 14.735 12.3178C15.9846 11.0421 17.2355 9.76704 18.4863 8.49258C18.5499 8.4278 18.6104 8.35757 18.6837 8.3061C18.8272 8.205 18.9725 8.2274 19.0966 8.34425C19.2201 8.46049 19.2558 8.60217 19.1626 8.75353C19.1196 8.82315 19.0579 8.88249 18.9997 8.94122C17.6442 10.3247 16.288 11.7081 14.9312 13.0909C14.6321 13.3961 14.5086 13.3955 14.1992 13.0861C13.113 11.9999 12.0268 10.9138 10.9401 9.82759C8.84219 7.73033 6.74553 5.63185 4.64403 3.53822C4.56714 3.46133 4.44423 3.38928 4.3407 3.38626C3.751 3.37173 3.16008 3.37475 2.57038 3.38262C2.41963 3.38444 2.26887 3.425 2.0721 3.45467C2.16958 3.55699 2.22467 3.61693 2.28219 3.67445C3.48581 4.87868 4.69005 6.08291 5.89367 7.28653C6.21335 7.60681 6.21456 7.72003 5.90033 8.03426C4.48238 9.45221 3.06261 10.869 1.65071 12.293C1.56716 12.3771 1.50661 12.523 1.50419 12.6417C1.49087 13.3525 1.49693 14.0645 1.49814 14.7759C1.49814 14.8298 1.50904 14.8837 1.52236 15.0035C1.61317 14.8933 1.66161 14.8237 1.72034 14.7656C3.53364 12.9505 5.34756 11.1372 7.16208 9.32325C7.49205 8.99329 7.59982 8.99207 7.92615 9.31841C10.1094 11.5016 12.2926 13.6849 14.4759 15.8681C16.6591 18.0514 18.8417 20.2352 21.0274 22.416C21.0958 22.4844 21.1975 22.5571 21.2871 22.5607C21.6649 22.5758 22.0439 22.5777 22.4217 22.5619C22.7565 22.548 23.0211 22.3894 23.2233 22.0854C23.1507 22.0219 23.0847 21.9704 23.026 21.9117C20.7622 19.6485 18.4972 17.3866 16.2395 15.1174C16.1433 15.0205 16.0633 14.8631 16.0615 14.7323C16.0597 14.6294 16.1772 14.5113 16.2637 14.4217C18.588 12.0169 20.9148 9.61387 23.2445 7.21388C23.3474 7.10732 23.3904 7.00258 23.388 6.85606C23.3801 6.37958 23.385 5.90249 23.385 5.426C23.385 5.12691 23.385 4.82782 23.385 4.53176C23.0048 4.89745 22.6312 5.24618 22.2698 5.60763C21.6819 6.19673 21.1037 6.79612 20.5188 7.38825C20.3202 7.58926 20.0992 7.58986 19.9582 7.3937C19.8268 7.21146 19.8891 7.05828 20.0338 6.91116C20.7247 6.21066 21.407 5.50229 22.1027 4.80663C22.4496 4.45971 22.8183 4.13519 23.1828 3.79554C22.9085 3.47768 22.6282 3.37899 22.3031 3.37899C20.7822 3.37899 19.2607 3.38081 17.7398 3.37596C17.5891 3.37536 17.54 3.41774 17.5188 3.57455C17.2984 5.18624 16.7069 6.65203 15.734 7.95555C15.5517 8.19955 15.3108 8.40964 15.0662 8.5949C14.7289 8.85101 14.353 8.84495 14.0115 8.59853C13.7929 8.44112 13.5852 8.25525 13.4139 8.04879C12.8575 7.37856 12.487 6.60056 12.1637 5.79835C11.8519 5.02459 11.6291 4.22661 11.5286 3.38868C9.51968 3.39049 7.52474 3.39049 5.51345 3.39049ZM7.52656 9.93596C7.50234 9.95715 7.46117 9.98924 7.42424 10.0262C5.48742 11.9624 3.54999 13.898 1.61802 15.8397C1.549 15.9087 1.50238 16.034 1.50238 16.1333C1.49572 17.9109 1.49632 19.6891 1.49814 21.4667C1.49874 22.1466 1.92195 22.568 2.6055 22.568C8.39295 22.5686 14.1804 22.5686 19.9679 22.568C20.0308 22.568 20.0944 22.5613 20.1519 22.5577C15.9404 18.3468 11.7374 14.1456 7.52656 9.93596ZM23.3662 21.2457C23.3662 16.8647 23.3662 12.4837 23.3662 8.06514C21.1824 10.3198 19.0264 12.5466 16.8819 14.7608C19.0524 16.9319 21.2072 19.0867 23.3662 21.2457ZM14.5455 0.681731C13.0652 0.677493 11.9978 1.98344 12.2333 3.51219C12.4331 4.80724 12.8956 6.00602 13.5834 7.1158C13.7572 7.39612 13.9721 7.65707 14.201 7.89501C14.4662 8.17109 14.5939 8.15838 14.8712 7.90106C14.976 7.80358 15.0795 7.70066 15.1642 7.58623C16.133 6.27484 16.7324 4.8145 16.871 3.18525C16.9854 1.83934 15.895 0.685364 14.5455 0.681731ZM1.54476 3.96809C1.44486 5.22742 1.51267 6.46373 1.50056 7.69703C1.48845 8.93879 1.49753 10.1806 1.49753 11.412C2.76291 10.1467 4.01437 8.89581 5.24221 7.66796C4.03495 6.4595 2.81195 5.2365 1.54476 3.96809Z" fill="black"/>
<path d="M10.676 16.3603C10.6451 17.2322 10.3133 18.2784 9.8592 19.2919C9.56496 19.9494 9.21985 20.5797 8.74579 21.1264C8.58898 21.3074 8.40493 21.4709 8.21179 21.6132C7.85518 21.8759 7.47072 21.8796 7.11896 21.6138C6.88586 21.4382 6.65337 21.2396 6.48445 21.0059C5.45035 19.5758 4.79102 17.9872 4.65359 16.2205C4.48225 14.0197 6.77446 12.4031 8.81421 13.2556C9.08787 13.37 9.17566 13.5244 9.08605 13.7345C8.99463 13.9494 8.8354 13.9955 8.55386 13.8871C7.16679 13.3543 5.70767 14.1159 5.38133 15.5454C5.26751 16.0449 5.33774 16.5395 5.44854 17.0281C5.7446 18.331 6.23804 19.548 7.04691 20.6233C7.11472 20.7135 7.19343 20.7964 7.27395 20.8763C7.59908 21.1984 7.74015 21.2015 8.06406 20.8691C8.56113 20.3581 8.90139 19.7429 9.19624 19.1024C9.61824 18.1839 9.9361 17.2352 9.99604 16.2156C10.0203 15.8082 9.95486 15.4189 9.78231 15.0465C9.67697 14.8201 9.73751 14.6403 9.93065 14.5525C10.128 14.4635 10.2891 14.5367 10.4017 14.768C10.5948 15.1676 10.6862 15.609 10.676 16.3603Z" fill="black"/>
<path d="M7.67958 14.5295C8.54961 14.5349 9.26161 15.2578 9.25556 16.1296C9.2495 17.013 8.52539 17.7201 7.6372 17.7105C6.76718 17.7008 6.07092 16.9809 6.07818 16.0988C6.08605 15.2239 6.79987 14.524 7.67958 14.5295ZM6.75931 16.1302C6.76294 16.6352 7.16859 17.0336 7.67413 17.0293C8.17181 17.0251 8.58109 16.6067 8.57443 16.1097C8.56777 15.609 8.15546 15.2063 7.65355 15.2106C7.15042 15.2148 6.75567 15.6211 6.75931 16.1302Z" fill="black"/>
<path d="M14.55 4.68192C13.6739 4.68615 12.9577 3.98323 12.9474 3.10897C12.9371 2.23168 13.6612 1.49969 14.5397 1.49969C15.4146 1.49969 16.1229 2.20928 16.1248 3.08717C16.1266 3.9681 15.4261 4.67768 14.55 4.68192ZM14.5409 4.00079C15.0458 4.00018 15.4442 3.59938 15.4436 3.09081C15.443 2.58526 15.0398 2.18022 14.5373 2.18143C14.0402 2.18264 13.6273 2.59737 13.6285 3.09444C13.6297 3.59514 14.0378 4.00079 14.5409 4.00079Z" fill="black"/>
</svg>
