<svg width="26" height="26" viewBox="0 0 26 26" fill="none" xmlns="http://www.w3.org/2000/svg">
<path fill-rule="evenodd" clip-rule="evenodd" d="M7.12459 6.43398C7.12459 9.67383 9.76014 12.3094 13 12.3094C16.2398 12.3094 18.8754 9.67383 18.8754 6.43398C18.8754 3.19414 16.2398 0.558594 13 0.558594C9.76014 0.558594 7.12459 3.19414 7.12459 6.43398ZM9.19647 6.43398C9.19647 4.33672 10.9027 2.63047 13 2.63047C15.0972 2.63047 16.8035 4.33672 16.8035 6.43398C16.8035 8.53125 15.0972 10.2375 13 10.2375C10.9027 10.2375 9.19647 8.53125 9.19647 6.43398ZM1.59453 25.4414H24.4055C24.9793 25.4414 25.4414 24.9793 25.4414 24.4055C25.4414 21.0184 24.1211 17.8445 21.7293 15.468C20.1855 13.9344 18.0121 13.0559 15.7574 13.0559H10.2426C7.99297 13.0559 5.81445 13.9344 4.2707 15.468C1.87891 17.8445 0.558594 21.0184 0.558594 24.4055C0.558594 24.9793 1.0207 25.4414 1.59453 25.4414ZM23.3188 23.3695H2.68125C2.91484 20.932 3.98125 18.6774 5.7332 16.9406C6.89102 15.793 8.53125 15.1328 10.2426 15.1328H15.7574C17.4637 15.1328 19.109 15.793 20.2668 16.9406C22.0188 18.6774 23.0852 20.932 23.3188 23.3695Z" fill="#404654"/>
</svg>
