<svg width="25" height="24" viewBox="0 0 25 24" fill="none" xmlns="http://www.w3.org/2000/svg">
<path d="M24.6939 22.2955L18.6837 16.5257C20.1735 14.782 21.0714 12.5486 21.0714 10.1143C21.0714 4.53061 16.352 0 10.5357 0C4.71429 0 0 4.53061 0 10.1143C0 15.698 4.71429 20.2286 10.5357 20.2286C13.0714 20.2286 15.3929 19.3714 17.2092 17.9412L23.2194 23.7061C23.6276 24.098 24.2857 24.098 24.6939 23.7061C25.102 23.3192 25.102 22.6824 24.6939 22.2955ZM10.5357 18.2155C5.87755 18.2155 2.09184 14.5812 2.09184 10.1143C2.09184 5.64735 5.87755 2.00816 10.5357 2.00816C15.1888 2.00816 18.9796 5.64735 18.9796 10.1143C18.9796 14.5812 15.1888 18.2155 10.5357 18.2155Z" fill="#404654"/>
</svg>
