<svg width="15" height="11" viewBox="0 0 15 11" fill="none" xmlns="http://www.w3.org/2000/svg">
<path d="M11.4177 4.20274V1.19646C11.4177 0.536608 10.8787 0 10.2159 0H1.20185C0.539009 0 0 0.53658 0 1.19646V7.17871C0 7.83856 0.539009 8.37517 1.20188 8.37517H7.94027C8.33395 9.75407 9.6076 10.7681 11.1173 10.7681C11.6983 10.7681 12.2696 10.6159 12.7701 10.3276C12.9136 10.2449 12.9629 10.0621 12.8796 9.91893C12.7965 9.7758 12.6126 9.72642 12.4691 9.80998C12.06 10.0454 11.5926 10.1698 11.1173 10.1698C9.62605 10.1698 8.41305 8.96228 8.41305 7.47783C8.41305 5.99338 9.62608 4.78581 11.1173 4.78581C12.6084 4.78581 13.8215 5.99338 13.8215 7.47783V7.77695C13.8215 8.10672 13.5518 8.37517 13.2205 8.37517C12.8893 8.37517 12.6196 8.10672 12.6196 7.77695V6.58049C12.6196 6.41516 12.4852 6.28137 12.3191 6.28137C12.2383 6.28137 12.1657 6.31392 12.1118 6.36549C11.8462 6.12991 11.5001 5.98225 11.1173 5.98225C10.2889 5.98225 9.61493 6.6532 9.61493 7.4778C9.61493 8.3024 10.2889 8.97338 11.1173 8.97338C11.5651 8.97338 11.9632 8.77342 12.2387 8.46297C12.4563 8.77078 12.8145 8.97338 13.2206 8.97338C13.8834 8.97338 14.4224 8.4368 14.4224 7.77692V7.4778C14.4224 5.76453 13.0997 4.35456 11.4177 4.20274ZM1.20188 0.598216H10.2159C10.2284 0.598216 10.2389 0.604582 10.2512 0.605339L5.95595 4.11514C5.80308 4.21096 5.58153 4.19107 5.48206 4.13034L1.16692 0.605283C1.17912 0.604554 1.18948 0.598216 1.20188 0.598216ZM10.8168 4.20274C9.13482 4.35456 7.81213 5.76453 7.81213 7.47783C7.81213 7.57878 7.81835 7.67827 7.82734 7.77695H1.20188C0.870612 7.77695 0.600952 7.50851 0.600952 7.17873V1.19646C0.600952 1.11175 0.619741 1.03174 0.651797 0.958666L5.12734 4.61232C5.30221 4.72594 5.50322 4.78584 5.70891 4.78584C5.90668 4.78584 6.10003 4.73035 6.27023 4.62519C6.28724 4.61613 6.30338 4.60534 6.31865 4.59277L10.7659 0.95861C10.798 1.03174 10.8168 1.11175 10.8168 1.19649V4.20274H10.8168ZM11.1173 8.37517C10.6202 8.37517 10.2159 7.97265 10.2159 7.47783C10.2159 6.983 10.6202 6.58049 11.1173 6.58049C11.6143 6.58049 12.0187 6.983 12.0187 7.47783C12.0187 7.97265 11.6143 8.37517 11.1173 8.37517Z" fill="url(#paint0_linear)"/>
<defs>
<linearGradient id="paint0_linear" x1="0.00349108" y1="5.38801" x2="14.4228" y2="5.38801" gradientUnits="userSpaceOnUse">
<stop stop-color="#1B7BBF"/>
<stop offset="0.6872" stop-color="#58A8DE"/>
<stop offset="1" stop-color="#1B7BBF"/>
</linearGradient>
</defs>
</svg>
