<svg width="24" height="24" viewBox="0 0 24 24" fill="none" xmlns="http://www.w3.org/2000/svg">
<circle cx="12" cy="12" r="12" fill="#4EA2DA"/>
<path d="M5 9.84667L11.7798 12.925C11.8478 12.9559 11.9233 12.972 12 12.972C12.0767 12.972 12.1522 12.9559 12.2202 12.925L19 9.84722V15.1944C19 15.6556 18.7979 16.0993 18.4351 16.4346C18.0723 16.7698 17.5763 16.9711 17.0489 16.9972L16.9318 17H7.06818C6.53991 17 6.03165 16.8236 5.64767 16.5068C5.26369 16.1901 5.03309 15.7571 5.00318 15.2967L5 15.1944V9.84667ZM7.06818 7H16.9318C17.4601 6.99997 17.9683 7.17642 18.3523 7.49315C18.7363 7.80988 18.9669 8.24289 18.9968 8.70333L19 8.80556V8.90778L12 12.0856L5 8.90778V8.80556C4.99997 8.34437 5.20208 7.90065 5.56488 7.56543C5.92768 7.2302 6.42367 7.02889 6.95109 7.00278L7.06818 7H16.9318H7.06818Z" fill="white"/>
</svg>
