<svg width="24" height="24" viewBox="0 0 24 24" fill="none" xmlns="http://www.w3.org/2000/svg">
<circle cx="12" cy="12" r="12" fill="url(#paint0_linear_2601_11403)"/>
<path d="M12 5C10.0983 5 9.86092 5.00875 9.11425 5.042C8.36875 5.077 7.86125 5.19425 7.415 5.3675C6.95475 5.546 6.56392 5.78575 6.17483 6.17483C5.78575 6.56392 5.54542 6.95417 5.3675 7.415C5.19425 7.86125 5.07642 8.36875 5.042 9.11425C5.007 9.86092 5 10.0983 5 12C5 13.9017 5.00875 14.1391 5.042 14.8857C5.077 15.6307 5.19425 16.1388 5.3675 16.585C5.54325 17.0522 5.81876 17.4754 6.17483 17.8252C6.52441 18.1815 6.94769 18.457 7.415 18.6325C7.86183 18.8052 8.36933 18.9236 9.11425 18.958C9.86092 18.993 10.0983 19 12 19C13.9017 19 14.1391 18.9912 14.8857 18.958C15.6307 18.923 16.1388 18.8052 16.585 18.6325C17.0521 18.4565 17.4752 18.181 17.8252 17.8252C18.1816 17.4757 18.4572 17.0524 18.6325 16.585C18.8052 16.1388 18.9236 15.6307 18.958 14.8857C18.993 14.1391 19 13.9017 19 12C19 10.0983 18.9912 9.86092 18.958 9.11425C18.923 8.36933 18.8052 7.86067 18.6325 7.415C18.4567 6.94788 18.1812 6.52467 17.8252 6.17483C17.4758 5.81821 17.0525 5.54261 16.585 5.3675C16.1388 5.19425 15.6307 5.07642 14.8857 5.042C14.1391 5.007 13.9017 5 12 5ZM12 6.26C13.8684 6.26 14.0912 6.26933 14.8292 6.30142C15.5117 6.3335 15.8821 6.44667 16.1282 6.5435C16.4561 6.67008 16.6882 6.82175 16.9344 7.06617C17.1788 7.31117 17.3305 7.54392 17.4571 7.87175C17.5527 8.11792 17.6671 8.48833 17.698 9.17083C17.7312 9.90933 17.7388 10.131 17.7388 12C17.7388 13.869 17.7301 14.0912 17.6957 14.8292C17.6601 15.5117 17.5463 15.8821 17.4501 16.1282C17.3362 16.432 17.1572 16.7072 16.9257 16.9344C16.6994 17.1662 16.4244 17.3447 16.1207 17.4571C15.8757 17.5527 15.4994 17.6671 14.8169 17.698C14.0737 17.7312 13.855 17.7388 11.9825 17.7388C10.1094 17.7388 9.89067 17.7301 9.14808 17.6957C8.465 17.6601 8.08875 17.5463 7.84375 17.4501C7.53978 17.3376 7.26489 17.1584 7.03933 16.9257C6.80517 16.7009 6.62558 16.4256 6.51433 16.1207C6.41808 15.8757 6.30492 15.4994 6.26933 14.8169C6.24308 14.0819 6.23375 13.855 6.23375 11.9912C6.23375 10.1269 6.24308 9.89942 6.26933 9.15567C6.30492 8.47317 6.41808 8.0975 6.51433 7.8525C6.63683 7.52 6.79375 7.2925 7.03933 7.04692C7.28375 6.8025 7.51183 6.645 7.84375 6.52308C8.08875 6.42625 8.45683 6.3125 9.13933 6.2775C9.88308 6.25125 10.1018 6.2425 11.9737 6.2425L12 6.26ZM12 8.4055C11.528 8.4055 11.0605 8.49847 10.6244 8.67912C10.1883 8.85976 9.79208 9.12452 9.4583 9.4583C9.12452 9.79208 8.85976 10.1883 8.67911 10.6244C8.49847 11.0605 8.4055 11.528 8.4055 12C8.4055 12.472 8.49847 12.9395 8.67911 13.3756C8.85976 13.8117 9.12452 14.2079 9.4583 14.5417C9.79208 14.8755 10.1883 15.1402 10.6244 15.3209C11.0605 15.5015 11.528 15.5945 12 15.5945C12.9533 15.5945 13.8676 15.2158 14.5417 14.5417C15.2158 13.8676 15.5945 12.9533 15.5945 12C15.5945 11.0467 15.2158 10.1324 14.5417 9.4583C13.8676 8.7842 12.9533 8.4055 12 8.4055ZM12 14.3333C10.7108 14.3333 9.66667 13.2892 9.66667 12C9.66667 10.7108 10.7108 9.66667 12 9.66667C13.2892 9.66667 14.3333 10.7108 14.3333 12C14.3333 13.2892 13.2892 14.3333 12 14.3333ZM16.5768 8.26375C16.5687 8.48111 16.4767 8.68688 16.32 8.83779C16.1634 8.98871 15.9543 9.07302 15.7368 9.07302C15.5193 9.07302 15.3103 8.98871 15.1536 8.83779C14.997 8.68688 14.9049 8.48111 14.8968 8.26375C14.8968 8.04097 14.9853 7.82731 15.1429 7.66978C15.3004 7.51225 15.5141 7.42375 15.7368 7.42375C15.9596 7.42375 16.1733 7.51225 16.3308 7.66978C16.4883 7.82731 16.5768 8.04097 16.5768 8.26375Z" fill="#F8F8F8"/>
<defs>
<linearGradient id="paint0_linear_2601_11403" x1="19" y1="2" x2="3.5" y2="20" gradientUnits="userSpaceOnUse">
<stop stop-color="#5857CA"/>
<stop offset="0.329846" stop-color="#AF31BC"/>
<stop offset="0.605836" stop-color="#FF6842"/>
<stop offset="1" stop-color="#FFD955"/>
</linearGradient>
</defs>
</svg>
