<svg width="21" height="20" viewBox="0 0 21 20" fill="none" xmlns="http://www.w3.org/2000/svg">
<g clip-path="url(#clip0)">
<path d="M14.5942 0H7.09424C3.64299 0 0.844238 2.79875 0.844238 6.25V13.75C0.844238 17.2013 3.64299 20 7.09424 20H14.5942C18.0455 20 20.8442 17.2013 20.8442 13.75V6.25C20.8442 2.79875 18.0455 0 14.5942 0ZM18.9692 13.75C18.9692 16.1625 17.0067 18.125 14.5942 18.125H7.09424C4.68174 18.125 2.71924 16.1625 2.71924 13.75V6.25C2.71924 3.8375 4.68174 1.875 7.09424 1.875H14.5942C17.0067 1.875 18.9692 3.8375 18.9692 6.25V13.75Z" fill="url(#paint0_linear)"/>
<path d="M10.8442 5C8.08299 5 5.84424 7.23875 5.84424 10C5.84424 12.7613 8.08299 15 10.8442 15C13.6055 15 15.8442 12.7613 15.8442 10C15.8442 7.23875 13.6055 5 10.8442 5ZM10.8442 13.125C9.12174 13.125 7.71924 11.7225 7.71924 10C7.71924 8.27625 9.12174 6.875 10.8442 6.875C12.5667 6.875 13.9692 8.27625 13.9692 10C13.9692 11.7225 12.5667 13.125 10.8442 13.125Z" fill="url(#paint1_linear)"/>
<path d="M16.2192 5.29124C16.5872 5.29124 16.8855 4.99295 16.8855 4.62499C16.8855 4.25703 16.5872 3.95874 16.2192 3.95874C15.8513 3.95874 15.553 4.25703 15.553 4.62499C15.553 4.99295 15.8513 5.29124 16.2192 5.29124Z" fill="url(#paint2_linear)"/>
</g>
<defs>
<linearGradient id="paint0_linear" x1="0.849079" y1="10.0074" x2="20.8448" y2="10.0074" gradientUnits="userSpaceOnUse">
<stop stop-color="#1B7BBF"/>
<stop offset="0.6872" stop-color="#58A8DE"/>
<stop offset="1" stop-color="#1B7BBF"/>
</linearGradient>
<linearGradient id="paint1_linear" x1="5.84666" y1="10.0037" x2="15.8445" y2="10.0037" gradientUnits="userSpaceOnUse">
<stop stop-color="#1B7BBF"/>
<stop offset="0.6872" stop-color="#58A8DE"/>
<stop offset="1" stop-color="#1B7BBF"/>
</linearGradient>
<linearGradient id="paint2_linear" x1="15.5533" y1="4.62548" x2="16.8855" y2="4.62548" gradientUnits="userSpaceOnUse">
<stop stop-color="#1B7BBF"/>
<stop offset="0.6872" stop-color="#58A8DE"/>
<stop offset="1" stop-color="#1B7BBF"/>
</linearGradient>
<clipPath id="clip0">
<rect width="20" height="20" fill="white" transform="translate(0.844238)"/>
</clipPath>
</defs>
</svg>
