<svg width="24" height="24" viewBox="0 0 24 24" fill="none" xmlns="http://www.w3.org/2000/svg">
<circle cx="12" cy="12" r="12" fill="#4EA2DA"/>
<path d="M18 14.991V16.7964C18 17.1156 17.8732 17.4218 17.6475 17.6475C17.4217 17.8732 17.1156 18 16.7963 18H16.682C14.83 17.7988 13.0511 17.166 11.4881 16.1525C10.0342 15.2282 8.8014 13.9955 7.87706 12.5417C6.85028 10.97 6.20898 9.1782 6.00534 7.31199C5.99043 7.15427 6.00681 6.99516 6.05353 6.84379C6.10025 6.69241 6.17639 6.55175 6.2776 6.42986C6.3788 6.30798 6.50307 6.20727 6.64329 6.13351C6.7835 6.05976 6.93689 6.01441 7.09467 6.00006H9.00852C9.3006 5.99718 9.58375 6.10061 9.80521 6.29105C10.0267 6.48149 10.1713 6.74596 10.2122 7.03516C10.2892 7.61278 10.4305 8.17998 10.6335 8.72622C10.7145 8.94162 10.732 9.17572 10.684 9.40077C10.636 9.62583 10.5245 9.8324 10.3627 9.99603L9.59832 10.7603C10.4551 12.267 11.7026 13.5144 13.2094 14.3711L13.9737 13.6068C14.1373 13.445 14.3439 13.3335 14.569 13.2855C14.7941 13.2375 15.0282 13.2551 15.2436 13.336C15.7899 13.539 16.3571 13.6803 16.9347 13.7573C17.2271 13.7985 17.4941 13.9458 17.685 14.171C17.8758 14.3963 17.9772 14.6838 17.9699 14.979L18 14.991Z" fill="white"/>
</svg>
