<svg width="13" height="13" viewBox="0 0 13 13" fill="none" xmlns="http://www.w3.org/2000/svg">
<path d="M10.212 7.98798C9.94722 7.71308 9.62785 7.5661 9.28937 7.5661C8.95362 7.5661 8.63152 7.71036 8.35583 7.98525L7.49325 8.84261C7.42228 8.80451 7.35131 8.76912 7.28307 8.73374C7.1848 8.68475 7.09199 8.63848 7.01283 8.58949C6.20485 8.07779 5.47057 7.41096 4.76631 6.54816C4.4251 6.11812 4.19581 5.75613 4.0293 5.38869C4.25314 5.18456 4.46059 4.97226 4.66259 4.76813C4.73902 4.69192 4.81545 4.61299 4.89188 4.53678C5.46511 3.96521 5.46511 3.22489 4.89188 2.65332L4.14668 1.91028C4.06206 1.8259 3.97471 1.73881 3.89282 1.65171C3.72904 1.48296 3.55707 1.30877 3.37964 1.14546C3.11486 0.884171 2.79822 0.745361 2.4652 0.745361C2.13218 0.745361 1.81008 0.884171 1.53712 1.14546C1.53439 1.14818 1.53439 1.14818 1.53166 1.1509L0.60357 2.08447C0.254173 2.43286 0.0549069 2.85745 0.0112322 3.35009C-0.0542798 4.14485 0.180472 4.88517 0.36063 5.36964C0.802836 6.55905 1.46342 7.66137 2.44883 8.84261C3.64442 10.2661 5.08295 11.3902 6.72621 12.1822C7.35404 12.4789 8.19205 12.83 9.12832 12.8899C9.18565 12.8926 9.2457 12.8953 9.30029 12.8953C9.93084 12.8953 10.4604 12.6694 10.8753 12.2203C10.878 12.2149 10.8835 12.2122 10.8862 12.2067C11.0282 12.0352 11.192 11.8801 11.3639 11.7141C11.4813 11.6025 11.6014 11.4854 11.7188 11.363C11.989 11.0826 12.131 10.756 12.131 10.4212C12.131 10.0837 11.9863 9.75984 11.7106 9.48767L10.212 7.98798ZM11.1892 10.854C11.1865 10.854 11.1865 10.8567 11.1892 10.854C11.0828 10.9683 10.9736 11.0717 10.8562 11.1861C10.6788 11.3548 10.4986 11.5317 10.3294 11.7304C10.0537 12.0244 9.72885 12.1632 9.30302 12.1632C9.26208 12.1632 9.2184 12.1632 9.17746 12.1604C8.36674 12.1087 7.61336 11.793 7.04832 11.5235C5.50332 10.7778 4.14668 9.71902 3.01933 8.37719C2.08851 7.25854 1.46615 6.22427 1.05397 5.11379C0.800106 4.43607 0.707297 3.90805 0.748242 3.40997C0.775539 3.09152 0.898374 2.82751 1.12494 2.6016L2.05575 1.67348C2.18951 1.54828 2.33145 1.48024 2.47066 1.48024C2.64263 1.48024 2.78184 1.58366 2.86919 1.67076C2.87192 1.67348 2.87465 1.6762 2.87738 1.67893C3.04389 1.83407 3.20221 1.99465 3.36872 2.16612C3.45334 2.25322 3.54069 2.34032 3.62804 2.43013L4.37324 3.17318C4.66259 3.46168 4.66259 3.72842 4.37324 4.01692C4.29408 4.09585 4.21765 4.17478 4.13849 4.25099C3.9092 4.48507 3.69082 4.70281 3.45334 4.9151C3.44788 4.92055 3.44242 4.92327 3.43969 4.92871C3.20494 5.16279 3.24862 5.39141 3.29775 5.54655C3.30048 5.55472 3.30321 5.56288 3.30594 5.57105C3.49975 6.03919 3.77271 6.48012 4.18762 7.00542L4.19035 7.00814C4.94374 7.93354 5.73807 8.65481 6.6143 9.20733C6.72621 9.27809 6.84086 9.33525 6.95005 9.38969C7.04832 9.43868 7.14112 9.48495 7.22028 9.53394C7.2312 9.53938 7.24212 9.54755 7.25304 9.55299C7.34585 9.59926 7.4332 9.62104 7.52328 9.62104C7.74984 9.62104 7.89178 9.4795 7.93819 9.43323L8.87173 8.50239C8.96454 8.40985 9.11194 8.29826 9.28391 8.29826C9.45315 8.29826 9.59237 8.40441 9.67698 8.49695C9.67971 8.49967 9.67971 8.49967 9.68244 8.50239L11.1865 10.0021C11.4676 10.2797 11.4676 10.5655 11.1892 10.854Z" fill="url(#paint0_linear)"/>
<path d="M6.98021 3.06753C7.69538 3.18729 8.34504 3.52479 8.86367 4.04192C9.38231 4.55906 9.71806 5.20684 9.84089 5.91994C9.87092 6.09958 10.0265 6.22478 10.2039 6.22478C10.2258 6.22478 10.2449 6.22206 10.2667 6.21934C10.4687 6.18667 10.6025 5.99615 10.5697 5.79474C10.4223 4.93194 10.0129 4.14535 9.38777 3.52207C8.76268 2.89878 7.9738 2.49052 7.1085 2.34354C6.90651 2.31088 6.71816 2.44425 6.68267 2.64294C6.64719 2.84163 6.77821 3.03487 6.98021 3.06753Z" fill="url(#paint1_linear)"/>
<path d="M12.9089 5.68865C12.666 4.26789 11.9945 2.97505 10.9627 1.94622C9.93088 0.917393 8.63429 0.247839 7.2094 0.0056018C7.01014 -0.0297811 6.82179 0.106307 6.7863 0.304996C6.75355 0.506407 6.8873 0.694208 7.0893 0.729591C8.36132 0.944611 9.52143 1.54612 10.4441 2.46336C11.3667 3.38331 11.9672 4.54006 12.1829 5.8084C12.2129 5.98804 12.3685 6.11324 12.5459 6.11324C12.5677 6.11324 12.5868 6.11052 12.6087 6.1078C12.808 6.07786 12.9444 5.88734 12.9089 5.68865Z" fill="url(#paint2_linear)"/>
<defs>
<linearGradient id="paint0_linear" x1="0.00293641" y1="6.82483" x2="12.1313" y2="6.82483" gradientUnits="userSpaceOnUse">
<stop stop-color="#1B7BBF"/>
<stop offset="0.6872" stop-color="#58A8DE"/>
<stop offset="1" stop-color="#1B7BBF"/>
</linearGradient>
<linearGradient id="paint1_linear" x1="6.67782" y1="4.28314" x2="10.5748" y2="4.28314" gradientUnits="userSpaceOnUse">
<stop stop-color="#1B7BBF"/>
<stop offset="0.6872" stop-color="#58A8DE"/>
<stop offset="1" stop-color="#1B7BBF"/>
</linearGradient>
<linearGradient id="paint2_linear" x1="6.78286" y1="3.05888" x2="12.9147" y2="3.05888" gradientUnits="userSpaceOnUse">
<stop stop-color="#1B7BBF"/>
<stop offset="0.6872" stop-color="#58A8DE"/>
<stop offset="1" stop-color="#1B7BBF"/>
</linearGradient>
</defs>
</svg>
