<svg width="21" height="20" viewBox="0 0 21 20" fill="none" xmlns="http://www.w3.org/2000/svg">
<g clip-path="url(#clip0)">
<path d="M13.9226 9.10132L9.50415 6.68372C9.25009 6.54471 8.9498 6.5499 8.70077 6.69745C8.4516 6.84516 8.30298 7.10608 8.30298 7.39569V12.1894C8.30298 12.4776 8.45068 12.7381 8.69818 12.886C8.82742 12.9632 8.9707 13.0019 9.11428 13.0019C9.24582 13.0019 9.37765 12.9694 9.49896 12.9041L13.9176 10.5282C14.1799 10.387 14.3436 10.1144 14.3448 9.81635C14.3459 9.51834 14.1841 9.24445 13.9226 9.10132ZM9.475 11.5864V8.0036L12.7773 9.81055L9.475 11.5864Z" fill="url(#paint0_linear)"/>
<path d="M20.6971 5.99716L20.6961 5.98801C20.6792 5.82703 20.5106 4.39514 19.8145 3.66684C19.0099 2.81021 18.0977 2.70615 17.6591 2.65625C17.6227 2.65213 17.5895 2.64832 17.5597 2.64435L17.5248 2.64069C14.8807 2.44843 10.8877 2.42218 10.8477 2.42203L10.8442 2.42188L10.8407 2.42203C10.8007 2.42218 6.80765 2.44843 4.13982 2.64069L4.10457 2.64435C4.07619 2.64816 4.04491 2.65167 4.01088 2.65564C3.57723 2.70569 2.67483 2.80991 1.86795 3.69751C1.20495 4.41803 1.01331 5.81924 0.993621 5.97672L0.991332 5.99716C0.985382 6.06415 0.844238 7.65884 0.844238 9.2598V10.7564C0.844238 12.3573 0.985382 13.952 0.991332 14.0192L0.992401 14.0292C1.00934 14.1876 1.17779 15.5933 1.87069 16.3219C2.62722 17.1498 3.58379 17.2594 4.09832 17.3183C4.17964 17.3276 4.24968 17.3355 4.29744 17.3439L4.34368 17.3503C5.87031 17.4956 10.6568 17.5671 10.8598 17.57L10.8659 17.5702L10.872 17.57C10.9119 17.5699 14.9049 17.5436 17.5489 17.3514L17.5838 17.3477C17.6172 17.3433 17.6548 17.3393 17.696 17.3351C18.1272 17.2893 19.0247 17.1942 19.8205 16.3187C20.4834 15.598 20.6752 14.1968 20.6948 14.0395L20.6971 14.019C20.703 13.9519 20.8443 12.3573 20.8443 10.7564V9.2598C20.8442 7.65884 20.703 6.0643 20.6971 5.99716ZM19.6721 10.7564C19.6721 12.2382 19.5427 13.7642 19.5305 13.9043C19.4808 14.2902 19.2786 15.1767 18.9556 15.5278C18.4575 16.0757 17.9459 16.1301 17.5724 16.1696C17.5272 16.1743 17.4854 16.1789 17.4476 16.1836C14.8902 16.3686 11.0479 16.3969 10.8709 16.398C10.6724 16.3951 5.95591 16.3229 4.47582 16.1855C4.39998 16.1731 4.31804 16.1636 4.23168 16.1539C3.7936 16.1037 3.19393 16.035 2.73281 15.5278L2.72198 15.5162C2.4046 15.1855 2.20822 14.3565 2.15832 13.9088C2.14901 13.8029 2.01626 12.2589 2.01626 10.7564V9.2598C2.01626 7.77969 2.14535 6.25534 2.15786 6.11237C2.21722 5.65781 2.42321 4.82498 2.73281 4.48837C3.24611 3.9238 3.78734 3.86124 4.14531 3.81989C4.17949 3.81592 4.21138 3.81226 4.24083 3.80844C6.83543 3.62259 10.7053 3.59497 10.8442 3.5939C10.9831 3.59482 14.8516 3.62259 17.4232 3.80844C17.4547 3.81241 17.4892 3.81638 17.5263 3.82065C17.8945 3.86261 18.451 3.92609 18.9617 4.47083L18.9664 4.47586C19.2838 4.80652 19.4802 5.65002 19.5301 6.10672C19.5389 6.20667 19.6721 7.75406 19.6721 9.2598V10.7564Z" fill="url(#paint1_linear)"/>
</g>
<defs>
<linearGradient id="paint0_linear" x1="8.30444" y1="9.79484" x2="14.345" y2="9.79484" gradientUnits="userSpaceOnUse">
<stop stop-color="#1B7BBF"/>
<stop offset="0.6872" stop-color="#58A8DE"/>
<stop offset="1" stop-color="#1B7BBF"/>
</linearGradient>
<linearGradient id="paint1_linear" x1="0.849079" y1="10.0016" x2="20.8449" y2="10.0016" gradientUnits="userSpaceOnUse">
<stop stop-color="#1B7BBF"/>
<stop offset="0.6872" stop-color="#58A8DE"/>
<stop offset="1" stop-color="#1B7BBF"/>
</linearGradient>
<clipPath id="clip0">
<rect width="20" height="20" fill="white" transform="translate(0.844238)"/>
</clipPath>
</defs>
</svg>
