<svg width="24" height="24" viewBox="0 0 24 24" fill="none" xmlns="http://www.w3.org/2000/svg">
<circle cx="12" cy="12" r="11.65" fill="white" stroke="#B1B1B1" stroke-width="0.7"/>
<g clip-path="url(#clip0_2471_14553)">
<path d="M19.6465 8.55972C19.5547 8.25825 19.3757 7.98341 19.1273 7.76257C18.8789 7.54173 18.5697 7.38259 18.2305 7.301C16.9889 7 11.9918 7 11.9918 7C11.9918 7 6.99439 7.00911 5.75277 7.31011C5.41361 7.39171 5.10442 7.55085 4.85598 7.77171C4.60754 7.99256 4.42853 8.26741 4.33677 8.56889C3.9612 10.5299 3.81551 13.518 4.34708 15.4006C4.43885 15.702 4.61787 15.9769 4.86631 16.1977C5.11474 16.4185 5.42393 16.5777 5.76308 16.6593C7.0047 16.9603 12.002 16.9603 12.002 16.9603C12.002 16.9603 16.9991 16.9603 18.2407 16.6593C18.5799 16.5777 18.8891 16.4186 19.1375 16.1977C19.386 15.9769 19.565 15.702 19.6568 15.4006C20.0529 13.4368 20.175 10.4506 19.6465 8.55978V8.55972Z" fill="#FF0000"/>
<path d="M10.4014 14.1145L14.5469 11.9802L10.4014 9.84583L10.4014 14.1145Z" fill="white"/>
</g>
<defs>
<clipPath id="clip0_2471_14553">
<rect width="16" height="10" fill="white" transform="translate(4 7)"/>
</clipPath>
</defs>
</svg>
