<svg width="22" height="22" viewBox="0 0 22 22" fill="none" xmlns="http://www.w3.org/2000/svg">
<path d="M19.8 3.66666H13.9333V5.13332H19.8V20.5333H13.9333V22H21.2667V5.13332C21.2667 4.74434 21.1122 4.37129 20.8371 4.09623C20.5621 3.82118 20.189 3.66666 19.8 3.66666Z" fill="white"/>
<path d="M11.6453 0H1.55467C1.14234 0 0.746908 0.163795 0.455351 0.455351C0.163795 0.746908 0 1.14234 0 1.55467V22H13.2V1.55467C13.2 1.14234 13.0362 0.746908 12.7446 0.455351C12.4531 0.163795 12.0577 0 11.6453 0ZM11.7333 20.5333H9.53333V18.3333H3.66667V20.5333H1.46667V1.55467C1.46667 1.54311 1.46894 1.53167 1.47337 1.52099C1.47779 1.51031 1.48427 1.50061 1.49244 1.49244C1.50061 1.48427 1.51031 1.47779 1.52099 1.47337C1.53167 1.46894 1.54311 1.46667 1.55467 1.46667H11.6453C11.6569 1.46667 11.6683 1.46894 11.679 1.47337C11.6897 1.47779 11.6994 1.48427 11.7076 1.49244C11.7157 1.50061 11.7222 1.51031 11.7266 1.52099C11.7311 1.53167 11.7333 1.54311 11.7333 1.55467V20.5333Z" fill="white"/>
<path d="M2.93335 3.66666H4.40002V5.13332H2.93335V3.66666Z" fill="white"/>
<path d="M5.86664 3.66666H7.3333V5.13332H5.86664V3.66666Z" fill="white"/>
<path d="M8.79999 3.66666H10.2667V5.13332H8.79999V3.66666Z" fill="white"/>
<path d="M2.93335 7.33334H4.40002V8.80001H2.93335V7.33334Z" fill="white"/>
<path d="M5.86664 7.33334H7.3333V8.80001H5.86664V7.33334Z" fill="white"/>
<path d="M8.79999 7.33334H10.2667V8.80001H8.79999V7.33334Z" fill="white"/>
<path d="M2.93335 11H4.40002V12.4667H2.93335V11Z" fill="white"/>
<path d="M5.86664 11H7.3333V12.4667H5.86664V11Z" fill="white"/>
<path d="M8.79999 11H10.2667V12.4667H8.79999V11Z" fill="white"/>
<path d="M2.93335 14.6667H4.40002V16.1333H2.93335V14.6667Z" fill="white"/>
<path d="M5.86664 14.6667H7.3333V16.1333H5.86664V14.6667Z" fill="white"/>
<path d="M8.79999 14.6667H10.2667V16.1333H8.79999V14.6667Z" fill="white"/>
<path d="M13.9333 7.33334H15.4V8.80001H13.9333V7.33334Z" fill="white"/>
<path d="M16.8666 7.33334H18.3333V8.80001H16.8666V7.33334Z" fill="white"/>
<path d="M13.9333 11H15.4V12.4667H13.9333V11Z" fill="white"/>
<path d="M16.8666 11H18.3333V12.4667H16.8666V11Z" fill="white"/>
<path d="M13.9333 14.6667H15.4V16.1333H13.9333V14.6667Z" fill="white"/>
<path d="M16.8666 14.6667H18.3333V16.1333H16.8666V14.6667Z" fill="white"/>
</svg>
