<svg width="22" height="23" viewBox="0 0 22 23" fill="none" xmlns="http://www.w3.org/2000/svg">
<path d="M21.9604 1.77049C21.9604 2.32779 21.9604 2.88522 21.9604 3.44252C21.8405 3.63992 21.6616 3.6999 21.4368 3.69758C20.7152 3.69022 19.9935 3.69486 19.2718 3.69486C19.1966 3.69486 19.1215 3.69486 19.0451 3.69486C19.0412 3.77079 19.0376 3.81332 19.0371 3.85613C19.0301 4.33313 18.9348 4.42556 18.4491 4.4257C18.2811 4.4257 18.1131 4.4257 17.9452 4.4257C17.9452 10.1722 17.9452 15.8852 17.9452 21.6088C18.1519 21.6088 18.3469 21.6088 18.5678 21.6088C18.5272 21.5434 18.4987 21.4969 18.4698 21.4508C18.13 20.9106 18.3467 20.1658 18.9299 19.9108C19.0702 19.8494 19.0979 19.7969 19.0632 19.6438C18.9279 19.0443 19.3122 18.4766 19.9207 18.3464C20.5027 18.222 21.0821 18.5997 21.1951 19.2025C21.233 19.4051 21.2011 19.6208 21.2011 19.8509C21.6124 19.9761 21.8421 20.2996 21.9606 20.7207C21.9606 20.835 21.9606 20.9493 21.9606 21.0637C21.8801 21.2448 21.7997 21.426 21.7131 21.621C21.8058 21.621 21.8831 21.621 21.9606 21.621C21.9606 21.8639 21.9606 22.1068 21.9606 22.3498C14.6475 22.3498 7.33436 22.3498 0.0241839 22.3498C0.0241839 22.0888 0.0241839 21.8578 0.0241839 21.6917C0.166508 21.6011 0.282793 21.5517 0.366769 21.4694C0.861767 20.9845 1.34886 20.4912 1.83963 20.002C2.11869 19.7237 2.28732 19.7228 2.5627 19.997C3.02825 20.4611 3.51316 20.908 3.94994 21.3978C4.19846 21.6766 4.46798 21.6128 4.77362 21.6107C4.77362 16.115 4.77362 10.645 4.77362 5.17031C5.02146 5.17031 5.2524 5.17031 5.50596 5.17031C5.50596 5.65862 5.50596 6.13304 5.50596 6.62394C7.09783 6.62394 8.66666 6.62394 10.2396 6.62394C10.2396 6.87246 10.2396 7.1034 10.2396 7.35192C8.65576 7.35192 7.08693 7.35192 5.50923 7.35192C5.50923 7.72286 5.50923 8.07567 5.50923 8.43584C6.23871 8.43584 6.95605 8.43584 7.6779 8.43584C7.68621 8.31124 7.69357 8.20068 7.70093 8.09012C7.94877 8.09012 8.17439 8.09012 8.40724 8.09012C8.41664 8.21213 8.42523 8.32256 8.43368 8.43175C9.16752 8.43175 9.88364 8.43175 10.6235 8.43175C10.6235 8.188 10.6235 7.96252 10.6235 7.72954C10.8738 7.72954 11.0999 7.72954 11.3572 7.72954C11.3572 7.9707 11.3572 8.2015 11.3572 8.4308C12.1047 8.4308 12.8209 8.4308 13.5569 8.4308C13.5569 7.94289 13.5569 7.47407 13.5569 7.00565C13.8075 7.00565 14.0375 7.00565 14.2908 7.00565C14.2908 11.8858 14.2908 16.7468 14.2908 21.6083C14.7834 21.6083 15.2521 21.6083 15.729 21.6083C15.729 15.8789 15.729 10.1606 15.729 4.42556C15.61 4.42556 15.5042 4.42556 15.3983 4.42556C15.2839 4.42542 15.1694 4.42979 15.0554 4.4242C14.7952 4.41152 14.6632 4.28501 14.643 4.02654C14.6348 3.92279 14.6417 3.81782 14.6417 3.7104C10.4813 3.7104 6.34927 3.7104 2.21207 3.7104C2.2073 3.7528 2.20144 3.7802 2.20144 3.80773C2.20089 5.93686 2.19953 8.06599 2.20621 10.1953C2.20648 10.2646 2.27328 10.3624 2.33653 10.3984C2.76582 10.642 3.00044 11.0681 2.91142 11.5419C2.87447 11.7386 2.76787 11.9224 2.68403 12.1348C2.94904 12.4884 3.23914 12.8597 3.50907 13.2451C3.58991 13.3606 3.65153 13.5141 3.65753 13.653C3.67634 14.088 3.67593 14.5248 3.65725 14.96C3.65166 15.0896 3.58895 15.2392 3.5043 15.3387C3.31508 15.561 3.10664 15.7708 2.88361 15.9591C2.77809 16.0481 2.62282 16.1172 2.48663 16.1238C2.05898 16.1446 1.62887 16.1457 1.20135 16.1235C1.05903 16.1161 0.898574 16.0427 0.786788 15.9504C0.572757 15.7738 0.372086 15.5751 0.196908 15.3602C0.101344 15.243 0.0262288 15.0764 0.0173676 14.9275C-0.00689828 14.5217 -0.00417179 14.1128 0.015868 13.7066C0.0235023 13.5528 0.0770781 13.382 0.163099 13.2552C0.403305 12.9009 0.669139 12.5638 0.929929 12.2238C0.995638 12.1382 0.99482 12.0804 0.940972 11.9803C0.844317 11.8005 0.784061 11.6012 0.697358 11.3816C0.993184 11.3816 1.22057 11.3816 1.45355 11.3816C1.46501 11.4057 1.47809 11.4305 1.48886 11.4561C1.58143 11.6779 1.71285 11.7623 1.91311 11.7211C2.09047 11.6847 2.18276 11.5671 2.19571 11.3915C2.20989 11.1992 2.09197 11.0698 1.8643 11.0147C1.5468 10.938 1.47032 10.842 1.47019 10.507C1.4695 8.32065 1.46991 6.1344 1.46991 3.94801C1.46991 3.86608 1.46991 3.78415 1.46991 3.69445C1.10579 3.69445 0.777245 3.69854 0.448837 3.69322C0.176187 3.68886 0.0192762 3.56344 0.0140958 3.32228C0.00359874 2.83669 0.00468936 2.35055 0.0136868 1.86496C0.0176403 1.64889 0.149331 1.52592 0.363634 1.50465C0.448701 1.4962 0.534858 1.49852 0.620471 1.49838C5.19323 1.49811 9.76585 1.49811 14.3386 1.49811C14.4343 1.49811 14.53 1.49811 14.6403 1.49811C14.6403 1.28844 14.6474 1.11735 14.6385 0.947084C14.6265 0.718466 14.6819 0.526111 14.8864 0.398102C16.1869 0.398102 17.4873 0.398102 18.7879 0.398102C18.9915 0.52543 19.0523 0.714513 19.0388 0.945039C19.0286 1.1209 19.0368 1.29785 19.0368 1.49811C19.1381 1.49811 19.215 1.49811 19.2919 1.49811C20.0201 1.49811 20.7482 1.50206 21.4765 1.49579C21.6985 1.49429 21.8662 1.56055 21.9604 1.77049ZM5.51319 10.5298C5.51319 14.2329 5.51319 17.9209 5.51319 21.6038C8.19702 21.6038 10.8645 21.6038 13.5339 21.6038C13.5339 18.9204 13.5339 16.2527 13.5339 13.5658C13.442 13.5658 13.3648 13.5658 13.2877 13.5658C12.5662 13.5658 11.8447 13.561 11.1232 13.5688C10.9228 13.5709 10.7692 13.5114 10.6284 13.368C10.2531 12.9857 9.87151 12.6094 9.48284 12.2408C9.414 12.1755 9.30044 12.1292 9.20528 12.1252C8.87006 12.1113 8.53402 12.1211 8.19825 12.1194C7.80754 12.1173 7.68948 11.9979 7.68839 11.6051C7.68744 11.2501 7.68826 10.895 7.68826 10.5297C6.95319 10.5298 6.24157 10.5298 5.51319 10.5298ZM11.3647 12.8222C12.0937 12.8222 12.81 12.8222 13.5361 12.8222C13.5361 11.6081 13.5361 10.4066 13.5361 9.19545C12.8069 9.19545 12.0905 9.19545 11.3647 9.19545C11.3647 10.4098 11.3647 11.6113 11.3647 12.8222ZM8.43382 9.19095C8.43382 9.93147 8.43382 10.648 8.43382 11.3837C8.74628 11.3837 9.04497 11.3912 9.34297 11.3813C9.56491 11.3738 9.74432 11.4377 9.89414 11.6054C10.1056 11.8421 10.3263 12.0705 10.543 12.3024C10.5623 12.2872 10.5815 12.2718 10.6007 12.2565C10.6007 11.2373 10.6007 10.2182 10.6007 9.19081C9.87246 9.19095 9.16125 9.19095 8.43382 9.19095ZM0.739483 13.9484C0.739483 14.2453 0.735257 14.516 0.742891 14.7863C0.744527 14.8425 0.78038 14.9042 0.815961 14.9519C1.06421 15.2841 1.36808 15.491 1.81223 15.4048C1.93601 15.3808 2.06838 15.4012 2.1968 15.4011C2.39011 15.401 2.90474 15.0443 2.92082 14.8583C2.94673 14.5573 2.92778 14.2523 2.92778 13.9484C2.1863 13.9484 1.47509 13.9484 0.739483 13.9484ZM18.2865 3.683C18.2865 2.82742 18.2865 1.98357 18.2865 1.14244C18.042 1.14244 17.8164 1.14244 17.5728 1.14244C17.5728 1.23323 17.5728 1.31066 17.5728 1.3881C17.5727 1.88091 17.5765 2.37386 17.5712 2.86654C17.5676 3.19304 17.4378 3.31942 17.1131 3.32133C16.6132 3.32432 16.1132 3.32173 15.6131 3.32269C15.5381 3.32283 15.463 3.3291 15.3705 3.33332C15.3766 3.46842 15.3815 3.57721 15.3863 3.68286C16.3693 3.683 17.324 3.683 18.2865 3.683ZM15.3904 1.13794C15.3904 1.63089 15.3904 2.10367 15.3904 2.57985C15.8768 2.57985 16.3456 2.57985 16.8261 2.57985C16.8261 2.09549 16.8261 1.62121 16.8261 1.13794C16.3438 1.13794 15.8749 1.13794 15.3904 1.13794ZM7.67994 9.19804C6.94092 9.19804 6.22549 9.19804 5.5121 9.19804C5.5121 9.40143 5.5121 9.58943 5.5121 9.77401C6.24321 9.77401 6.95905 9.77401 7.67994 9.77401C7.67994 9.57648 7.67994 9.39353 7.67994 9.19804ZM1.31355 21.6046C1.91433 21.6046 2.50599 21.6046 3.07283 21.6046C2.78109 21.3088 2.48458 21.0083 2.19898 20.7188C1.91338 21.0044 1.61769 21.3002 1.31355 21.6046ZM2.56174 13.194C2.38029 12.9522 2.24192 12.7159 2.05011 12.5368C1.97145 12.4633 1.71966 12.4506 1.64782 12.5181C1.44756 12.7061 1.30019 12.9505 1.11588 13.194C1.61496 13.194 2.06634 13.194 2.56174 13.194ZM10.8623 2.95188C10.5301 2.73076 10.2544 2.54414 9.97416 2.36459C9.93531 2.33978 9.85855 2.32738 9.82461 2.34892C9.5341 2.53337 9.24945 2.72695 8.91191 2.95188C9.584 2.95188 10.1893 2.95188 10.8623 2.95188ZM6.39398 2.9527C6.4008 2.9403 6.40762 2.92803 6.41443 2.91562C6.13306 2.72708 5.85304 2.53664 5.56867 2.35273C5.53541 2.33119 5.46615 2.32711 5.43439 2.34755C5.14593 2.53282 4.8621 2.72545 4.5769 2.91589C4.58304 2.92816 4.58904 2.94043 4.59517 2.9527C5.19473 2.9527 5.79443 2.9527 6.39398 2.9527ZM16.4823 9.41861C16.7 9.09266 16.8848 8.82205 17.0609 8.54599C17.0886 8.50251 17.1027 8.4173 17.0789 8.37913C16.8955 8.08753 16.7013 7.80302 16.4823 7.4742C16.4823 8.14043 16.4823 8.74885 16.4823 9.41861ZM17.1974 5.3159C17.161 5.34671 17.148 5.35366 17.1408 5.3643C17.0175 5.5467 16.8946 5.72951 16.7723 5.9126C16.5457 6.25191 16.5457 6.25218 16.7762 6.59722C16.9055 6.79053 17.0358 6.98316 17.1974 7.22337C17.1974 6.55046 17.1974 5.94722 17.1974 5.3159ZM16.4836 18.1982C16.7007 17.8723 16.8879 17.5961 17.0681 17.3153C17.0929 17.2767 17.1053 17.2002 17.0838 17.1665C16.8988 16.8751 16.7045 16.5893 16.4836 16.2575C16.4836 16.9221 16.4836 17.5296 16.4836 18.1982ZM17.1918 11.611C17.1918 10.9404 17.1918 10.3388 17.1918 9.67381C16.9687 10.0094 16.7762 10.2948 16.5908 10.5847C16.5715 10.6151 16.5782 10.6823 16.5994 10.7155C16.7825 10.9998 16.9717 11.2804 17.1918 11.611ZM16.4908 11.8794C16.4908 12.5313 16.4908 13.14 16.4908 13.7967C16.702 13.48 16.8912 13.2052 17.0678 12.9226C17.0955 12.8783 17.089 12.7842 17.0595 12.7375C16.8848 12.4602 16.6987 12.1901 16.4908 11.8794ZM17.1937 14.0623C16.9764 14.3879 16.7937 14.659 16.6148 14.9326C16.59 14.9705 16.5581 15.0378 16.5742 15.063C16.7647 15.3624 16.9637 15.6563 17.1937 16.0018C17.1937 15.3275 17.1937 14.7262 17.1937 14.0623ZM17.1941 18.5213C17.1818 18.5167 17.1694 18.5121 17.1571 18.5076C16.9716 18.7853 16.7844 19.062 16.6028 19.3423C16.5806 19.3766 16.5671 19.4444 16.5858 19.4734C16.7738 19.7679 16.9693 20.0574 17.1941 20.3955C17.1941 19.7255 17.1941 19.1233 17.1941 18.5213ZM2.33953 2.24436C2.69493 2.48129 2.99839 2.6836 3.30281 2.88645C3.61663 2.67651 3.91573 2.47638 4.26267 2.24436C3.6034 2.24436 3.00466 2.24436 2.33953 2.24436ZM7.69139 2.88658C8.00303 2.67855 8.3024 2.4787 8.65221 2.24517C7.98981 2.24517 7.39093 2.24517 6.73262 2.24517C7.07711 2.4757 7.37594 2.67555 7.69139 2.88658ZM13.0306 2.25267C12.374 2.25267 11.7775 2.25267 11.1332 2.25267C11.4774 2.48238 11.778 2.68305 12.0822 2.88604C12.3903 2.68032 12.6894 2.48061 13.0306 2.25267ZM0.750798 2.94643C1.18131 2.94643 1.6001 2.94643 2.0737 2.94643C1.70276 2.69955 1.38212 2.47638 1.04976 2.27217C0.971781 2.22432 0.854405 2.24081 0.750798 2.22718C0.750798 2.48974 0.750798 2.71481 0.750798 2.94643ZM13.3815 2.94739C13.7959 2.94739 14.2102 2.94739 14.6218 2.94739C14.6218 2.70064 14.6218 2.47066 14.6218 2.20837C14.0921 2.28934 13.7839 2.70105 13.3815 2.94739ZM20.1247 19.0593C19.9251 19.0639 19.763 19.2391 19.7724 19.4402C19.7814 19.6358 19.9404 19.7841 20.1379 19.7811C20.3383 19.7781 20.5057 19.6016 20.4942 19.4054C20.4832 19.2178 20.3093 19.0549 20.1247 19.0593ZM20.8578 20.5256C20.6657 20.5286 20.5056 20.689 20.5028 20.881C20.5 21.0844 20.6636 21.247 20.8683 21.2442C21.0619 21.2414 21.2225 21.083 21.2259 20.8916C21.2293 20.6963 21.0545 20.5224 20.8578 20.5256ZM19.7618 20.8924C19.7657 20.7039 19.6076 20.5365 19.4163 20.5268C19.2152 20.5166 19.044 20.6777 19.0412 20.8802C19.0383 21.0792 19.1847 21.2345 19.3828 21.2427C19.5875 21.251 19.7575 21.0939 19.7618 20.8924ZM21.2215 2.3057C20.8933 2.52505 20.6004 2.72081 20.2592 2.94888C20.6266 2.94888 20.9207 2.94888 21.2215 2.94888C21.2215 2.73853 21.2215 2.54318 21.2215 2.3057ZM16.4909 20.6589C16.4909 21.0072 16.4909 21.3096 16.4909 21.6051C16.7026 21.6051 16.8972 21.6051 17.1211 21.6051C16.9094 21.2872 16.7135 20.9933 16.4909 20.6589ZM19.0463 2.87677C19.3681 2.6626 19.6586 2.46916 19.9948 2.24531C19.6414 2.24531 19.3486 2.24531 19.0463 2.24531C19.0463 2.44953 19.0463 2.63943 19.0463 2.87677ZM16.4776 4.96841C16.49 4.97345 16.5024 4.97836 16.5146 4.9834C16.6297 4.80604 16.7448 4.62882 16.8657 4.44233C16.7148 4.44233 16.5981 4.44233 16.4776 4.44233C16.4776 4.62868 16.4776 4.79855 16.4776 4.96841Z" fill="white"/>
<path d="M10.6359 14.3048C10.8766 14.3048 11.0965 14.3048 11.3341 14.3048C11.3341 14.5418 11.3341 14.7724 11.3341 15.0165C11.104 15.0165 10.8792 15.0165 10.6359 15.0165C10.6359 14.7845 10.6359 14.5551 10.6359 14.3048Z" fill="white"/>
<path d="M11.339 20.1691C11.339 20.416 11.339 20.6416 11.339 20.8781C11.1003 20.8781 10.8744 20.8781 10.633 20.8781C10.633 20.6435 10.633 20.4118 10.633 20.1691C10.8686 20.1691 11.0946 20.1691 11.339 20.1691Z" fill="white"/>
<path d="M11.3367 17.9509C11.0968 17.9509 10.8728 17.9509 10.6331 17.9509C10.6331 17.7163 10.6331 17.4926 10.6331 17.2487C10.8636 17.2487 11.0924 17.2487 11.3367 17.2487C11.3367 17.4754 11.3367 17.6994 11.3367 17.9509Z" fill="white"/>
<path d="M10.6304 19.4143C10.6304 19.1667 10.6304 18.9416 10.6304 18.7055C10.8685 18.7055 11.094 18.7055 11.3359 18.7055C11.3359 18.9422 11.3359 19.1723 11.3359 19.4143C11.0996 19.4143 10.8749 19.4143 10.6304 19.4143Z" fill="white"/>
<path d="M10.6298 16.4804C10.6298 16.2398 10.6298 16.0157 10.6298 15.7767C10.8658 15.7767 11.0898 15.7767 11.333 15.7767C11.333 16.0063 11.333 16.2358 11.333 16.4804C11.1046 16.4804 10.8805 16.4804 10.6298 16.4804Z" fill="white"/>
<path d="M8.40848 20.8795C8.16759 20.8795 7.94333 20.8795 7.70367 20.8795C7.70367 20.6436 7.70367 20.4143 7.70367 20.1715C7.93843 20.1715 8.168 20.1715 8.40848 20.1715C8.40848 20.4062 8.40848 20.631 8.40848 20.8795Z" fill="white"/>
<path d="M6.9462 12.8484C6.9462 13.0817 6.9462 13.3066 6.9462 13.5488C6.71772 13.5488 6.48747 13.5488 6.24194 13.5488C6.24194 13.3226 6.24194 13.0923 6.24194 12.8484C6.47492 12.8484 6.70477 12.8484 6.9462 12.8484Z" fill="white"/>
<path d="M9.86844 20.877C9.6356 20.877 9.41011 20.877 9.16827 20.877C9.16827 20.6438 9.16827 20.4131 9.16827 20.1703C9.40166 20.1703 9.62687 20.1703 9.86844 20.1703C9.86844 20.4044 9.86844 20.6345 9.86844 20.877Z" fill="white"/>
<path d="M6.94852 14.3098C6.94852 14.5503 6.94852 14.7747 6.94852 15.0145C6.71213 15.0145 6.4827 15.0145 6.24017 15.0145C6.24017 14.781 6.24017 14.5514 6.24017 14.3098C6.47452 14.3098 6.6985 14.3098 6.94852 14.3098Z" fill="white"/>
<path d="M7.70581 12.8447C7.9437 12.8447 8.16809 12.8447 8.40584 12.8447C8.40584 13.0838 8.40584 13.3133 8.40584 13.5543C8.17259 13.5543 7.94806 13.5543 7.70581 13.5543C7.70581 13.3256 7.70581 13.0961 7.70581 12.8447Z" fill="white"/>
<path d="M9.87761 12.8453C9.87761 13.0893 9.87761 13.3099 9.87761 13.548C9.64327 13.548 9.41247 13.548 9.16681 13.548C9.16681 13.3172 9.16681 13.0864 9.16681 12.8453C9.40483 12.8453 9.62991 12.8453 9.87761 12.8453Z" fill="white"/>
<path d="M6.24274 15.7736C6.48553 15.7736 6.70965 15.7736 6.94495 15.7736C6.94495 16.0149 6.94495 16.2444 6.94495 16.4845C6.70774 16.4845 6.48308 16.4845 6.24274 16.4845C6.24274 16.2507 6.24274 16.0209 6.24274 15.7736Z" fill="white"/>
<path d="M6.94878 17.2482C6.94878 17.4848 6.94878 17.7092 6.94878 17.9481C6.71103 17.9481 6.48119 17.9481 6.23907 17.9481C6.23907 17.7149 6.23907 17.4914 6.23907 17.2482C6.46851 17.2482 6.69754 17.2482 6.94878 17.2482Z" fill="white"/>
<path d="M7.7005 14.3104C7.94589 14.3104 8.17082 14.3104 8.40762 14.3104C8.40762 14.5478 8.40762 14.7729 8.40762 15.0139C8.17328 15.0139 7.94316 15.0139 7.7005 15.0139C7.7005 14.7805 7.7005 14.5553 7.7005 14.3104Z" fill="white"/>
<path d="M6.94756 18.7062C6.94756 18.9452 6.94756 19.17 6.94756 19.4104C6.7143 19.4104 6.48459 19.4104 6.24084 19.4104C6.24084 19.1768 6.24084 18.9475 6.24084 18.7062C6.47396 18.7062 6.69876 18.7062 6.94756 18.7062Z" fill="white"/>
<path d="M8.40731 18.706C8.40731 18.9517 8.40731 19.1768 8.40731 19.4138C8.17024 19.4138 7.94531 19.4138 7.70428 19.4138C7.70428 19.1778 7.70428 18.9479 7.70428 18.706C7.93849 18.706 8.1637 18.706 8.40731 18.706Z" fill="white"/>
<path d="M12.0966 20.1702C12.3425 20.1702 12.5677 20.1702 12.8049 20.1702C12.8049 20.4071 12.8049 20.6323 12.8049 20.8734C12.5687 20.8734 12.3387 20.8734 12.0966 20.8734C12.0966 20.6394 12.0966 20.4139 12.0966 20.1702Z" fill="white"/>
<path d="M6.23853 20.8746C6.23853 20.6295 6.23853 20.4045 6.23853 20.1691C6.47478 20.1691 6.69985 20.1691 6.94128 20.1691C6.94128 20.3991 6.94128 20.6293 6.94128 20.8746C6.71294 20.8746 6.48296 20.8746 6.23853 20.8746Z" fill="white"/>
<path d="M9.87272 17.2295C9.87272 17.4814 9.87272 17.7057 9.87272 17.9462C9.63592 17.9462 9.40676 17.9462 9.15333 17.9462C9.15333 17.7366 9.14556 17.539 9.1596 17.3431C9.1626 17.3022 9.24426 17.2381 9.29306 17.2347C9.47669 17.2217 9.66169 17.2295 9.87272 17.2295Z" fill="white"/>
<path d="M9.87408 18.7088C9.87408 18.9476 9.87408 19.1725 9.87408 19.4118C9.63919 19.4118 9.41439 19.4118 9.17078 19.4118C9.17078 19.1829 9.17078 18.9532 9.17078 18.7088C9.39912 18.7088 9.62351 18.7088 9.87408 18.7088Z" fill="white"/>
<path d="M9.16547 15.7749C9.41194 15.7749 9.6362 15.7749 9.87245 15.7749C9.87245 16.0123 9.87245 16.2367 9.87245 16.4781C9.63702 16.4781 9.40785 16.4781 9.16547 16.4781C9.16547 16.2446 9.16547 16.0205 9.16547 15.7749Z" fill="white"/>
<path d="M12.8034 18.7136C12.8034 18.9531 12.8034 19.1773 12.8034 19.4137C12.5658 19.4137 12.3417 19.4137 12.1011 19.4137C12.1011 19.182 12.1011 18.9576 12.1011 18.7136C12.3248 18.7136 12.5549 18.7136 12.8034 18.7136Z" fill="white"/>
<path d="M9.87076 14.3158C9.87076 14.5462 9.87076 14.7707 9.87076 15.0126C9.63996 15.0126 9.40998 15.0126 9.16595 15.0126C9.16595 14.7831 9.16595 14.5585 9.16595 14.3158C9.39825 14.3158 9.62728 14.3158 9.87076 14.3158Z" fill="white"/>
<path d="M12.8015 17.9497C12.5636 17.9497 12.3396 17.9497 12.1001 17.9497C12.1001 17.7165 12.1001 17.4925 12.1001 17.2486C12.3268 17.2486 12.5561 17.2486 12.8015 17.2486C12.8015 17.4742 12.8015 17.6984 12.8015 17.9497Z" fill="white"/>
<path d="M8.40731 15.7823C8.40731 16.0199 8.40731 16.2451 8.40731 16.4827C8.17024 16.4827 7.94531 16.4827 7.70428 16.4827C7.70428 16.2527 7.70428 16.0279 7.70428 15.7823C7.92827 15.7823 8.15757 15.7823 8.40731 15.7823Z" fill="white"/>
<path d="M12.0977 16.4823C12.0977 16.2357 12.0977 16.0113 12.0977 15.7745C12.3346 15.7745 12.5587 15.7745 12.8001 15.7745C12.8001 16.0114 12.8001 16.2403 12.8001 16.4823C12.5658 16.4823 12.3414 16.4823 12.0977 16.4823Z" fill="white"/>
<path d="M12.1015 14.3111C12.3335 14.3111 12.5581 14.3111 12.8 14.3111C12.8 14.5445 12.8 14.7742 12.8 15.017C12.5677 15.017 12.3431 15.017 12.1015 15.017C12.1015 14.7838 12.1015 14.5543 12.1015 14.3111Z" fill="white"/>
<path d="M8.40693 17.9496C8.16359 17.9496 7.93879 17.9496 7.70117 17.9496C7.70117 17.7129 7.70117 17.4888 7.70117 17.2467C7.93538 17.2467 8.16481 17.2467 8.40693 17.2467C8.40693 17.478 8.40693 17.7032 8.40693 17.9496Z" fill="white"/>
</svg>
