<svg width="29" height="29" viewBox="0 0 29 29" fill="none" xmlns="http://www.w3.org/2000/svg">
<path id="secondLine" d="M24 11.0001H21.6C21.599 10.2047 21.2195 9.44212 20.5445 8.87968C19.8696 8.31724 18.9545 8.00092 18 8.00012V6.00012C19.5907 6.00171 21.1157 6.529 22.2405 7.46634C23.3653 8.40368 23.9981 9.67453 24 11.0001Z" fill="#F8F8F8"/>
<path id="firstLine" d="M28 11.0001H25.7778C25.7754 8.93805 24.9552 6.96111 23.4971 5.503C22.039 4.04489 20.0621 3.2247 18 3.22234V1.00012C20.6513 1.00306 23.1931 2.05758 25.0678 3.9323C26.9425 5.80703 27.9971 8.34886 28 11.0001Z" fill="#F8F8F8"/>
<path id="mainPhone" d="M19.3326 20.6153L21.8312 18.1168C22.1656 17.7823 22.5909 17.5532 23.0542 17.4581C23.5176 17.3629 23.9987 17.4058 24.4379 17.5814L27.4808 18.7994C27.9293 18.9789 28.3137 19.2886 28.5845 19.6886C28.8553 20.0886 29 20.5606 29 21.0436V26.5772C29.0008 26.9061 28.9344 27.2317 28.805 27.5341C28.6756 27.8365 28.4858 28.1092 28.2473 28.3357C28.0089 28.5622 27.7267 28.7376 27.418 28.8513C27.1094 28.9649 26.7808 29.0144 26.4524 28.9966C5.1232 27.6692 0.815423 9.6039 0.015663 2.68606C-0.0230717 2.34786 0.010234 2.00529 0.11339 1.68089C0.216545 1.35648 0.387214 1.05759 0.614168 0.803877C0.841123 0.550161 1.11922 0.347369 1.43017 0.208839C1.74112 0.0703087 2.07788 -0.000819826 2.41829 0.000131488H7.85376C8.33681 0.000115977 8.8088 0.144837 9.20882 0.415625C9.60884 0.686413 9.91855 1.07085 10.098 1.51933L11.3149 4.5622C11.4905 5.00142 11.5334 5.48252 11.4383 5.94588C11.3431 6.40924 11.114 6.83449 10.7795 7.16894L8.28097 9.66748C8.28097 9.66748 9.66632 19.4073 19.3326 20.6153Z" fill="#F8F8F8"/>
</svg>
