<svg width="10" height="7" viewBox="0 0 10 7" fill="none" xmlns="http://www.w3.org/2000/svg">
<path d="M5 7C4.7873 6.999 4.5775 6.95381 4.38584 6.86771C4.19417 6.78161 4.02544 6.65676 3.89188 6.50222L0.384232 2.53556C0.179267 2.29675 0.0502851 2.009 0.0119851 1.7051C-0.0263148 1.40119 0.0276073 1.09336 0.167607 0.816667C0.281151 0.576198 0.466443 0.371322 0.701353 0.226506C0.936262 0.0816914 1.21086 0.00305904 1.49235 0H8.50765C8.78914 0.00305904 9.06374 0.0816914 9.29865 0.226506C9.53356 0.371322 9.71885 0.576198 9.83239 0.816667C9.97239 1.09336 10.0263 1.40119 9.98802 1.7051C9.94972 2.009 9.82073 2.29675 9.61577 2.53556L6.10812 6.50222C5.97456 6.65676 5.80583 6.78161 5.61416 6.86771C5.4225 6.95381 5.2127 6.999 5 7Z" fill="#4EA2DA"/>
</svg>
