<svg width="41" height="41" viewBox="0 0 41 41" fill="none" xmlns="http://www.w3.org/2000/svg">
<path d="M37.5833 39.6333V36.095C38.8956 35.5417 39.7169 34.2217 39.6333 32.8C39.6333 30.916 38.4074 29.3833 36.9 29.3833C35.3926 29.3833 34.1667 30.916 34.1667 32.8C34.0831 34.2217 34.9044 35.5417 36.2167 36.095V39.6333H32.8V18.45C32.8001 18.191 32.6538 17.9542 32.4221 17.8384L27.3333 15.2944V11.6167C27.3335 11.3115 27.1313 11.0432 26.8379 10.9593L17.7667 8.36742V0.683333C17.7667 0.305962 17.4607 0 17.0833 0H3.41667C3.0393 0 2.73333 0.305962 2.73333 0.683333V39.6333H0V41H41V39.6333H37.5833ZM16.4 39.6333H4.1V38.2667H10.25V36.9H4.1V34.1667H10.25V32.8H4.1V30.0667H10.25V28.7H4.1V25.9667H10.25V24.6H4.1V21.8667H10.25V20.5H4.1V17.7667H10.25V16.4H4.1V13.6667H10.25V12.3H4.1V9.56667H10.25V8.2H4.1V5.46667H10.25V4.1H4.1V1.36667H16.4V39.6333ZM25.9667 39.6333H17.7667V38.2667H22.55V36.9H17.7667V34.1667H22.55V32.8H17.7667V30.0667H22.55V28.7H17.7667V25.9667H22.55V24.6H17.7667V21.8667H22.55V20.5H17.7667V17.7667H22.55V16.4H17.7667V13.6667H22.55V12.3H17.7667V9.78943L25.9667 12.1319V39.6333ZM31.4333 39.6333H27.3333V38.2667H29.3833V36.9H27.3333V34.1667H29.3833V32.8H27.3333V30.0667H29.3833V28.7H27.3333V25.9667H29.3833V24.6H27.3333V21.8667H29.3833V20.5H27.3333V16.8223L31.4333 18.8723V39.6333ZM36.2167 34.5562C35.7577 34.0892 35.5107 33.4543 35.5333 32.8C35.5333 31.6889 36.1593 30.75 36.9 30.75C37.6407 30.75 38.2667 31.6889 38.2667 32.8C38.2888 33.4542 38.0419 34.0889 37.5833 34.5562V33.4833H36.2167V34.5562Z" fill="black"/>
</svg>
