<svg width="49" height="49" viewBox="0 0 49 49" fill="none" xmlns="http://www.w3.org/2000/svg">
<g clip-path="url(#clip0_1917_9454)">
<path d="M13.6499 27.2993H15.2557V28.9052H13.6499V27.2993Z" fill="black"/>
<path d="M16.8613 27.2993H18.4672V28.9052H16.8613V27.2993Z" fill="black"/>
<path d="M20.0732 27.2993H21.6791V28.9052H20.0732V27.2993Z" fill="black"/>
<path d="M13.6499 30.5112H15.2557V32.1171H13.6499V30.5112Z" fill="black"/>
<path d="M16.8613 30.5112H18.4672V32.1171H16.8613V30.5112Z" fill="black"/>
<path d="M20.0732 30.5112H21.6791V32.1171H20.0732V30.5112Z" fill="black"/>
<path d="M23.2847 30.5112H24.8905V32.1171H23.2847V30.5112Z" fill="black"/>
<path d="M26.4966 30.5112H28.1024V32.1171H26.4966V30.5112Z" fill="black"/>
<path d="M13.6499 33.7227H15.2557V35.3285H13.6499V33.7227Z" fill="black"/>
<path d="M16.8613 33.7227H18.4672V35.3285H16.8613V33.7227Z" fill="black"/>
<path d="M20.0732 33.7227H21.6791V35.3285H20.0732V33.7227Z" fill="black"/>
<path d="M23.2847 33.7227H24.8905V35.3285H23.2847V33.7227Z" fill="black"/>
<path d="M26.4966 33.7227H28.1024V35.3285H26.4966V33.7227Z" fill="black"/>
<path d="M13.6499 36.9346H15.2557V38.5404H13.6499V36.9346Z" fill="black"/>
<path d="M16.8613 36.9341H18.4672V38.5399H16.8613V36.9341Z" fill="black"/>
<path d="M20.0732 36.9341H21.6791V38.5399H20.0732V36.9341Z" fill="black"/>
<path d="M23.2847 36.9341H24.8905V38.5399H23.2847V36.9341Z" fill="black"/>
<path d="M26.4966 36.9341H28.1024V38.5399H26.4966V36.9341Z" fill="black"/>
<path d="M13.6494 40.146H15.2553V41.7518H13.6494V40.146Z" fill="black"/>
<path d="M16.8613 40.146H18.4672V41.7518H16.8613V40.146Z" fill="black"/>
<path d="M20.0732 40.146H21.6791V41.7518H20.0732V40.146Z" fill="black"/>
<path d="M23.2847 40.146H24.8905V41.7518H23.2847V40.146Z" fill="black"/>
<path d="M26.4966 40.146H28.1024V41.7518H26.4966V40.146Z" fill="black"/>
<path d="M13.6494 43.3574H15.2553V44.9633H13.6494V43.3574Z" fill="black"/>
<path d="M16.8613 43.3574H18.4672V44.9633H16.8613V43.3574Z" fill="black"/>
<path d="M20.0732 43.3574H21.6791V44.9633H20.0732V43.3574Z" fill="black"/>
<path d="M23.2847 43.3574H24.8905V44.9633H23.2847V43.3574Z" fill="black"/>
<path d="M26.4966 43.3574H28.1024V44.9633H26.4966V43.3574Z" fill="black"/>
<path d="M47.372 2.40924H41.7516V0.803404C41.7516 0.359997 41.3921 0.000488281 40.9487 0.000488281H32.9195C32.4761 0.000488281 32.1166 0.359997 32.1166 0.803404V2.40924H0.802916C0.359509 2.40924 0 2.76874 0 3.21215V6.42382C0 6.86761 0.359509 7.22673 0.802916 7.22673H3.21166V22.4821C3.21166 22.9259 3.57117 23.2851 4.01458 23.2851C4.45798 23.2851 4.81749 23.6446 4.81749 24.088C4.81749 24.5318 4.45798 24.8909 4.01458 24.8909C3.57117 24.8909 3.21166 24.5318 3.21166 24.088H1.60583C1.60818 24.6756 1.82655 25.2422 2.22017 25.6789L0.16074 28.424L0.170933 28.4319C0.0635118 28.5667 0.00352843 28.7334 0 28.9055V32.1171C0 32.3304 0.0846825 32.5343 0.235229 32.6848L1.84106 34.2906C1.99161 34.4412 2.19586 34.5259 2.40875 34.5259H5.62041C5.83329 34.5259 6.03755 34.4412 6.1881 34.2906L7.79393 32.6848C7.94447 32.5343 8.02916 32.3304 8.02916 32.1171V28.9055C8.02563 28.7334 7.96564 28.5667 7.85822 28.4319L7.86842 28.424L5.80898 25.6789C6.34531 25.083 6.5476 24.2581 6.34805 23.4819C6.14889 22.7056 5.57415 22.0807 4.81749 21.8168V7.22673H32.1166V8.02965C32.1166 8.47345 32.4761 8.83256 32.9195 8.83256H34.5254V46.5696H31.3137V14.453H29.7079V17.6646H24.8904V16.0588H23.2846V17.6646H18.4671V16.8617H16.8612V17.6646H12.0437V15.2559H22.4816V13.6501H12.0437V10.4384H10.4379V46.5696H9.16453L5.38518 42.7907C5.07154 42.477 4.56345 42.477 4.24981 42.7907L0.470458 46.5696H0V48.1754H48.1749V46.5696H47.5488C48.1138 45.9529 48.3145 45.0849 48.0777 44.2824C47.8413 43.4803 47.2019 42.86 46.3923 42.6483C46.8004 41.642 46.4852 40.4874 45.6219 39.8283C44.759 39.1693 43.5617 39.1693 42.6988 39.8283C41.8355 40.4874 41.5203 41.642 41.9284 42.6483C41.1188 42.86 40.4794 43.4803 40.243 44.2824C40.0062 45.0849 40.2069 45.9529 40.7719 46.5696H39.3429V8.83256H40.9487C41.3921 8.83256 41.7516 8.47345 41.7516 8.02965V7.22673H47.372C47.8154 7.22673 48.1749 6.86761 48.1749 6.42382V3.21215C48.1749 2.76874 47.8154 2.40924 47.372 2.40924V2.40924ZM4.41604 26.4967L5.62041 28.1025H2.40875L3.61312 26.4967H4.41604ZM6.42332 31.7851L5.28795 32.92H2.7412L1.60583 31.7851V29.7084H6.42332V31.7851ZM43.9196 4.01507L41.7516 5.46055V4.01507H43.9196ZM33.7225 1.60632H36.9341V4.81798H33.7225V1.60632ZM12.0437 4.17581L14.2118 5.6209H9.8757L12.0437 4.17581ZM7.22624 5.46055L5.05821 4.01507H9.39427L7.22624 5.46055ZM14.6932 4.01507H19.0293L16.8612 5.46055L14.6932 4.01507ZM21.6787 4.17581L23.8467 5.6209H19.5107L21.6787 4.17581ZM24.3282 4.01507H28.6642L26.4962 5.46055L24.3282 4.01507ZM1.60583 4.01507H2.16803L4.57678 5.6209H1.60583V4.01507ZM29.1457 5.6209L31.5544 4.01507H32.1166V5.6209H29.1457ZM37.737 43.9201L36.2919 41.7521L37.737 39.5845V43.9201ZM37.737 24.6502L36.2919 22.4821L37.737 20.3145V24.6502ZM36.1312 25.132L37.5763 27.2996L36.1312 29.4677V25.132ZM36.1312 19.8327V15.497L37.5763 17.6646L36.1312 19.8327ZM36.1312 34.767L37.5763 36.9346L36.1312 39.1027V34.767ZM37.737 34.2805L36.2919 32.1171L37.737 29.9495V34.2805ZM36.2919 12.8471L37.737 10.6795V15.0152L36.2919 12.8471ZM36.1312 10.1977V8.83256H37.04L36.1312 10.1977ZM29.7079 19.2705V27.2996H24.8904V19.2705H29.7079ZM23.2846 19.2705V26.1756L21.438 24.3506C21.2882 24.2028 21.0863 24.1193 20.8758 24.1185H18.4671V19.2705H23.2846ZM16.8612 19.2705V20.6089H12.0437V19.2705H16.8612ZM4.81749 44.4933L6.89378 46.5696H2.7412L4.81749 44.4933ZM12.0437 46.5696V22.2148H16.8612V24.9246C16.8612 25.3684 17.2207 25.7275 17.6641 25.7275H20.5457L23.5253 28.6738C23.675 28.8216 23.8769 28.9051 24.0875 28.9055H29.7079V46.5696H12.0437ZM36.1312 44.402L37.5763 46.5696H36.1312V44.402ZM45.7662 45.7667C45.3228 45.7667 44.9633 45.4076 44.9633 44.9638C44.9633 44.5204 45.3228 44.1609 45.7662 44.1609C46.2096 44.1609 46.5691 44.5204 46.5691 44.9638C46.5691 45.4076 46.2096 45.7667 45.7662 45.7667ZM44.1604 40.9492C44.6038 40.9492 44.9633 41.3087 44.9633 41.7521C44.9633 42.1959 44.6038 42.555 44.1604 42.555C43.7169 42.555 43.3574 42.1959 43.3574 41.7521C43.3574 41.3087 43.7169 40.9492 44.1604 40.9492ZM42.5545 44.1609C42.9979 44.1609 43.3574 44.5204 43.3574 44.9638C43.3574 45.4076 42.9979 45.7667 42.5545 45.7667C42.1111 45.7667 41.7516 45.4076 41.7516 44.9638C41.7516 44.5204 42.1111 44.1609 42.5545 44.1609ZM40.1458 7.22673H33.7225V6.42382H37.737C38.1804 6.42382 38.5399 6.0647 38.5399 5.6209V1.60632H40.1458V7.22673ZM44.4011 5.6209L46.5691 4.17581V5.6209H44.4011Z" fill="black"/>
</g>
<defs>
<clipPath id="clip0_1917_9454">
<rect width="48.1753" height="48.1753" fill="white"/>
</clipPath>
</defs>
</svg>
