<svg width="18" height="18" viewBox="0 0 18 18" fill="none" xmlns="http://www.w3.org/2000/svg">
<path d="M15.8703 0.893555H2.65166C2.1736 0.893555 1.71512 1.08346 1.37707 1.42151C1.03903 1.75955 0.849121 2.21803 0.849121 2.6961L0.849121 15.9147C0.849121 16.3928 1.03903 16.8513 1.37707 17.1893C1.71512 17.5274 2.1736 17.7173 2.65166 17.7173H7.80581V11.9976H5.43997V9.30542H7.80581V7.25353C7.80581 4.91961 9.19527 3.63042 11.3234 3.63042C12.3426 3.63042 13.4083 3.81217 13.4083 3.81217V6.1029H12.2341C11.0771 6.1029 10.7162 6.82092 10.7162 7.55733V9.30542H13.2991L12.886 11.9976H10.7162V17.7173H15.8703C16.3484 17.7173 16.8069 17.5274 17.1449 17.1893C17.4829 16.8513 17.6729 16.3928 17.6729 15.9147V2.6961C17.6729 2.21803 17.4829 1.75955 17.1449 1.42151C16.8069 1.08346 16.3484 0.893555 15.8703 0.893555Z" fill="#4EA2DA"/>
</svg>
