<svg width="24" height="24" viewBox="0 0 24 24" fill="none" xmlns="http://www.w3.org/2000/svg">
<path d="M20.4853 3.51478C18.2187 1.24819 15.2053 0 11.9999 0C8.79453 0 5.78116 1.24823 3.5147 3.51478C1.24824 5.78128 0 8.79474 0 12.0001C0 15.2055 1.24819 18.2189 3.5147 20.4854C5.78116 22.7518 8.79458 24 11.9999 24C15.2052 24 18.2187 22.7518 20.4853 20.4853C22.7518 18.2189 24 15.2054 24 12C24 8.79469 22.7518 5.78128 20.4853 3.51478ZM21.0969 8.37558C20.6598 8.40919 20.3174 8.2823 19.8839 8.12161C19.5862 8.01131 19.2488 7.88625 18.8532 7.80764C17.7872 7.59581 16.6938 8.17697 16.0675 9.28828C15.8851 9.61191 15.0129 11.2782 15.755 12.3005C16.0333 12.6837 16.4056 12.9069 16.7048 13.0861C17.1062 13.3267 17.5212 13.5755 17.9915 13.7653C18.0916 13.8057 18.1908 13.8423 18.2866 13.8776C18.5718 13.9829 18.8667 14.0918 18.9722 14.2362C19.0313 14.3171 19.093 14.4994 19.0509 14.9077C19.0227 15.1808 18.9134 15.4789 18.7977 15.7945C18.5126 16.572 18.1221 17.6369 19.0371 18.6824C19.2009 18.8694 19.3857 19.0279 19.5864 19.1568C17.6825 21.1738 14.9859 22.4348 11.9999 22.4348C6.24617 22.4348 1.56521 17.7538 1.56521 12.0001C1.56521 10.8915 1.73963 9.82289 2.06138 8.81972C2.22845 9.05878 2.41707 9.27131 2.59801 9.46177C3.17678 10.0711 3.81658 10.628 4.5025 11.1191C4.55336 11.1555 4.62578 11.2073 4.66352 11.2413C4.6893 11.3565 4.67894 11.5225 4.66727 11.7116C4.64242 12.1122 4.60835 12.6609 4.91093 13.2382C5.10804 13.6144 5.38399 13.9039 5.62746 14.1593C5.86455 14.4081 6.0693 14.6229 6.12654 14.8312C6.16732 14.9797 6.14998 15.1982 6.13156 15.4296C6.10624 15.7483 6.07751 16.1095 6.16943 16.4982C6.29299 17.0205 6.58788 17.4075 6.84804 17.749C7.01206 17.9643 7.16698 18.1677 7.2342 18.3539C7.286 18.4975 7.30695 18.6912 7.32903 18.8962C7.3512 19.1018 7.37637 19.3348 7.43778 19.5747C7.62181 20.2935 8.21849 20.9834 9.02361 20.9833C9.0665 20.9833 9.11014 20.9813 9.15421 20.9773C9.98793 20.9011 10.5604 20.1562 10.6482 19.0331C10.6624 18.8513 10.6998 18.3721 10.7925 18.2664C10.8212 18.255 10.8911 18.2378 10.9429 18.2252C11.1635 18.1712 11.4967 18.0895 11.772 17.8075C12.2792 17.2882 12.1394 16.637 12.0558 16.248C12.0307 16.1309 12.0021 15.998 12.0037 15.9288C12.0082 15.7434 12.3879 15.4191 12.5309 15.297L13.9614 14.0751C14.5183 13.6042 14.7266 12.7849 14.4797 12.0367C14.3035 11.5025 13.9134 11.0221 13.3515 10.6475C12.6583 10.1855 11.9088 10.067 11.2955 10.3225C11.087 10.4094 10.9184 10.5285 10.7828 10.6243C10.7418 10.6533 10.6878 10.6915 10.6438 10.7194C10.6236 10.6969 10.6003 10.6658 10.5787 10.6261C10.5271 10.5315 10.4808 10.4087 10.4317 10.2787C10.3672 10.1076 10.2939 9.91364 10.1856 9.71841C9.6059 8.6738 8.65892 8.55792 7.96752 8.47336C7.84934 8.45892 7.73769 8.44523 7.62636 8.42803C7.04431 8.33798 6.45218 8.08242 5.99763 7.73077C6.16423 7.67086 6.36785 7.62469 6.47745 7.62895C6.55676 7.63158 6.64971 7.64217 6.74825 7.65338C7.03057 7.68558 7.38181 7.72556 7.76037 7.61944C8.14255 7.51233 8.42431 7.29225 8.65067 7.11544C8.71527 7.065 8.77625 7.01733 8.8325 6.97786C8.93844 6.90352 9.14455 6.88631 9.36276 6.86808C9.90618 6.8227 11.0369 6.72834 11.197 5.15602C11.2762 4.37808 10.9921 3.68161 10.7638 3.12197C10.5739 2.65641 10.3896 2.19431 10.2288 1.71614C10.8047 1.61742 11.3963 1.56525 12 1.56525C13.2953 1.56525 14.536 1.80323 15.6815 2.2365C15.6472 2.27025 15.6128 2.30395 15.5785 2.33756C15.2306 2.67872 14.8709 3.03155 14.6234 3.35203C14.5187 3.48755 14.3436 3.71428 14.2919 4.04081C14.2044 4.59478 14.5357 5.02036 14.6771 5.20205C14.8873 5.47219 15.2393 5.92434 15.8206 6.06933C15.9504 6.10167 16.0758 6.11555 16.196 6.11555C16.634 6.11555 17.0066 5.93212 17.2954 5.78986C17.4618 5.70797 17.6337 5.62327 17.7365 5.61502C17.8344 5.607 18.0072 5.66395 18.1746 5.7188C18.419 5.79895 18.696 5.8897 19.0223 5.90156C19.4515 5.91694 19.8322 5.76145 20.1309 5.46788C20.8239 6.32869 21.3832 7.3012 21.7771 8.35402C21.7214 8.35547 21.6645 8.35627 21.6138 8.35687C21.4603 8.35884 21.2864 8.36105 21.0969 8.37558Z" fill="#4EA2DA"/>
</svg>
