<svg width="18" height="18" viewBox="0 0 18 18" fill="none" xmlns="http://www.w3.org/2000/svg">
<path d="M8.62175 4.99203C6.23471 4.99203 4.30932 6.91785 4.30932 9.30542C4.30932 11.693 6.23471 13.6188 8.62175 13.6188C11.0088 13.6188 12.9342 11.693 12.9342 9.30542C12.9342 6.91785 11.0088 4.99203 8.62175 4.99203ZM8.62175 12.1097C7.07918 12.1097 5.81811 10.8521 5.81811 9.30542C5.81811 7.75876 7.07543 6.50115 8.62175 6.50115C10.1681 6.50115 11.4254 7.75876 11.4254 9.30542C11.4254 10.8521 10.1643 12.1097 8.62175 12.1097ZM14.1164 4.81559C14.1164 5.37494 13.6661 5.82167 13.1106 5.82167C12.5514 5.82167 12.1047 5.37119 12.1047 4.81559C12.1047 4.25999 12.5551 3.80951 13.1106 3.80951C13.6661 3.80951 14.1164 4.25999 14.1164 4.81559ZM16.9726 5.83669C16.9088 4.48899 16.6011 3.2952 15.614 2.31164C14.6306 1.32808 13.4371 1.02025 12.0897 0.952681C10.701 0.873846 6.53872 0.873846 5.15004 0.952681C3.80639 1.0165 2.61287 1.32433 1.62578 2.30789C0.638688 3.29145 0.334678 4.48523 0.267121 5.83293C0.188303 7.22193 0.188303 11.3852 0.267121 12.7742C0.330925 14.1219 0.638688 15.3156 1.62578 16.2992C2.61287 17.2828 3.80264 17.5906 5.15004 17.6582C6.53872 17.737 10.701 17.737 12.0897 17.6582C13.4371 17.5943 14.6306 17.2865 15.614 16.2992C16.5973 15.3156 16.9051 14.1219 16.9726 12.7742C17.0514 11.3852 17.0514 7.22568 16.9726 5.83669ZM15.1786 14.2645C14.8858 15.0003 14.3191 15.5672 13.5797 15.8637C12.4725 16.303 9.84529 16.2016 8.62175 16.2016C7.39821 16.2016 4.76721 16.2992 3.66377 15.8637C2.92814 15.5709 2.36141 15.0041 2.06491 14.2645C1.62578 13.1571 1.72712 10.5292 1.72712 9.30542C1.72712 8.0816 1.62953 5.45002 2.06491 4.34633C2.35766 3.61054 2.92439 3.04368 3.66377 2.74711C4.77096 2.30789 7.39821 2.40925 8.62175 2.40925C9.84529 2.40925 12.4763 2.31164 13.5797 2.74711C14.3154 3.03993 14.8821 3.60679 15.1786 4.34633C15.6177 5.45378 15.5164 8.0816 15.5164 9.30542C15.5164 10.5292 15.6177 13.1608 15.1786 14.2645Z" fill="#4EA2DA"/>
</svg>
