<svg width="25" height="25" viewBox="0 0 25 25" fill="none" xmlns="http://www.w3.org/2000/svg">
<path d="M18.3451 15.2462C18.0287 15.0713 16.453 14.2401 16.1599 14.1276C15.8668 14.0088 15.652 13.9526 15.4402 14.3026C15.2254 14.6494 14.616 15.4212 14.4245 15.6556C14.2388 15.8868 14.0501 15.9149 13.7338 15.7431C11.8533 14.7307 10.62 13.937 9.38082 11.6465C9.05289 11.0372 9.70874 11.0809 10.3211 9.76537C10.4255 9.53413 10.3733 9.33727 10.292 9.16228C10.2108 8.9873 9.57235 7.29366 9.30537 6.60308C9.04709 5.93125 8.78011 6.025 8.58567 6.0125C8.39995 6 8.1881 6 7.97335 6C7.75861 6 7.41327 6.08749 7.12017 6.4281C6.82707 6.77495 6 7.60927 6 9.3029C6 10.9965 7.14629 12.637 7.30299 12.8683C7.4655 13.0995 9.55784 16.5743 12.7703 18.0711C14.8017 19.0147 15.5969 19.096 16.6126 18.9335C17.2307 18.8335 18.5047 18.1023 18.7688 17.293C19.0328 16.4868 19.0328 15.7962 18.9545 15.6525C18.8761 15.4994 18.6614 15.4119 18.3451 15.2462Z" fill="#4EA2DA"/>
<path d="M24.0289 7.65625C23.3983 6.15792 22.4943 4.81306 21.342 3.65792C20.1896 2.50558 18.8448 1.59877 17.3437 0.970982C15.8091 0.326451 14.1797 0 12.5 0H12.4442C10.7534 0.00837054 9.11556 0.343192 7.5754 1.00167C6.08825 1.63783 4.75456 2.54185 3.61339 3.6942C2.47223 4.84654 1.57659 6.18583 0.957178 7.67857C0.315445 9.22433 -0.00821214 10.8677 0.000158292 12.5586C0.00852872 14.495 0.471693 16.4174 1.33943 18.1362V22.3772C1.33943 23.0859 1.9142 23.6607 2.62289 23.6607H6.8667C8.58543 24.5285 10.5078 24.9916 12.4442 25H12.5028C14.1741 25 15.7952 24.6763 17.3214 24.043C18.8141 23.4208 20.1562 22.5279 21.3057 21.3867C22.458 20.2455 23.3648 18.9118 23.9982 17.4247C24.6567 15.8845 24.9915 14.2467 24.9998 12.5558C25.0082 10.8566 24.679 9.20759 24.0289 7.65625ZM19.813 19.8772C17.8571 21.8136 15.2622 22.8795 12.5 22.8795H12.4526C10.7701 22.8711 9.09882 22.4526 7.62283 21.6657L7.38846 21.5402H3.45994V17.6116L3.33438 17.3772C2.54756 15.9012 2.12904 14.2299 2.12067 12.5474C2.10951 9.76562 3.17255 7.15402 5.12286 5.18694C7.07038 3.21987 9.67359 2.1317 12.4554 2.12054H12.5028C13.8979 2.12054 15.2511 2.39118 16.5262 2.9269C17.7706 3.44866 18.8866 4.19922 19.8464 5.15904C20.8035 6.11607 21.5568 7.23493 22.0786 8.47935C22.6199 9.76841 22.8905 11.1356 22.8849 12.5474C22.8682 15.3265 21.7772 17.9297 19.813 19.8772Z" fill="#4EA2DA"/>
</svg>
