<svg width="19" height="13" viewBox="0 0 19 13" fill="none" xmlns="http://www.w3.org/2000/svg">
<path d="M18.1372 2.06759C17.9308 1.30775 17.3227 0.709322 16.5507 0.506237C15.1512 0.137207 9.53955 0.137207 9.53955 0.137207C9.53955 0.137207 3.92792 0.137207 2.52843 0.506237C1.75635 0.709354 1.14827 1.30775 0.941879 2.06759C0.566895 3.44485 0.566895 6.31837 0.566895 6.31837C0.566895 6.31837 0.566895 9.1919 0.941879 10.5692C1.14827 11.329 1.75635 11.9025 2.52843 12.1056C3.92792 12.4746 9.53955 12.4746 9.53955 12.4746C9.53955 12.4746 15.1512 12.4746 16.5507 12.1056C17.3227 11.9025 17.9308 11.329 18.1372 10.5692C18.5122 9.1919 18.5122 6.31837 18.5122 6.31837C18.5122 6.31837 18.5122 3.44485 18.1372 2.06759ZM7.70422 8.92732V3.70943L12.3945 6.31844L7.70422 8.92732Z" fill="#4EA2DA"/>
</svg>
