<svg width="1441" height="470" viewBox="0 0 1441 470" fill="none" xmlns="http://www.w3.org/2000/svg">
<g opacity="0.2">
<path d="M456.552 156.938L393.008 157.217L394.118 410.133L457.662 409.854L456.552 156.938Z" fill="#B5C3C2"/>
<path d="M446.091 138.849L403.31 139.036L403.776 245.33L446.558 245.143L446.091 138.849Z" fill="#B5C3C2"/>
<path d="M436.509 127.377L412.775 127.481L413.033 186.432L436.768 186.328L436.509 127.377Z" fill="#B5C3C2"/>
<path d="M432.867 157.703L416.683 157.774L416.506 117.587L422.342 117.562L428.13 117.536L432.691 117.516L432.867 157.703Z" fill="#B5C3C2"/>
<path d="M423.636 140.237L421.875 140.245L421.698 100.074L422.343 100.071L422.957 100.069L423.46 100.066L423.636 140.237Z" fill="#B5C3C2"/>
<path d="M427.461 126.332L425.699 126.339L425.523 86.1685L426.168 86.1656L426.781 86.1629L427.284 86.1607L427.461 126.332Z" fill="#B5C3C2"/>
<path d="M458.232 156.27L391.307 156.564L391.318 159.253L458.244 158.96L458.232 156.27Z" fill="#B5C3C2"/>
<path d="M447.627 137.537L401.731 137.738L401.742 140.333L447.638 140.132L447.627 137.537Z" fill="#B5C3C2"/>
<path d="M437.495 126.288L411.04 126.404L411.048 128.386L437.504 128.269L437.495 126.288Z" fill="#B5C3C2"/>
<path opacity="0.29" d="M409.243 143.32L407.261 143.329L407.31 154.465L409.291 154.456L409.243 143.32Z" fill="#B5C3C2"/>
<path opacity="0.29" d="M414.747 143.296L412.766 143.305L412.815 154.441L414.796 154.432L414.747 143.296Z" fill="#B5C3C2"/>
<path opacity="0.29" d="M420.237 143.272L418.255 143.281L418.304 154.416L420.286 154.408L420.237 143.272Z" fill="#B5C3C2"/>
<path opacity="0.29" d="M425.742 143.248L423.76 143.256L423.809 154.392L425.791 154.384L425.742 143.248Z" fill="#B5C3C2"/>
<path opacity="0.29" d="M431.247 143.223L429.265 143.232L429.314 154.368L431.296 154.359L431.247 143.223Z" fill="#B5C3C2"/>
<path opacity="0.29" d="M436.752 143.199L434.77 143.208L434.819 154.344L436.8 154.335L436.752 143.199Z" fill="#B5C3C2"/>
<path opacity="0.29" d="M442.257 143.175L440.275 143.184L440.324 154.32L442.306 154.311L442.257 143.175Z" fill="#B5C3C2"/>
<path d="M403.433 167.254L398.62 167.275L398.678 180.487L403.491 180.466L403.433 167.254Z" fill="#B5C3C2"/>
<path opacity="0.29" d="M412.949 167.212L408.136 167.233L408.194 180.445L413.007 180.424L412.949 167.212Z" fill="#B5C3C2"/>
<path d="M422.465 167.17L417.652 167.191L417.71 180.403L422.523 180.382L422.465 167.17Z" fill="#B5C3C2"/>
<path d="M431.981 167.129L427.168 167.15L427.226 180.362L432.039 180.341L431.981 167.129Z" fill="#B5C3C2"/>
<path d="M441.481 167.087L436.684 167.108L436.742 180.32L441.539 180.299L441.481 167.087Z" fill="#B5C3C2"/>
<path d="M450.997 167.045L446.199 167.066L446.257 180.278L451.055 180.257L450.997 167.045Z" fill="#B5C3C2"/>
<path d="M403.524 187.842L398.711 187.864L398.769 201.076L403.582 201.054L403.524 187.842Z" fill="#B5C3C2"/>
<path d="M413.04 187.801L408.227 187.822L408.285 201.034L413.098 201.013L413.04 187.801Z" fill="#B5C3C2"/>
<path d="M422.555 187.759L417.742 187.78L417.8 200.992L422.613 200.971L422.555 187.759Z" fill="#B5C3C2"/>
<path opacity="0.29" d="M432.071 187.717L427.258 187.738L427.316 200.95L432.129 200.929L432.071 187.717Z" fill="#B5C3C2"/>
<path d="M441.571 187.675L436.774 187.696L436.832 200.908L441.629 200.887L441.571 187.675Z" fill="#B5C3C2"/>
<path d="M451.087 187.633L446.29 187.655L446.348 200.867L451.145 200.846L451.087 187.633Z" fill="#B5C3C2"/>
<path d="M403.614 208.447L398.801 208.468L398.859 221.68L403.672 221.659L403.614 208.447Z" fill="#B5C3C2"/>
<path d="M413.13 208.405L408.317 208.426L408.375 221.638L413.188 221.617L413.13 208.405Z" fill="#B5C3C2"/>
<path d="M422.646 208.363L417.833 208.384L417.891 221.596L422.704 221.575L422.646 208.363Z" fill="#B5C3C2"/>
<path d="M432.162 208.321L427.349 208.343L427.407 221.555L432.22 221.533L432.162 208.321Z" fill="#B5C3C2"/>
<path opacity="0.29" d="M441.662 208.28L436.865 208.301L436.923 221.513L441.72 221.492L441.662 208.28Z" fill="#B5C3C2"/>
<path opacity="0.29" d="M451.178 208.238L446.38 208.259L446.438 221.471L451.236 221.45L451.178 208.238Z" fill="#B5C3C2"/>
<path opacity="0.29" d="M403.705 229.035L398.892 229.056L398.95 242.268L403.763 242.247L403.705 229.035Z" fill="#B5C3C2"/>
<path d="M413.22 228.994L408.407 229.015L408.465 242.227L413.278 242.206L413.22 228.994Z" fill="#B5C3C2"/>
<path d="M422.736 228.952L417.923 228.973L417.981 242.185L422.794 242.164L422.736 228.952Z" fill="#B5C3C2"/>
<path d="M432.252 228.91L427.439 228.931L427.497 242.143L432.31 242.122L432.252 228.91Z" fill="#B5C3C2"/>
<path d="M441.752 228.868L436.955 228.889L437.013 242.101L441.81 242.08L441.752 228.868Z" fill="#B5C3C2"/>
<path d="M451.268 228.827L446.471 228.848L446.529 242.06L451.326 242.039L451.268 228.827Z" fill="#B5C3C2"/>
<path d="M403.795 249.624L398.982 249.646L399.04 262.858L403.853 262.836L403.795 249.624Z" fill="#B5C3C2"/>
<path opacity="0.29" d="M413.311 249.583L408.498 249.604L408.556 262.816L413.369 262.795L413.311 249.583Z" fill="#B5C3C2"/>
<path d="M422.827 249.541L418.014 249.562L418.072 262.774L422.885 262.753L422.827 249.541Z" fill="#B5C3C2"/>
<path opacity="0.29" d="M432.342 249.499L427.529 249.52L427.587 262.732L432.4 262.711L432.342 249.499Z" fill="#B5C3C2"/>
<path d="M441.842 249.457L437.045 249.479L437.103 262.691L441.9 262.67L441.842 249.457Z" fill="#B5C3C2"/>
<path d="M451.358 249.415L446.561 249.437L446.619 262.649L451.416 262.628L451.358 249.415Z" fill="#B5C3C2"/>
<path d="M403.885 270.229L399.073 270.25L399.131 283.462L403.943 283.441L403.885 270.229Z" fill="#B5C3C2"/>
<path d="M413.401 270.187L408.588 270.208L408.646 283.42L413.459 283.399L413.401 270.187Z" fill="#B5C3C2"/>
<path d="M422.917 270.145L418.104 270.167L418.162 283.379L422.975 283.357L422.917 270.145Z" fill="#B5C3C2"/>
<path d="M432.433 270.104L427.62 270.125L427.678 283.337L432.491 283.316L432.433 270.104Z" fill="#B5C3C2"/>
<path d="M441.933 270.062L437.136 270.083L437.194 283.295L441.991 283.274L441.933 270.062Z" fill="#B5C3C2"/>
<path opacity="0.29" d="M451.449 270.02L446.652 270.041L446.71 283.253L451.507 283.232L451.449 270.02Z" fill="#B5C3C2"/>
<path d="M403.976 290.817L399.163 290.839L399.221 304.051L404.034 304.03L403.976 290.817Z" fill="#B5C3C2"/>
<path opacity="0.29" d="M413.491 290.776L408.678 290.797L408.736 304.009L413.549 303.988L413.491 290.776Z" fill="#B5C3C2"/>
<path opacity="0.29" d="M423.008 290.734L418.195 290.755L418.253 303.967L423.066 303.946L423.008 290.734Z" fill="#B5C3C2"/>
<path d="M432.523 290.692L427.71 290.713L427.768 303.925L432.581 303.904L432.523 290.692Z" fill="#B5C3C2"/>
<path d="M442.023 290.651L437.226 290.672L437.284 303.884L442.081 303.863L442.023 290.651Z" fill="#B5C3C2"/>
<path d="M451.539 290.609L446.742 290.63L446.8 303.842L451.597 303.821L451.539 290.609Z" fill="#B5C3C2"/>
<path d="M404.066 311.422L399.253 311.443L399.311 324.655L404.124 324.634L404.066 311.422Z" fill="#B5C3C2"/>
<path d="M413.582 311.38L408.769 311.401L408.827 324.613L413.64 324.592L413.582 311.38Z" fill="#B5C3C2"/>
<path d="M423.098 311.338L418.285 311.36L418.343 324.572L423.156 324.551L423.098 311.338Z" fill="#B5C3C2"/>
<path d="M432.614 311.297L427.801 311.318L427.859 324.53L432.672 324.509L432.614 311.297Z" fill="#B5C3C2"/>
<path opacity="0.29" d="M442.114 311.255L437.316 311.276L437.374 324.488L442.172 324.467L442.114 311.255Z" fill="#B5C3C2"/>
<path d="M451.629 311.213L446.832 311.234L446.89 324.446L451.687 324.425L451.629 311.213Z" fill="#B5C3C2"/>
<path d="M404.157 332.011L399.344 332.032L399.402 345.244L404.215 345.223L404.157 332.011Z" fill="#B5C3C2"/>
<path opacity="0.29" d="M413.672 331.969L408.859 331.99L408.917 345.202L413.73 345.181L413.672 331.969Z" fill="#B5C3C2"/>
<path d="M423.188 331.927L418.375 331.948L418.433 345.16L423.246 345.139L423.188 331.927Z" fill="#B5C3C2"/>
<path d="M432.704 331.885L427.891 331.906L427.949 345.119L432.762 345.097L432.704 331.885Z" fill="#B5C3C2"/>
<path d="M442.204 331.844L437.407 331.865L437.465 345.077L442.262 345.056L442.204 331.844Z" fill="#B5C3C2"/>
<path d="M451.72 331.802L446.923 331.823L446.981 345.035L451.778 345.014L451.72 331.802Z" fill="#B5C3C2"/>
<path d="M404.247 352.615L399.434 352.636L399.492 365.848L404.305 365.827L404.247 352.615Z" fill="#B5C3C2"/>
<path d="M413.763 352.574L408.95 352.595L409.008 365.807L413.821 365.786L413.763 352.574Z" fill="#B5C3C2"/>
<path d="M423.279 352.532L418.466 352.553L418.524 365.765L423.337 365.744L423.279 352.532Z" fill="#B5C3C2"/>
<path opacity="0.29" d="M432.794 352.49L427.981 352.511L428.039 365.723L432.852 365.702L432.794 352.49Z" fill="#B5C3C2"/>
<path d="M442.295 352.448L437.497 352.469L437.555 365.681L442.353 365.66L442.295 352.448Z" fill="#B5C3C2"/>
<path opacity="0.29" d="M451.81 352.406L447.013 352.427L447.071 365.64L451.868 365.618L451.81 352.406Z" fill="#B5C3C2"/>
<path opacity="0.29" d="M404.337 373.204L399.524 373.225L399.582 386.437L404.395 386.416L404.337 373.204Z" fill="#B5C3C2"/>
<path d="M413.853 373.162L409.04 373.183L409.098 386.395L413.911 386.374L413.853 373.162Z" fill="#B5C3C2"/>
<path opacity="0.29" d="M423.369 373.12L418.556 373.142L418.614 386.354L423.427 386.332L423.369 373.12Z" fill="#B5C3C2"/>
<path d="M432.885 373.078L428.072 373.1L428.13 386.312L432.943 386.291L432.885 373.078Z" fill="#B5C3C2"/>
<path d="M442.385 373.037L437.588 373.058L437.646 386.27L442.443 386.249L442.385 373.037Z" fill="#B5C3C2"/>
<path d="M451.901 372.995L447.104 373.016L447.162 386.228L451.959 386.207L451.901 372.995Z" fill="#B5C3C2"/>
<path d="M310.648 167.189L208.507 167.637L209.442 380.697L311.583 380.249L310.648 167.189Z" fill="#B5C3C2"/>
<path d="M313.526 163.512L205.581 163.986L205.607 170.01L313.553 169.536L313.526 163.512Z" fill="#B5C3C2"/>
<path d="M307.169 155.832L211.885 156.25L212.011 184.877L307.295 184.458L307.169 155.832Z" fill="#B5C3C2"/>
<path d="M256.865 144.351L219.132 144.517L219.269 175.785L257.002 175.619L256.865 144.351Z" fill="#B5C3C2"/>
<path d="M241.002 153.228L219.171 153.324L219.098 136.856L234.748 136.788L241.002 153.228Z" fill="#B5C3C2"/>
<path d="M229.954 123.141L227.831 123.15L227.992 159.813L230.115 159.804L229.954 123.141Z" fill="#B5C3C2"/>
<path d="M230.78 121.281C230.781 121.657 230.671 122.026 230.464 122.339C230.256 122.653 229.96 122.899 229.613 123.044C229.266 123.19 228.883 123.229 228.514 123.157C228.144 123.086 227.804 122.906 227.537 122.641C227.269 122.376 227.087 122.037 227.012 121.669C226.937 121.3 226.973 120.917 227.115 120.569C227.258 120.22 227.5 119.922 227.812 119.711C228.124 119.501 228.492 119.388 228.868 119.386C229.373 119.384 229.858 119.582 230.216 119.937C230.575 120.293 230.778 120.776 230.78 121.281Z" fill="#B5C3C2"/>
<path d="M1157.52 392.767L1045.71 393.258L1030.38 80.0527L1156.26 105.61L1157.52 392.767Z" fill="#B5C3C2"/>
<path d="M668.915 215.996L668.456 111.275L650.918 111.352L650.795 83.2921L644.535 83.3195L644.355 42.1735L609.83 42.3251L609.698 12.0947L606.631 12.1081L606.763 42.3385L600 42.3682L599.834 4.52519L596.767 4.53865L596.933 42.3817L575.117 42.4774L575.421 111.683L564.144 111.733L564.603 216.454L554.946 216.496L555.783 407.269L676.548 406.738L675.71 215.966L668.915 215.996Z" fill="#B5C3C2"/>
<path d="M1402.67 387.806L66.7275 393.671L66.867 425.443L1402.81 419.578L1402.67 387.806Z" fill="#B5C3C2"/>
<path d="M853.216 414.205L794.061 414.464L816.583 295.895L852.696 295.737L853.216 414.205Z" fill="#95A9A7"/>
<path d="M1421.61 416.318L18.928 422.476L19.1479 472.571L1421.83 466.414L1421.61 416.318Z" fill="#95A9A7"/>
<path d="M803.778 195.208L803.548 142.722L784.548 142.805L784.46 122.814L774.299 122.859L774.226 106.076L770.655 106.092L770.529 77.3085L769.617 77.3125L769.743 106.096L766.172 106.112L766.246 122.894L756.086 122.939L756.173 142.93L737.315 143.012L737.545 195.499L733.629 195.516L734.047 290.816L704.823 290.944L705.3 399.581L734.524 399.453L763.748 399.325L808.448 399.129L807.553 195.191L803.778 195.208Z" fill="#95A9A7"/>
<path d="M913.2 255.032L821.266 255.436L821.273 257.103L825.425 257.085L826.108 412.546L909.737 412.179L909.055 256.718L913.207 256.699L913.2 255.032Z" fill="#95A9A7"/>
<path d="M494.139 295.596L412.618 295.954L413.186 425.464L494.708 425.106L494.139 295.596Z" fill="#95A9A7"/>
<path d="M400.625 362.352L260.436 362.967L260.713 426.117L400.902 425.502L400.625 362.352Z" fill="#95A9A7"/>
<path d="M365.733 221.416L334.952 221.552L335.633 376.636L366.414 376.5L365.733 221.416Z" fill="#95A9A7"/>
<path d="M343.169 180.133L341.565 180.14L341.935 264.477L343.54 264.47L343.169 180.133Z" fill="#95A9A7"/>
<path d="M348.404 186.511L346.8 186.518L347.17 270.855L348.774 270.848L348.404 186.511Z" fill="#95A9A7"/>
<path d="M356.096 211.864L337.285 211.947L337.376 232.724L356.188 232.641L356.096 211.864Z" fill="#95A9A7"/>
<path d="M448.502 318.981L394.946 319.217L395.413 425.542L448.969 425.307L448.502 318.981Z" fill="#95A9A7"/>
<path d="M607.481 205.759L506.943 206.2L507.904 425.032L608.441 424.591L607.481 205.759Z" fill="#95A9A7"/>
<path d="M597.57 198.284L516.788 198.639L516.948 235.082L597.73 234.727L597.57 198.284Z" fill="#95A9A7"/>
<path d="M615.302 210.302L499.177 210.811L499.189 213.375L615.313 212.865L615.302 210.302Z" fill="#95A9A7"/>
<path d="M536.58 314.395L489.205 314.603L489.69 425.112L537.065 424.904L536.58 314.395Z" fill="#95A9A7"/>
<path d="M204.247 311.654L149.889 311.893L150.393 426.602L204.751 426.363L204.247 311.654Z" fill="#95A9A7"/>
<path d="M275.66 280.166L167.337 280.642L167.977 426.524L276.3 426.049L275.66 280.166Z" fill="#95A9A7"/>
<path d="M278.419 274.555L160.989 275.07L161.014 280.669L278.444 280.154L278.419 274.555Z" fill="#95A9A7"/>
<path d="M219.637 259.618L172.043 259.827L172.173 289.413L219.767 289.204L219.637 259.618Z" fill="#95A9A7"/>
<path d="M243.183 259.515L235.193 259.55L235.272 277.544L243.262 277.508L243.183 259.515Z" fill="#95A9A7"/>
<path d="M259.981 259.441L251.189 259.48L251.268 277.473L260.06 277.435L259.981 259.441Z" fill="#95A9A7"/>
<path d="M177.392 382.112L120.628 382.361L120.823 426.732L177.587 426.482L177.392 382.112Z" fill="#95A9A7"/>
<path d="M125.988 363.557L99.1074 363.675L99.3846 426.825L126.265 426.707L125.988 363.557Z" fill="#95A9A7"/>
<path d="M112.704 404.589L66.7764 404.791L66.8737 426.968L112.801 426.767L112.704 404.589Z" fill="#95A9A7"/>
<path d="M1164.34 372.998L598.348 375.482L598.564 424.65L1164.56 422.165L1164.34 372.998Z" fill="#95A9A7"/>
<path d="M1118.56 237.097C1116.84 237.103 1115.19 237.759 1113.94 238.931C1112.69 240.104 1111.92 241.706 1111.81 243.418L1103.85 243.201C1103.84 242.415 1103.84 241.628 1103.84 240.857C1103.81 231.097 1102.07 221.416 1098.71 212.253L1105.37 209.77C1106.04 211.306 1107.27 212.535 1108.8 213.22C1110.33 213.905 1112.06 213.997 1113.66 213.479C1115.26 212.96 1116.6 211.868 1117.44 210.414C1118.28 208.959 1118.55 207.246 1118.19 205.605C1117.84 203.964 1116.89 202.513 1115.53 201.531C1114.17 200.55 1112.49 200.109 1110.82 200.293C1109.16 200.476 1107.61 201.273 1106.5 202.527C1105.38 203.782 1104.77 205.405 1104.79 207.083C1104.79 207.755 1104.9 208.422 1105.1 209.064L1098.45 211.547C1094.57 201.295 1088.7 191.909 1081.19 183.924L1086.37 179.025C1087.66 180.231 1089.36 180.889 1091.12 180.859C1092.88 180.83 1094.56 180.114 1095.8 178.865C1097.04 177.616 1097.75 175.932 1097.77 174.172C1097.79 172.411 1097.12 170.712 1095.9 169.436C1094.69 168.16 1093.03 167.407 1091.27 167.339C1089.51 167.27 1087.79 167.89 1086.48 169.068C1085.17 170.245 1084.37 171.887 1084.26 173.644C1084.14 175.401 1084.71 177.135 1085.85 178.477L1080.67 183.376C1080.13 182.812 1079.58 182.248 1079.09 181.7C1071.31 173.964 1062.09 167.832 1051.95 163.652L1054.78 156.671C1056.47 157.196 1058.3 157.041 1059.88 156.239C1061.46 155.437 1062.66 154.052 1063.23 152.377C1063.8 150.703 1063.7 148.872 1062.94 147.273C1062.18 145.674 1060.83 144.434 1059.17 143.816C1057.52 143.197 1055.68 143.251 1054.06 143.963C1052.44 144.676 1051.17 145.993 1050.5 147.633C1049.84 149.273 1049.84 151.107 1050.51 152.746C1051.17 154.384 1052.45 155.698 1054.08 156.407L1051.21 163.293C1042.15 159.673 1032.53 157.671 1022.78 157.378L1023.05 147.845L1023.27 147.844C1025.02 147.71 1026.64 146.904 1027.81 145.595C1028.97 144.287 1029.58 142.577 1029.51 140.827C1029.44 139.077 1028.69 137.423 1027.43 136.212C1026.16 135.002 1024.48 134.33 1022.73 134.337C1020.97 134.345 1019.29 135.032 1018.04 136.254C1016.78 137.475 1016.05 139.136 1016 140.886C1015.94 142.637 1016.57 144.341 1017.74 145.64C1018.92 146.938 1020.55 147.73 1022.3 147.849L1022.02 157.413L1019.68 157.423C1010.32 157.449 1001.03 159.048 992.192 162.152L989.405 154.379C990.969 153.734 992.237 152.529 992.962 151C993.687 149.472 993.816 147.728 993.326 146.108C992.835 144.489 991.76 143.11 990.308 142.241C988.857 141.371 987.134 141.073 985.474 141.404C983.815 141.736 982.339 142.673 981.332 144.033C980.326 145.393 979.862 147.079 980.031 148.763C980.2 150.447 980.99 152.007 982.246 153.14C983.503 154.273 985.136 154.899 986.828 154.894C987.46 154.895 988.09 154.808 988.698 154.634L991.47 162.486C980.791 166.353 971.017 172.364 962.748 180.15L957.753 174.714C958.96 173.396 959.605 171.66 959.551 169.874C959.497 168.089 958.748 166.395 957.464 165.153C956.18 163.911 954.462 163.219 952.675 163.224C950.889 163.23 949.175 163.932 947.899 165.182C946.622 166.432 945.884 168.13 945.841 169.916C945.798 171.702 946.453 173.435 947.668 174.745C948.883 176.055 950.561 176.839 952.345 176.93C954.129 177.022 955.878 176.414 957.221 175.235L962.199 180.514L960.523 182.094C953.653 189.022 948.037 197.087 943.923 205.933L937.619 203.051C937.857 202.352 937.976 201.618 937.971 200.879C937.957 199.21 937.328 197.604 936.204 196.37C935.079 195.135 933.539 194.36 931.878 194.191C930.217 194.022 928.552 194.472 927.202 195.455C925.852 196.438 924.913 197.884 924.563 199.517C924.214 201.149 924.479 202.853 925.309 204.303C926.138 205.752 927.473 206.844 929.058 207.369C930.642 207.895 932.365 207.818 933.896 207.152C935.427 206.486 936.659 205.278 937.355 203.76L943.659 206.627C939.151 216.622 936.66 227.409 936.327 238.368L928.226 238.137C928.12 236.383 927.334 234.74 926.035 233.556C924.737 232.373 923.028 231.743 921.272 231.8C919.516 231.856 917.851 232.596 916.632 233.861C915.413 235.126 914.735 236.816 914.743 238.573C914.75 240.33 915.443 242.015 916.673 243.269C917.904 244.523 919.575 245.248 921.331 245.289C923.087 245.331 924.791 244.686 926.079 243.491C927.367 242.296 928.138 240.646 928.229 238.892L936.33 239.123C936.334 239.894 936.337 240.696 936.341 241.467C936.372 251.221 938.102 260.895 941.452 270.055L934.81 272.538C934.132 271.004 932.909 269.775 931.377 269.09C929.846 268.405 928.115 268.312 926.519 268.829C924.923 269.346 923.576 270.437 922.737 271.89C921.899 273.343 921.629 275.055 921.98 276.696C922.331 278.336 923.277 279.788 924.637 280.771C925.996 281.754 927.672 282.198 929.34 282.017C931.008 281.836 932.549 281.043 933.666 279.792C934.784 278.54 935.397 276.919 935.388 275.241C935.383 274.564 935.279 273.892 935.08 273.245L941.723 270.762C945.604 281.021 951.471 290.413 958.988 298.401L953.804 303.299C952.497 302.026 950.746 301.314 948.922 301.313C947.098 301.312 945.345 302.024 944.038 303.296C942.731 304.568 941.972 306.3 941.922 308.123C941.873 309.946 942.537 311.717 943.774 313.058C945.011 314.398 946.722 315.204 948.543 315.301C950.365 315.399 952.152 314.782 953.526 313.582C954.899 312.381 955.749 310.692 955.896 308.874C956.042 307.056 955.473 305.252 954.309 303.848L959.447 298.965L961.027 300.641C966.288 305.853 972.209 310.354 978.64 314.027L937.983 389.846L930.622 389.879L930.631 392.033L927.014 392.049L927.033 396.343L1114.42 395.521L1114.4 391.227L1110.85 391.242L1110.84 389.087L1103.48 389.12L1062.14 313.708C1067.64 310.499 1072.76 306.678 1077.4 302.316L1084.08 309.381C1082.88 310.432 1082.09 311.872 1081.84 313.449C1081.59 315.026 1081.91 316.64 1082.73 318.008C1083.55 319.377 1084.83 320.414 1086.33 320.938C1087.84 321.462 1089.48 321.439 1090.98 320.874C1092.47 320.31 1093.72 319.239 1094.5 317.848C1095.29 316.457 1095.56 314.836 1095.27 313.266C1094.98 311.697 1094.14 310.279 1092.91 309.26C1091.69 308.242 1090.14 307.687 1088.54 307.694C1087.16 307.695 1085.81 308.124 1084.68 308.922L1077.95 301.795C1078.51 301.258 1079.07 300.72 1079.62 300.215C1086.49 293.281 1092.1 285.203 1096.19 276.344L1103.6 279.725C1103.47 280.271 1103.4 280.831 1103.4 281.393C1103.4 283.093 1104.04 284.731 1105.19 285.985C1106.34 287.238 1107.92 288.016 1109.61 288.166C1111.31 288.315 1112.99 287.826 1114.35 286.793C1115.7 285.76 1116.61 284.26 1116.91 282.586C1117.21 280.912 1116.88 279.186 1115.97 277.748C1115.06 276.31 1113.65 275.263 1112.01 274.813C1110.37 274.364 1108.62 274.544 1107.11 275.319C1105.59 276.094 1104.42 277.407 1103.83 279L1096.5 275.651C1101 265.659 1103.49 254.878 1103.82 243.925L1111.79 244.141C1111.84 245.476 1112.27 246.769 1113.04 247.858C1113.82 248.947 1114.9 249.784 1116.14 250.264C1117.39 250.744 1118.75 250.846 1120.05 250.557C1121.36 250.268 1122.55 249.601 1123.47 248.64C1124.4 247.678 1125.03 246.465 1125.27 245.151C1125.51 243.837 1125.36 242.482 1124.83 241.253C1124.31 240.025 1123.43 238.979 1122.32 238.245C1121.2 237.511 1119.89 237.123 1118.56 237.128L1118.56 237.097ZM1101.6 240.804C1101.6 241.559 1101.61 242.377 1101.61 243.069L1078.14 242.417C1078.14 241.914 1078.14 241.411 1078.13 240.844C1078.11 234.125 1076.92 227.46 1074.6 221.152L1096.59 212.923C1099.87 221.853 1101.57 231.289 1101.6 240.804ZM1076.98 242.375L1024.62 240.906C1024.61 240.57 1024.55 240.238 1024.45 239.916L1073.52 221.613C1075.79 227.795 1076.96 234.327 1076.99 240.912C1076.99 241.4 1076.99 241.825 1076.98 242.375ZM963.136 239.934L1015.49 241.403C1015.51 241.737 1015.56 242.069 1015.65 242.393L966.577 260.712C964.321 254.527 963.153 247.997 963.127 241.412C963.124 240.909 963.122 240.421 963.136 239.934ZM1023.62 238.3L1061.67 202.349C1066.7 207.729 1070.63 214.03 1073.26 220.906L1024.19 239.21C1024.05 238.888 1023.88 238.583 1023.67 238.3L1023.62 238.3ZM1023.1 237.752C1022.81 237.485 1022.48 237.259 1022.12 237.079L1041.79 188.501C1049.09 191.521 1055.68 196.029 1061.15 201.738L1023.1 237.752ZM1021.41 236.784C1021.14 236.703 1020.85 236.647 1020.56 236.614L1022.03 184.262C1028.57 184.485 1035.02 185.835 1041.1 188.252L1021.41 236.784ZM1019.84 236.586C1019.53 236.602 1019.22 236.65 1018.91 236.732L1001.28 187.42C1007.24 185.317 1013.51 184.227 1019.83 184.193L1021.31 184.187L1019.84 236.586ZM1018.27 236.986C1017.93 237.148 1017.61 237.35 1017.31 237.588L981.346 199.541C986.92 194.337 993.481 190.302 1000.64 187.675L1018.27 236.986ZM1016.7 238.11C1016.47 238.354 1016.27 238.624 1016.11 238.915L968.462 217.103C971.461 210.688 975.622 204.884 980.734 199.984L1016.7 238.11ZM1015.79 239.608C1015.67 239.942 1015.59 240.292 1015.56 240.647L963.164 239.179C963.404 231.823 965.082 224.586 968.104 217.876L1015.79 239.608ZM1015.97 243.099C1016.08 243.367 1016.23 243.62 1016.41 243.852L1016.1 244.42L978.506 279.975C973.483 274.593 969.546 268.292 966.911 261.419L1015.97 243.099ZM1014.96 246.533L991.402 290.331C986.82 287.656 982.634 284.355 978.964 280.523L1014.96 246.533ZM1017.53 244.948C1017.7 245.056 1017.86 245.155 1018.04 245.245L998.353 293.776C996.439 292.983 994.571 292.083 992.758 291.08L1017.53 244.948ZM1018.73 245.525C1019.01 245.606 1019.3 245.662 1019.6 245.694L1018.13 298.047C1011.57 297.843 1005.11 296.498 999.015 294.072L1018.73 245.525ZM1020.35 298.084L1018.88 298.09L1020.35 245.738C1020.66 245.722 1020.98 245.673 1021.28 245.593L1038.91 294.904C1032.93 297.004 1026.64 298.079 1020.3 298.084L1020.35 298.084ZM1021.99 245.322C1022.23 245.205 1022.48 245.073 1022.71 244.926L1047.87 290.838C1045.23 292.33 1042.47 293.6 1039.61 294.633L1021.99 245.322ZM1026.2 248.166L1058.86 282.799C1055.89 285.573 1052.63 288.024 1049.14 290.109L1026.2 248.166ZM1024.77 245.546L1023.82 243.82C1023.91 243.678 1024.01 243.536 1024.08 243.394L1071.73 265.127C1068.74 271.543 1064.58 277.349 1059.47 282.246L1024.77 245.546ZM1024.4 242.7C1024.52 242.365 1024.6 242.016 1024.64 241.661L1077 243.13C1076.75 250.491 1075.07 257.734 1072.04 264.449L1024.4 242.7ZM997.886 294.817L989.048 316.624C986.313 315.505 983.645 314.23 981.056 312.806L992.18 292.073C994.03 293.092 995.935 294.007 997.886 294.817ZM998.579 295.112C1004.78 297.585 1011.37 298.961 1018.04 299.179L1017.39 322.666C1007.91 322.366 998.551 320.417 989.741 316.904L998.579 295.112ZM1018.79 299.208L1020.37 299.201C1026.79 299.181 1033.16 298.09 1039.23 295.972L1047.19 318.131C1038.6 321.137 1029.57 322.686 1020.47 322.715L1018.2 322.725L1018.79 299.208ZM1039.95 295.701C1042.86 294.638 1045.68 293.343 1048.38 291.827L1059.68 312.461C1055.9 314.578 1051.94 316.384 1047.86 317.86L1039.95 295.701ZM1096.36 212.279L1074.38 220.508C1071.7 213.487 1067.68 207.052 1062.55 201.559L1079.64 185.409C1086.92 193.185 1092.6 202.314 1096.36 212.279ZM1077.46 183.248C1077.99 183.781 1078.53 184.313 1079.04 184.814L1061.96 200.995C1056.39 195.171 1049.67 190.568 1042.23 187.477L1051.06 165.685C1060.93 169.747 1069.9 175.716 1077.46 183.248ZM1050.37 165.405L1041.52 187.212C1035.32 184.732 1028.73 183.35 1022.06 183.13L1022.73 159.659C1032.21 159.945 1041.56 161.89 1050.37 165.405ZM1019.69 159.61L1021.97 159.6L1021.3 183.07L1019.73 183.077C1013.31 183.095 1006.93 184.186 1000.87 186.305L992.908 164.163C1001.52 161.16 1010.57 159.621 1019.69 159.61ZM992.233 164.449L1000.19 186.592C992.891 189.279 986.197 193.399 980.508 198.711L964.358 181.621C972.384 174.063 981.87 168.225 992.233 164.464L992.233 164.449ZM962.087 183.755L963.653 182.175L979.803 199.264C974.586 204.26 970.345 210.183 967.297 216.731L945.894 206.963C949.894 198.34 955.375 190.485 962.087 183.755ZM945.677 207.625L967.079 217.393C963.993 224.258 962.278 231.66 962.032 239.184L938.545 238.516C938.867 227.85 941.291 217.352 945.677 207.625ZM938.511 241.52C938.508 240.75 938.504 239.947 938.501 239.24L961.972 239.907C961.974 240.411 961.976 240.914 961.979 241.48C962.02 248.209 963.236 254.879 965.573 261.188L943.588 269.401C940.287 260.474 938.568 251.039 938.511 241.52ZM943.748 270.03L965.733 261.817C968.419 268.836 972.443 275.266 977.581 280.75L960.539 296.899C953.227 289.136 947.521 280.005 943.748 270.03ZM962.593 299.077L961.014 297.511L978.087 281.361C981.84 285.284 986.122 288.664 990.809 291.403L979.685 312.135C973.441 308.549 967.694 304.159 962.593 299.077ZM1101.67 389.128L939.666 389.839L979.964 314.808C982.628 316.26 985.37 317.566 988.176 318.72L985.344 325.716C984.677 325.506 983.982 325.398 983.282 325.395C981.599 325.397 979.977 326.022 978.727 327.15C977.478 328.277 976.69 329.827 976.516 331.501C976.342 333.175 976.794 334.855 977.785 336.215C978.776 337.575 980.236 338.521 981.882 338.869C983.529 339.217 985.246 338.943 986.703 338.099C988.159 337.256 989.252 335.904 989.77 334.302C990.288 332.701 990.195 330.965 989.509 329.428C988.822 327.891 987.592 326.663 986.053 325.98L988.869 319C997.928 322.623 1007.55 324.63 1017.3 324.931L1017.1 332.057C1015.31 332.163 1013.63 332.962 1012.43 334.285C1011.22 335.607 1010.58 337.348 1010.63 339.137C1010.69 340.927 1011.44 342.623 1012.73 343.866C1014.02 345.109 1015.74 345.8 1017.54 345.792C1019.33 345.784 1021.04 345.078 1022.32 343.824C1023.6 342.57 1024.34 340.867 1024.38 339.077C1024.42 337.287 1023.76 335.552 1022.54 334.24C1021.32 332.929 1019.64 332.144 1017.85 332.054L1018.06 324.912L1020.4 324.902C1029.77 324.873 1039.06 323.28 1047.91 320.188L1050.37 327.114C1048.86 327.832 1047.67 329.082 1047.02 330.625C1046.38 332.168 1046.32 333.895 1046.87 335.476C1047.42 337.057 1048.53 338.38 1049.99 339.192C1051.45 340.004 1053.17 340.247 1054.8 339.876C1056.43 339.505 1057.87 338.546 1058.83 337.181C1059.8 335.816 1060.23 334.142 1060.04 332.48C1059.85 330.818 1059.05 329.284 1057.8 328.173C1056.55 327.061 1054.94 326.45 1053.26 326.456C1052.52 326.456 1051.78 326.582 1051.08 326.827L1048.61 319.933C1052.8 318.416 1056.87 316.562 1060.76 314.39L1101.67 389.128ZM1060.95 311.716L1049.63 291.082C1053.22 288.948 1056.56 286.433 1059.6 283.583L1075.85 300.672C1071.33 304.903 1066.35 308.608 1061 311.716L1060.95 311.716ZM1077.92 298.571L1076.35 300.15L1060.2 283.077C1065.41 278.074 1069.65 272.153 1072.71 265.61L1094.11 275.362C1090.12 283.978 1084.65 291.831 1077.96 298.57L1077.92 298.571ZM1094.39 274.685L1072.99 264.917C1076.07 258.066 1077.78 250.68 1078.03 243.173L1101.5 243.825C1101.19 254.475 1098.79 264.96 1094.44 274.684L1094.39 274.685Z" fill="#95A9A7"/>
<path d="M1222.63 293.83L1135.23 294.214L1135.79 422.276L1223.19 421.892L1222.63 293.83Z" fill="#95A9A7"/>
<path d="M1297.45 343.299L1210.05 343.683L1210.39 421.225L1297.79 420.841L1297.45 343.299Z" fill="#95A9A7"/>
<path d="M920.088 333.568L871.062 333.783L871.347 398.868L920.373 398.653L920.088 333.568Z" fill="#95A9A7"/>
<path d="M1240.2 171.98L1178.39 172.251L1179.48 422.1L1241.3 421.829L1240.2 171.98Z" fill="#95A9A7"/>
<path d="M1343.09 421.366L1261.56 421.724L1260.92 275.841L1322.73 275.569L1343.09 421.366Z" fill="#95A9A7"/>
<path d="M1378.65 387.912L1307.24 388.225L1307.39 421.523L1378.8 421.209L1378.65 387.912Z" fill="#95A9A7"/>
<path d="M1226.13 119.837L1223.99 119.846L1224.29 187.747L1226.43 187.737L1226.13 119.837Z" fill="#95A9A7"/>
<path d="M1233.38 134.37L1231.24 134.38L1231.54 202.28L1233.68 202.271L1233.38 134.37Z" fill="#95A9A7"/>
<path d="M1219.71 143.805L1217.57 143.814L1217.87 211.714L1220.01 211.705L1219.71 143.805Z" fill="#95A9A7"/>
<path d="M1293.23 263.902L1264.06 264.031L1264.16 287.01L1293.33 286.882L1293.23 263.902Z" fill="#95A9A7"/>
<path d="M1290.02 255.722L1267.23 255.822L1267.29 268.735L1290.08 268.635L1290.02 255.722Z" fill="#95A9A7"/>
<path d="M1310.45 270.559L1304.85 270.583L1304.9 279.863L1310.5 279.839L1310.45 270.559Z" fill="#95A9A7"/>
<path d="M1320.39 262.053L1312.4 262.088L1312.48 279.83L1320.47 279.795L1320.39 262.053Z" fill="#95A9A7"/>
<path d="M944.467 229.634L870.354 229.96L871.402 468.846L945.515 468.521L944.467 229.634Z" fill="#658280"/>
<path d="M950.01 231.026L864.824 231.4L864.834 233.822L950.02 233.448L950.01 231.026Z" fill="#658280"/>
<path d="M947.861 264.585L867.283 264.938L867.294 267.345L947.871 266.991L947.861 264.585Z" fill="#658280"/>
<path d="M948.003 297.08L867.426 297.434L867.436 299.84L948.014 299.487L948.003 297.08Z" fill="#658280"/>
<path d="M948.146 329.575L867.568 329.929L867.579 332.336L948.157 331.982L948.146 329.575Z" fill="#658280"/>
<path d="M948.289 362.071L867.711 362.425L867.722 364.831L948.299 364.477L948.289 362.071Z" fill="#658280"/>
<path d="M948.431 394.582L867.854 394.936L867.864 397.342L948.442 396.988L948.431 394.582Z" fill="#658280"/>
<path d="M948.574 427.077L867.996 427.431L868.007 429.838L948.585 429.484L948.574 427.077Z" fill="#658280"/>
<path d="M952.796 224.407L861.979 224.806L862.008 231.412L952.825 231.014L952.796 224.407Z" fill="#658280"/>
<path opacity="0.29" d="M884.781 241.583L877.074 241.617L877.158 260.696L884.865 260.662L884.781 241.583Z" fill="#658280"/>
<path d="M902.004 241.507L894.297 241.541L894.381 260.62L902.088 260.586L902.004 241.507Z" fill="#658280"/>
<path d="M919.227 241.432L911.52 241.466L911.604 260.544L919.311 260.511L919.227 241.432Z" fill="#658280"/>
<path d="M936.45 241.356L928.743 241.39L928.827 260.469L936.534 260.435L936.45 241.356Z" fill="#658280"/>
<path d="M884.918 272.773L877.211 272.807L877.295 291.885L885.002 291.852L884.918 272.773Z" fill="#658280"/>
<path opacity="0.29" d="M902.141 272.697L894.434 272.731L894.518 291.81L902.225 291.776L902.141 272.697Z" fill="#658280"/>
<path d="M919.364 272.622L911.657 272.656L911.741 291.734L919.448 291.7L919.364 272.622Z" fill="#658280"/>
<path d="M936.587 272.546L928.88 272.58L928.964 291.659L936.671 291.625L936.587 272.546Z" fill="#658280"/>
<path d="M885.061 305.268L877.354 305.302L877.438 324.381L885.145 324.347L885.061 305.268Z" fill="#658280"/>
<path d="M902.284 305.192L894.577 305.226L894.661 324.305L902.368 324.271L902.284 305.192Z" fill="#658280"/>
<path d="M919.507 305.117L911.8 305.151L911.883 324.23L919.59 324.196L919.507 305.117Z" fill="#658280"/>
<path opacity="0.29" d="M936.73 305.041L929.023 305.075L929.106 324.154L936.813 324.12L936.73 305.041Z" fill="#658280"/>
<path d="M885.204 337.779L877.497 337.813L877.58 356.892L885.287 356.858L885.204 337.779Z" fill="#658280"/>
<path opacity="0.29" d="M902.427 337.704L894.719 337.738L894.803 356.816L902.51 356.783L902.427 337.704Z" fill="#658280"/>
<path opacity="0.29" d="M919.649 337.628L911.942 337.662L912.026 356.741L919.733 356.707L919.649 337.628Z" fill="#658280"/>
<path d="M936.872 337.553L929.166 337.586L929.249 356.665L936.956 356.631L936.872 337.553Z" fill="#658280"/>
<path opacity="0.29" d="M885.346 370.275L877.639 370.308L877.723 389.387L885.43 389.353L885.346 370.275Z" fill="#658280"/>
<path d="M902.569 370.199L894.862 370.233L894.946 389.312L902.653 389.278L902.569 370.199Z" fill="#658280"/>
<path d="M919.792 370.123L912.085 370.157L912.169 389.236L919.876 389.202L919.792 370.123Z" fill="#658280"/>
<path d="M937.015 370.048L929.308 370.082L929.392 389.16L937.099 389.127L937.015 370.048Z" fill="#658280"/>
<path d="M885.489 402.77L877.782 402.803L877.866 421.882L885.573 421.848L885.489 402.77Z" fill="#658280"/>
<path d="M902.712 402.694L895.005 402.728L895.089 421.807L902.796 421.773L902.712 402.694Z" fill="#658280"/>
<path opacity="0.29" d="M919.935 402.619L912.228 402.652L912.311 421.731L920.018 421.697L919.935 402.619Z" fill="#658280"/>
<path d="M937.158 402.543L929.451 402.577L929.534 421.655L937.241 421.622L937.158 402.543Z" fill="#658280"/>
<path d="M885.632 435.265L877.925 435.299L878.008 454.378L885.715 454.344L885.632 435.265Z" fill="#658280"/>
<path opacity="0.29" d="M902.855 435.19L895.147 435.223L895.231 454.302L902.938 454.268L902.855 435.19Z" fill="#658280"/>
<path d="M920.077 435.114L912.37 435.148L912.454 454.226L920.161 454.193L920.077 435.114Z" fill="#658280"/>
<path opacity="0.29" d="M937.3 435.038L929.594 435.072L929.677 454.151L937.384 454.117L937.3 435.038Z" fill="#658280"/>
<path d="M900.176 215.531L874.963 215.642L875.017 228.052L900.23 227.941L900.176 215.531Z" fill="#658280"/>
<path d="M901.888 215.178L873.262 215.303L873.271 217.427L901.897 217.301L901.888 215.178Z" fill="#658280"/>
<path d="M765.187 469.312L666.459 469.746L665.462 242.766L764.085 218.189L765.187 469.312Z" fill="#658280"/>
<path d="M669.77 238.752L661.104 238.79L662.118 469.765L670.784 469.727L669.77 238.752Z" fill="#658280"/>
<path d="M694.436 232.132L685.753 232.17L686.796 469.64L695.478 469.602L694.436 232.132Z" fill="#658280"/>
<path d="M719.069 225.276L710.402 225.314L711.474 469.548L720.141 469.51L719.069 225.276Z" fill="#658280"/>
<path d="M743.738 219.647L735.072 219.685L736.168 469.424L744.835 469.386L743.738 219.647Z" fill="#658280"/>
<path d="M768.391 213.688L759.724 213.726L760.846 469.331L769.513 469.293L768.391 213.688Z" fill="#658280"/>
<path opacity="0.29" d="M683.618 258.069L672.104 258.12L672.181 275.657L683.695 275.607L683.618 258.069Z" fill="#658280"/>
<path opacity="0.29" d="M708.312 257.961L696.799 258.011L696.876 275.549L708.389 275.498L708.312 257.961Z" fill="#658280"/>
<path d="M732.99 257.853L721.477 257.903L721.554 275.44L733.067 275.39L732.99 257.853Z" fill="#658280"/>
<path opacity="0.29" d="M757.668 257.744L746.155 257.795L746.232 275.332L757.745 275.282L757.668 257.744Z" fill="#658280"/>
<path d="M683.752 288.614L672.239 288.665L672.316 306.202L683.829 306.151L683.752 288.614Z" fill="#658280"/>
<path d="M708.446 288.506L696.933 288.556L697.01 306.094L708.523 306.043L708.446 288.506Z" fill="#658280"/>
<path opacity="0.29" d="M733.124 288.397L721.611 288.448L721.688 305.985L733.201 305.935L733.124 288.397Z" fill="#658280"/>
<path opacity="0.29" d="M757.802 288.289L746.289 288.34L746.366 305.877L757.879 305.826L757.802 288.289Z" fill="#658280"/>
<path opacity="0.29" d="M683.886 319.159L672.373 319.21L672.45 336.747L683.963 336.697L683.886 319.159Z" fill="#658280"/>
<path opacity="0.29" d="M708.58 319.051L697.067 319.101L697.144 336.639L708.657 336.588L708.58 319.051Z" fill="#658280"/>
<path opacity="0.29" d="M733.258 318.942L721.745 318.993L721.822 336.53L733.335 336.48L733.258 318.942Z" fill="#658280"/>
<path d="M757.936 318.834L746.423 318.885L746.5 336.422L758.013 336.371L757.936 318.834Z" fill="#658280"/>
<path opacity="0.29" d="M684.02 349.704L672.507 349.755L672.584 367.292L684.097 367.242L684.02 349.704Z" fill="#658280"/>
<path d="M708.714 349.596L697.201 349.646L697.278 367.184L708.791 367.133L708.714 349.596Z" fill="#658280"/>
<path opacity="0.29" d="M733.392 349.487L721.879 349.538L721.956 367.075L733.469 367.025L733.392 349.487Z" fill="#658280"/>
<path opacity="0.29" d="M758.07 349.379L746.557 349.43L746.634 366.967L758.147 366.917L758.07 349.379Z" fill="#658280"/>
<path opacity="0.29" d="M684.154 380.249L672.641 380.3L672.718 397.837L684.231 397.786L684.154 380.249Z" fill="#658280"/>
<path opacity="0.29" d="M708.848 380.141L697.335 380.191L697.412 397.729L708.925 397.678L708.848 380.141Z" fill="#658280"/>
<path d="M733.526 380.032L722.013 380.083L722.09 397.62L733.603 397.57L733.526 380.032Z" fill="#658280"/>
<path opacity="0.29" d="M758.205 379.924L746.691 379.974L746.768 397.512L758.282 397.461L758.205 379.924Z" fill="#658280"/>
<path d="M684.288 410.794L672.775 410.845L672.852 428.382L684.365 428.332L684.288 410.794Z" fill="#658280"/>
<path d="M708.982 410.686L697.469 410.736L697.546 428.274L709.059 428.223L708.982 410.686Z" fill="#658280"/>
<path opacity="0.29" d="M733.661 410.577L722.147 410.628L722.224 428.165L733.738 428.115L733.661 410.577Z" fill="#658280"/>
<path opacity="0.29" d="M758.339 410.469L746.825 410.52L746.902 428.057L758.416 428.006L758.339 410.469Z" fill="#658280"/>
<path opacity="0.29" d="M684.423 441.339L672.909 441.39L672.986 458.927L684.5 458.876L684.423 441.339Z" fill="#658280"/>
<path d="M709.116 441.231L697.603 441.281L697.68 458.819L709.193 458.768L709.116 441.231Z" fill="#658280"/>
<path opacity="0.29" d="M733.795 441.122L722.281 441.173L722.358 458.71L733.872 458.66L733.795 441.122Z" fill="#658280"/>
<path d="M758.473 441.014L746.959 441.064L747.036 458.602L758.55 458.551L758.473 441.014Z" fill="#658280"/>
<path d="M383.889 254.871L383.9 257.23L381.541 257.24L381.57 263.957L422.889 263.775L423.798 470.811L356.008 471.108L355.146 274.878L355.099 264.073L355.069 257.357L352.616 257.367L352.605 255.008L383.889 254.871Z" fill="#658280"/>
<path d="M557.852 348.15L499.781 348.405L500.317 470.475L558.387 470.22L557.852 348.15Z" fill="#658280"/>
<path d="M293.787 321.328L246.586 321.535L247.244 471.586L294.446 471.379L293.787 321.328Z" fill="#658280"/>
<path d="M335.998 352.412L284.566 352.637L285.087 471.42L336.52 471.194L335.998 352.412Z" fill="#658280"/>
<path d="M284.418 315.345L263.546 315.436L263.625 333.398L284.497 333.307L284.418 315.345Z" fill="#658280"/>
<path d="M342.926 350.415L288.096 350.656L288.115 355.044L342.945 354.803L342.926 350.415Z" fill="#658280"/>
<path d="M388.362 403.128L330.701 403.381L330.999 471.218L388.66 470.965L388.362 403.128Z" fill="#658280"/>
<path d="M190.993 348.817L144.091 349.023L144.631 472.036L191.533 471.83L190.993 348.817Z" fill="#658280"/>
<path d="M165.357 410.225L103.654 410.496L103.925 472.199L165.628 471.929L165.357 410.225Z" fill="#658280"/>
<path d="M74.2604 400.543L35.6624 400.712L35.9776 472.513L74.5756 472.344L74.2604 400.543Z" fill="#658280"/>
<path d="M158.2 449.484L66.9744 449.885L67.0731 472.377L158.299 471.976L158.2 449.484Z" fill="#658280"/>
<path d="M47.6591 442.703L0.897949 442.908L1.02859 472.667L47.7897 472.461L47.6591 442.703Z" fill="#658280"/>
<path d="M264.016 426.103L191.334 426.422L191.533 471.815L264.215 471.496L264.016 426.103Z" fill="#658280"/>
<path d="M517.911 450.831L404.68 451.328L404.766 470.879L517.996 470.382L517.911 450.831Z" fill="#658280"/>
<path d="M718.655 449.95L605.425 450.447L605.51 469.997L718.741 469.5L718.655 449.95Z" fill="#658280"/>
<path d="M513.239 393.441L470.205 393.63L452.302 460.902L513.534 460.634L513.239 393.441Z" fill="#658280"/>
<path d="M533.902 295.563L532.707 295.569L533.034 370.107L534.229 370.101L533.902 295.563Z" fill="#658280"/>
<path d="M540.414 320.764L538.81 320.771L539.003 364.764L540.607 364.757L540.414 320.764Z" fill="#658280"/>
<path d="M552.04 328.515L530.272 328.61L530.368 350.378L552.136 350.283L552.04 328.515Z" fill="#658280"/>
<path d="M555.415 326.801L526.584 326.928L526.593 328.878L555.423 328.752L555.415 326.801Z" fill="#658280"/>
<path d="M617.896 406.996L547.542 407.305L547.818 470.267L618.172 469.958L617.896 406.996Z" fill="#658280"/>
<path d="M649.348 337.541L604.144 337.739L604.677 459.211L649.881 459.013L649.348 337.541Z" fill="#658280"/>
<path d="M852.976 359.485L780.766 359.802L781.246 469.226L853.456 468.909L852.976 359.485Z" fill="#658280"/>
<path d="M840.759 428.652L758.42 429.013L758.597 469.341L840.936 468.98L840.759 428.652Z" fill="#658280"/>
<path d="M902.938 454.268L849.398 454.503L849.461 468.942L903.002 468.707L902.938 454.268Z" fill="#658280"/>
<path d="M1018.79 427.87L931.749 428.252L931.926 468.58L1018.97 468.198L1018.79 427.87Z" fill="#658280"/>
<path d="M966.593 468.428L1074.92 467.952L1074.28 322.07L965.952 322.545L966.593 468.428Z" fill="#658280"/>
<path d="M963.168 322.557L1080.6 322.042L1080.57 316.443L963.143 316.958L963.168 322.557Z" fill="#658280"/>
<path d="M1021.92 331.076L1069.52 330.867L1069.39 301.282L1021.79 301.491L1021.92 331.076Z" fill="#658280"/>
<path d="M998.325 319.588L1006.31 319.552L1006.24 301.559L998.246 301.594L998.325 319.588Z" fill="#658280"/>
<path d="M981.527 319.661L990.319 319.623L990.24 301.629L981.448 301.668L981.527 319.661Z" fill="#658280"/>
<path d="M1149.39 467.626L1235.13 467.249L1234.19 254.19L1148.45 254.566L1149.39 467.626Z" fill="#658280"/>
<path d="M1146.01 256.936L1236.62 256.538L1236.6 250.514L1145.99 250.912L1146.01 256.936Z" fill="#658280"/>
<path d="M1151.39 271.792L1231.37 271.441L1231.25 242.815L1151.27 243.166L1151.39 271.792Z" fill="#658280"/>
<path d="M1193.54 262.547L1225.21 262.408L1225.08 231.139L1193.4 231.278L1193.54 262.547Z" fill="#658280"/>
<path d="M1206.79 240.028L1225.12 239.947L1225.04 223.479L1211.91 223.537L1206.79 240.028Z" fill="#658280"/>
<path d="M1215.98 246.531L1217.75 246.523L1217.59 209.86L1215.81 209.867L1215.98 246.531Z" fill="#658280"/>
<path d="M1215.11 207.967C1215.18 208.256 1215.32 208.521 1215.53 208.732C1215.73 208.942 1216 209.091 1216.28 209.16C1216.57 209.228 1216.87 209.215 1217.15 209.121C1217.43 209.026 1217.68 208.855 1217.87 208.627C1218.05 208.398 1218.17 208.121 1218.21 207.828C1218.25 207.535 1218.2 207.238 1218.08 206.97C1217.95 206.701 1217.76 206.474 1217.51 206.312C1217.26 206.151 1216.97 206.063 1216.68 206.057C1216.22 206.111 1215.8 206.34 1215.51 206.696C1215.22 207.053 1215.08 207.508 1215.11 207.967Z" fill="#658280"/>
<path d="M1261.37 379.162L1222.99 379.331L1223.38 467.285L1261.76 467.117L1261.37 379.162Z" fill="#658280"/>
<path d="M1157.26 336.742L1113.51 336.934L1114.08 467.781L1157.84 467.589L1157.26 336.742Z" fill="#658280"/>
<path d="M1135.99 467.684L1074.35 467.955L1074.04 397.963L1126.16 420.792L1135.99 467.684Z" fill="#658280"/>
<path d="M1343.13 428.759L1248.99 429.172L1249.16 467.172L1343.29 466.759L1343.13 428.759Z" fill="#658280"/>
<path d="M1362.54 314.969L1307.85 315.209L1308.52 466.927L1363.2 466.687L1362.54 314.969Z" fill="#658280"/>
<path d="M1440.89 438.018L1350.29 438.416L1350.42 466.743L1441.01 466.346L1440.89 438.018Z" fill="#658280"/>
<path d="M1365.03 312.174L1305.04 312.437L1305.06 317.407L1365.05 317.144L1365.03 312.174Z" fill="#658280"/>
<path d="M1355.1 290.81L1353.91 290.816L1354.04 321.392L1355.24 321.387L1355.1 290.81Z" fill="#658280"/>
<path d="M1347.13 294.715L1345.93 294.72L1346.04 319.241L1347.24 319.236L1347.13 294.715Z" fill="#658280"/>
<path d="M1383.05 372.038L1358.65 372.145L1358.96 441.649L1393.73 441.497L1383.05 372.038Z" fill="#658280"/>
<g opacity="0.52">
<path opacity="0.52" d="M255.065 329.095L251.495 329.11L251.51 332.681L255.081 332.665L255.065 329.095Z" fill="white"/>
<path opacity="0.52" d="M262.237 329.063L258.667 329.079L258.683 332.649L262.253 332.634L262.237 329.063Z" fill="white"/>
<path opacity="0.52" d="M255.102 337.494L251.531 337.51L251.547 341.08L255.118 341.064L255.102 337.494Z" fill="white"/>
<path opacity="0.52" d="M262.274 337.462L258.704 337.478L258.72 341.048L262.29 341.033L262.274 337.462Z" fill="white"/>
<path opacity="0.52" d="M255.138 345.61L251.567 345.625L251.583 349.196L255.153 349.18L255.138 345.61Z" fill="white"/>
<path opacity="0.52" d="M270.212 329.028L266.641 329.044L266.657 332.614L270.227 332.599L270.212 329.028Z" fill="white"/>
</g>
<path opacity="0.5" d="M514.918 220.651L512.48 220.662L512.54 234.142L514.978 234.131L514.918 220.651Z" fill="white"/>
<path opacity="0.5" d="M523.318 220.615L520.88 220.625L520.939 234.105L523.377 234.094L523.318 220.615Z" fill="white"/>
<path opacity="0.5" d="M531.717 220.578L529.279 220.588L529.338 234.068L531.776 234.057L531.717 220.578Z" fill="white"/>
<path opacity="0.5" d="M540.115 220.541L537.677 220.552L537.737 234.031L540.175 234.02L540.115 220.541Z" fill="white"/>
<path opacity="0.5" d="M548.515 220.504L546.077 220.515L546.136 233.994L548.574 233.983L548.515 220.504Z" fill="white"/>
<path opacity="0.5" d="M556.914 220.467L554.476 220.478L554.535 233.957L556.973 233.947L556.914 220.467Z" fill="white"/>
<path opacity="0.5" d="M565.297 220.43L562.859 220.441L562.918 233.92L565.356 233.91L565.297 220.43Z" fill="white"/>
<path opacity="0.5" d="M573.696 220.393L571.258 220.404L571.317 233.883L573.755 233.873L573.696 220.393Z" fill="white"/>
<path opacity="0.5" d="M582.095 220.356L579.657 220.367L579.717 233.847L582.155 233.836L582.095 220.356Z" fill="white"/>
<path opacity="0.5" d="M590.494 220.32L588.056 220.33L588.116 233.81L590.553 233.799L590.494 220.32Z" fill="white"/>
<path opacity="0.5" d="M598.893 220.283L596.456 220.293L596.515 233.773L598.953 233.762L598.893 220.283Z" fill="white"/>
<path opacity="0.5" d="M515.001 239.431L512.563 239.442L512.622 252.922L515.06 252.911L515.001 239.431Z" fill="white"/>
<path opacity="0.5" d="M523.4 239.395L520.962 239.405L521.021 252.885L523.459 252.874L523.4 239.395Z" fill="white"/>
<path opacity="0.5" d="M531.799 239.358L529.361 239.368L529.42 252.848L531.858 252.837L531.799 239.358Z" fill="white"/>
<path opacity="0.5" d="M540.198 239.321L537.76 239.332L537.819 252.811L540.257 252.8L540.198 239.321Z" fill="white"/>
<path opacity="0.5" d="M548.597 239.284L546.159 239.294L546.218 252.774L548.656 252.763L548.597 239.284Z" fill="white"/>
<path opacity="0.5" d="M556.996 239.247L554.558 239.258L554.618 252.737L557.055 252.726L556.996 239.247Z" fill="white"/>
<path opacity="0.5" d="M565.38 239.21L562.942 239.221L563.001 252.7L565.439 252.69L565.38 239.21Z" fill="white"/>
<path opacity="0.5" d="M573.778 239.173L571.341 239.184L571.4 252.664L573.838 252.653L573.778 239.173Z" fill="white"/>
<path opacity="0.5" d="M582.178 239.137L579.74 239.147L579.799 252.627L582.237 252.616L582.178 239.137Z" fill="white"/>
<path opacity="0.5" d="M590.577 239.1L588.139 239.11L588.198 252.59L590.636 252.579L590.577 239.1Z" fill="white"/>
<path opacity="0.5" d="M598.976 239.063L596.538 239.073L596.597 252.553L599.035 252.542L598.976 239.063Z" fill="white"/>
<path opacity="0.5" d="M515.083 258.212L512.645 258.222L512.704 271.702L515.142 271.691L515.083 258.212Z" fill="white"/>
<path opacity="0.5" d="M523.482 258.175L521.044 258.185L521.104 271.665L523.542 271.654L523.482 258.175Z" fill="white"/>
<path opacity="0.5" d="M531.882 258.138L529.444 258.148L529.503 271.628L531.941 271.617L531.882 258.138Z" fill="white"/>
<path opacity="0.5" d="M540.28 258.101L537.843 258.112L537.902 271.591L540.34 271.58L540.28 258.101Z" fill="white"/>
<path opacity="0.5" d="M548.679 258.064L546.241 258.075L546.301 271.554L548.739 271.543L548.679 258.064Z" fill="white"/>
<path opacity="0.5" d="M557.079 258.027L554.641 258.038L554.7 271.517L557.138 271.507L557.079 258.027Z" fill="white"/>
<path opacity="0.5" d="M565.462 257.991L563.024 258.001L563.083 271.481L565.521 271.47L565.462 257.991Z" fill="white"/>
<path opacity="0.5" d="M573.861 257.954L571.423 257.964L571.482 271.444L573.92 271.433L573.861 257.954Z" fill="white"/>
<path opacity="0.5" d="M582.26 257.917L579.823 257.927L579.882 271.407L582.32 271.396L582.26 257.917Z" fill="white"/>
<path opacity="0.5" d="M590.659 257.88L588.221 257.891L588.281 271.37L590.719 271.359L590.659 257.88Z" fill="white"/>
<path opacity="0.5" d="M599.058 257.843L596.62 257.854L596.68 271.333L599.117 271.322L599.058 257.843Z" fill="white"/>
<path opacity="0.5" d="M540.363 276.881L537.925 276.891L537.984 290.371L540.422 290.36L540.363 276.881Z" fill="white"/>
<path opacity="0.5" d="M548.762 276.844L546.324 276.854L546.383 290.334L548.821 290.323L548.762 276.844Z" fill="white"/>
<path opacity="0.5" d="M557.161 276.807L554.723 276.818L554.782 290.297L557.22 290.286L557.161 276.807Z" fill="white"/>
<path opacity="0.5" d="M565.544 276.77L563.106 276.781L563.166 290.26L565.604 290.249L565.544 276.77Z" fill="white"/>
<path opacity="0.5" d="M573.943 276.733L571.505 276.744L571.565 290.223L574.002 290.213L573.943 276.733Z" fill="white"/>
<path opacity="0.5" d="M582.343 276.696L579.905 276.707L579.964 290.186L582.402 290.176L582.343 276.696Z" fill="white"/>
<path opacity="0.5" d="M590.742 276.659L588.304 276.67L588.363 290.15L590.801 290.139L590.742 276.659Z" fill="white"/>
<path opacity="0.5" d="M599.141 276.623L596.703 276.633L596.762 290.113L599.2 290.102L599.141 276.623Z" fill="white"/>
<path opacity="0.5" d="M548.849 296.662L546.411 296.672L546.47 310.152L548.908 310.141L548.849 296.662Z" fill="white"/>
<path opacity="0.5" d="M557.248 296.625L554.81 296.635L554.869 310.115L557.307 310.104L557.248 296.625Z" fill="white"/>
<path opacity="0.5" d="M565.631 296.588L563.193 296.599L563.253 310.078L565.69 310.067L565.631 296.588Z" fill="white"/>
<path opacity="0.5" d="M574.03 296.551L571.593 296.562L571.652 310.041L574.09 310.03L574.03 296.551Z" fill="white"/>
<path opacity="0.5" d="M582.43 296.514L579.992 296.525L580.051 310.004L582.489 309.994L582.43 296.514Z" fill="white"/>
<path opacity="0.5" d="M590.829 296.477L588.391 296.488L588.45 309.967L590.888 309.957L590.829 296.477Z" fill="white"/>
<path opacity="0.5" d="M599.228 296.44L596.79 296.451L596.849 309.931L599.287 309.92L599.228 296.44Z" fill="white"/>
<path opacity="0.33" d="M680.719 253.41L674.962 253.436L675.026 268.032L680.783 268.006L680.719 253.41Z" fill="white"/>
<path opacity="0.33" d="M680.842 281.329L675.085 281.354L675.149 295.95L680.906 295.925L680.842 281.329Z" fill="white"/>
<path opacity="0.33" d="M680.964 309.263L675.208 309.288L675.272 323.884L681.028 323.859L680.964 309.263Z" fill="white"/>
<path opacity="0.33" d="M681.087 337.181L675.33 337.206L675.394 351.802L681.151 351.777L681.087 337.181Z" fill="white"/>
<path opacity="0.33" d="M681.202 363.511L675.446 363.536L675.51 378.132L681.267 378.107L681.202 363.511Z" fill="white"/>
<path opacity="0.33" d="M681.325 391.445L675.568 391.47L675.632 406.066L681.389 406.041L681.325 391.445Z" fill="white"/>
<path opacity="0.33" d="M705.413 253.302L699.656 253.327L699.72 267.923L705.477 267.898L705.413 253.302Z" fill="white"/>
<path opacity="0.33" d="M705.535 281.22L699.779 281.246L699.843 295.842L705.6 295.816L705.535 281.22Z" fill="white"/>
<path opacity="0.33" d="M705.658 309.154L699.902 309.179L699.966 323.776L705.722 323.75L705.658 309.154Z" fill="white"/>
<path opacity="0.33" d="M705.781 337.072L700.024 337.098L700.088 351.694L705.845 351.669L705.781 337.072Z" fill="white"/>
<path opacity="0.33" d="M705.896 363.402L700.14 363.427L700.204 378.024L705.96 377.998L705.896 363.402Z" fill="white"/>
<path opacity="0.33" d="M706.019 391.336L700.262 391.362L700.326 405.958L706.083 405.932L706.019 391.336Z" fill="white"/>
<path opacity="0.33" d="M730.091 253.193L724.334 253.219L724.399 267.815L730.155 267.79L730.091 253.193Z" fill="white"/>
<path opacity="0.33" d="M730.214 281.112L724.457 281.137L724.521 295.733L730.278 295.708L730.214 281.112Z" fill="white"/>
<path opacity="0.33" d="M730.336 309.046L724.58 309.071L724.644 323.667L730.4 323.642L730.336 309.046Z" fill="white"/>
<path opacity="0.33" d="M730.459 336.964L724.702 336.99L724.766 351.586L730.523 351.56L730.459 336.964Z" fill="white"/>
<path opacity="0.33" d="M730.574 363.294L724.818 363.319L724.882 377.915L730.638 377.89L730.574 363.294Z" fill="white"/>
<path opacity="0.33" d="M730.697 391.228L724.94 391.253L725.005 405.849L730.761 405.824L730.697 391.228Z" fill="white"/>
<path opacity="0.33" d="M754.769 253.085L749.013 253.111L749.077 267.707L754.833 267.681L754.769 253.085Z" fill="white"/>
<path opacity="0.33" d="M754.892 281.004L749.135 281.029L749.199 295.625L754.956 295.6L754.892 281.004Z" fill="white"/>
<path opacity="0.33" d="M755.014 308.938L749.258 308.963L749.322 323.559L755.079 323.534L755.014 308.938Z" fill="white"/>
<path opacity="0.33" d="M755.137 336.856L749.38 336.881L749.444 351.477L755.201 351.452L755.137 336.856Z" fill="white"/>
<path opacity="0.33" d="M755.253 363.186L749.496 363.211L749.56 377.807L755.317 377.782L755.253 363.186Z" fill="white"/>
<path opacity="0.33" d="M755.375 391.12L749.619 391.145L749.683 405.741L755.439 405.716L755.375 391.12Z" fill="white"/>
<path opacity="0.5" d="M586.146 50.215L581.348 50.2361L581.404 63.0077L586.202 62.9866L586.146 50.215Z" fill="white"/>
<path opacity="0.5" d="M597.974 50.163L593.176 50.1841L593.232 62.9557L598.03 62.9346L597.974 50.163Z" fill="white"/>
<path opacity="0.5" d="M609.786 50.1113L604.988 50.1323L605.044 62.9039L609.842 62.8829L609.786 50.1113Z" fill="white"/>
<path opacity="0.5" d="M621.598 50.0593L616.801 50.0803L616.857 62.8519L621.654 62.8309L621.598 50.0593Z" fill="white"/>
<path opacity="0.5" d="M586.239 71.4958L581.442 71.5168L581.498 84.2885L586.295 84.2674L586.239 71.4958Z" fill="white"/>
<path opacity="0.5" d="M598.067 71.4438L593.27 71.4648L593.326 84.2365L598.123 84.2154L598.067 71.4438Z" fill="white"/>
<path opacity="0.5" d="M609.879 71.3918L605.082 71.4128L605.138 84.1845L609.935 84.1634L609.879 71.3918Z" fill="white"/>
<path opacity="0.5" d="M621.691 71.34L616.894 71.3611L616.95 84.1327L621.748 84.1117L621.691 71.34Z" fill="white"/>
<path opacity="0.5" d="M586.332 92.7765L581.535 92.7976L581.591 105.569L586.388 105.548L586.332 92.7765Z" fill="white"/>
<path opacity="0.5" d="M598.161 92.7245L593.363 92.7456L593.419 105.517L598.217 105.496L598.161 92.7245Z" fill="white"/>
<path opacity="0.5" d="M635.015 50.0004L630.218 50.0215L630.274 62.7931L635.071 62.772L635.015 50.0004Z" fill="white"/>
<path opacity="0.4" d="M266.007 181.069L262.956 181.082L263.007 192.8L266.059 192.787L266.007 181.069Z" fill="white"/>
<path opacity="0.4" d="M276.75 181.022L273.699 181.035L273.75 192.753L276.802 192.74L276.75 181.022Z" fill="white"/>
<path opacity="0.4" d="M289.317 180.967L286.266 180.98L286.317 192.698L289.369 192.684L289.317 180.967Z" fill="white"/>
<path opacity="0.4" d="M300.076 180.919L297.024 180.933L297.076 192.651L300.127 192.637L300.076 180.919Z" fill="white"/>
<path opacity="0.4" d="M242.132 181.174L239.08 181.187L239.132 192.905L242.183 192.892L242.132 181.174Z" fill="white"/>
<path opacity="0.4" d="M252.874 181.126L249.823 181.14L249.874 192.858L252.926 192.844L252.874 181.126Z" fill="white"/>
<path opacity="0.4" d="M266.097 201.406L263.045 201.42L263.097 213.137L266.148 213.124L266.097 201.406Z" fill="white"/>
<path opacity="0.4" d="M276.839 201.359L273.788 201.373L273.84 213.09L276.891 213.077L276.839 201.359Z" fill="white"/>
<path opacity="0.4" d="M289.407 201.304L286.355 201.317L286.407 213.035L289.458 213.022L289.407 201.304Z" fill="white"/>
<path opacity="0.4" d="M300.165 201.257L297.114 201.27L297.165 212.988L300.216 212.975L300.165 201.257Z" fill="white"/>
<path opacity="0.4" d="M242.221 201.511L239.17 201.525L239.221 213.242L242.272 213.229L242.221 201.511Z" fill="white"/>
<path opacity="0.4" d="M252.964 201.464L249.912 201.478L249.964 213.195L253.015 213.182L252.964 201.464Z" fill="white"/>
<path opacity="0.4" d="M266.186 221.743L263.135 221.757L263.186 233.475L266.238 233.461L266.186 221.743Z" fill="white"/>
<path opacity="0.4" d="M276.929 221.696L273.877 221.709L273.929 233.427L276.98 233.414L276.929 221.696Z" fill="white"/>
<path opacity="0.4" d="M289.496 221.641L286.445 221.654L286.496 233.372L289.547 233.359L289.496 221.641Z" fill="white"/>
<path opacity="0.4" d="M300.254 221.594L297.203 221.607L297.254 233.325L300.306 233.312L300.254 221.594Z" fill="white"/>
<path opacity="0.4" d="M242.31 221.848L239.259 221.862L239.31 233.579L242.362 233.566L242.31 221.848Z" fill="white"/>
<path opacity="0.4" d="M253.053 221.801L250.001 221.814L250.053 233.532L253.104 233.519L253.053 221.801Z" fill="white"/>
<path opacity="0.5" d="M836.501 268.33L831.782 268.351L831.862 286.517L836.581 286.496L836.501 268.33Z" fill="white"/>
<path opacity="0.5" d="M850.94 268.266L846.221 268.287L846.301 286.454L851.019 286.433L850.94 268.266Z" fill="white"/>
<path opacity="0.5" d="M864.529 268.207L859.811 268.228L859.891 286.394L864.609 286.373L864.529 268.207Z" fill="white"/>
<path opacity="0.33" d="M1160.57 270.682L1156.99 270.698L1157.03 280.906L1160.62 280.89L1160.57 270.682Z" fill="white"/>
<path opacity="0.33" d="M1171.8 270.633L1168.22 270.648L1168.26 280.856L1171.85 280.841L1171.8 270.633Z" fill="white"/>
<path opacity="0.33" d="M1160.57 270.682L1156.99 270.698L1157.03 280.906L1160.62 280.89L1160.57 270.682Z" fill="white"/>
<path opacity="0.33" d="M1171.8 270.633L1168.22 270.648L1168.26 280.856L1171.85 280.841L1171.8 270.633Z" fill="white"/>
<path opacity="0.33" d="M1182.41 270.586L1178.82 270.602L1178.86 280.81L1182.45 280.794L1182.41 270.586Z" fill="white"/>
<path opacity="0.33" d="M1193.64 270.537L1190.05 270.553L1190.09 280.761L1193.68 280.745L1193.64 270.537Z" fill="white"/>
<path opacity="0.33" d="M1160.65 289.006L1157.07 289.022L1157.11 299.23L1160.7 299.214L1160.65 289.006Z" fill="white"/>
<path opacity="0.33" d="M1171.88 288.957L1168.3 288.972L1168.34 299.18L1171.93 299.165L1171.88 288.957Z" fill="white"/>
<path opacity="0.33" d="M1160.65 289.006L1157.07 289.022L1157.11 299.23L1160.7 299.214L1160.65 289.006Z" fill="white"/>
<path opacity="0.33" d="M1171.88 288.957L1168.3 288.972L1168.34 299.18L1171.93 299.165L1171.88 288.957Z" fill="white"/>
<path opacity="0.33" d="M1182.49 288.91L1178.9 288.926L1178.94 299.134L1182.53 299.118L1182.49 288.91Z" fill="white"/>
<path opacity="0.33" d="M1193.72 288.861L1190.13 288.877L1190.17 299.085L1193.76 299.069L1193.72 288.861Z" fill="white"/>
<path opacity="0.33" d="M1160.74 308.494L1157.15 308.509L1157.2 318.717L1160.78 318.701L1160.74 308.494Z" fill="white"/>
<path opacity="0.33" d="M1171.97 308.444L1168.38 308.46L1168.43 318.668L1172.02 318.652L1171.97 308.444Z" fill="white"/>
<path opacity="0.33" d="M1160.74 308.494L1157.15 308.509L1157.2 318.717L1160.78 318.701L1160.74 308.494Z" fill="white"/>
<path opacity="0.33" d="M1171.97 308.444L1168.38 308.46L1168.43 318.668L1172.02 318.652L1171.97 308.444Z" fill="white"/>
<path opacity="0.33" d="M1182.57 308.398L1178.99 308.413L1179.03 318.621L1182.62 318.605L1182.57 308.398Z" fill="white"/>
<path opacity="0.33" d="M1193.8 308.348L1190.22 308.364L1190.26 318.572L1193.85 318.556L1193.8 308.348Z" fill="white"/>
<path opacity="0.33" d="M1205.9 270.483L1202.32 270.499L1202.36 280.707L1205.95 280.691L1205.9 270.483Z" fill="white"/>
<path opacity="0.33" d="M1205.98 288.807L1202.4 288.823L1202.44 299.031L1206.03 299.015L1205.98 288.807Z" fill="white"/>
<path opacity="0.33" d="M1217.13 270.434L1213.55 270.449L1213.59 280.657L1217.18 280.642L1217.13 270.434Z" fill="white"/>
<path opacity="0.33" d="M880.928 241.6L877.074 241.617L877.144 257.55L880.998 257.533L880.928 241.6Z" fill="white"/>
<path opacity="0.33" d="M900.085 241.516L896.232 241.533L896.302 257.466L900.155 257.449L900.085 241.516Z" fill="white"/>
<path opacity="0.33" d="M919.227 241.432L915.374 241.449L915.443 257.382L919.297 257.365L919.227 241.432Z" fill="white"/>
<path opacity="0.33" d="M938.369 241.348L934.516 241.365L934.586 257.298L938.439 257.281L938.369 241.348Z" fill="white"/>
<path opacity="0.33" d="M881.072 274.378L877.218 274.395L877.288 290.328L881.142 290.311L881.072 274.378Z" fill="white"/>
<path opacity="0.33" d="M900.229 274.294L896.375 274.311L896.445 290.244L900.299 290.227L900.229 274.294Z" fill="white"/>
<path opacity="0.33" d="M919.371 274.21L915.517 274.227L915.587 290.16L919.441 290.143L919.371 274.21Z" fill="white"/>
<path opacity="0.33" d="M938.513 274.126L934.659 274.143L934.729 290.076L938.583 290.059L938.513 274.126Z" fill="white"/>
<path opacity="0.33" d="M881.219 307.975L877.366 307.992L877.436 323.925L881.289 323.908L881.219 307.975Z" fill="white"/>
<path opacity="0.33" d="M900.376 307.891L896.523 307.907L896.593 323.841L900.446 323.824L900.376 307.891Z" fill="white"/>
<path opacity="0.33" d="M919.518 307.807L915.665 307.823L915.735 323.757L919.588 323.74L919.518 307.807Z" fill="white"/>
<path opacity="0.33" d="M938.66 307.723L934.807 307.74L934.877 323.673L938.73 323.656L938.66 307.723Z" fill="white"/>
<path opacity="0.33" d="M881.367 341.571L877.513 341.588L877.583 357.521L881.437 357.504L881.367 341.571Z" fill="white"/>
<path opacity="0.33" d="M900.524 341.487L896.671 341.504L896.741 357.437L900.594 357.42L900.524 341.487Z" fill="white"/>
<path opacity="0.33" d="M919.666 341.403L915.812 341.419L915.882 357.353L919.736 357.336L919.666 341.403Z" fill="white"/>
<path opacity="0.33" d="M938.808 341.319L934.954 341.335L935.024 357.269L938.878 357.252L938.808 341.319Z" fill="white"/>
<path opacity="0.33" d="M881.501 372.084L877.647 372.101L877.717 388.034L881.57 388.017L881.501 372.084Z" fill="white"/>
<path opacity="0.33" d="M900.658 372L896.804 372.017L896.874 387.95L900.728 387.934L900.658 372Z" fill="white"/>
<path opacity="0.33" d="M919.8 371.916L915.946 371.933L916.016 387.866L919.87 387.849L919.8 371.916Z" fill="white"/>
<path opacity="0.33" d="M881.65 406.121L877.796 406.138L877.866 422.071L881.72 422.054L881.65 406.121Z" fill="white"/>
<path opacity="0.33" d="M900.807 406.037L896.954 406.054L897.024 421.987L900.877 421.97L900.807 406.037Z" fill="white"/>
<path opacity="0.33" d="M919.949 405.953L916.096 405.97L916.166 421.903L920.019 421.886L919.949 405.953Z" fill="white"/>
<path opacity="0.33" d="M938.942 371.832L935.088 371.849L935.158 387.782L939.012 387.765L938.942 371.832Z" fill="white"/>
<path opacity="0.33" d="M1316.67 323.884L1312.73 323.901L1312.77 333.04L1316.71 333.022L1316.67 323.884Z" fill="white"/>
<path opacity="0.33" d="M1316.73 338.637L1312.8 338.655L1312.84 347.793L1316.77 347.776L1316.73 338.637Z" fill="white"/>
<path opacity="0.33" d="M1326.76 323.84L1322.83 323.857L1322.87 332.995L1326.8 332.978L1326.76 323.84Z" fill="white"/>
</g>
</svg>
