<?xml version="1.0" encoding="utf-8"?>
<!-- Generator: Adobe Illustrator 26.0.1, SVG Export Plug-In . SVG Version: 6.00 Build 0)  -->
<svg version="1.1" id="Слой_1" xmlns="http://www.w3.org/2000/svg" xmlns:xlink="http://www.w3.org/1999/xlink" x="0px" y="0px"
	 viewBox="0 0 1440 358" style="enable-background:new 0 0 1440 358;" xml:space="preserve">
<style type="text/css">
	.st0{opacity:0.2;}
	.st1{fill:#B5C3C2;}
	.st2{opacity:0.29;fill:#B5C3C2;enable-background:new    ;}
	.st3{fill:#95A9A7;}
	.st4{fill:#658280;}
	.st5{opacity:0.29;fill:#658280;enable-background:new    ;}
	.st6{opacity:0.52;}
	.st7{opacity:0.52;fill:#FFFFFF;enable-background:new    ;}
	.st8{opacity:0.5;fill:#FFFFFF;enable-background:new    ;}
	.st9{opacity:0.33;fill:#FFFFFF;enable-background:new    ;}
	.st10{opacity:0.4;fill:#FFFFFF;enable-background:new    ;}
</style>
<g>
	<g>
		<g class="st0">
			<path class="st1" d="M456.9,43.8h-63.5v252.9h63.5V43.8z"/>
			<path class="st1" d="M446.5,25.6h-42.8v106.3h42.8V25.6z"/>
			<path class="st1" d="M437,14.1h-23.7v59H437V14.1z"/>
			<path class="st1" d="M433.2,44.4H417V4.3h5.8h5.8h4.6V44.4z"/>
			<path class="st1" d="M424.1,40.1h-1.8V-0.1h0.6h0.6h0.5V40.1z"/>
			<path class="st1" d="M427.9,40.1h-1.8V-0.1h0.6h0.6h0.5V40.1z"/>
			<path class="st1" d="M458.6,43.1h-66.9v2.7h66.9V43.1z"/>
			<path class="st1" d="M448.1,24.3h-45.9v2.6h45.9V24.3z"/>
			<path class="st1" d="M438,13h-26.5v2H438V13z"/>
			<path class="st2" d="M409.7,30h-2v11.1h2V30z"/>
			<path class="st2" d="M415.2,30h-2v11.1h2V30z"/>
			<path class="st2" d="M420.6,30h-2v11.1h2V30z"/>
			<path class="st2" d="M426.2,30h-2v11.1h2V30z"/>
			<path class="st2" d="M431.7,30h-2v11.1h2V30z"/>
			<path class="st2" d="M437.2,30h-2v11.1h2V30z"/>
			<path class="st2" d="M442.7,30h-2v11.1h2V30z"/>
			<path class="st1" d="M403.7,53.9h-4.8v13.2h4.8V53.9z"/>
			<path class="st2" d="M413.3,53.9h-4.8v13.2h4.8V53.9z"/>
			<path class="st1" d="M422.8,53.9H418v13.2h4.8V53.9z"/>
			<path class="st1" d="M432.3,53.9h-4.8v13.2h4.8V53.9z"/>
			<path class="st1" d="M441.8,53.9H437v13.2h4.8V53.9z"/>
			<path class="st1" d="M451.3,53.9h-4.8v13.2h4.8V53.9z"/>
			<path class="st1" d="M403.7,74.5h-4.8v13.2h4.8V74.5z"/>
			<path class="st1" d="M413.3,74.5h-4.8v13.2h4.8V74.5z"/>
			<path class="st1" d="M422.8,74.5H418v13.2h4.8V74.5z"/>
			<path class="st2" d="M432.3,74.5h-4.8v13.2h4.8V74.5z"/>
			<path class="st1" d="M441.8,74.5H437v13.2h4.8V74.5z"/>
			<path class="st1" d="M451.3,74.5h-4.8v13.2h4.8V74.5z"/>
			<path class="st1" d="M403.7,95.1h-4.8v13.2h4.8V95.1z"/>
			<path class="st1" d="M413.3,95.1h-4.8v13.2h4.8V95.1z"/>
			<path class="st1" d="M422.8,95.1H418v13.2h4.8V95.1z"/>
			<path class="st1" d="M432.3,95.1h-4.8v13.2h4.8V95.1z"/>
			<path class="st2" d="M441.8,95.1H437v13.2h4.8V95.1z"/>
			<path class="st2" d="M451.3,95.1h-4.8v13.2h4.8V95.1z"/>
			<path class="st2" d="M403.7,115.6h-4.8v13.2h4.8V115.6z"/>
			<path class="st1" d="M413.3,115.6h-4.8v13.2h4.8V115.6z"/>
			<path class="st1" d="M422.8,115.6H418v13.2h4.8V115.6z"/>
			<path class="st1" d="M432.3,115.6h-4.8v13.2h4.8V115.6z"/>
			<path class="st1" d="M441.8,115.6H437v13.2h4.8V115.6z"/>
			<path class="st1" d="M451.3,115.6h-4.8v13.2h4.8V115.6z"/>
			<path class="st1" d="M403.7,136.2h-4.8v13.2h4.8V136.2z"/>
			<path class="st2" d="M413.3,136.2h-4.8v13.2h4.8V136.2z"/>
			<path class="st1" d="M422.8,136.2H418v13.2h4.8V136.2z"/>
			<path class="st2" d="M432.3,136.2h-4.8v13.2h4.8V136.2z"/>
			<path class="st1" d="M441.8,136.2H437v13.2h4.8V136.2z"/>
			<path class="st1" d="M451.3,136.2h-4.8v13.2h4.8V136.2z"/>
			<path class="st1" d="M403.7,156.8h-4.8v13.2h4.8V156.8z"/>
			<path class="st1" d="M413.3,156.8h-4.8v13.2h4.8V156.8z"/>
			<path class="st1" d="M422.8,156.8H418v13.2h4.8V156.8z"/>
			<path class="st1" d="M432.3,156.8h-4.8v13.2h4.8V156.8z"/>
			<path class="st1" d="M441.8,156.8H437v13.2h4.8V156.8z"/>
			<path class="st2" d="M451.3,156.8h-4.8v13.2h4.8V156.8z"/>
			<path class="st1" d="M403.7,177.4h-4.8v13.2h4.8V177.4z"/>
			<path class="st2" d="M413.3,177.4h-4.8v13.2h4.8V177.4z"/>
			<path class="st2" d="M422.8,177.4H418v13.2h4.8V177.4z"/>
			<path class="st1" d="M432.3,177.4h-4.8v13.2h4.8V177.4z"/>
			<path class="st1" d="M441.8,177.4H437v13.2h4.8V177.4z"/>
			<path class="st1" d="M451.3,177.4h-4.8v13.2h4.8V177.4z"/>
			<path class="st1" d="M403.7,198h-4.8v13.2h4.8V198z"/>
			<path class="st1" d="M413.3,198h-4.8v13.2h4.8V198z"/>
			<path class="st1" d="M422.8,198H418v13.2h4.8V198z"/>
			<path class="st1" d="M432.3,198h-4.8v13.2h4.8V198z"/>
			<path class="st2" d="M441.8,198H437v13.2h4.8V198z"/>
			<path class="st1" d="M451.3,198h-4.8v13.2h4.8V198z"/>
			<path class="st1" d="M403.7,218.6h-4.8v13.2h4.8V218.6z"/>
			<path class="st2" d="M413.3,218.6h-4.8v13.2h4.8V218.6z"/>
			<path class="st1" d="M422.8,218.6H418v13.2h4.8V218.6z"/>
			<path class="st1" d="M432.3,218.6h-4.8v13.2h4.8V218.6z"/>
			<path class="st1" d="M441.8,218.6H437v13.2h4.8V218.6z"/>
			<path class="st1" d="M451.3,218.6h-4.8v13.2h4.8V218.6z"/>
			<path class="st1" d="M403.7,239.2h-4.8v13.2h4.8V239.2z"/>
			<path class="st1" d="M413.3,239.2h-4.8v13.2h4.8V239.2z"/>
			<path class="st1" d="M422.8,239.2H418v13.2h4.8V239.2z"/>
			<path class="st2" d="M432.3,239.2h-4.8v13.2h4.8V239.2z"/>
			<path class="st1" d="M441.8,239.2H437v13.2h4.8V239.2z"/>
			<path class="st2" d="M451.3,239.2h-4.8v13.2h4.8V239.2z"/>
			<path class="st2" d="M403.7,259.8h-4.8V273h4.8V259.8z"/>
			<path class="st1" d="M413.3,259.8h-4.8V273h4.8V259.8z"/>
			<path class="st2" d="M422.8,259.8H418V273h4.8V259.8z"/>
			<path class="st1" d="M432.3,259.8h-4.8V273h4.8V259.8z"/>
			<path class="st1" d="M441.8,259.8H437V273h4.8V259.8z"/>
			<path class="st1" d="M451.3,259.8h-4.8V273h4.8V259.8z"/>
			<path class="st1" d="M311,53.4H208.8v213.1H311V53.4z"/>
			<path class="st1" d="M313.9,49.7H205.9v6h107.9V49.7z"/>
			<path class="st1" d="M307.5,42h-95.3v28.6h95.3V42z"/>
			<path class="st1" d="M257.3,30.3h-37.7v31.3h37.7V30.3z"/>
			<path class="st1" d="M241.4,39.1h-21.8V22.7h15.6L241.4,39.1z"/>
			<path class="st1" d="M230.5,9h-2.1v36.7h2.1V9z"/>
			<path class="st1" d="M231.3,7.1c0,0.4-0.1,0.7-0.3,1.1s-0.5,0.6-0.9,0.7C229.8,9,229.4,9.1,229,9c-0.4-0.1-0.7-0.3-1-0.5
				c-0.3-0.3-0.4-0.6-0.5-1c-0.1-0.4,0-0.8,0.1-1.1c0.1-0.3,0.4-0.6,0.7-0.9c0.3-0.2,0.7-0.3,1.1-0.3c0.5,0,1,0.2,1.3,0.6
				C231.1,6.1,231.3,6.6,231.3,7.1z"/>
			<polygon class="st1" points="1032.4,0.1 1045,282.7 1156.8,282.7 1156.8,0.1 			"/>
			<rect x="564.7" y="0" class="st1" width="104.3" height="0.3"/>
			<polygon class="st1" points="669,103.8 669,0.2 564.7,0.2 564.7,103.8 555,103.8 555,294.5 675.8,294.5 675.8,103.8 			"/>
			<path class="st1" d="M1402,278.8H66v31.8h1336V278.8z"/>
			<path class="st3" d="M852.4,302.8h-59.2l23-118.5h36.1V302.8z"/>
			<path class="st3" d="M1420.8,307.4H18.1v50.1h1402.7V307.4z"/>
			<polygon class="st3" points="804,83.6 804,31.1 785,31.1 785,11.1 774.8,11.1 774.8,0 766.7,0 766.7,11.1 756.6,11.1 756.6,31.1 
				737.7,31.1 737.7,83.6 733.8,83.6 733.8,178.9 704.6,178.9 704.6,287.5 733.8,287.5 763,287.5 807.7,287.5 807.7,83.6 			"/>
			<path class="st3" d="M913.1,143.9h-91.9v1.7h4.2V301H909V145.5h4.2V143.9z"/>
			<path class="st3" d="M493.9,182.6h-81.5v129.5h81.5V182.6z"/>
			<path class="st3" d="M400.1,248.9H259.9v63.2h140.2V248.9z"/>
			<path class="st3" d="M365.8,107.9H335v155.1h30.8V107.9z"/>
			<path class="st3" d="M343.4,66.5h-1.6v84.3h1.6V66.5z"/>
			<path class="st3" d="M348.6,72.9H347v84.3h1.6V72.9z"/>
			<path class="st3" d="M356.2,98.3h-18.8V119h18.8V98.3z"/>
			<path class="st3" d="M448.1,205.8h-53.6v106.3h53.6V205.8z"/>
			<path class="st3" d="M607.6,93.3H507.1v218.8h100.5V93.3z"/>
			<path class="st3" d="M597.7,85.7H517v36.4h80.8V85.7z"/>
			<path class="st3" d="M615.4,97.8H499.3v2.6h116.1V97.8z"/>
			<path class="st3" d="M536.2,201.6h-47.4v110.5h47.4V201.6z"/>
			<path class="st3" d="M203.9,197.4h-54.4v114.7h54.4V197.4z"/>
			<path class="st3" d="M275.5,166.2H167.1v145.9h108.3V166.2z"/>
			<path class="st3" d="M278.3,160.6H160.8v5.6h117.4V160.6z"/>
			<path class="st3" d="M219.5,145.4h-47.6V175h47.6V145.4z"/>
			<path class="st3" d="M243.1,145.4h-8v18h8V145.4z"/>
			<path class="st3" d="M259.9,145.4h-8.8v18h8.8V145.4z"/>
			<path class="st3" d="M176.8,267.7H120v44.4h56.8V267.7z"/>
			<path class="st3" d="M125.4,248.9H98.6v63.2h26.9V248.9z"/>
			<path class="st3" d="M112,289.9H66v22.2H112V289.9z"/>
			<path class="st3" d="M1163.7,262.9h-566v49.2h566V262.9z"/>
			<path class="st3" d="M1118.6,126.8c-1.7,0-3.4,0.6-4.6,1.8c-1.3,1.2-2,2.8-2.2,4.5l-8-0.3c0-0.8,0-1.6,0-2.3
				c0-9.8-1.7-19.4-5-28.6l6.7-2.5c0.7,1.5,1.9,2.8,3.4,3.5c1.5,0.7,3.3,0.8,4.9,0.3c1.6-0.5,2.9-1.6,3.8-3c0.8-1.5,1.1-3.2,0.8-4.8
				c-0.3-1.6-1.3-3.1-2.6-4.1c-1.4-1-3-1.4-4.7-1.3c-1.7,0.2-3.2,1-4.3,2.2s-1.7,2.9-1.7,4.5c0,0.7,0.1,1.3,0.3,2l-6.6,2.5
				c-3.8-10.3-9.7-19.7-17.1-27.7l5.2-4.9c1.3,1.2,3,1.9,4.7,1.9s3.4-0.7,4.7-2c1.2-1.2,2-2.9,2-4.7c0-1.8-0.6-3.5-1.8-4.7
				c-1.2-1.3-2.9-2-4.6-2.1c-1.8-0.1-3.5,0.5-4.8,1.7c-1.3,1.2-2.1,2.8-2.2,4.6c-0.1,1.8,0.4,3.5,1.6,4.8l-5.2,4.9
				c-0.5-0.6-1.1-1.1-1.6-1.7c-7.7-7.8-16.9-13.9-27-18.2l2.9-7c1.7,0.5,3.5,0.4,5.1-0.4c1.6-0.8,2.8-2.2,3.4-3.8
				c0.6-1.7,0.5-3.5-0.3-5.1c-0.8-1.6-2.1-2.8-3.8-3.5c-1.7-0.6-3.5-0.6-5.1,0.1c-1.6,0.7-2.9,2-3.6,3.7s-0.7,3.5,0,5.1
				c0.7,1.6,1.9,3,3.6,3.7l-2.9,6.9c-9-3.7-18.7-5.7-28.4-6l0.3-9.5h0.2c1.8-0.1,3.4-0.9,4.5-2.2c1.2-1.3,1.8-3,1.7-4.8
				c-0.1-1.8-0.8-3.4-2.1-4.6s-2.9-1.9-4.7-1.9c-1.8,0-3.4,0.7-4.7,1.9s-2,2.9-2.1,4.6c-0.1,1.8,0.6,3.5,1.7,4.8
				c1.2,1.3,2.8,2.1,4.5,2.2l-0.3,9.6h-2.3c-9.4,0-18.7,1.5-27.5,4.6l-2.8-7.8c1.6-0.6,2.8-1.8,3.6-3.4c0.7-1.5,0.9-3.3,0.4-4.9
				c-0.5-1.6-1.6-3-3-3.9c-1.4-0.9-3.2-1.2-4.8-0.9c-1.7,0.3-3.1,1.3-4.2,2.6s-1.5,3-1.3,4.7c0.2,1.7,0.9,3.2,2.2,4.4
				c1.3,1.1,2.9,1.8,4.6,1.8c0.6,0,1.3-0.1,1.9-0.3l2.7,7.9c-10.7,3.8-20.5,9.8-28.8,17.5l-5-5.5c1.2-1.3,1.9-3,1.8-4.8
				c0-1.8-0.8-3.5-2.1-4.7c-1.3-1.2-3-1.9-4.8-1.9c-1.8,0-3.5,0.7-4.8,1.9s-2,2.9-2.1,4.7c-0.1,1.8,0.6,3.5,1.8,4.8
				c1.2,1.3,2.9,2.1,4.7,2.2c1.8,0.1,3.5-0.5,4.9-1.7l5,5.3l-1.7,1.6c-6.9,6.9-12.6,14.9-16.7,23.8l-6.3-2.9
				c0.2-0.7,0.4-1.4,0.4-2.2c0-1.7-0.6-3.3-1.7-4.5c-1.1-1.2-2.7-2-4.3-2.2c-1.7-0.2-3.3,0.3-4.7,1.2c-1.4,1-2.3,2.4-2.7,4
				c-0.4,1.6-0.1,3.3,0.7,4.8c0.8,1.5,2.2,2.6,3.7,3.1c1.6,0.5,3.3,0.5,4.8-0.2c1.5-0.7,2.8-1.9,3.5-3.4l6.3,2.9
				c-4.6,10-7.1,20.8-7.5,31.7l-8.1-0.3c-0.1-1.8-0.9-3.4-2.2-4.6c-1.3-1.2-3-1.8-4.8-1.8c-1.8,0-3.4,0.8-4.6,2
				c-1.2,1.3-1.9,2.9-1.9,4.7c0,1.8,0.7,3.4,1.9,4.7c1.2,1.3,2.9,2,4.6,2c1.8,0,3.5-0.6,4.8-1.8c1.3-1.2,2.1-2.8,2.2-4.6l8.1,0.3
				c0,0.8,0,1.6,0,2.3c0,9.8,1.7,19.4,5,28.6l-6.7,2.5c-0.7-1.5-1.9-2.8-3.4-3.5c-1.5-0.7-3.3-0.8-4.9-0.3c-1.6,0.5-2.9,1.6-3.8,3
				c-0.8,1.5-1.1,3.2-0.8,4.8c0.3,1.6,1.3,3.1,2.6,4.1c1.4,1,3,1.4,4.7,1.3c1.7-0.2,3.2-1,4.3-2.2c1.1-1.2,1.7-2.9,1.7-4.5
				c0-0.7-0.1-1.4-0.3-2l6.7-2.5c3.8,10.3,9.7,19.7,17.1,27.7l-5.2,4.9c-1.3-1.3-3-2-4.9-2c-1.8,0-3.6,0.7-4.9,2
				c-1.3,1.3-2.1,3-2.1,4.8c-0.1,1.8,0.6,3.6,1.8,4.9s2.9,2.2,4.8,2.3c1.8,0.1,3.6-0.5,5-1.7c1.4-1.2,2.2-2.9,2.4-4.7
				c0.2-1.8-0.4-3.6-1.6-5l5.2-4.9l1.6,1.7c5.2,5.2,11.1,9.8,17.6,13.5l-41,75.6h-7.4v2.2h-3.6v4.3h187.4V281h-3.5v-2.2h-7.4
				l-41-75.6c5.5-3.2,10.6-7,15.3-11.3l6.7,7.1c-1.2,1-2,2.5-2.3,4.1c-0.2,1.6,0.1,3.2,0.9,4.6c0.8,1.4,2.1,2.4,3.6,2.9
				c1.5,0.5,3.2,0.5,4.6,0c1.5-0.6,2.8-1.6,3.5-3s1.1-3,0.8-4.6c-0.3-1.6-1.1-3-2.3-4c-1.2-1-2.8-1.6-4.4-1.6
				c-1.4,0-2.7,0.4-3.9,1.2l-6.7-7.2c0.6-0.5,1.1-1.1,1.7-1.6c6.9-6.9,12.5-15,16.7-23.8l7.4,3.4c-0.1,0.5-0.2,1.1-0.2,1.7
				c0,1.7,0.6,3.3,1.8,4.6c1.1,1.3,2.7,2,4.4,2.2c1.7,0.2,3.4-0.3,4.7-1.4c1.4-1,2.3-2.5,2.6-4.2c0.3-1.7,0-3.4-0.9-4.8
				c-0.9-1.4-2.3-2.5-4-3c-1.6-0.5-3.4-0.3-4.9,0.5c-1.5,0.8-2.7,2.1-3.3,3.7l-7.3-3.4c4.5-10,7.1-20.7,7.5-31.7l8,0.3
				c0,1.3,0.5,2.6,1.2,3.7c0.8,1.1,1.8,1.9,3.1,2.4c1.2,0.5,2.6,0.6,3.9,0.3c1.3-0.3,2.5-0.9,3.4-1.9c0.9-1,1.6-2.2,1.8-3.5
				c0.2-1.3,0.1-2.7-0.4-3.9c-0.5-1.2-1.4-2.3-2.5-3C1121.2,127.3,1119.9,126.9,1118.6,126.8L1118.6,126.8z M1101.6,130.5
				c0,0.8,0,1.6,0,2.3l-23.5-0.8c0-0.5,0-1,0-1.6c0-6.7-1.2-13.4-3.4-19.7l22-8.1C1099.9,111.5,1101.6,121,1101.6,130.5
				L1101.6,130.5z M1076.9,131.9l-52.3-1.7c0-0.3-0.1-0.7-0.2-1l49.1-18.1c2.2,6.2,3.4,12.7,3.4,19.3
				C1077,131,1077,131.4,1076.9,131.9L1076.9,131.9z M963.1,129l52.3,1.7c0,0.3,0.1,0.7,0.2,1l-49.2,18.1
				c-2.2-6.2-3.4-12.7-3.4-19.3C963.1,130,963.1,129.5,963.1,129L963.1,129z M1023.6,127.6l38.2-35.8c5,5.4,8.9,11.7,11.5,18.6
				l-49.1,18.1C1024,128.2,1023.9,127.9,1023.6,127.6L1023.6,127.6z M1023.1,127.1c-0.3-0.3-0.6-0.5-1-0.7l19.9-48.5
				c7.3,3.1,13.9,7.6,19.3,13.3L1023.1,127.1z M1021.4,126.1c-0.3-0.1-0.6-0.1-0.8-0.2l1.7-52.3c6.5,0.3,13,1.6,19.1,4.1
				L1021.4,126.1z M1019.8,125.9c-0.3,0-0.6,0.1-0.9,0.1l-17.4-49.4c6-2.1,12.2-3.1,18.6-3.1h1.5L1019.8,125.9z M1018.3,126.3
				c-0.3,0.2-0.7,0.4-1,0.6l-35.8-38.2c5.6-5.2,12.2-9.2,19.3-11.8L1018.3,126.3z M1016.7,127.4c-0.2,0.2-0.4,0.5-0.6,0.8l-47.5-22
				c3-6.4,7.2-12.2,12.3-17.1L1016.7,127.4z M1015.8,128.9c-0.1,0.3-0.2,0.7-0.2,1l-52.4-1.7c0.3-7.4,2-14.6,5-21.3L1015.8,128.9z
				 M1015.9,132.4c0.1,0.3,0.3,0.5,0.4,0.8l-0.3,0.6l-37.7,35.4c-5-5.4-8.9-11.7-11.5-18.6L1015.9,132.4z M1014.9,135.8l-23.7,43.7
				c-4.6-2.7-8.7-6-12.4-9.9L1014.9,135.8z M1017.5,134.3c0.2,0.1,0.3,0.2,0.5,0.3L998.1,183c-1.9-0.8-3.8-1.7-5.6-2.7L1017.5,134.3
				z M1018.7,134.8c0.3,0.1,0.6,0.1,0.9,0.2l-1.7,52.3c-6.6-0.2-13-1.6-19.1-4.1L1018.7,134.8z M1020.1,187.4h-1.5l1.7-52.3
				c0.3,0,0.6-0.1,0.9-0.1l17.4,49.4C1032.7,186.4,1026.4,187.4,1020.1,187.4L1020.1,187.4z M1022,134.6c0.2-0.1,0.5-0.2,0.7-0.4
				l25,46c-2.7,1.5-5.4,2.7-8.3,3.8L1022,134.6z M1026.1,137.5l32.5,34.8c-3,2.8-6.3,5.2-9.8,7.3L1026.1,137.5z M1024.7,134.9
				l-0.9-1.7c0.1-0.1,0.2-0.3,0.3-0.4l47.5,21.9c-3,6.4-7.2,12.2-12.3,17.1L1024.7,134.9z M1024.4,132c0.1-0.3,0.2-0.7,0.2-1
				l52.3,1.7c-0.3,7.4-2,14.6-5,21.3L1024.4,132z M997.6,184l-8.9,21.8c-2.7-1.1-5.4-2.4-8-3.9l11.2-20.7
				C993.8,182.3,995.7,183.2,997.6,184L997.6,184z M998.3,184.3c6.2,2.5,12.8,3.9,19.4,4.2L1017,212c-9.5-0.3-18.8-2.3-27.6-5.9
				L998.3,184.3z M1018.5,188.5h1.6c6.4,0,12.8-1.1,18.9-3.1l7.9,22.2c-8.6,3-17.6,4.5-26.7,4.5h-2.3L1018.5,188.5z M1039.7,185.1
				c2.9-1.1,5.7-2.3,8.4-3.8l11.2,20.7c-3.8,2.1-7.8,3.9-11.8,5.3L1039.7,185.1z M1096.5,101.9l-22,8.1c-2.7-7-6.6-13.5-11.8-19
				l17.2-16.1C1087.1,82.8,1092.8,91.9,1096.5,101.9L1096.5,101.9z M1077.7,72.8c0.5,0.5,1.1,1.1,1.6,1.6l-17.1,16.1
				c-5.6-5.8-12.2-10.5-19.7-13.6l8.9-21.8C1061.2,59.2,1070.2,65.3,1077.7,72.8L1077.7,72.8z M1050.7,54.9l-9,21.8
				c-6.2-2.5-12.8-3.9-19.4-4.2l0.8-23.5C1032.5,49.3,1041.9,51.3,1050.7,54.9L1050.7,54.9z M1020,48.9h2.3l-0.8,23.5h-1.6
				c-6.4,0-12.8,1.1-18.9,3.1l-7.9-22.2C1001.8,50.4,1010.9,48.9,1020,48.9L1020,48.9z M992.5,53.6l7.9,22.2
				c-7.3,2.7-14,6.7-19.7,12l-16.1-17.2C972.7,63.2,982.2,57.4,992.5,53.6L992.5,53.6z M962.3,72.8l1.6-1.6L980,88.4
				c-5.2,5-9.5,10.9-12.6,17.4L946,96C950.1,87.4,955.6,79.5,962.3,72.8L962.3,72.8z M945.8,96.6l21.4,9.9
				c-3.1,6.9-4.9,14.2-5.1,21.8l-23.5-0.8C938.9,116.8,941.4,106.3,945.8,96.6z M938.5,130.5c0-0.8,0-1.6,0-2.3L962,129
				c0,0.5,0,1,0,1.6c0,6.7,1.2,13.4,3.5,19.7l-22,8.1C940.2,149.4,938.5,140,938.5,130.5L938.5,130.5z M943.6,159l22-8.1
				c2.7,7,6.7,13.5,11.8,19L960.3,186C953,178.2,947.3,169,943.6,159L943.6,159z M962.3,188.1l-1.6-1.6l17.1-16.1
				c3.7,3.9,8,7.3,12.7,10.1l-11.2,20.7C973.1,197.7,967.4,193.2,962.3,188.1L962.3,188.1z M1101,278.8H939l40.6-74.9
				c2.7,1.5,5.4,2.8,8.2,3.9l-2.9,7c-0.7-0.2-1.4-0.3-2.1-0.3c-1.7,0-3.3,0.6-4.6,1.7c-1.3,1.1-2,2.7-2.2,4.3
				c-0.2,1.7,0.3,3.4,1.2,4.7c1,1.4,2.4,2.3,4.1,2.7c1.6,0.4,3.4,0.1,4.8-0.7c1.5-0.8,2.6-2.2,3.1-3.8c0.5-1.6,0.4-3.3-0.2-4.9
				c-0.7-1.5-1.9-2.8-3.4-3.5l2.8-7c9,3.7,18.7,5.7,28.4,6.1l-0.2,7.1c-1.8,0.1-3.5,0.9-4.7,2.2c-1.2,1.3-1.9,3.1-1.8,4.8
				c0,1.8,0.8,3.5,2.1,4.7c1.3,1.2,3,1.9,4.8,1.9c1.8,0,3.5-0.7,4.8-1.9c1.3-1.2,2-2.9,2.1-4.7c0-1.8-0.6-3.5-1.8-4.8
				c-1.2-1.3-2.9-2.1-4.7-2.2l0.2-7.1h2.3c9.4,0,18.7-1.5,27.5-4.6l2.4,6.9c-1.5,0.7-2.7,2-3.4,3.5c-0.7,1.5-0.7,3.3-0.2,4.9
				c0.5,1.6,1.6,2.9,3.1,3.7c1.5,0.8,3.2,1.1,4.8,0.7s3.1-1.3,4.1-2.7c1-1.4,1.4-3,1.2-4.7c-0.2-1.7-1-3.2-2.2-4.3s-2.9-1.7-4.5-1.7
				c-0.8,0-1.5,0.1-2.2,0.4l-2.4-6.9c4.2-1.5,8.3-3.3,12.2-5.5L1101,278.8z M1060.6,201.2l-11.2-20.7c3.6-2.1,6.9-4.6,10-7.5
				l16.2,17.2C1071,194.4,1066,198.1,1060.6,201.2L1060.6,201.2z M1077.6,188.1l-1.6,1.6l-16.1-17.1c5.2-5,9.5-10.9,12.6-17.4
				l21.4,9.8C1089.9,173.6,1084.4,181.4,1077.6,188.1L1077.6,188.1z M1094.2,164.3l-21.4-9.9c3.1-6.8,4.9-14.2,5.1-21.7l23.5,0.8
				C1101.1,144.1,1098.7,154.6,1094.2,164.3L1094.2,164.3z"/>
			<path class="st3" d="M1222.4,184H1135v128.1h87.4V184z"/>
			<path class="st3" d="M1297,233.8h-87.4v77.5h87.4V233.8z"/>
			<path class="st3" d="M919.7,222.4h-49v65.1h49V222.4z"/>
			<path class="st3" d="M1240.5,62.3h-61.8v249.9h61.8V62.3z"/>
			<path class="st3" d="M1342.3,312.1h-81.5V166.2h61.8L1342.3,312.1z"/>
			<path class="st3" d="M1378,278.8h-71.4v33.3h71.4V278.8z"/>
			<path class="st3" d="M1226.6,10.1h-2.1V78h2.1V10.1z"/>
			<path class="st3" d="M1233.8,24.6h-2.1v67.9h2.1V24.6z"/>
			<path class="st3" d="M1220.1,34h-2.1v67.9h2.1V34z"/>
			<path class="st3" d="M1293.1,154.4h-29.2v23h29.2V154.4z"/>
			<path class="st3" d="M1289.9,146.2h-22.8v12.9h22.8V146.2z"/>
			<path class="st3" d="M1310.3,161.2h-5.6v9.3h5.6V161.2z"/>
			<path class="st3" d="M1320.3,152.7h-8v17.7h8V152.7z"/>
			<path class="st4" d="M944.5,118.6h-74.1v238.9h74.1V118.6z"/>
			<path class="st4" d="M950,120h-85.2v2.4H950V120z"/>
			<path class="st4" d="M947.7,153.6h-80.6v2.4h80.6V153.6z"/>
			<path class="st4" d="M947.7,186.1h-80.6v2.4h80.6V186.1z"/>
			<path class="st4" d="M947.7,218.6h-80.6v2.4h80.6V218.6z"/>
			<path class="st4" d="M947.7,251.1h-80.6v2.4h80.6V251.1z"/>
			<path class="st4" d="M947.7,283.6h-80.6v2.4h80.6V283.6z"/>
			<path class="st4" d="M947.7,316.1h-80.6v2.4h80.6V316.1z"/>
			<path class="st4" d="M952.8,113.4H862v6.6h90.8V113.4z"/>
			<path class="st5" d="M884.8,130.3h-7.7v19.1h7.7V130.3z"/>
			<path class="st4" d="M902,130.3h-7.7v19.1h7.7V130.3z"/>
			<path class="st4" d="M919.2,130.3h-7.7v19.1h7.7V130.3z"/>
			<path class="st4" d="M936.4,130.3h-7.7v19.1h7.7V130.3z"/>
			<path class="st4" d="M884.8,161.5h-7.7v19.1h7.7V161.5z"/>
			<path class="st5" d="M902,161.5h-7.7v19.1h7.7V161.5z"/>
			<path class="st4" d="M919.2,161.5h-7.7v19.1h7.7V161.5z"/>
			<path class="st4" d="M936.4,161.5h-7.7v19.1h7.7V161.5z"/>
			<path class="st4" d="M884.8,194h-7.7v19.1h7.7V194z"/>
			<path class="st4" d="M902,194h-7.7v19.1h7.7V194z"/>
			<path class="st4" d="M919.2,194h-7.7v19.1h7.7V194z"/>
			<path class="st5" d="M936.4,194h-7.7v19.1h7.7V194z"/>
			<path class="st4" d="M884.8,226.5h-7.7v19.1h7.7V226.5z"/>
			<path class="st5" d="M902,226.5h-7.7v19.1h7.7V226.5z"/>
			<path class="st5" d="M919.2,226.5h-7.7v19.1h7.7V226.5z"/>
			<path class="st4" d="M936.4,226.5h-7.7v19.1h7.7V226.5z"/>
			<path class="st5" d="M884.8,259h-7.7v19.1h7.7V259z"/>
			<path class="st4" d="M902,259h-7.7v19.1h7.7V259z"/>
			<path class="st4" d="M919.2,259h-7.7v19.1h7.7V259z"/>
			<path class="st4" d="M936.4,259h-7.7v19.1h7.7V259z"/>
			<path class="st4" d="M884.8,291.5h-7.7v19.1h7.7V291.5z"/>
			<path class="st4" d="M902,291.5h-7.7v19.1h7.7V291.5z"/>
			<path class="st5" d="M919.2,291.5h-7.7v19.1h7.7V291.5z"/>
			<path class="st4" d="M936.4,291.5h-7.7v19.1h7.7V291.5z"/>
			<path class="st4" d="M884.8,324h-7.7v19.1h7.7V324z"/>
			<path class="st5" d="M902,324h-7.7v19.1h7.7V324z"/>
			<path class="st4" d="M919.2,324h-7.7v19.1h7.7V324z"/>
			<path class="st5" d="M936.4,324h-7.7v19.1h7.7V324z"/>
			<path class="st4" d="M900.3,104.3h-25.2v12.4h25.2V104.3z"/>
			<path class="st4" d="M902,104h-28.6v2.1H902V104z"/>
			<path class="st4" d="M764.2,357.5h-98.7v-227l98.7-24.1V357.5z"/>
			<path class="st4" d="M669.8,126.5h-8.7v231h8.7V126.5z"/>
			<path class="st4" d="M694.5,120h-8.7v237.5h8.7V120z"/>
			<path class="st4" d="M719.1,113.3h-8.7v244.2h8.7V113.3z"/>
			<path class="st4" d="M743.8,107.8h-8.7v249.7h8.7V107.8z"/>
			<path class="st4" d="M768.5,101.9h-8.7v255.6h8.7V101.9z"/>
			<path class="st5" d="M683.5,145.9H672v17.5h11.5V145.9z"/>
			<path class="st5" d="M708.2,145.9h-11.5v17.5h11.5V145.9z"/>
			<path class="st4" d="M732.9,145.9h-11.5v17.5h11.5V145.9z"/>
			<path class="st5" d="M757.6,145.9h-11.5v17.5h11.5V145.9z"/>
			<path class="st4" d="M683.5,176.5H672V194h11.5V176.5z"/>
			<path class="st4" d="M708.2,176.5h-11.5V194h11.5V176.5z"/>
			<path class="st5" d="M732.9,176.5h-11.5V194h11.5V176.5z"/>
			<path class="st5" d="M757.6,176.5h-11.5V194h11.5V176.5z"/>
			<path class="st5" d="M683.5,207H672v17.5h11.5V207z"/>
			<path class="st5" d="M708.2,207h-11.5v17.5h11.5V207z"/>
			<path class="st5" d="M732.9,207h-11.5v17.5h11.5V207z"/>
			<path class="st4" d="M757.6,207h-11.5v17.5h11.5V207z"/>
			<path class="st5" d="M683.5,237.5H672v17.5h11.5V237.5z"/>
			<path class="st4" d="M708.2,237.5h-11.5v17.5h11.5V237.5z"/>
			<path class="st5" d="M732.9,237.5h-11.5v17.5h11.5V237.5z"/>
			<path class="st5" d="M757.6,237.5h-11.5v17.5h11.5V237.5z"/>
			<path class="st5" d="M683.5,268.1H672v17.5h11.5V268.1z"/>
			<path class="st5" d="M708.2,268.1h-11.5v17.5h11.5V268.1z"/>
			<path class="st4" d="M732.9,268.1h-11.5v17.5h11.5V268.1z"/>
			<path class="st5" d="M757.6,268.1h-11.5v17.5h11.5V268.1z"/>
			<path class="st4" d="M683.5,298.6H672v17.5h11.5V298.6z"/>
			<path class="st4" d="M708.2,298.6h-11.5v17.5h11.5V298.6z"/>
			<path class="st5" d="M732.9,298.6h-11.5v17.5h11.5V298.6z"/>
			<path class="st5" d="M757.6,298.6h-11.5v17.5h11.5V298.6z"/>
			<path class="st5" d="M683.5,329.2H672v17.5h11.5V329.2z"/>
			<path class="st4" d="M708.2,329.2h-11.5v17.5h11.5V329.2z"/>
			<path class="st5" d="M732.9,329.2h-11.5v17.5h11.5V329.2z"/>
			<path class="st4" d="M757.6,329.2h-11.5v17.5h11.5V329.2z"/>
			<path class="st4" d="M383.8,141.4v2.4h-2.4v6.7h41.3v207H355V161.3v-10.8v-6.7h-2.5v-2.4H383.8z"/>
			<path class="st4" d="M557.4,235.4h-58.1v122.1h58.1V235.4z"/>
			<path class="st4" d="M293.4,207.5h-47.2v150.1h47.2V207.5z"/>
			<path class="st4" d="M335.5,238.7h-51.4v118.8h51.4V238.7z"/>
			<path class="st4" d="M284.1,201.4h-20.9v18h20.9V201.4z"/>
			<path class="st4" d="M342.4,236.8h-54.8v4.4h54.8V236.8z"/>
			<path class="st4" d="M387.6,289.7H330v67.8h57.7V289.7z"/>
			<path class="st4" d="M190.5,234.5h-46.9v123h46.9V234.5z"/>
			<path class="st4" d="M164.6,295.8h-61.7v61.7h61.7V295.8z"/>
			<path class="st4" d="M73.5,285.7H34.9v71.8h38.6V285.7z"/>
			<path class="st4" d="M157.3,335H66v22.5h91.2V335z"/>
			<path class="st4" d="M46.8,327.8H0v29.8h46.8V327.8z"/>
			<path class="st4" d="M263.2,312.1h-72.7v45.4h72.7V312.1z"/>
			<path class="st4" d="M517,337.9H403.7v19.6H517V337.9z"/>
			<path class="st4" d="M717.7,337.9H604.5v19.6h113.2V337.9z"/>
			<path class="st4" d="M512.6,280.5h-43l-18.2,67.2h61.2V280.5z"/>
			<path class="st4" d="M533.6,182.7h-1.2v74.5h1.2V182.7z"/>
			<path class="st4" d="M540,208h-1.6v44h1.6V208z"/>
			<path class="st4" d="M551.6,215.8h-21.8v21.8h21.8V215.8z"/>
			<path class="st4" d="M555,214.1h-28.8v2H555V214.1z"/>
			<path class="st4" d="M617.1,294.5h-70.4v63h70.4V294.5z"/>
			<path class="st4" d="M648.9,225.2h-45.2v121.5h45.2V225.2z"/>
			<path class="st4" d="M852.4,248.1h-72.2v109.4h72.2V248.1z"/>
			<path class="st4" d="M839.9,317.2h-82.3v40.3h82.3V317.2z"/>
			<path class="st4" d="M902,343.1h-53.5v14.4H902V343.1z"/>
			<path class="st4" d="M1018,317.2h-87v40.3h87V317.2z"/>
			<path class="st4" d="M965.6,357.5h108.3V211.6H965.6V357.5z"/>
			<path class="st4" d="M962.8,211.6h117.4V206H962.8V211.6z"/>
			<path class="st4" d="M1021.5,220.4h47.6v-29.6h-47.6V220.4z"/>
			<path class="st4" d="M998,208.8h8v-18h-8V208.8z"/>
			<path class="st4" d="M981.2,208.8h8.8v-18h-8.8V208.8z"/>
			<path class="st4" d="M1148.4,357.5h85.7V144.4h-85.7V357.5z"/>
			<path class="st4" d="M1145.9,146.8h90.6v-6h-90.6V146.8z"/>
			<path class="st4" d="M1151.2,161.7h80v-28.6h-80V161.7z"/>
			<path class="st4" d="M1193.4,152.6h31.7v-31.3h-31.7V152.6z"/>
			<path class="st4" d="M1206.8,130.2h18.3v-16.5H1212L1206.8,130.2z"/>
			<path class="st4" d="M1215.9,136.7h1.8V100h-1.8V136.7z"/>
			<path class="st4" d="M1215.2,98.1c0.1,0.3,0.2,0.6,0.4,0.8c0.2,0.2,0.5,0.4,0.8,0.4c0.3,0.1,0.6,0.1,0.9,0
				c0.3-0.1,0.5-0.3,0.7-0.5c0.2-0.2,0.3-0.5,0.3-0.8c0-0.3,0-0.6-0.1-0.9c-0.1-0.3-0.3-0.5-0.6-0.7c-0.2-0.2-0.5-0.3-0.8-0.3
				c-0.5,0.1-0.9,0.3-1.2,0.6C1215.3,97.2,1215.2,97.7,1215.2,98.1z"/>
			<path class="st4" d="M1260.7,269.5h-38.4v88h38.4V269.5z"/>
			<path class="st4" d="M1156.8,226.7h-43.8v130.8h43.8V226.7z"/>
			<path class="st4" d="M1135,357.5h-61.6v-70l52,23.1L1135,357.5z"/>
			<path class="st4" d="M1342.3,319.5h-94.1v38h94.1V319.5z"/>
			<path class="st4" d="M1362.2,205.8h-54.7v151.7h54.7V205.8z"/>
			<path class="st4" d="M1440,329.2h-90.6v28.3h90.6V329.2z"/>
			<path class="st4" d="M1364.7,203h-60v5h60V203z"/>
			<path class="st4" d="M1354.9,181.6h-1.2v30.6h1.2V181.6z"/>
			<path class="st4" d="M1346.9,185.5h-1.2V210h1.2V185.5z"/>
			<path class="st4" d="M1382.4,262.9h-24.4v69.5h34.8L1382.4,262.9z"/>
			<g class="st6">
				<path class="st7" d="M254.7,215.1h-3.6v3.6h3.6V215.1z"/>
				<path class="st7" d="M261.8,215.1h-3.6v3.6h3.6V215.1z"/>
				<path class="st7" d="M254.7,223.5h-3.6v3.6h3.6V223.5z"/>
				<path class="st7" d="M261.8,223.5h-3.6v3.6h3.6V223.5z"/>
				<path class="st7" d="M254.7,231.6h-3.6v3.6h3.6V231.6z"/>
				<path class="st7" d="M269.8,215.1h-3.6v3.6h3.6V215.1z"/>
			</g>
			<path class="st8" d="M515,107.8h-2.4v13.5h2.4V107.8z"/>
			<path class="st8" d="M523.4,107.8H521v13.5h2.4V107.8z"/>
			<path class="st8" d="M531.8,107.8h-2.4v13.5h2.4V107.8z"/>
			<path class="st8" d="M540.2,107.8h-2.4v13.5h2.4V107.8z"/>
			<path class="st8" d="M548.6,107.8h-2.4v13.5h2.4V107.8z"/>
			<path class="st8" d="M557,107.8h-2.4v13.5h2.4V107.8z"/>
			<path class="st8" d="M565.4,107.8h-2.4v13.5h2.4V107.8z"/>
			<path class="st8" d="M573.8,107.8h-2.4v13.5h2.4V107.8z"/>
			<path class="st8" d="M582.2,107.8h-2.4v13.5h2.4V107.8z"/>
			<path class="st8" d="M590.6,107.8h-2.4v13.5h2.4V107.8z"/>
			<path class="st8" d="M599,107.8h-2.4v13.5h2.4V107.8z"/>
			<path class="st8" d="M515,126.5h-2.4V140h2.4V126.5z"/>
			<path class="st8" d="M523.4,126.5H521V140h2.4V126.5z"/>
			<path class="st8" d="M531.8,126.5h-2.4V140h2.4V126.5z"/>
			<path class="st8" d="M540.2,126.5h-2.4V140h2.4V126.5z"/>
			<path class="st8" d="M548.6,126.5h-2.4V140h2.4V126.5z"/>
			<path class="st8" d="M557,126.5h-2.4V140h2.4V126.5z"/>
			<path class="st8" d="M565.4,126.5h-2.4V140h2.4V126.5z"/>
			<path class="st8" d="M573.8,126.5h-2.4V140h2.4V126.5z"/>
			<path class="st8" d="M582.2,126.5h-2.4V140h2.4V126.5z"/>
			<path class="st8" d="M590.6,126.5h-2.4V140h2.4V126.5z"/>
			<path class="st8" d="M599,126.5h-2.4V140h2.4V126.5z"/>
			<path class="st8" d="M515,145.3h-2.4v13.5h2.4V145.3z"/>
			<path class="st8" d="M523.4,145.3H521v13.5h2.4V145.3z"/>
			<path class="st8" d="M531.8,145.3h-2.4v13.5h2.4V145.3z"/>
			<path class="st8" d="M540.2,145.3h-2.4v13.5h2.4V145.3z"/>
			<path class="st8" d="M548.6,145.3h-2.4v13.5h2.4V145.3z"/>
			<path class="st8" d="M557,145.3h-2.4v13.5h2.4V145.3z"/>
			<path class="st8" d="M565.4,145.3h-2.4v13.5h2.4V145.3z"/>
			<path class="st8" d="M573.8,145.3h-2.4v13.5h2.4V145.3z"/>
			<path class="st8" d="M582.2,145.3h-2.4v13.5h2.4V145.3z"/>
			<path class="st8" d="M590.6,145.3h-2.4v13.5h2.4V145.3z"/>
			<path class="st8" d="M599,145.3h-2.4v13.5h2.4V145.3z"/>
			<path class="st8" d="M540.2,164.1h-2.4v13.5h2.4V164.1z"/>
			<path class="st8" d="M548.6,164.1h-2.4v13.5h2.4V164.1z"/>
			<path class="st8" d="M557,164.1h-2.4v13.5h2.4V164.1z"/>
			<path class="st8" d="M565.4,164.1h-2.4v13.5h2.4V164.1z"/>
			<path class="st8" d="M573.8,164.1h-2.4v13.5h2.4V164.1z"/>
			<path class="st8" d="M582.2,164.1h-2.4v13.5h2.4V164.1z"/>
			<path class="st8" d="M590.6,164.1h-2.4v13.5h2.4V164.1z"/>
			<path class="st8" d="M599,164.1h-2.4v13.5h2.4V164.1z"/>
			<path class="st8" d="M548.6,183.9h-2.4v13.5h2.4V183.9z"/>
			<path class="st8" d="M557,183.9h-2.4v13.5h2.4V183.9z"/>
			<path class="st8" d="M565.4,183.9h-2.4v13.5h2.4V183.9z"/>
			<path class="st8" d="M573.8,183.9h-2.4v13.5h2.4V183.9z"/>
			<path class="st8" d="M582.2,183.9h-2.4v13.5h2.4V183.9z"/>
			<path class="st8" d="M590.6,183.9h-2.4v13.5h2.4V183.9z"/>
			<path class="st8" d="M599,183.9h-2.4v13.5h2.4V183.9z"/>
			<path class="st9" d="M680.6,141.2h-5.8v14.6h5.8V141.2z"/>
			<path class="st9" d="M680.6,169.2h-5.8v14.6h5.8V169.2z"/>
			<path class="st9" d="M680.6,197.1h-5.8v14.6h5.8V197.1z"/>
			<path class="st9" d="M680.6,225h-5.8v14.6h5.8V225z"/>
			<path class="st9" d="M680.6,251.3h-5.8v14.6h5.8V251.3z"/>
			<path class="st9" d="M680.6,279.3h-5.8v14.6h5.8V279.3z"/>
			<path class="st9" d="M705.3,141.2h-5.8v14.6h5.8V141.2z"/>
			<path class="st9" d="M705.3,169.2h-5.8v14.6h5.8V169.2z"/>
			<path class="st9" d="M705.3,197.1h-5.8v14.6h5.8V197.1z"/>
			<path class="st9" d="M705.3,225h-5.8v14.6h5.8V225z"/>
			<path class="st9" d="M705.3,251.3h-5.8v14.6h5.8V251.3z"/>
			<path class="st9" d="M705.3,279.3h-5.8v14.6h5.8V279.3z"/>
			<path class="st9" d="M730,141.2h-5.8v14.6h5.8V141.2z"/>
			<path class="st9" d="M730,169.2h-5.8v14.6h5.8V169.2z"/>
			<path class="st9" d="M730,197.1h-5.8v14.6h5.8V197.1z"/>
			<path class="st9" d="M730,225h-5.8v14.6h5.8V225z"/>
			<path class="st9" d="M730,251.3h-5.8v14.6h5.8V251.3z"/>
			<path class="st9" d="M730,279.3h-5.8v14.6h5.8V279.3z"/>
			<path class="st9" d="M754.7,141.2h-5.8v14.6h5.8V141.2z"/>
			<path class="st9" d="M754.7,169.2h-5.8v14.6h5.8V169.2z"/>
			<path class="st9" d="M754.7,197.1h-5.8v14.6h5.8V197.1z"/>
			<path class="st9" d="M754.7,225h-5.8v14.6h5.8V225z"/>
			<path class="st9" d="M754.7,251.3h-5.8v14.6h5.8V251.3z"/>
			<path class="st9" d="M754.7,279.3h-5.8v14.6h5.8V279.3z"/>
			<path class="st10" d="M266.3,67.1h-3.1v11.7h3.1V67.1z"/>
			<path class="st10" d="M277,67.1h-3.1v11.7h3.1V67.1z"/>
			<path class="st10" d="M289.6,67.1h-3.1v11.7h3.1V67.1z"/>
			<path class="st10" d="M300.3,67.1h-3.1v11.7h3.1V67.1z"/>
			<path class="st10" d="M242.4,67.1h-3.1v11.7h3.1V67.1z"/>
			<path class="st10" d="M253.1,67.1h-3.1v11.7h3.1V67.1z"/>
			<path class="st10" d="M266.3,87.4h-3.1v11.7h3.1V87.4z"/>
			<path class="st10" d="M277,87.4h-3.1v11.7h3.1V87.4z"/>
			<path class="st10" d="M289.6,87.4h-3.1v11.7h3.1V87.4z"/>
			<path class="st10" d="M300.3,87.4h-3.1v11.7h3.1V87.4z"/>
			<path class="st10" d="M242.4,87.4h-3.1v11.7h3.1V87.4z"/>
			<path class="st10" d="M253.1,87.4h-3.1v11.7h3.1V87.4z"/>
			<path class="st10" d="M266.3,107.8h-3.1v11.7h3.1V107.8z"/>
			<path class="st10" d="M277,107.8h-3.1v11.7h3.1V107.8z"/>
			<path class="st10" d="M289.6,107.8h-3.1v11.7h3.1V107.8z"/>
			<path class="st10" d="M300.3,107.8h-3.1v11.7h3.1V107.8z"/>
			<path class="st10" d="M242.4,107.8h-3.1v11.7h3.1V107.8z"/>
			<path class="st10" d="M253.1,107.8h-3.1v11.7h3.1V107.8z"/>
			<path class="st8" d="M836.4,156.8h-4.7V175h4.7V156.8z"/>
			<path class="st8" d="M850.8,156.8h-4.7V175h4.7V156.8z"/>
			<path class="st8" d="M864.4,156.8h-4.7V175h4.7V156.8z"/>
			<path class="st9" d="M1160.4,160.6h-3.6v10.2h3.6V160.6z"/>
			<path class="st9" d="M1171.7,160.6h-3.6v10.2h3.6V160.6z"/>
			<path class="st9" d="M1160.4,160.6h-3.6v10.2h3.6V160.6z"/>
			<path class="st9" d="M1171.7,160.6h-3.6v10.2h3.6V160.6z"/>
			<path class="st9" d="M1182.2,160.6h-3.6v10.2h3.6V160.6z"/>
			<path class="st9" d="M1193.5,160.6h-3.6v10.2h3.6V160.6z"/>
			<path class="st9" d="M1160.4,178.9h-3.6v10.2h3.6V178.9z"/>
			<path class="st9" d="M1171.7,178.9h-3.6v10.2h3.6V178.9z"/>
			<path class="st9" d="M1160.4,178.9h-3.6v10.2h3.6V178.9z"/>
			<path class="st9" d="M1171.7,178.9h-3.6v10.2h3.6V178.9z"/>
			<path class="st9" d="M1182.2,178.9h-3.6v10.2h3.6V178.9z"/>
			<path class="st9" d="M1193.5,178.9h-3.6v10.2h3.6V178.9z"/>
			<path class="st9" d="M1160.4,198.4h-3.6v10.2h3.6V198.4z"/>
			<path class="st9" d="M1171.7,198.4h-3.6v10.2h3.6V198.4z"/>
			<path class="st9" d="M1160.4,198.4h-3.6v10.2h3.6V198.4z"/>
			<path class="st9" d="M1171.7,198.4h-3.6v10.2h3.6V198.4z"/>
			<path class="st9" d="M1182.2,198.4h-3.6v10.2h3.6V198.4z"/>
			<path class="st9" d="M1193.5,198.4h-3.6v10.2h3.6V198.4z"/>
			<path class="st9" d="M1205.8,160.6h-3.6v10.2h3.6V160.6z"/>
			<path class="st9" d="M1205.8,178.9h-3.6v10.2h3.6V178.9z"/>
			<path class="st9" d="M1217,160.6h-3.6v10.2h3.6V160.6z"/>
			<path class="st9" d="M880.9,130.3h-3.9v15.9h3.9V130.3z"/>
			<path class="st9" d="M900.1,130.3h-3.9v15.9h3.9V130.3z"/>
			<path class="st9" d="M919.2,130.3h-3.9v15.9h3.9V130.3z"/>
			<path class="st9" d="M938.3,130.3h-3.9v15.9h3.9V130.3z"/>
			<path class="st9" d="M880.9,163.1h-3.9V179h3.9V163.1z"/>
			<path class="st9" d="M900.1,163.1h-3.9V179h3.9V163.1z"/>
			<path class="st9" d="M919.2,163.1h-3.9V179h3.9V163.1z"/>
			<path class="st9" d="M938.3,163.1h-3.9V179h3.9V163.1z"/>
			<path class="st9" d="M880.9,196.7h-3.9v15.9h3.9V196.7z"/>
			<path class="st9" d="M900.1,196.7h-3.9v15.9h3.9V196.7z"/>
			<path class="st9" d="M919.2,196.7h-3.9v15.9h3.9V196.7z"/>
			<path class="st9" d="M938.3,196.7h-3.9v15.9h3.9V196.7z"/>
			<path class="st9" d="M880.9,230.3h-3.9v15.9h3.9V230.3z"/>
			<path class="st9" d="M900.1,230.3h-3.9v15.9h3.9V230.3z"/>
			<path class="st9" d="M919.2,230.3h-3.9v15.9h3.9V230.3z"/>
			<path class="st9" d="M938.3,230.3h-3.9v15.9h3.9V230.3z"/>
			<path class="st9" d="M880.9,260.8h-3.9v15.9h3.9V260.8z"/>
			<path class="st9" d="M900.1,260.8h-3.9v15.9h3.9V260.8z"/>
			<path class="st9" d="M919.2,260.8h-3.9v15.9h3.9V260.8z"/>
			<path class="st9" d="M880.9,294.8h-3.9v15.9h3.9V294.8z"/>
			<path class="st9" d="M900.1,294.8h-3.9v15.9h3.9V294.8z"/>
			<path class="st9" d="M919.2,294.8h-3.9v15.9h3.9V294.8z"/>
			<path class="st9" d="M938.3,260.8h-3.9v15.9h3.9V260.8z"/>
			<path class="st9" d="M1316.3,214.5h-3.9v9.1h3.9V214.5z"/>
			<path class="st9" d="M1316.3,229.3h-3.9v9.1h3.9V229.3z"/>
			<path class="st9" d="M1326.4,214.5h-3.9v9.1h3.9V214.5z"/>
		</g>
	</g>
</g>
</svg>
