<svg width="80" height="96" viewBox="0 0 80 96" fill="none" xmlns="http://www.w3.org/2000/svg">
<g clip-path="url(#clip0_2330_11340)">
<path d="M68.2844 67.8821L40 96L11.7156 67.8821C6.12152 62.3209 2.31194 55.2355 0.768571 47.522C-0.774798 39.8084 0.0173638 31.8132 3.04488 24.5472C6.0724 17.2812 11.1993 11.0709 17.7773 6.70149C24.3552 2.33213 32.0888 0 40 0C47.9112 0 55.6448 2.33213 62.2227 6.70149C68.8007 11.0709 73.9276 17.2812 76.9551 24.5472C79.9826 31.8132 80.7748 39.8084 79.2314 47.522C77.6881 55.2355 73.8785 62.3209 68.2844 67.8821Z" fill="#4EA2DA"/>
<path d="M26 23.7169C26.1704 23.2504 26.3678 22.8019 26.7715 22.47C27.4354 21.9227 28.1799 21.9496 28.9784 22.0752C32.7103 22.6583 36.4512 23.2145 40.1921 23.7887C41.448 23.9771 42.704 24.1655 43.9599 24.3718C45.153 24.5692 45.8438 25.3855 45.8438 26.6056C45.8528 29.1264 45.8438 31.6473 45.8438 34.1771C45.8438 34.3116 45.8438 34.4372 45.8438 34.6077C46.5256 34.7423 47.1894 34.8858 47.8533 35.0114C51.3251 35.7021 54.7879 36.3839 58.2596 37.0747C59.3361 37.29 60 38.1153 60 39.2188C60 43.9644 60 48.7101 60 53.4557C60 54.6219 59.4259 55.3576 58.2955 55.6715C58.2686 55.6805 58.2327 55.6985 58.2058 55.7164C48.0686 55.7164 37.9314 55.7164 27.7942 55.7164C27.247 55.5639 26.7356 55.3306 26.4127 54.8372C26.2422 54.5771 26.1346 54.2721 26 53.994C26 43.9016 26 33.8093 26 23.7169ZM31.6607 54.308C31.6607 54.1375 31.6607 54.0029 31.6607 53.8773C31.6607 51.9665 31.6876 50.0467 31.6517 48.1359C31.6248 46.7275 32.6654 45.7496 33.9931 45.8035C35.276 45.8483 36.5588 45.8124 37.8417 45.8124C39.304 45.8124 40.1562 46.6647 40.1562 48.118C40.1562 50.0467 40.1562 51.9665 40.1562 53.8953C40.1562 54.0209 40.1562 54.1554 40.1562 54.299C41.5916 54.299 42.9731 54.299 44.3905 54.299C44.3995 54.1734 44.4084 54.0657 44.4084 53.9581C44.4084 44.8615 44.4084 35.7739 44.4084 26.6773C44.4084 26.0494 44.238 25.8341 43.628 25.7354C41.9863 25.4842 40.3536 25.233 38.7119 24.9908C35.2491 24.4705 31.7863 23.9502 28.3145 23.4298C27.7852 23.3491 27.4354 23.6272 27.4084 24.1744C27.3995 24.4525 27.4084 24.7306 27.4084 24.9998C27.4084 34.4462 27.4084 43.8926 27.4084 53.3391C27.4084 54.0747 27.6417 54.308 28.3863 54.308C29.2296 54.308 30.0639 54.308 30.9071 54.308C31.1493 54.308 31.3916 54.308 31.6607 54.308ZM45.8617 36.052C45.8617 42.1612 45.8617 48.2167 45.8617 54.308C46.0053 54.308 46.1219 54.308 46.2475 54.308C50.0332 54.308 53.819 54.308 57.6048 54.308C58.3583 54.308 58.5916 54.0747 58.5916 53.3122C58.5916 48.6831 58.5916 44.0631 58.5916 39.4341C58.5916 38.6984 58.4391 38.528 57.7303 38.3845C54.8507 37.8193 51.962 37.2452 49.0823 36.671C48.0148 36.4647 46.9562 36.2673 45.8617 36.052ZM38.7567 54.29C38.7567 54.1644 38.7567 54.0568 38.7567 53.9491C38.7567 52.0024 38.7567 50.0557 38.7567 48.109C38.7567 47.4721 38.5055 47.2209 37.8776 47.2209C36.5858 47.2209 35.2939 47.2209 33.9931 47.2209C33.3203 47.2209 33.096 47.4452 33.096 48.118C33.096 50.0647 33.096 52.0114 33.096 53.9581C33.096 54.0657 33.105 54.1734 33.114 54.29C34.9979 54.29 36.8549 54.29 38.7567 54.29Z" fill="white"/>
<path d="M32.4058 28.8121C32.8543 28.8121 33.3119 28.8032 33.7604 28.8121C34.2179 28.8211 34.514 29.1171 34.505 29.5298C34.496 29.9245 34.2 30.2116 33.7694 30.2206C32.8454 30.2296 31.9124 30.2296 30.9884 30.2206C30.5667 30.2206 30.2617 29.9156 30.2617 29.5208C30.2617 29.1261 30.5488 28.8301 30.9794 28.8211C31.4549 28.8032 31.9303 28.8121 32.4058 28.8121Z" fill="white"/>
<path d="M32.3699 34.4728C31.9213 34.4728 31.4638 34.4818 31.0153 34.4728C30.5667 34.4639 30.2617 34.1678 30.2617 33.7641C30.2617 33.3515 30.5578 33.0644 31.0153 33.0644C31.9303 33.0554 32.8454 33.0554 33.7604 33.0644C34.2 33.0644 34.487 33.3515 34.496 33.7462C34.505 34.1499 34.2 34.4549 33.7514 34.4639C33.2939 34.4818 32.8364 34.4728 32.3699 34.4728Z" fill="white"/>
<path d="M32.3783 38.7167C31.9387 38.7167 31.4991 38.7167 31.0506 38.7167C30.5661 38.7167 30.2611 38.4386 30.2521 38.0259C30.2432 37.6043 30.5482 37.3172 31.0326 37.3172C31.9297 37.3083 32.8178 37.3083 33.7149 37.3172C34.1994 37.3172 34.5044 37.6043 34.5044 38.0259C34.5044 38.4386 34.1904 38.7257 33.7149 38.7257C33.2664 38.7257 32.8268 38.7167 32.3783 38.7167Z" fill="white"/>
<path d="M32.3603 42.9684C31.9207 42.9684 31.4812 42.9684 31.0326 42.9684C30.5572 42.9594 30.2432 42.6724 30.2521 42.2507C30.2521 41.838 30.5482 41.56 31.0147 41.56C31.9207 41.551 32.8268 41.551 33.7329 41.56C34.1994 41.56 34.4954 41.838 34.4954 42.2507C34.5044 42.6724 34.1904 42.9594 33.7149 42.9684C33.2664 42.9774 32.8178 42.9684 32.3603 42.9684Z" fill="white"/>
<path d="M39.4381 30.2213C38.9985 30.2213 38.5589 30.2303 38.1104 30.2213C37.6349 30.2123 37.3389 29.9342 37.3389 29.5036C37.3478 29.082 37.6259 28.8218 38.1014 28.8128C39.0075 28.8039 39.9135 28.8039 40.8196 28.8128C41.2771 28.8128 41.5821 29.1089 41.5821 29.5126C41.5821 29.9342 41.2682 30.2213 40.7927 30.2213C40.3441 30.2303 39.8956 30.2213 39.4381 30.2213Z" fill="white"/>
<path d="M39.4837 33.065C39.9323 33.065 40.3898 33.056 40.8383 33.065C41.2869 33.0739 41.5919 33.37 41.5919 33.7737C41.5829 34.1774 41.2779 34.4645 40.8204 34.4734C39.9143 34.4824 39.0083 34.4824 38.1022 34.4734C37.6447 34.4734 37.3486 34.1864 37.3486 33.7737C37.3486 33.3521 37.6267 33.0829 38.0932 33.065C38.1112 33.065 38.1381 33.065 38.156 33.065C38.5956 33.065 39.0352 33.065 39.4837 33.065Z" fill="white"/>
<path d="M39.466 37.3082C39.9145 37.3082 40.372 37.2993 40.8206 37.3082C41.2781 37.3172 41.5831 37.5953 41.5831 37.999C41.5831 38.4206 41.2691 38.7077 40.8027 38.7077C39.9056 38.7167 39.0174 38.7167 38.1203 38.7077C37.6449 38.7077 37.3399 38.4206 37.3488 37.99C37.3578 37.5684 37.6359 37.3082 38.1114 37.2993C38.5599 37.3082 39.0085 37.3082 39.466 37.3082Z" fill="white"/>
<path d="M39.4742 41.5602C39.9227 41.5602 40.3802 41.5513 40.8288 41.5602C41.2773 41.5692 41.5913 41.8653 41.5823 42.26C41.5823 42.6637 41.2684 42.9597 40.8198 42.9597C39.9137 42.9687 39.0077 42.9687 38.1016 42.9597C37.6441 42.9597 37.348 42.6816 37.3391 42.2689C37.3301 41.8294 37.6172 41.5692 38.1106 41.5513C38.1285 41.5513 38.1554 41.5513 38.1734 41.5513C38.6129 41.5602 39.0436 41.5602 39.4742 41.5602Z" fill="white"/>
<path d="M52.2308 41.5601C52.6793 41.5601 53.1369 41.5512 53.5854 41.5601C54.034 41.5691 54.339 41.8741 54.33 42.2778C54.321 42.6725 54.025 42.9686 53.5944 42.9686C52.6704 42.9776 51.7374 42.9776 50.8134 42.9686C50.3828 42.9686 50.0957 42.6725 50.0957 42.2688C50.0957 41.8562 50.3648 41.5781 50.8044 41.5691C51.2799 41.5512 51.7553 41.5601 52.2308 41.5601Z" fill="white"/>
<path d="M52.2318 47.2213C51.7832 47.2213 51.3257 47.2213 50.8772 47.2213C50.4017 47.2123 50.0967 46.9342 50.1057 46.5036C50.1057 46.082 50.3927 45.8128 50.8682 45.8128C51.7743 45.8039 52.6803 45.8039 53.5864 45.8128C54.0439 45.8128 54.3489 46.0999 54.3489 46.5036C54.3489 46.9252 54.0349 47.2123 53.5685 47.2123C53.1109 47.2213 52.6714 47.2213 52.2318 47.2213Z" fill="white"/>
<path d="M52.2398 50.0554C52.6883 50.0554 53.1458 50.0464 53.5944 50.0554C54.034 50.0644 54.321 50.3425 54.339 50.7372C54.3479 51.1409 54.0429 51.4549 53.5944 51.4549C52.6704 51.4638 51.7374 51.4638 50.8134 51.4549C50.3828 51.4549 50.0957 51.1499 50.0957 50.7462C50.0957 50.3335 50.3648 50.0554 50.8134 50.0464C51.2888 50.0464 51.7643 50.0554 52.2398 50.0554Z" fill="white"/>
</g>
<defs>
<clipPath id="clip0_2330_11340">
<rect width="80" height="96" fill="white"/>
</clipPath>
</defs>
</svg>
