<svg width="28" height="28" viewBox="0 0 28 28" fill="none" xmlns="http://www.w3.org/2000/svg">
<mask id="path-1-outside-1_1417:4958" maskUnits="userSpaceOnUse" x="0" y="0" width="28" height="28" fill="black">
<rect fill="white" width="28" height="28"/>
<path d="M1 2.3352C1.13255 1.97242 1.28604 1.6236 1.59998 1.36547C2.11623 0.939905 2.69528 0.960835 3.31618 1.0585C6.21839 1.51197 9.12757 1.94451 12.0367 2.39101C13.0134 2.53751 13.9902 2.68402 14.9669 2.84448C15.8947 2.99796 16.4319 3.63281 16.4319 4.58161C16.4389 6.542 16.4319 8.50238 16.4319 10.4697C16.4319 10.5744 16.4319 10.6721 16.4319 10.8046C16.9621 10.9093 17.4784 11.0209 17.9946 11.1185C20.6945 11.6557 23.3874 12.1859 26.0873 12.7231C26.9245 12.8906 27.4407 13.5324 27.4407 14.3905C27.4407 18.081 27.4407 21.7716 27.4407 25.4621C27.4407 26.3691 26.9943 26.9411 26.1152 27.1853C26.0943 27.1923 26.0664 27.2062 26.0455 27.2202C18.1621 27.2202 10.2787 27.2202 2.39529 27.2202C1.96973 27.1016 1.57207 26.9202 1.32092 26.5365C1.18837 26.3342 1.10465 26.097 1 25.8807C1 18.0322 1 10.1837 1 2.3352ZM5.40214 26.1249C5.40214 25.9923 5.40214 25.8877 5.40214 25.79C5.40214 24.304 5.42307 22.8111 5.39516 21.3251C5.37423 20.2298 6.1835 19.4694 7.21602 19.5112C8.21365 19.5461 9.21128 19.5182 10.2089 19.5182C11.3461 19.5182 12.0088 20.181 12.0088 21.3111C12.0088 22.8111 12.0088 24.304 12.0088 25.804C12.0088 25.9016 12.0088 26.0063 12.0088 26.1179C13.1251 26.1179 14.1994 26.1179 15.3017 26.1179C15.3087 26.0202 15.3157 25.9365 15.3157 25.8528C15.3157 18.7787 15.3157 11.7115 15.3157 4.63742C15.3157 4.14907 15.1831 3.98164 14.7087 3.9049C13.432 3.70956 12.1623 3.51422 10.8856 3.32585C8.19272 2.92122 5.49981 2.51658 2.79992 2.11195C2.38831 2.04916 2.11623 2.26543 2.0953 2.69099C2.08833 2.90726 2.0953 3.12353 2.0953 3.33283C2.0953 10.679 2.0953 18.0252 2.0953 25.3714C2.0953 25.9435 2.27669 26.1249 2.85574 26.1249C3.51152 26.1249 4.16033 26.1249 4.81612 26.1249C5.00448 26.1249 5.19285 26.1249 5.40214 26.1249ZM16.4459 11.9278C16.4459 16.6788 16.4459 21.3879 16.4459 26.1249C16.5575 26.1249 16.6482 26.1249 16.7458 26.1249C19.6899 26.1249 22.634 26.1249 25.578 26.1249C26.1641 26.1249 26.3454 25.9435 26.3454 25.3505C26.3454 21.7507 26.3454 18.1578 26.3454 14.5579C26.3454 13.9859 26.2268 13.8533 25.6757 13.7417C23.4363 13.3022 21.1898 12.8557 18.9504 12.4092C18.1202 12.2487 17.297 12.0953 16.4459 11.9278ZM10.9205 26.1109C10.9205 26.0133 10.9205 25.9296 10.9205 25.8458C10.9205 24.3319 10.9205 22.8181 10.9205 21.3042C10.9205 20.8088 10.7252 20.6135 10.2368 20.6135C9.23221 20.6135 8.2276 20.6135 7.21602 20.6135C6.69278 20.6135 6.51837 20.7879 6.51837 21.3111C6.51837 22.825 6.51837 24.3389 6.51837 25.8528C6.51837 25.9365 6.52535 26.0202 6.53233 26.1109C7.99738 26.1109 9.44151 26.1109 10.9205 26.1109Z"/>
</mask>
<path d="M1 2.3352C1.13255 1.97242 1.28604 1.6236 1.59998 1.36547C2.11623 0.939905 2.69528 0.960835 3.31618 1.0585C6.21839 1.51197 9.12757 1.94451 12.0367 2.39101C13.0134 2.53751 13.9902 2.68402 14.9669 2.84448C15.8947 2.99796 16.4319 3.63281 16.4319 4.58161C16.4389 6.542 16.4319 8.50238 16.4319 10.4697C16.4319 10.5744 16.4319 10.6721 16.4319 10.8046C16.9621 10.9093 17.4784 11.0209 17.9946 11.1185C20.6945 11.6557 23.3874 12.1859 26.0873 12.7231C26.9245 12.8906 27.4407 13.5324 27.4407 14.3905C27.4407 18.081 27.4407 21.7716 27.4407 25.4621C27.4407 26.3691 26.9943 26.9411 26.1152 27.1853C26.0943 27.1923 26.0664 27.2062 26.0455 27.2202C18.1621 27.2202 10.2787 27.2202 2.39529 27.2202C1.96973 27.1016 1.57207 26.9202 1.32092 26.5365C1.18837 26.3342 1.10465 26.097 1 25.8807C1 18.0322 1 10.1837 1 2.3352ZM5.40214 26.1249C5.40214 25.9923 5.40214 25.8877 5.40214 25.79C5.40214 24.304 5.42307 22.8111 5.39516 21.3251C5.37423 20.2298 6.1835 19.4694 7.21602 19.5112C8.21365 19.5461 9.21128 19.5182 10.2089 19.5182C11.3461 19.5182 12.0088 20.181 12.0088 21.3111C12.0088 22.8111 12.0088 24.304 12.0088 25.804C12.0088 25.9016 12.0088 26.0063 12.0088 26.1179C13.1251 26.1179 14.1994 26.1179 15.3017 26.1179C15.3087 26.0202 15.3157 25.9365 15.3157 25.8528C15.3157 18.7787 15.3157 11.7115 15.3157 4.63742C15.3157 4.14907 15.1831 3.98164 14.7087 3.9049C13.432 3.70956 12.1623 3.51422 10.8856 3.32585C8.19272 2.92122 5.49981 2.51658 2.79992 2.11195C2.38831 2.04916 2.11623 2.26543 2.0953 2.69099C2.08833 2.90726 2.0953 3.12353 2.0953 3.33283C2.0953 10.679 2.0953 18.0252 2.0953 25.3714C2.0953 25.9435 2.27669 26.1249 2.85574 26.1249C3.51152 26.1249 4.16033 26.1249 4.81612 26.1249C5.00448 26.1249 5.19285 26.1249 5.40214 26.1249ZM16.4459 11.9278C16.4459 16.6788 16.4459 21.3879 16.4459 26.1249C16.5575 26.1249 16.6482 26.1249 16.7458 26.1249C19.6899 26.1249 22.634 26.1249 25.578 26.1249C26.1641 26.1249 26.3454 25.9435 26.3454 25.3505C26.3454 21.7507 26.3454 18.1578 26.3454 14.5579C26.3454 13.9859 26.2268 13.8533 25.6757 13.7417C23.4363 13.3022 21.1898 12.8557 18.9504 12.4092C18.1202 12.2487 17.297 12.0953 16.4459 11.9278ZM10.9205 26.1109C10.9205 26.0133 10.9205 25.9296 10.9205 25.8458C10.9205 24.3319 10.9205 22.8181 10.9205 21.3042C10.9205 20.8088 10.7252 20.6135 10.2368 20.6135C9.23221 20.6135 8.2276 20.6135 7.21602 20.6135C6.69278 20.6135 6.51837 20.7879 6.51837 21.3111C6.51837 22.825 6.51837 24.3389 6.51837 25.8528C6.51837 25.9365 6.52535 26.0202 6.53233 26.1109C7.99738 26.1109 9.44151 26.1109 10.9205 26.1109Z" fill="#CFCFCF"/>
<path d="M5.98109 6.29778C6.32992 6.29778 6.68571 6.2908 7.03454 6.29778C7.39034 6.30475 7.62056 6.53498 7.61358 6.85589C7.60661 7.16286 7.37638 7.3861 7.04151 7.39308C6.32294 7.40006 5.59739 7.40006 4.87882 7.39308C4.55092 7.39308 4.31372 7.15588 4.31372 6.84892C4.31372 6.54195 4.53697 6.31173 4.87184 6.30476C5.24159 6.2908 5.61134 6.29778 5.98109 6.29778Z" fill="#CFCFCF"/>
<path d="M5.95319 10.7C5.60436 10.7 5.24857 10.707 4.89974 10.7C4.55092 10.693 4.31372 10.4628 4.31372 10.1489C4.31372 9.82797 4.54395 9.60472 4.89974 9.60472C5.61134 9.59774 6.32294 9.59774 7.03454 9.60472C7.37638 9.60472 7.59963 9.82797 7.60661 10.1349C7.61358 10.4489 7.37638 10.6861 7.02756 10.693C6.67176 10.707 6.31596 10.7 5.95319 10.7Z" fill="#CFCFCF"/>
<path d="M5.96021 13.9999C5.61836 13.9999 5.27651 13.9999 4.92769 13.9999C4.55096 13.9999 4.31377 13.7837 4.30679 13.4627C4.29981 13.1349 4.53701 12.9116 4.91374 12.9116C5.61139 12.9046 6.30205 12.9046 6.9997 12.9116C7.37643 12.9116 7.61363 13.1349 7.61363 13.4627C7.61363 13.7837 7.36945 14.0069 6.9997 14.0069C6.65088 14.0069 6.30903 13.9999 5.96021 13.9999Z" fill="#CFCFCF"/>
<path d="M5.94625 17.3066C5.60441 17.3066 5.26256 17.3066 4.91374 17.3066C4.54399 17.2996 4.29981 17.0764 4.30679 16.7485C4.30679 16.4276 4.53701 16.2113 4.89978 16.2113C5.60441 16.2043 6.30903 16.2043 7.01365 16.2113C7.37642 16.2113 7.60665 16.4276 7.60665 16.7485C7.61362 17.0764 7.36945 17.2996 6.99969 17.3066C6.65087 17.3136 6.30205 17.3066 5.94625 17.3066Z" fill="#CFCFCF"/>
<path d="M11.4508 7.39302C11.109 7.39302 10.7672 7.39999 10.4183 7.39302C10.0486 7.38604 9.81836 7.16977 9.81836 6.8349C9.82534 6.50701 10.0416 6.30469 10.4114 6.29771C11.116 6.29074 11.8206 6.29074 12.5252 6.29771C12.881 6.29771 13.1182 6.52794 13.1182 6.84188C13.1182 7.16977 12.874 7.39302 12.5043 7.39302C12.1555 7.39999 11.8066 7.39302 11.4508 7.39302Z" fill="#CFCFCF"/>
<path d="M11.4856 9.60466C11.8344 9.60466 12.1902 9.59769 12.539 9.60466C12.8879 9.61164 13.1251 9.84186 13.1251 10.1558C13.1181 10.4697 12.8809 10.693 12.5251 10.7C11.8205 10.7069 11.1158 10.7069 10.4112 10.7C10.0554 10.7 9.8252 10.4767 9.8252 10.1558C9.8252 9.82791 10.0415 9.61862 10.4042 9.60466C10.4182 9.60466 10.4391 9.60466 10.4531 9.60466C10.7949 9.60466 11.1368 9.60466 11.4856 9.60466Z" fill="#CFCFCF"/>
<path d="M11.4718 12.9046C11.8206 12.9046 12.1764 12.8976 12.5252 12.9046C12.881 12.9115 13.1182 13.1278 13.1182 13.4417C13.1182 13.7696 12.8741 13.9929 12.5113 13.9929C11.8136 13.9999 11.123 13.9999 10.4253 13.9929C10.0556 13.9929 9.81837 13.7696 9.82535 13.4348C9.83232 13.1069 10.0486 12.9046 10.4183 12.8976C10.7672 12.9046 11.116 12.9046 11.4718 12.9046Z" fill="#CFCFCF"/>
<path d="M11.4787 16.2113C11.8275 16.2113 12.1833 16.2043 12.5321 16.2113C12.8809 16.2183 13.1251 16.4485 13.1181 16.7555C13.1181 17.0694 12.874 17.2996 12.5251 17.2996C11.8205 17.3066 11.1159 17.3066 10.4113 17.2996C10.0555 17.2996 9.82525 17.0834 9.81827 16.7625C9.8113 16.4206 10.0345 16.2183 10.4182 16.2043C10.4322 16.2043 10.4531 16.2043 10.4671 16.2043C10.8089 16.2113 11.1438 16.2113 11.4787 16.2113Z" fill="#CFCFCF"/>
<path d="M21.3992 16.2114C21.748 16.2114 22.1038 16.2044 22.4526 16.2114C22.8014 16.2183 23.0386 16.4555 23.0317 16.7695C23.0247 17.0764 22.7945 17.3067 22.4596 17.3067C21.741 17.3136 21.0155 17.3136 20.2969 17.3067C19.962 17.3067 19.7388 17.0764 19.7388 16.7625C19.7388 16.4416 19.9481 16.2253 20.2899 16.2183C20.6597 16.2044 21.0294 16.2114 21.3992 16.2114Z" fill="#CFCFCF"/>
<path d="M21.3992 20.6135C21.0504 20.6135 20.6946 20.6135 20.3457 20.6135C19.976 20.6065 19.7388 20.3902 19.7458 20.0554C19.7458 19.7275 19.969 19.5182 20.3388 19.5182C21.0434 19.5112 21.748 19.5112 22.4526 19.5182C22.8084 19.5182 23.0456 19.7414 23.0456 20.0554C23.0456 20.3833 22.8014 20.6065 22.4387 20.6065C22.0829 20.6135 21.741 20.6135 21.3992 20.6135Z" fill="#CFCFCF"/>
<path d="M21.4061 22.8181C21.755 22.8181 22.1108 22.8112 22.4596 22.8181C22.8014 22.8251 23.0247 23.0414 23.0386 23.3483C23.0456 23.6623 22.8084 23.9065 22.4596 23.9065C21.741 23.9134 21.0155 23.9134 20.2969 23.9065C19.962 23.9065 19.7388 23.6693 19.7388 23.3553C19.7388 23.0344 19.9481 22.8181 20.2969 22.8112C20.6666 22.8112 21.0364 22.8181 21.4061 22.8181Z" fill="#CFCFCF"/>
</svg>
