<svg width="27" height="28" viewBox="0 0 27 28" fill="none" xmlns="http://www.w3.org/2000/svg">
<path d="M0.449189 5.18831C0.469607 5.14601 0.490026 5.11077 0.503638 5.06847C0.69421 4.46928 1.15022 4.10271 1.75597 4.09566C1.95335 4.09566 2.08267 4.02517 2.21879 3.88418C3.03553 3.02416 3.86588 2.17824 4.68261 1.32527C4.76429 1.24068 4.83235 1.13494 4.87999 1.0292C5.04334 0.690828 5.30197 0.500496 5.6627 0.493446C6.53389 0.486397 7.41188 0.486397 8.28988 0.493446C8.60296 0.493446 8.83437 0.648532 9.01813 0.909358C9.07939 1.001 9.18148 1.08559 9.28357 1.12789C12.394 2.39677 15.4976 3.6586 18.6148 4.91339C18.7373 4.96273 18.8802 4.98388 19.0096 4.98388C19.7514 4.99093 20.4865 4.98388 21.2284 4.99093C22.5828 4.99798 23.4948 5.94964 23.5084 7.34541C23.5084 7.4864 23.5152 7.62738 23.5016 7.76837C23.4744 8.17018 23.1953 8.5015 22.8142 8.572C22.6917 8.59314 22.5624 8.60019 22.4331 8.60019C20.8813 8.60019 19.3226 8.60019 17.7708 8.60019C17.6688 8.60019 17.5667 8.60019 17.4441 8.60019C17.4441 9.49546 17.4441 10.3837 17.4441 11.3071C17.5871 11.3071 17.7368 11.3001 17.8865 11.3071C18.4991 11.3283 19.0028 11.7372 19.1185 12.3645C19.1729 12.6536 19.1729 12.9637 19.1389 13.2528C19.0912 13.6828 18.7305 13.9929 18.3085 14C17.4237 14.007 16.5389 14.007 15.6609 14C15.1913 13.9929 14.8442 13.6334 14.8238 13.147C14.8102 12.9285 14.8102 12.71 14.8306 12.4914C14.885 11.8711 15.4023 11.3494 16.008 11.3142C16.1782 11.3071 16.3484 11.3142 16.5321 11.3142C16.5321 10.4119 16.5321 9.53071 16.5321 8.62839C14.0887 8.62839 11.6453 8.62839 9.18148 8.62839C9.18148 13.711 9.18148 18.7935 9.18148 23.9184C9.26996 23.9184 9.35844 23.9184 9.44692 23.9184C9.95058 23.9184 10.4474 23.9114 10.9511 23.9255C11.8495 23.9466 12.5778 24.6798 12.6254 25.6103C12.6458 25.9557 12.639 26.2941 12.6254 26.6395C12.6118 27.0906 12.3395 27.3444 11.9652 27.5206C8.63699 27.5206 5.30878 27.5206 1.97377 27.5206C1.60623 27.3515 1.32718 27.0977 1.31357 26.6395C1.30676 26.2941 1.29996 25.9557 1.31357 25.6103C1.3476 24.8278 1.87848 24.1652 2.61354 23.9819C2.82454 23.9325 3.04914 23.9255 3.26694 23.9255C3.76378 23.9184 4.26063 23.9255 4.76429 23.9255C4.76429 18.8076 4.76429 13.718 4.76429 8.61429C4.34231 8.61429 3.93394 8.60724 3.53238 8.62134C3.47112 8.62134 3.38264 8.69184 3.34861 8.75528C2.88579 9.5589 1.64027 9.81973 0.952844 9.21349C0.728241 9.0161 0.612537 8.69184 0.442383 8.42396C0.449189 7.33131 0.449189 6.25981 0.449189 5.18831ZM3.51196 7.67673C9.88251 7.67673 16.2463 7.67673 22.6032 7.67673C22.7325 6.52769 22.1948 5.8862 21.0991 5.8862C15.341 5.8862 9.58985 5.8862 3.83185 5.8862C3.72295 5.8862 3.62086 5.8862 3.50515 5.8862C3.51196 6.51359 3.51196 7.09163 3.51196 7.67673ZM2.19156 26.5901C5.39726 26.5901 8.57573 26.5901 11.761 26.5901C11.761 26.2729 11.7746 25.9698 11.761 25.6737C11.7338 25.1803 11.3799 24.8137 10.8966 24.8137C8.28307 24.8066 5.66951 24.8066 3.05594 24.8137C2.57951 24.8137 2.21879 25.1803 2.19837 25.6737C2.17795 25.9698 2.19156 26.2729 2.19156 26.5901ZM9.16106 4.96978C11.5432 4.96978 13.8913 4.96978 16.2395 4.96978C16.2395 4.95568 16.2463 4.94158 16.2463 4.92748C13.8913 3.97582 11.5364 3.01711 9.16106 2.0584C9.16106 3.04531 9.16106 4.00402 9.16106 4.96978ZM5.6627 8.61429C5.6627 8.94561 5.64909 9.24168 5.66951 9.53776C5.68312 9.67169 5.73757 9.82678 5.82605 9.92547C6.56792 10.7079 7.3166 11.4834 8.07208 12.2588C8.12653 12.3152 8.18098 12.3575 8.26265 12.435C8.26265 11.145 8.26265 9.89022 8.26265 8.62134C7.39827 8.61429 6.5475 8.61429 5.6627 8.61429ZM5.68312 18.3353C5.68312 19.9426 5.68312 21.571 5.68312 23.1853C6.47263 22.3605 7.25534 21.5428 8.00402 20.7603C7.24853 19.9708 6.46583 19.1531 5.68312 18.3353ZM5.68312 16.002C6.49305 15.1631 7.27576 14.3525 8.01082 13.5911C7.23492 12.7875 6.44541 11.9698 5.68312 11.1803C5.68312 12.7382 5.68312 14.3595 5.68312 16.002ZM8.26946 14.7261C7.47314 15.5508 6.69043 16.3686 5.94856 17.1299C6.71765 17.9265 7.50036 18.7372 8.26946 19.5337C8.26946 17.9617 8.26946 16.3404 8.26946 14.7261ZM1.32038 6.79556C1.32038 7.22557 1.31357 7.65558 1.32038 8.08559C1.32718 8.41691 1.48372 8.58609 1.80361 8.60019C1.91251 8.60724 2.02141 8.60724 2.13711 8.60019C2.457 8.58609 2.62716 8.42396 2.62716 8.09264C2.63396 7.23262 2.63396 6.3726 2.62716 5.51258C2.62716 5.17421 2.457 5.01208 2.13711 4.99798C2.03502 4.99093 1.93293 4.99093 1.83084 4.99798C1.47692 5.01208 1.32038 5.16716 1.31357 5.53373C1.31357 5.94964 1.32038 6.3726 1.32038 6.79556ZM8.19459 4.34239C8.21501 4.32124 8.24223 4.30009 8.26265 4.2719C8.26265 3.32023 8.26265 2.36152 8.26265 1.40986C7.39146 1.40986 6.54069 1.40986 5.60145 1.40986C5.68993 1.57905 5.73757 1.72003 5.82605 1.81167C6.51347 2.53776 7.2145 3.24974 7.90873 3.97582C8.01082 4.08861 8.0993 4.2155 8.19459 4.34239ZM4.78471 2.573C4.19257 3.1863 3.60724 3.79254 3.03553 4.39173C3.13762 4.53977 3.24652 4.716 3.36903 4.88519C3.40306 4.92748 3.4507 4.99093 3.49834 4.99093C3.92713 4.99798 4.35592 4.99798 4.79151 4.99798C4.78471 4.15911 4.78471 3.36958 4.78471 2.573ZM18.2745 13.0906C18.2745 12.9214 18.2881 12.7664 18.2745 12.6113C18.2473 12.3716 18.0839 12.2095 17.8457 12.2095C17.2604 12.2024 16.6751 12.2024 16.0965 12.2095C15.8515 12.2095 15.7018 12.3716 15.6814 12.6183C15.6677 12.7734 15.6814 12.9285 15.6814 13.0906C16.5593 13.0906 17.4101 13.0906 18.2745 13.0906ZM7.56842 4.97683C6.94226 4.32829 6.30928 3.6727 5.68312 3.03121C5.68312 3.6586 5.68312 4.30714 5.68312 4.96978C6.3297 4.97683 6.95587 4.97683 7.56842 4.97683ZM8.26265 21.9446C7.63648 22.6002 7.01032 23.2558 6.39096 23.8973C6.98309 23.8973 7.61607 23.8973 8.26265 23.8973C8.26265 23.2346 8.26265 22.579 8.26265 21.9446Z" fill="#CFCFCF"/>
<path d="M14.1567 27.5066C13.6598 27.2951 13.4829 26.9144 13.4897 26.3646C13.5033 23.0514 13.4965 19.7382 13.4965 16.425C13.4965 15.6778 13.8096 15.3535 14.5378 15.3535C16.1645 15.3535 17.798 15.3535 19.4247 15.3535C20.1325 15.3535 20.4524 15.6848 20.4524 16.418C20.4524 16.9537 20.4524 17.4895 20.4524 18.0605C20.5749 18.0605 20.677 18.0605 20.7723 18.0605C22.3581 18.0605 23.9439 18.0605 25.5366 18.0605C26.2104 18.0605 26.5371 18.3988 26.5371 19.0967C26.5371 21.5146 26.5303 23.9326 26.5439 26.3505C26.5507 26.9074 26.3873 27.3022 25.8769 27.5136C21.9702 27.5066 18.0634 27.5066 14.1567 27.5066ZM14.3813 16.2699C14.3813 19.7312 14.3813 23.1642 14.3813 26.5972C14.6672 26.5972 14.9394 26.5972 15.2321 26.5972C15.2321 26.4985 15.2321 26.4139 15.2321 26.3293C15.2321 25.8288 15.2253 25.3283 15.2321 24.8278C15.2389 24.2991 15.5996 23.9255 16.0964 23.9185C16.6818 23.9114 17.2671 23.9114 17.8524 23.9185C18.3357 23.9255 18.6828 24.285 18.6964 24.7855C18.71 25.2508 18.7032 25.716 18.7032 26.1813C18.7032 26.3223 18.7032 26.4562 18.7032 26.5972C19.0095 26.5972 19.2749 26.5972 19.5608 26.5972C19.5608 23.1501 19.5608 19.7171 19.5608 16.2699C17.832 16.2699 16.1169 16.2699 14.3813 16.2699ZM21.3304 26.5972C21.3304 26.4915 21.3304 26.3928 21.3304 26.3011C21.3304 25.8077 21.3236 25.3142 21.3304 24.8208C21.344 24.2709 21.6911 23.9185 22.2152 23.9114C22.7733 23.9044 23.3382 23.9044 23.8963 23.9114C24.4476 23.9185 24.7947 24.285 24.8015 24.8631C24.8083 25.279 24.8015 25.6879 24.8015 26.1038C24.8015 26.2659 24.8015 26.428 24.8015 26.5902C25.1146 26.5902 25.3868 26.5902 25.6523 26.5902C25.6523 24.0383 25.6523 21.5076 25.6523 18.9698C23.9167 18.9698 22.1948 18.9698 20.4728 18.9698C20.4728 21.5217 20.4728 24.0524 20.4728 26.5972C20.7655 26.5972 21.0309 26.5972 21.3304 26.5972ZM17.8184 26.5972C17.8184 25.998 17.8184 25.4129 17.8184 24.8349C17.2399 24.8349 16.675 24.8349 16.1101 24.8349C16.1101 25.4341 16.1101 26.0121 16.1101 26.5972C16.6886 26.5972 17.2399 26.5972 17.8184 26.5972ZM23.9303 24.8278C23.345 24.8278 22.7801 24.8278 22.222 24.8278C22.222 25.427 22.222 26.0121 22.222 26.5831C22.8073 26.5831 23.3654 26.5831 23.9303 26.5831C23.9303 25.998 23.9303 25.427 23.9303 24.8278Z" fill="#CFCFCF"/>
<path d="M16.5458 20.0976C16.5458 20.147 16.5458 20.2034 16.5458 20.2527C16.5321 20.5559 16.3484 20.7603 16.0965 20.7532C15.8447 20.7462 15.6882 20.5559 15.6814 20.2598C15.6746 20.1188 15.6746 19.9778 15.6814 19.8368C15.695 19.5901 15.8583 19.4209 16.0829 19.4068C16.3007 19.3927 16.4913 19.5407 16.5321 19.7804C16.5526 19.8862 16.5458 19.9919 16.5458 20.0976Z" fill="#CFCFCF"/>
<path d="M15.6745 22.3253C15.6745 22.2619 15.6745 22.2055 15.6745 22.142C15.6881 21.846 15.8583 21.6556 16.1033 21.6556C16.3483 21.6556 16.5253 21.846 16.5389 22.135C16.5457 22.2548 16.5457 22.3817 16.5389 22.5016C16.5253 22.8047 16.3415 23.0091 16.0897 23.0021C15.8447 22.995 15.6813 22.8047 15.6677 22.5086C15.6745 22.4452 15.6745 22.3888 15.6745 22.3253Z" fill="#CFCFCF"/>
<path d="M17.4168 22.3394C17.4168 22.2618 17.41 22.1843 17.4168 22.0997C17.4305 21.8459 17.6006 21.6626 17.832 21.6556C18.0566 21.6486 18.254 21.8248 18.2744 22.0715C18.288 22.2195 18.288 22.3676 18.2812 22.5156C18.2676 22.8046 18.0907 23.002 17.8456 23.002C17.6006 23.002 17.4236 22.8046 17.4168 22.5156C17.41 22.4592 17.4168 22.3958 17.4168 22.3394Z" fill="#CFCFCF"/>
<path d="M18.2881 17.8207C18.2813 17.9265 18.2881 18.0322 18.2677 18.138C18.2201 18.3706 18.0363 18.5116 17.8049 18.4975C17.5871 18.4834 17.4306 18.3213 17.417 18.0886C17.4033 17.9406 17.4101 17.7926 17.4101 17.6445C17.417 17.3484 17.5803 17.1652 17.8389 17.1652C18.0908 17.1652 18.2609 17.3484 18.2745 17.6445C18.2881 17.7009 18.2813 17.7573 18.2881 17.8207C18.2813 17.8207 18.2881 17.8207 18.2881 17.8207Z" fill="#CFCFCF"/>
<path d="M17.4168 20.0765C17.4168 19.6254 17.553 19.4069 17.8456 19.4069C18.1383 19.4069 18.2812 19.6254 18.2812 20.0695C18.2812 20.147 18.288 20.2246 18.2812 20.3092C18.2608 20.5771 18.0702 20.7603 17.832 20.7533C17.5938 20.7462 17.4236 20.563 17.4168 20.288C17.41 20.2175 17.4168 20.147 17.4168 20.0765Z" fill="#CFCFCF"/>
<path d="M15.6814 17.8278C15.6814 17.7432 15.6746 17.6516 15.6814 17.567C15.7018 17.3344 15.8583 17.1722 16.0761 17.1652C16.3143 17.1511 16.4777 17.2709 16.5185 17.5106C16.5526 17.6868 16.5458 17.8772 16.5389 18.0604C16.5253 18.3354 16.3416 18.5046 16.0965 18.5046C15.8515 18.4975 15.6882 18.3283 15.6746 18.0463C15.6746 17.9688 15.6746 17.8983 15.6814 17.8278C15.6746 17.8278 15.6814 17.8278 15.6814 17.8278Z" fill="#CFCFCF"/>
<path d="M23.0797 21.2044C22.6713 21.2044 22.2698 21.2114 21.8614 21.2044C21.5211 21.1973 21.3305 21.0281 21.3373 20.7391C21.3441 20.4642 21.5279 20.302 21.8614 20.302C22.6645 20.295 23.4677 20.295 24.2776 20.302C24.6043 20.302 24.8017 20.4712 24.8085 20.7391C24.8153 21.014 24.6111 21.1973 24.2776 21.2044C23.876 21.2114 23.4745 21.2044 23.0797 21.2044Z" fill="#CFCFCF"/>
<path d="M23.0592 22.1068C23.4744 22.1068 23.8896 22.0997 24.3048 22.1068C24.611 22.1138 24.8016 22.283 24.8016 22.5438C24.8084 22.8047 24.611 23.002 24.3116 23.002C23.4744 23.0091 22.6373 23.0091 21.7933 23.002C21.4938 23.002 21.3169 22.8047 21.3237 22.5297C21.3305 22.2689 21.5074 22.1068 21.8069 22.1068C22.2289 22.1068 22.6441 22.1068 23.0592 22.1068Z" fill="#CFCFCF"/>
</svg>
