<svg width="24" height="26" viewBox="0 0 24 26" fill="none" xmlns="http://www.w3.org/2000/svg">
<path d="M23.776 10.1068H17.7614L12.2374 5.27404L15.2447 2.64752L23.776 10.1068ZM12.2374 5.27404L15.2447 2.64752L12.2374 0.0210102L0.69873 10.1278H6.71332L12.2374 5.27404ZM20.8327 0H17.2069V3.02574L20.8327 6.05149V0Z" fill="#E52621"/>
<path d="M21.1108 25.971H3.32293C1.85128 25.971 0.678223 24.7943 0.678223 23.3655V10.1068L12.2168 5.29504L23.7555 10.1068V23.3655C23.7768 24.8153 22.5824 25.971 21.1108 25.971Z" fill="#E52621"/>
<path d="M10.4042 17.2929C10.4042 16.1372 10.2549 15.3177 9.95626 14.8345C9.65766 14.3512 9.12446 14.099 8.3993 14.099C8.16468 14.099 7.93008 14.12 7.69546 14.1411C7.43952 14.1621 7.20491 14.1831 6.99162 14.2251V24.0378H3.34448V11.7457C3.66441 11.6616 4.02699 11.5776 4.43223 11.4935C4.85879 11.4095 5.28536 11.3254 5.75458 11.2414C6.22381 11.1783 6.69303 11.1153 7.18358 11.0733C7.67413 11.0313 8.16469 11.0103 8.63391 11.0103C9.57236 11.0103 10.3188 11.1363 10.8947 11.3675C11.4706 11.5986 11.9611 11.8717 12.3237 12.2079C12.8569 11.8297 13.4541 11.5566 14.1366 11.3464C14.8191 11.1363 15.4376 11.0313 16.0135 11.0313C17.0373 11.0313 17.8904 11.1783 18.5516 11.4515C19.2128 11.7247 19.746 12.1239 20.1299 12.6492C20.5138 13.1745 20.7911 13.7839 20.9404 14.4773C21.0896 15.1917 21.1536 15.9691 21.1536 16.8516V24.0378H17.5065V17.2929C17.5065 16.1372 17.3572 15.3177 17.0586 14.8345C16.76 14.3512 16.2268 14.099 15.5016 14.099C15.3097 14.099 15.0324 14.1411 14.6698 14.2461C14.3072 14.3512 14.03 14.4562 13.7954 14.6033C13.902 14.9815 13.9873 15.3598 14.0086 15.78C14.0513 16.2002 14.0513 16.6205 14.0513 17.1038V24.0378H10.4042V17.2929Z" fill="white"/>
</svg>
