<svg width="27" height="27" viewBox="0 0 27 27" fill="none" xmlns="http://www.w3.org/2000/svg">
<path d="M26.6694 25.0825L20.1784 18.5914C21.7873 16.6298 22.7571 14.1171 22.7571 11.3786C22.7571 5.09694 17.6602 0 11.3786 0C5.09143 0 0 5.09694 0 11.3786C0 17.6602 5.09143 22.7571 11.3786 22.7571C14.1171 22.7571 16.6243 21.7929 18.5859 20.1839L25.0769 26.6694C25.5178 27.1102 26.2286 27.1102 26.6694 26.6694C27.1102 26.2341 27.1102 25.5178 26.6694 25.0825ZM11.3786 20.4924C6.34776 20.4924 2.25918 16.4039 2.25918 11.3786C2.25918 6.35327 6.34776 2.25918 11.3786 2.25918C16.4039 2.25918 20.498 6.35327 20.498 11.3786C20.498 16.4039 16.4039 20.4924 11.3786 20.4924Z" fill="#CFCFCF"/>
</svg>
