<svg width="1440" height="967" viewBox="0 0 1440 967" fill="none" xmlns="http://www.w3.org/2000/svg">
<path d="M1457.04 966.516V650.307L1328.49 636.769L1261.08 641.121V405.173L1136.38 383.899L1115.19 386.316V368.427C1118.56 366.977 1120.97 363.592 1120.97 359.241C1120.97 355.372 1118.56 351.988 1115.68 351.504H1114.71H1114.23H1113.75C1113.27 351.504 1113.27 351.504 1112.79 351.504C1108.93 351.988 1106.05 356.339 1106.05 361.174C1106.05 365.526 1108.45 368.911 1111.34 368.911H1112.31H1112.79V386.316L1091.12 388.734V376.163C1093.05 375.196 1094.49 372.779 1094.49 369.878C1094.49 367.46 1093.05 365.043 1091.12 364.559V359.724C1095.94 358.273 1098.82 353.439 1098.82 347.637C1098.82 342.802 1095.93 338.45 1092.08 337.966H1090.64H1090.16H1089.68C1089.19 337.966 1089.19 337.966 1088.71 337.966C1083.9 338.934 1080.05 344.252 1080.05 350.054C1080.05 355.373 1082.94 359.724 1087.27 360.208H1088.71C1088.71 360.208 1088.71 360.208 1089.19 360.208H1089.68H1090.16V364.076H1089.68C1086.79 364.559 1084.86 367.46 1084.86 370.845C1084.86 373.746 1086.79 376.163 1088.71 376.647H1089.68C1089.68 376.647 1089.68 376.647 1090.16 376.647C1090.16 376.647 1090.16 376.647 1090.64 376.647V388.734L1058.86 392.118V226.762L1003.49 215.158L995.788 216.124L994.825 215.641V209.839L987.121 208.389V189.048L946.677 180.345V167.775L917.307 161.005L887.937 165.84V167.291L885.53 166.807V66.723H881.678V165.84L847.011 158.105L800.79 165.84L753.124 155.687V103.952L692.458 89.931V43.0315H689.569V88.964L687.643 88.4805L678.976 89.931V0H674.643V90.898L614.94 101.535V97.667L587.014 91.3815L549.94 98.1505V113.623L508.052 121.358V357.79L413.201 343.285L403.572 344.736V327.813C406.46 326.363 408.868 322.495 408.868 318.143C408.868 313.792 406.942 310.407 404.053 309.923H403.09H402.609H402.127H401.646C397.794 310.407 395.386 315.242 395.386 320.077C395.386 324.428 397.794 328.297 400.683 328.78H401.646H402.127H402.609V345.703L381.424 348.603V336.516C383.35 335.065 384.312 332.648 384.312 329.747C384.312 326.846 382.868 324.912 381.424 323.945V319.11C385.757 317.176 388.646 312.341 388.646 306.539C388.646 301.22 385.757 296.385 382.387 295.902H380.942H380.461H379.979C379.498 295.902 379.498 295.902 379.016 295.902C374.202 296.869 370.831 302.671 370.831 308.957C370.831 314.759 373.72 319.594 377.572 320.077H379.016C379.016 320.077 379.016 320.077 379.498 320.077H379.979H380.461V323.945H379.979C377.572 324.428 375.646 327.33 375.646 331.198C375.646 334.582 377.09 337 379.498 337H379.979C379.979 337 379.979 337 380.461 337C380.461 337 380.461 337 380.942 337V348.12L338.572 353.922V410.008L325.572 408.074L314.017 409.525V410.975L300.536 412.426V395.503C303.424 394.053 305.35 390.185 305.35 385.833C305.35 381.965 303.424 378.097 300.536 377.613H299.573H299.091H298.61H298.128C294.758 378.097 291.869 382.449 291.869 387.284C291.869 391.635 294.276 395.02 296.684 395.503H297.647H298.128H298.61V411.942L252.388 417.744V403.723C253.351 403.239 253.832 403.239 253.832 402.755V351.988C253.832 351.021 251.425 350.054 247.092 349.571C242.758 349.087 236.981 348.603 231.684 348.603C221.573 348.603 213.388 349.57 211.462 351.021L210.981 351.504V402.755C210.981 403.239 211.944 403.723 213.87 404.206V423.063L176.796 427.897L172.463 427.414L161.87 428.865V623.231L79.5379 616.946L-79.8309 630.484V966.516H-187.682V967H507.089H575.94H584.125H1548.52V966.516H1457.04ZM75.6861 966.516H-83.2012V630.484L75.6861 616.946V966.516ZM158.019 966.516H76.1675V617.43L158.019 623.715V966.516ZM168.611 966.516H158.5V429.348L168.611 427.897V966.516ZM293.795 395.503C293.313 395.503 293.313 395.503 292.832 395.503C292.832 395.503 292.832 395.503 292.351 395.503H291.869C289.462 395.02 287.536 391.635 287.536 387.767C287.536 382.932 289.943 379.064 293.313 378.097H293.795H294.276H294.758C297.165 378.58 299.091 381.965 299.091 385.833C299.573 390.668 297.165 394.536 293.795 395.503ZM294.276 395.503C297.647 394.536 300.054 390.185 300.054 385.833C300.054 382.932 298.61 380.031 297.165 378.581C299.573 379.548 301.017 382.449 301.017 385.833C301.017 390.668 298.61 394.536 295.239 395.503C294.758 395.503 294.758 395.503 294.276 395.503ZM296.202 395.987V412.909H295.239V396.47C295.721 395.986 295.721 395.987 296.202 395.987ZM207.611 351.504C209.055 350.054 216.759 348.603 227.351 348.603C232.647 348.603 238.425 349.087 242.758 349.571C248.055 350.538 249.018 351.021 249.018 351.504V401.789C246.61 400.338 237.462 399.371 228.314 399.371C217.722 399.371 209.055 400.338 207.129 401.305V351.504H207.611ZM207.611 402.755C209.055 401.305 218.203 400.338 228.796 400.338C242.277 400.338 249.499 402.272 249.499 403.239C249.499 403.239 249.499 403.723 248.536 403.723V402.755H247.092H246.61L245.647 404.206C242.758 404.69 239.388 404.69 235.055 405.173L232.647 401.305H231.203V405.657C230.722 405.657 230.24 405.657 229.759 405.657C223.981 405.657 218.203 405.173 214.351 404.689L213.388 403.723H212.907H211.944H211.462V404.206C208.092 403.723 207.611 403.239 207.611 402.755ZM248.055 403.723V418.711H247.092V403.723H248.055ZM239.87 416.777L240.833 418.711L238.425 419.194L239.87 416.777ZM237.944 418.711H236.981L238.907 415.327L239.388 415.81L237.944 418.711ZM231.684 404.206V402.755L242.277 418.228H241.796L231.684 404.206ZM232.166 405.657H231.684V404.689L232.166 405.657ZM234.573 406.14C238.425 406.14 241.796 405.657 244.684 405.173L239.388 413.392L234.573 406.14ZM239.87 413.876L246.129 403.723V405.173L239.87 414.843V413.876ZM231.203 401.305V420.645H230.24V401.305H231.203ZM229.759 406.14V420.645H228.314V406.14C228.796 406.14 229.277 406.14 229.759 406.14ZM227.833 406.14V421.129H226.87V406.14C227.351 406.14 227.351 406.14 227.833 406.14ZM219.166 415.81L219.648 416.294L214.351 422.579H213.388L219.166 415.81ZM212.907 423.063H211.944V405.657L219.166 415.327L212.907 423.063ZM220.129 416.777L223.499 421.612L215.314 422.579L220.129 416.777ZM211.944 404.689V403.723L224.462 421.129H223.981L211.944 404.689ZM221.092 415.81L226.388 409.041V421.612H224.944L221.092 415.81ZM220.611 415.327L220.129 414.843L226.388 407.107V408.074L220.611 415.327ZM220.129 414.359L213.388 405.173C216.759 405.657 221.573 406.14 226.388 406.14L220.129 414.359ZM211.462 405.173V423.063H210.5V403.723L211.462 405.173ZM172.463 901.728V966.516H168.611V427.897L172.463 428.381V456.908L174.87 457.391V498.489L172.463 498.972V536.685L174.389 537.169V578.75H171.981V616.946L175.352 618.88V660.461H172.944V698.174L175.352 698.657V740.239H172.944V778.435L175.352 778.919V820.5H172.944V858.696H175.352V900.76L172.463 901.728ZM174.87 698.174L232.647 694.306L175.352 698.657L174.87 698.174ZM232.647 966.516H172.944V902.211L232.647 901.244V966.516ZM232.647 899.31H227.351V875.619H232.647V899.31ZM232.647 875.135L176.796 876.586V875.619L232.647 874.168V875.135ZM226.87 876.102V899.794H226.388V876.102H226.87ZM225.907 876.102V899.794H225.425L225.907 876.102ZM224.944 876.102V899.794H214.833V876.102H224.944ZM214.351 876.102V899.31H213.87V876.102H214.351ZM213.388 876.102V899.31H212.907L213.388 876.102ZM212.425 876.102V899.31H202.314V876.102H212.425ZM202.314 876.586V899.794H201.833V876.586H202.314ZM201.351 876.586V899.794H200.87L201.351 876.586ZM200.388 876.586V899.794H190.277V876.586H200.388ZM189.796 876.586V899.794H189.315V876.586H189.796ZM188.833 876.586V899.794H188.352L188.833 876.586ZM187.87 876.586V899.794H177.759V876.586H187.87ZM177.278 877.069V900.277H176.796V877.069H177.278ZM176.796 875.135V861.114H177.278V875.135H176.796ZM177.759 875.135V861.114L187.87 860.63V874.651L177.759 875.135ZM188.352 874.651V860.63H188.833L188.352 874.651ZM189.315 874.651V860.63H189.796L189.315 874.651ZM190.277 874.651V860.63H200.388V874.651H190.277ZM200.87 874.651V860.63H201.351L200.87 874.651ZM201.351 874.651V860.63H201.833V874.651H201.351ZM202.314 874.651V860.63L212.425 860.146V874.168L202.314 874.651ZM212.907 874.168V860.146H213.388L212.907 874.168ZM213.87 874.168V860.146H214.351V874.168H213.87ZM214.833 874.168V860.146H224.944V874.168H214.833ZM225.425 873.685V859.663H225.907L225.425 873.685ZM226.388 873.685V859.663H226.87V873.685H226.388ZM232.647 873.685H227.351V859.663H232.647V873.685ZM232.647 859.18L176.315 860.63V900.277L232.647 899.31V900.277L175.833 901.244V859.18L232.647 857.729V859.18ZM232.647 857.729L172.944 859.18V821.466L232.647 819.533V857.729ZM232.647 817.599H227.351V794.391H232.647V817.599ZM232.647 793.907L176.796 795.841V794.874L232.647 792.456V793.907ZM226.87 794.874V818.082H226.388V794.874H226.87ZM225.907 794.874V818.082H225.425L225.907 794.874ZM224.944 794.874V818.082L214.833 818.566V795.357L224.944 794.874ZM214.351 795.357V818.566H213.87V795.357H214.351ZM213.388 795.357V818.566H212.907L213.388 795.357ZM212.425 795.357V818.566L202.314 819.049V795.841L212.425 795.357ZM202.314 795.357V818.566H201.833V795.357H202.314ZM201.351 795.841V819.049H200.87L201.351 795.841ZM200.388 795.841V819.049L190.277 819.533V796.325L200.388 795.841ZM189.796 795.841V819.049H189.315V795.841H189.796ZM188.833 795.841V819.049H188.352L188.833 795.841ZM187.87 796.325V819.533L177.759 820.016V796.808L187.87 796.325ZM177.278 796.325V819.533H176.796V796.325H177.278ZM176.796 794.874V780.853H177.278V794.874H176.796ZM177.759 794.391V780.369L187.87 779.885V793.907L177.759 794.391ZM188.352 794.391V780.369H188.833L188.352 794.391ZM189.315 793.907V779.885H189.796V793.907H189.315ZM190.277 793.907V779.885L200.388 779.402V793.424L190.277 793.907ZM200.87 793.424V779.402H201.351L200.87 793.424ZM201.351 793.424V779.402H201.833V793.424H201.351ZM202.796 793.424V779.402L212.907 778.919V792.94L202.796 793.424ZM212.907 792.94V778.919H213.388L212.907 792.94ZM213.87 792.94V778.919H214.351V792.94H213.87ZM214.833 792.94V778.919L224.944 778.435V792.456L214.833 792.94ZM225.425 792.456V778.435H225.907L225.425 792.456ZM226.388 792.456V778.435H226.87V792.456H226.388ZM232.647 792.456H227.351V778.435L232.647 777.951V792.456ZM232.647 777.468L176.315 779.885V819.533L232.647 817.599V818.082L175.833 820.016V778.435L232.647 776.018V777.468ZM232.647 776.018L175.352 778.919H174.87L232.647 776.018ZM232.647 775.534L173.426 778.435V740.722L233.129 737.338V775.534H232.647ZM232.647 736.37L227.351 736.854V713.646L232.647 713.163V736.37ZM232.647 712.679L176.796 715.58V714.613L232.647 711.229V712.679ZM226.87 713.163V736.37H226.388V713.163H226.87ZM225.907 713.163V736.37H225.425L225.907 713.163ZM224.944 713.163V736.37L214.833 736.854V713.646L224.944 713.163ZM214.351 714.13V737.338H213.87V714.13H214.351ZM213.388 714.13V737.338H212.907L213.388 714.13ZM212.425 714.13V737.338L202.314 737.821V714.613L212.425 714.13ZM202.314 714.613V737.821H201.833V714.613H202.314ZM201.351 714.613V737.821H200.87L201.351 714.613ZM200.388 714.613V737.821L190.277 738.305V715.096L200.388 714.613ZM189.796 715.58V738.788H189.315V715.58H189.796ZM188.833 715.58V738.788H188.352L188.833 715.58ZM187.87 715.58V738.788L177.759 739.271V716.064L187.87 715.58ZM177.278 716.064V739.271H176.796V716.064H177.278ZM176.796 714.13V700.108H177.278V714.13H176.796ZM177.759 714.13V700.108L187.87 699.625V713.646L177.759 714.13ZM188.352 713.163V699.141H188.833L188.352 713.163ZM189.315 713.163V699.141H189.796L189.315 713.163ZM190.277 713.163V699.141L200.388 698.657V712.679L190.277 713.163ZM200.87 712.679V698.657H201.351L200.87 712.679ZM201.833 712.679V698.657H202.314V712.679H201.833ZM202.796 712.679V698.657L212.907 698.174V712.195L202.796 712.679ZM212.907 711.712V697.691H213.388L212.907 711.712ZM213.87 711.712V697.691H214.351V711.712H213.87ZM214.833 711.712V697.691L224.944 697.207V711.229L214.833 711.712ZM225.425 711.229V697.207H225.907L225.425 711.229ZM226.388 711.229V697.207H226.87L226.388 711.229ZM232.647 710.745L227.351 711.229V697.207L232.647 696.724V710.745ZM232.647 696.24L176.315 700.108V739.755L232.647 736.854V737.338L175.833 740.239V698.657L232.647 694.789V696.24ZM232.647 694.306L172.944 698.174V660.944L232.647 656.593V694.306ZM232.647 654.659L227.351 655.143V631.934L232.647 631.451V654.659ZM232.647 630.968L176.796 635.319V634.352L232.647 630.484V630.968ZM226.87 631.934V655.143H226.388L226.87 631.934ZM225.907 631.934V655.143H225.425L225.907 631.934ZM224.944 631.934V655.143L214.833 656.109V632.901L224.944 631.934ZM214.351 632.901V656.109H213.87V632.901H214.351ZM213.388 632.901V656.109H212.907L213.388 632.901ZM212.425 632.901V656.109L202.314 657.076V633.869L212.425 632.901ZM202.314 633.869V657.076H201.833V633.869H202.314ZM201.351 633.869V657.076H200.87L201.351 633.869ZM200.388 633.869V657.076L190.277 657.56V634.352L200.388 633.869ZM189.796 634.836V658.044H189.315V634.836H189.796ZM188.833 634.836V658.044H188.352L188.833 634.836ZM187.87 634.836V658.044L177.759 659.01V635.802L187.87 634.836ZM177.278 635.319V658.527H176.796V635.319H177.278ZM176.796 633.385V619.364H177.278V633.385H176.796ZM177.759 633.385V619.364L187.87 618.396V632.418L177.759 633.385ZM188.352 632.901V618.88H188.833L188.352 632.901ZM189.315 632.418V618.88H189.796V632.901L189.315 632.418ZM190.277 632.418V618.396L200.388 617.43V631.451L190.277 632.418ZM200.87 631.934V617.913H201.351L200.87 631.934ZM201.833 631.934V617.913H202.314L201.833 631.934ZM202.796 631.451V617.43L212.907 616.463V630.484L202.796 631.451ZM212.907 630.968V616.946H213.388L212.907 630.968ZM213.87 630.968V616.946H214.351V630.968H213.87ZM214.833 630.968V616.946L224.944 615.979V630.001L214.833 630.968ZM225.425 630.001V615.495H225.907L225.425 630.001ZM226.388 630.001V615.495H226.87V630.001H226.388ZM232.647 629.517L227.351 630.001V615.495L232.647 615.012V629.517ZM232.647 614.529L176.315 618.88V658.527L232.647 654.659V655.626L175.352 659.978V618.88L232.647 614.045V614.529ZM232.647 613.078L172.944 617.913V579.716L232.647 574.398V613.078ZM232.647 573.431L227.351 573.914V550.706L232.647 550.223V573.431ZM232.647 549.256L176.796 554.575V553.607C178.722 553.607 191.722 552.157 204.722 551.19C211.944 550.706 218.685 549.74 223.981 549.256C226.87 548.773 228.796 548.773 230.24 548.773C231.203 548.773 231.685 548.773 232.166 548.773H232.647V549.256ZM226.87 550.223V573.431H226.388V550.223H226.87ZM225.907 550.223V573.431H225.425L225.907 550.223ZM224.944 550.706V573.914L214.833 574.881V551.674L224.944 550.706ZM214.351 551.674V574.881H213.87V551.674H214.351ZM213.388 551.674V574.881H212.907L213.388 551.674ZM212.907 551.674V574.881L202.796 575.849V552.641L212.907 551.674ZM202.314 552.641V575.849H201.833V552.641H202.314ZM201.351 552.641V575.849H200.87L201.351 552.641ZM200.388 552.641V575.849L190.759 576.816V553.607L200.388 552.641ZM189.796 553.607V576.816H189.315V553.607H189.796ZM188.833 554.091V577.299H188.352L188.833 554.091ZM187.87 554.091V577.299L176.315 578.266V555.058L187.87 554.091ZM176.796 553.124V539.103H177.278V553.124C176.796 553.124 176.796 553.124 176.796 553.124ZM177.759 553.124V539.103L187.87 538.136V552.157C183.537 552.641 179.685 553.124 177.759 553.124ZM188.352 552.157V538.136H188.833L188.352 552.157C188.833 552.157 188.833 552.157 188.352 552.157ZM189.315 552.157V538.136H189.796V552.157H189.315ZM190.277 551.674V537.652L199.907 536.685V550.706C196.537 551.19 193.166 551.674 190.277 551.674ZM200.87 550.706V536.685H201.351L200.87 550.706ZM201.351 550.706V536.685H201.833V550.706C201.833 550.706 201.833 550.706 201.351 550.706ZM202.796 550.706V536.685L212.907 535.718V549.74C209.537 550.223 206.166 550.223 202.796 550.706ZM212.907 549.74V535.718H213.388L212.907 549.74C213.388 549.74 213.388 549.74 212.907 549.74ZM213.87 549.74V535.718H214.351V549.74H213.87ZM214.833 549.74V535.718L224.944 534.751V549.256C222.055 548.773 218.685 549.256 214.833 549.74ZM225.425 548.773V534.268H225.907L225.425 548.773ZM226.388 548.773V534.268H226.87L226.388 548.773ZM232.647 547.806C232.166 547.806 230.24 548.289 227.351 548.289V533.784L232.647 533.301V547.806ZM232.647 533.301L176.315 538.619V578.266L232.647 572.948V573.431L175.833 578.75V537.169L232.647 531.367V533.301ZM232.647 531.85L175.352 537.652H174.389L232.647 531.85ZM232.647 530.883L172.944 536.685V499.456L232.647 492.686V530.883ZM232.647 491.72L227.351 492.203V468.995L232.647 468.512V491.72ZM232.647 468.028L176.796 474.314V473.347L232.647 467.061V468.028ZM226.87 468.995V492.203H226.388V468.995H226.87ZM225.907 468.995V492.203H225.425L225.907 468.995ZM224.944 468.995V492.203L214.833 493.17V469.962L224.944 468.995ZM214.351 470.446V493.654H213.87V470.446H214.351ZM213.388 470.446V493.654H212.907L213.388 470.446ZM212.425 470.446V493.654L202.314 494.621V471.413L212.425 470.446ZM202.314 471.896V495.104H201.833V471.896H202.314ZM200.87 471.896V495.104H200.388L200.87 471.896ZM200.388 471.896V495.104L190.759 496.071V472.863L200.388 471.896ZM189.796 473.347V496.555H189.315V473.347H189.796ZM188.833 473.347V496.555H188.352L188.833 473.347ZM187.87 473.347V496.555L177.759 497.522V474.314L187.87 473.347ZM177.278 474.797V498.005H176.796V474.797H177.278ZM176.796 472.863V458.842H177.278V472.863H176.796ZM177.759 472.379V458.358L187.87 456.908V470.929L177.759 472.379ZM188.352 471.413V457.391H188.833L188.352 471.413ZM189.315 471.413V457.391H189.796V471.413H189.315ZM190.277 471.413V457.391L200.388 456.424V470.446L190.277 471.413ZM200.87 469.962V455.941H201.351L200.87 469.962ZM201.351 469.962V455.941H201.833V470.446L201.351 469.962ZM202.796 469.962V455.457L212.907 454.007V468.512L202.796 469.962ZM212.907 468.512V454.007H213.388L212.907 468.512ZM213.87 468.512V454.007H214.351V468.512H213.87ZM214.833 468.512V454.007L224.944 452.556V467.061L214.833 468.512ZM225.425 467.544V453.039H225.907L225.425 467.544ZM226.388 467.061V452.556H226.87V467.061H226.388ZM232.647 466.578L227.351 467.061V452.556L232.647 452.073V466.578ZM232.647 451.589L176.315 458.358V498.005L232.647 491.72V492.203L175.833 498.489V457.391L232.647 450.622V451.589ZM232.647 450.139L175.352 456.908H174.389L232.647 450.139ZM232.647 449.655L172.944 456.908V428.865L232.647 421.129V449.655ZM232.647 419.678V420.645H231.684V406.14C232.166 406.14 232.166 406.14 232.647 406.14L238.907 414.843L236.499 418.711L232.647 419.678C232.647 419.195 232.647 419.195 232.647 419.678ZM243.721 966.516H233.129V420.645V419.678L243.721 418.228V966.516ZM243.721 418.228H242.758L240.833 415.327L246.61 406.14V418.711L243.721 418.228ZM248.055 900.76V966.516H244.203V418.711L248.055 419.194V448.204L250.462 448.688V490.753L248.055 491.236V529.916L250.462 530.4V572.464H248.055V611.628L250.462 612.111V654.659H248.055V692.856H250.462V735.404H248.055V774.084L250.462 774.567V817.115H248.055V856.279H250.462V898.826L248.055 900.76ZM310.165 966.516H248.536V900.76L310.165 899.794V966.516ZM310.165 897.859H304.387V874.168H310.165V897.859ZM310.165 873.685L251.906 875.135V874.168L310.165 872.718V873.685ZM303.906 874.168V897.859H303.424V874.168H303.906ZM302.943 874.168V897.859H302.462L302.943 874.168ZM301.98 874.168V897.859H291.388V874.168H301.98ZM290.906 874.651V898.343H290.425V874.651H290.906ZM289.943 874.651V898.343H289.462L289.943 874.651ZM288.98 874.651V898.343H278.388V874.651H288.98ZM278.388 874.651V898.343H277.906V874.651H278.388ZM277.425 874.651V898.343H276.943L277.425 874.651ZM276.462 874.651V898.343H266.351V875.135L276.462 874.651ZM265.869 875.135V898.826H265.388V875.135H265.869ZM264.425 875.135V898.826H263.943L264.425 875.135ZM263.943 875.135V898.826H253.351V875.135H263.943ZM252.388 875.619V899.31H251.906V875.619H252.388ZM251.906 873.201V859.18H252.388V873.201H251.906ZM252.869 873.201V859.18L263.462 858.696V872.718L252.869 873.201ZM264.425 873.201V859.18H264.906L264.425 873.201ZM264.906 873.201V859.18H265.388V873.201H264.906ZM266.351 873.201V859.18L276.462 858.696V872.718L266.351 873.201ZM276.943 872.718V858.696H277.425L276.943 872.718ZM277.906 872.718V858.696H278.388V872.718H277.906ZM278.869 872.718V858.696L289.462 858.213V872.234L278.869 872.718ZM289.462 872.718V858.696H289.943L289.462 872.718ZM290.425 872.718V858.696H290.906V872.718H290.425ZM291.388 872.234V857.729L301.98 857.246V871.751L291.388 872.234ZM302.462 872.234V857.729H302.943L302.462 872.234ZM303.424 872.234V857.729H303.906V872.234H303.424ZM310.165 872.234H304.387V857.729H310.165V872.234ZM310.165 857.246L251.906 858.696V898.826L310.165 897.859V898.826L250.944 899.794V857.246L310.165 855.795V857.246ZM310.165 855.795L248.536 857.246V818.566L310.165 816.148V855.795ZM310.165 815.181H304.387V791.006H310.165V815.181ZM310.165 790.522L251.906 792.94V791.973L310.165 789.556V790.522ZM303.906 791.49V815.181H303.424V791.006L303.906 791.49ZM302.943 791.49V815.181H302.462L302.943 791.49ZM301.98 791.49V815.181L291.388 815.664V791.973L301.98 791.49ZM290.906 791.973V815.664H290.425V791.973H290.906ZM289.943 791.973V815.664H289.462L289.943 791.973ZM288.98 791.973V815.664L278.869 816.148V792.456L288.98 791.973ZM278.388 792.456V816.148H277.906V792.456H278.388ZM277.425 792.456V816.148H276.943L277.425 792.456ZM276.462 792.456V816.148L266.351 816.631V792.94L276.462 792.456ZM265.388 792.94V816.631H264.906V792.94H265.388ZM264.425 792.94V816.631H263.943L264.425 792.94ZM263.462 792.94V816.631L252.869 817.115V793.424L263.462 792.94ZM252.388 793.424V817.115H251.906V793.424H252.388ZM251.906 791.49V777.468H252.388V791.49H251.906ZM252.869 791.49V777.468L263.462 776.984V791.006L252.869 791.49ZM263.943 791.006V776.984H264.425L263.943 791.006ZM264.906 791.006V776.984H265.388V791.006H264.906ZM265.869 791.006V776.984L276.462 776.501V791.006H265.869ZM276.943 790.522V776.018H277.425L276.943 790.522ZM277.906 790.522V776.018H278.388V790.522H277.906ZM278.869 790.522V776.018L289.462 775.534V790.039L278.869 790.522ZM289.462 790.039V775.534H289.943L289.462 790.039ZM290.425 790.039V775.534H290.906V790.039H290.425ZM291.388 790.039V775.534L301.98 775.051V789.556L291.388 790.039ZM302.462 789.556V775.051H302.943L302.462 789.556ZM303.424 789.556V775.051H303.906V789.556H303.424ZM310.165 789.072H304.387V774.567L310.165 774.084V789.072ZM310.165 774.084L251.906 776.984V817.115L310.165 815.181V815.664L250.944 817.599V775.051L310.165 772.633V774.084ZM310.165 772.15L248.536 775.051V736.854L310.165 733.469V772.15ZM310.165 732.019L304.387 732.503V708.328L310.165 707.844V732.019ZM310.165 707.844L251.906 711.229V709.778L310.165 706.394V707.844ZM303.906 708.811V732.986H303.424V708.811H303.906ZM302.943 708.811V732.986H302.462L302.943 708.811ZM301.98 708.811V732.986L291.388 733.469V709.778L301.98 708.811ZM290.906 709.294V732.986H290.425V709.294H290.906ZM289.943 709.294V732.986H289.462L289.943 709.294ZM288.98 709.294V732.986L278.388 733.469V709.778L288.98 709.294ZM278.388 710.262V733.953H277.906V710.262H278.388ZM277.425 710.262V733.953H276.943L277.425 710.262ZM276.462 710.262V733.953L265.869 734.437V710.745L276.462 710.262ZM265.388 710.745V734.437H264.906V710.745H265.388ZM264.425 710.745V734.437H263.943L264.425 710.745ZM263.943 710.745V734.437L253.351 734.92V711.229L263.943 710.745ZM252.388 711.712V735.404H251.906V711.712H252.388ZM251.906 709.294V695.273H252.388V709.294H251.906ZM252.869 709.294V695.273L263.462 694.789V708.811L252.869 709.294ZM264.425 708.811V694.789H264.906L264.425 708.811ZM264.906 708.811V694.789H265.388V708.811H264.906ZM265.869 708.811V694.789L276.462 694.306V708.328L265.869 708.811ZM276.943 707.844V693.823H277.425L276.943 707.844ZM277.906 707.844V693.823H278.388V707.844H277.906ZM278.869 707.844V693.823L289.462 693.339V707.844H278.869ZM289.462 707.36V692.856H289.943L289.462 707.36ZM290.425 707.36V692.856H290.906V707.36H290.425ZM291.388 707.36V692.856L301.98 692.372V706.877L291.388 707.36ZM302.462 706.394V691.889H302.943L302.462 706.394ZM303.424 706.394V691.889H303.906V706.394H303.424ZM310.165 705.91L304.387 706.394V691.889L310.165 691.405V705.91ZM310.165 691.405L251.906 695.273V735.404L310.165 732.503V732.986L250.944 736.37V693.823L310.165 689.954V691.405ZM310.165 689.471L248.536 693.339V655.626L310.165 651.275V689.471ZM310.165 649.341L304.387 649.824V626.133L310.165 625.649V649.341ZM310.165 624.682L251.906 629.034V628.066L310.165 623.715V624.682ZM303.906 625.649V649.341H303.424V625.649H303.906ZM302.943 625.649V649.341H302.462L302.943 625.649ZM301.98 626.133V649.824L291.388 650.791V627.099L301.98 626.133ZM290.906 626.616V650.307H290.425V626.616H290.906ZM289.943 626.616V650.307H289.462L289.943 626.616ZM288.98 627.099V650.791L278.388 651.758V628.066L288.98 627.099ZM278.388 627.583V651.275H277.906V627.583H278.388ZM277.425 627.583V651.275H276.943L277.425 627.583ZM276.462 628.066V651.758L265.869 652.725V628.55L276.462 628.066ZM265.388 628.55V652.241H264.906V628.55H265.388ZM264.425 628.55V652.241H263.943L264.425 628.55ZM263.943 629.034V652.725L253.351 653.692V630.001L263.943 629.034ZM252.388 629.517V653.208H251.906V629.517H252.388ZM251.906 627.583V613.078H252.388V627.583H251.906ZM252.869 627.583V613.078L263.462 612.111V626.616L252.869 627.583ZM264.425 626.616V612.111H264.906L264.425 626.616ZM264.906 626.616V612.111H265.388L264.906 626.616ZM265.869 626.616V612.111L276.462 611.144V625.649L265.869 626.616ZM276.943 626.133V611.628H277.425L276.943 626.133ZM277.906 625.649V611.144H278.388V625.649H277.906ZM278.869 625.649V611.144L289.462 610.177V624.682L278.869 625.649ZM289.462 625.166V610.661H289.943L289.462 625.166ZM290.425 625.166V610.661H290.906V625.166H290.425ZM291.388 624.682V610.177L301.98 609.21V623.715L291.388 624.682ZM302.462 624.199V609.694H302.943L302.462 624.199ZM303.424 624.199V609.694H303.906V624.199H303.424ZM310.165 623.715L304.387 624.199V609.694L310.165 609.21V623.715ZM310.165 608.243L251.906 612.594V653.208L310.165 648.857V649.824L250.944 654.176V612.111L310.165 607.276V608.243ZM310.165 606.792L248.536 612.111V573.431L310.165 567.629V606.792ZM310.165 566.179L304.387 566.662V542.971L310.165 542.487V566.179ZM310.165 542.003L251.906 547.322V546.355L310.165 541.037V542.003ZM303.906 542.971V566.662H303.424V542.971H303.906ZM302.943 542.971V566.662H302.462V542.971H302.943ZM301.98 543.454V567.146L291.388 568.113V544.421L301.98 543.454ZM290.906 544.421V568.113H290.425V544.421H290.906ZM289.943 544.421V568.113H289.462L289.943 544.421ZM288.98 544.421V568.113L278.388 569.079V545.388L288.98 544.421ZM278.388 545.388V569.079H277.906V545.388H278.388ZM277.425 545.388V569.079H276.943L277.425 545.388ZM276.462 545.388V569.079L265.869 570.046V546.355L276.462 545.388ZM265.388 546.839V570.53H264.906V546.839H265.388ZM264.425 546.839V570.53H263.943L264.425 546.839ZM263.943 546.839V570.53L253.351 571.497V547.806L263.943 546.839ZM252.388 547.806V571.497H251.906V547.806H252.388ZM251.906 545.871V531.85H252.388V545.871H251.906ZM252.869 545.871V531.85L263.462 530.883V544.904L252.869 545.871ZM264.425 544.904V530.883H264.906L264.425 544.904ZM264.906 544.421V529.916H265.388V544.421H264.906ZM265.869 544.421V529.916L276.462 528.949V543.454L265.869 544.421ZM276.943 543.454V528.949H277.425L276.943 543.454ZM277.906 543.454V528.949H278.388V543.454H277.906ZM278.869 543.454V528.949L289.462 527.982V542.487L278.869 543.454ZM289.462 542.487V527.982H289.943L289.462 542.487ZM290.425 542.487V527.982H290.906V542.487H290.425ZM291.388 542.003V527.499L301.98 526.531V541.037L291.388 542.003ZM302.462 541.037V526.531H302.943L302.462 541.037ZM303.424 541.037V526.531H303.906V541.037H303.424ZM310.165 540.553L304.387 541.037V526.531L310.165 526.048V540.553ZM310.165 525.565L251.906 531.367V571.497L310.165 566.179V566.662L250.944 571.981V529.916L310.165 524.114V525.565ZM310.165 524.114L250.462 529.916H249.499L310.165 524.114ZM310.165 523.147L248.055 529.432V491.236L310.165 484.467V523.147ZM310.165 483.017L304.387 483.5V459.809L310.165 459.325V483.017ZM310.165 458.842L251.906 465.611V464.16L310.165 457.874V458.842ZM303.906 460.292V483.983H303.424V460.292H303.906ZM302.943 460.292V483.983H302.462L302.943 460.292ZM301.98 460.292V483.983L291.388 484.951V461.259L301.98 460.292ZM290.906 461.742V485.434H290.425V461.742H290.906ZM289.943 461.742V485.434H289.462L289.943 461.742ZM288.98 461.742V485.434L278.388 486.401V462.71L288.98 461.742ZM278.388 463.193V486.884H277.906L278.388 463.193ZM277.425 463.193V486.884H276.943L277.425 463.193ZM276.462 463.193V486.884L265.869 487.852V464.16L276.462 463.193ZM265.388 464.643V488.335H264.906V464.643H265.388ZM264.425 464.643V488.335H263.943L264.425 464.643ZM263.943 464.643V488.335L253.351 489.302V465.611L263.943 464.643ZM252.388 466.094V489.785H251.906V466.094H252.388ZM251.906 463.677V449.655H252.388V463.677H251.906ZM252.869 463.677V449.655L263.462 448.204V462.226L252.869 463.677ZM264.425 462.71V448.688H264.906L264.425 462.71ZM264.906 462.226V448.204H265.388V462.226H264.906ZM265.869 462.226V448.204L276.462 446.754V461.259L265.869 462.226ZM276.943 461.259V446.754H277.425L276.943 461.259ZM277.906 461.259V446.754H278.388V461.259H277.906ZM278.869 460.776V446.271L289.462 444.82V459.325L278.869 460.776ZM289.943 459.809V445.303H290.425L289.943 459.809ZM290.425 459.809V445.303H290.906V459.809H290.425ZM291.388 459.809V445.303L301.98 443.853V458.358L291.388 459.809ZM302.462 458.358V443.853H302.943L302.462 458.358ZM303.424 458.358V443.853H303.906V458.358H303.424ZM310.165 457.391L304.387 457.874V443.37L310.165 442.886V457.391ZM310.165 442.402L251.906 449.655V489.785L310.165 483.5V483.983L250.944 490.269V448.204L310.165 440.952V442.402ZM310.165 440.952L250.462 448.204H249.499L310.165 440.952ZM310.165 439.985L248.536 447.238V418.711L310.165 410.975V439.985ZM321.239 966.516H310.165V410.975V410.008L321.239 408.558V966.516ZM399.72 327.329C399.238 327.329 399.238 327.329 398.757 327.329C398.757 327.329 398.757 327.329 398.275 327.329H397.794C395.387 326.846 393.461 323.461 393.461 319.11C393.461 314.275 396.349 309.923 399.72 309.44H400.201H400.683H401.164C403.572 309.923 405.498 313.308 405.498 317.176C405.498 322.011 403.09 326.362 399.72 327.329ZM400.201 327.329C403.572 326.362 406.46 322.011 406.46 317.176C406.46 313.792 405.016 310.891 403.09 309.923C405.497 310.891 406.942 313.792 406.942 317.659C406.942 322.494 404.535 326.362 400.683 327.329H400.201ZM401.646 327.813V344.736H400.683V327.813C401.164 327.813 401.646 327.813 401.646 327.813ZM381.905 329.263C381.905 332.648 379.979 335.549 377.572 336.033C379.979 335.065 381.424 332.164 381.905 329.263C381.424 327.329 380.942 325.396 379.498 324.428C380.942 324.912 381.905 326.846 381.905 329.263ZM378.535 336.033V347.637H377.572V336.033C378.053 336.516 378.535 336.033 378.535 336.033ZM376.127 318.627C375.646 318.627 375.164 318.627 375.164 318.627H374.683H374.202C370.831 317.66 368.424 313.308 368.424 307.99C368.424 301.704 371.794 295.902 376.127 295.419C376.609 295.419 376.609 295.419 377.09 295.419H377.572H378.053C381.424 296.385 383.831 300.254 383.831 305.572C384.313 312.341 380.942 317.66 376.127 318.627ZM376.609 319.11C381.424 317.659 384.794 312.341 384.794 306.056C384.794 301.704 382.868 297.836 380.461 296.385C383.831 297.353 386.238 301.704 386.238 306.539C386.238 312.824 382.868 318.143 378.535 319.11C377.572 319.11 377.09 319.11 376.609 319.11ZM378.535 319.11V323.461H377.572V319.594C378.053 319.594 378.535 319.11 378.535 319.11ZM376.609 336.033H376.127C376.127 336.033 376.127 336.033 375.646 336.033C374.202 335.549 372.757 333.132 372.757 330.714C372.757 327.33 374.683 324.428 377.09 323.945H377.572C377.572 323.945 377.572 323.945 378.053 323.945H378.535C380.461 324.428 381.424 326.846 381.424 329.263C380.942 332.648 379.016 335.065 376.609 336.033ZM346.276 966.516H321.721V408.558L346.276 411.942V966.516ZM411.757 966.516H346.757V788.589L411.757 786.171V966.516ZM411.757 785.204L346.757 787.621V643.055L411.757 638.22V785.204ZM411.757 637.737L346.757 642.571V497.522L411.757 490.753V637.737ZM411.757 490.753L346.757 497.522V411.942L335.683 410.492V354.406L411.757 343.769V490.753ZM485.904 966.516H411.757V886.256L485.904 887.706V966.516ZM485.904 887.222L411.757 885.772V804.544L485.904 807.445V887.222ZM485.904 806.961L411.757 804.06V722.833L485.904 727.184V806.961ZM485.904 726.701L411.757 722.349V641.121L485.904 646.923V726.701ZM485.904 646.44L411.757 640.638V559.409L485.904 566.662V646.44ZM485.904 566.179L411.757 558.926V477.698L485.904 486.401V566.179ZM485.904 485.917L411.757 477.214V395.503L485.904 405.657V485.917ZM501.793 966.516H486.867V887.706L501.793 888.19V966.516ZM501.793 887.706L486.867 887.222V807.445L501.793 807.929V887.706ZM501.793 807.445L486.867 806.961V727.184L501.793 728.151V807.445ZM501.793 727.667L486.867 726.701V646.923L501.793 647.89V727.667ZM501.793 647.406L486.867 646.44V566.662L501.793 568.113V647.406ZM501.793 567.629L486.867 566.179V486.401L501.793 488.335V567.629ZM501.793 487.852L486.867 485.917V406.14L501.793 408.074V487.852ZM507.089 966.516H502.274V888.19H507.089V966.516ZM507.089 887.706H502.274V807.929H507.089V887.706ZM507.089 807.929H502.274V728.634L507.089 729.118V807.929ZM507.089 728.151L502.274 727.667V647.89L507.089 648.374V728.151ZM507.089 647.89L502.274 647.406V568.113L507.089 568.596V647.89ZM507.089 568.113L502.274 567.629V488.335L507.089 488.818V568.113ZM507.089 488.335L502.274 487.852V408.074L507.089 408.558V488.335ZM507.089 408.074L412.238 395.02V343.769L507.089 358.273V408.074ZM993.862 210.323V239.816L924.048 225.311V194.851L993.862 210.323ZM922.603 876.102V855.795L985.677 857.729V878.036L924.048 876.102H922.603ZM923.566 876.102V906.562L849.419 907.529V877.553L923.566 876.102ZM924.048 876.102L994.343 878.036V907.529L924.529 906.079V876.102H924.048ZM922.122 854.828L880.233 855.795L923.566 854.828L987.121 856.762H985.677L922.122 854.828ZM923.566 823.884V854.344L850.382 856.279H849.419V826.302L923.566 823.884ZM922.603 823.401V803.094L985.677 805.995V825.818L924.048 823.401H922.603ZM924.048 854.344V823.884L993.862 826.785V856.279L924.048 854.344ZM922.122 802.61L857.123 804.544H856.16L924.048 802.127L989.529 805.028H985.677L922.122 802.61ZM923.566 771.666V802.127L849.9 804.544H849.419V774.567L923.566 771.666ZM922.603 771.182V750.876L985.677 754.26V774.084L924.048 770.699L922.603 771.182ZM924.048 802.127V771.666L994.343 775.534V805.028L924.048 802.127ZM922.122 750.876L857.123 753.776L853.752 753.293L924.048 750.392L990.491 754.26H986.158L922.122 750.876ZM923.566 719.448V749.909L849.9 753.293H849.419V723.316L923.566 719.448ZM922.603 718.965V698.657L985.677 703.492V723.316L924.048 718.965H922.603ZM924.048 749.425V718.965L994.343 723.799V753.293L924.048 749.425ZM922.122 698.174L856.641 701.559L852.789 701.075L923.566 697.207L990.491 702.042L985.195 702.526L922.122 698.174ZM981.825 653.208L927.418 647.89V665.779L972.677 669.647L924.048 665.779H922.603V645.956L985.677 651.275V670.615L982.306 670.131L981.825 653.208ZM981.343 653.692V671.098H980.862V653.692H981.343ZM980.38 653.692V671.098L972.195 670.131V652.725L980.38 653.692ZM971.232 652.725V670.131H970.751V652.725H971.232ZM970.27 652.725V670.131H969.307V652.725H970.27ZM969.307 652.241V669.647L957.27 668.681V651.275L969.307 652.241ZM956.788 651.275V668.681H956.307V651.275H956.788ZM955.825 651.275V668.681H954.862V651.275H955.825ZM954.381 651.275V668.681L942.344 667.714V650.307L954.381 651.275ZM941.862 649.824V667.23H941.381V649.824H941.862ZM940.418 649.824V667.23H939.455V649.824H940.418ZM939.455 649.824V667.23L927.418 666.263V648.857L939.455 649.824ZM923.566 666.746V697.207L849.9 701.075V671.098L923.566 666.746ZM924.048 697.207V666.746L994.343 672.549V702.042L924.048 697.207ZM922.122 646.44L856.641 650.307L852.308 649.824L923.566 644.989L990.973 651.275L985.195 651.758L922.122 646.44ZM923.566 614.529V644.989L849.9 649.824V619.847L923.566 614.529ZM922.603 614.045V594.221L985.677 600.507V619.847L924.048 613.562L922.603 614.045ZM924.048 644.989V614.529L994.343 621.297V650.791L924.048 644.989ZM922.122 593.738L856.641 598.573L851.826 598.089L923.566 592.771L991.454 599.54L985.677 600.024L922.122 593.738ZM923.566 562.311V592.771L849.9 598.573V568.596L923.566 562.311ZM898.048 563.278L882.159 564.728V547.322L898.048 545.871V563.278ZM898.529 563.278V545.871H899.492V563.278H898.529ZM899.974 563.278V545.871H900.455V563.278H899.974ZM900.937 563.278V545.871L917.789 544.421V561.827L900.937 563.278ZM981.825 550.223L927.418 544.421V562.311L924.529 561.827H923.085V542.487L986.158 549.74V568.596L982.788 568.113L981.825 550.223ZM981.343 550.706V568.113H980.38V550.706H981.343ZM980.38 550.706V567.629L972.195 566.662V549.256L980.38 550.706ZM971.232 549.256V567.146H970.751V549.74L971.232 549.256ZM970.27 549.256V566.662H969.307V549.256H970.27ZM969.307 549.74V566.662L957.27 565.211V547.806L969.307 549.74ZM956.788 547.806V565.211H956.307V547.806H956.788ZM955.825 547.806V565.211H954.862V547.806H955.825ZM954.381 547.806V565.211L942.344 563.761V546.355L954.381 547.806ZM941.862 545.871V563.278H941.381V545.871H941.862ZM940.418 545.871V563.278H939.455V546.355L940.418 545.871ZM939.455 546.355V563.761L927.418 562.311V544.904L939.455 546.355ZM924.048 592.288V561.827L994.343 569.563V599.056L924.048 592.288ZM922.122 542.003L856.641 547.322L851.345 546.839L923.085 540.553L990.973 548.773L984.714 549.256L922.122 542.003ZM923.566 509.609V540.069L849.419 546.355V516.378L923.566 509.609ZM861.937 514.927V497.522H862.419V514.927H861.937ZM879.27 496.071V513.477L862.9 514.927V497.522L879.27 496.071ZM879.752 513.477V495.587H880.715V513.477H879.752ZM881.196 512.993V495.104H881.678V512.51L881.196 512.993ZM882.159 512.993V495.587L898.048 494.137V511.543L882.159 512.993ZM898.529 511.543V493.654H899.492V511.543H898.529ZM899.974 511.543V493.654H900.455V511.059L899.974 511.543ZM900.937 511.543V494.137L917.789 492.686V510.093L900.937 511.543ZM981.825 498.972L927.418 491.72V509.609L924.529 509.126H923.085V489.785L986.158 498.005V516.862L982.788 516.378L981.825 498.972ZM981.343 499.456V516.862H980.38V499.939L981.343 499.456ZM980.38 499.456V516.378L972.195 515.411V498.489L980.38 499.456ZM971.232 498.005V515.411H970.751V498.005H971.232ZM970.27 498.005V515.411H969.307V498.005H970.27ZM969.307 498.005V514.927L957.27 513.477V496.555L969.307 498.005ZM956.788 496.071V513.477H956.307V496.071H956.788ZM955.825 496.071V513.477H954.862V496.555L955.825 496.071ZM954.381 496.071V512.993L942.344 511.543V494.621L954.381 496.071ZM941.862 494.137V511.543H941.381V494.137H941.862ZM940.418 494.137V511.543H939.455V494.137H940.418ZM939.455 494.137V511.059L927.418 509.609V492.686L939.455 494.137ZM924.048 540.069V509.609L994.343 518.795V548.289L924.048 540.069ZM922.122 489.302L856.641 495.587L851.345 495.104L923.566 488.335L991.936 497.522L985.195 498.005L922.122 489.302ZM923.566 457.391V487.852L849.419 495.104V465.127L923.566 457.391ZM861.937 463.193V445.787H862.419V463.193H861.937ZM862.9 463.193V445.787L879.27 444.337V461.742L862.9 463.193ZM879.752 461.259V443.853H880.715V461.259H879.752ZM881.196 461.259V443.853H881.678V461.259H881.196ZM882.159 461.259V443.853L898.048 442.402V459.809L882.159 461.259ZM898.529 459.325V441.436H899.492V459.325H898.529ZM899.974 459.325V441.919H900.455V459.325H899.974ZM900.937 459.325V441.919L917.789 439.985V457.391L900.937 459.325ZM981.825 447.721L927.418 439.985V457.391L924.529 456.908H923.085V437.568L986.158 446.754V465.127L982.788 464.643L981.825 447.721ZM981.343 448.204V465.127H980.38V448.688L981.343 448.204ZM980.38 448.204V464.643L972.195 463.677V447.238L980.38 448.204ZM971.714 446.271V463.193H971.232V446.271H971.714ZM970.27 446.271V463.193H969.307V446.271H970.27ZM969.307 446.754V463.193L957.27 461.742V444.82L969.307 446.754ZM956.788 444.337V461.259H956.307V444.337H956.788ZM955.825 444.337V461.259H954.862V444.337H955.825ZM954.381 444.337V461.259L941.862 459.325V442.402L954.381 444.337ZM941.862 442.402V459.809H941.381V442.402H941.862ZM940.418 441.919V458.842H939.455V441.919H940.418ZM939.455 442.402V459.325L927.418 457.391V440.469L939.455 442.402ZM924.048 487.852V457.391L994.343 467.061V497.038L924.048 487.852ZM922.122 437.568L856.641 444.337L851.345 443.37L923.566 435.634L992.417 445.787L985.677 446.271L922.122 437.568ZM923.566 405.173V435.634L849.419 443.37V413.392L923.566 405.173ZM861.937 411.458V394.053H862.419V410.975L861.937 411.458ZM879.27 392.602V409.525L862.9 411.458V394.536L879.27 392.602ZM879.752 409.525V392.118H880.715V409.525H879.752ZM881.196 409.041V391.635H881.678V408.558L881.196 409.041ZM898.048 390.184V407.107L882.159 409.041V392.118L898.048 390.184ZM898.529 407.107V389.701H899.492V407.107H898.529ZM899.974 407.107V389.701H900.455V407.107H899.974ZM900.937 407.107V390.184L918.27 388.251V405.657L900.937 407.107ZM981.825 395.987L927.418 387.284V404.689L924.529 404.206H923.085V385.349L986.158 395.503V413.876L982.788 413.392L981.825 395.987ZM981.343 396.953V413.876H980.38V397.437L981.343 396.953ZM980.38 396.953V413.392L972.195 411.942V395.503L980.38 396.953ZM971.232 395.02V411.942H970.751V395.02H971.232ZM970.27 395.02V411.942H969.307V395.503L970.27 395.02ZM969.307 395.02V411.458L957.27 409.525V393.086L969.307 395.02ZM956.788 392.602V409.525H956.307V392.602H956.788ZM955.825 392.602V409.525H954.862V393.086L955.825 392.602ZM954.381 392.602V409.041L942.344 407.107V390.668L954.381 392.602ZM941.862 390.184V407.107H941.381V390.184H941.862ZM940.418 390.184V407.107H939.455V390.668L940.418 390.184ZM939.455 390.184V406.623L927.418 404.689V388.251L939.455 390.184ZM924.048 435.15V404.689L993.862 415.81V445.787L924.048 435.15ZM922.122 385.349L856.641 393.086L850.863 392.118L923.566 383.416L992.417 394.536L985.195 395.503L922.122 385.349ZM923.566 352.471V382.932L849.419 391.635V361.658L923.566 352.471ZM861.937 359.724V342.802H862.419V359.724H861.937ZM879.27 340.867V357.79L862.9 359.724V342.802L879.27 340.867ZM879.752 357.307V339.901H880.715V357.307H879.752ZM881.196 357.307V339.901H881.678V356.823L881.196 357.307ZM898.048 338.45V355.372L882.159 357.307V340.384L898.048 338.45ZM898.529 355.372V337.966H899.492V355.372H898.529ZM899.974 354.889V337.483H900.455V354.406L899.974 354.889ZM917.789 336.033V352.955L900.937 354.889V337.966L917.789 336.033ZM981.825 344.736L940.899 337.483L927.418 335.066V352.471L924.529 351.988H923.085V333.615L986.158 344.736V362.625L982.788 362.142L981.825 344.736ZM971.714 343.769L980.862 345.219H980.38L971.714 343.769ZM980.38 345.703V361.658L972.195 360.208V343.769L980.38 345.703ZM980.862 345.703L981.343 345.219V361.658H980.862V345.703ZM971.232 343.285V360.208H970.751V343.285H971.232ZM957.27 340.867L969.788 343.285H969.307L957.27 340.867ZM969.307 343.769V359.724L957.27 357.79V341.351L969.307 343.769ZM969.788 343.769L970.751 343.285V360.208H969.788V343.769ZM956.788 340.867V357.79H956.307V340.867H956.788ZM942.344 338.45L955.344 340.384H954.862L942.344 338.45ZM954.381 340.867V357.307L942.344 355.372V338.934L954.381 340.867ZM954.862 340.867L955.825 340.384V357.307H954.862V340.867ZM941.862 338.45V355.372H941.381V338.45H941.862ZM927.418 336.033L939.937 337.966H939.455L927.418 336.033ZM939.455 338.45V354.889L927.418 352.955V336.516L939.455 338.45ZM939.937 338.45L940.899 337.966V354.889H939.937V338.45ZM924.048 382.932V352.471L994.343 364.559V394.536L924.048 382.932ZM922.122 333.132L856.641 341.351L850.863 340.384L923.566 331.198L992.417 343.285L985.195 344.252L922.122 333.132ZM923.566 300.253V330.714L849.419 339.901V309.923L923.566 300.253ZM861.937 307.99V291.067H862.419V307.506L861.937 307.99ZM879.27 289.133V305.572L862.9 307.506V291.067L879.27 289.133ZM879.752 305.572V288.65H880.715V305.572H879.752ZM881.196 305.089V288.166H881.678V305.089H881.196ZM898.048 286.232V302.671L882.159 304.605V288.166L898.048 286.232ZM898.529 303.154V286.232H899.492V303.154H898.529ZM899.974 302.671V285.748H900.455V302.671H899.974ZM900.937 302.671V285.748L917.789 283.331V300.253L900.937 302.671ZM981.825 293.484L970.751 291.551L940.899 285.748L927.418 283.331V300.253L924.529 299.77H923.085V281.397L986.158 293.001V310.891L982.788 310.407L981.825 293.484ZM971.714 292.034L980.38 293.484H979.899L971.714 292.034ZM980.38 294.452V310.407L971.714 308.957V293.001L980.38 294.452ZM980.862 294.452H981.343V310.891H980.862V294.452ZM971.232 292.034V308.473H970.751V292.034H971.232ZM957.27 289.617L969.788 292.034H969.307L957.27 289.617ZM969.307 292.034V307.99L957.27 305.572V290.1L969.307 292.034ZM969.788 292.034H970.751V308.473H969.788V292.034ZM956.788 289.133V305.572H956.307V289.133H956.788ZM942.344 286.716L955.344 289.133H954.862L942.344 286.716ZM954.381 289.617V305.572L941.862 303.154V287.199L954.381 289.617ZM954.862 289.133H955.825V305.572H954.862V289.133ZM941.862 286.232V303.154H941.381V286.232H941.862ZM927.418 283.814L939.937 286.232H939.455L927.418 283.814ZM939.455 286.716V302.671L927.418 300.253V284.298L939.455 286.716ZM939.937 286.716L940.899 286.232V302.671H939.937V286.716ZM924.048 330.714V300.253L994.343 313.308V343.285L924.048 330.714ZM922.122 280.914L856.641 289.617L850.863 288.65L923.566 278.496L992.899 291.551L985.677 292.517L922.122 280.914ZM923.566 248.036V278.496L849.419 288.166V258.189L923.566 248.036ZM861.937 256.255V239.333H862.419V256.255H861.937ZM879.27 237.398V253.838L862.9 256.255V239.816L879.27 237.398ZM879.752 253.838V236.915H880.715V253.838H879.752ZM881.196 253.354V236.432H881.678V252.871L881.196 253.354ZM898.048 234.498V250.937L882.159 253.354V236.915L898.048 234.498ZM898.529 250.937V234.014H899.492V250.937H898.529ZM899.974 250.937V234.014H900.455L899.974 250.937ZM900.937 250.453V234.014L917.789 231.597V248.036L900.937 250.453ZM981.825 242.233L970.751 239.816L956.307 236.915L927.418 231.113V248.036L924.529 247.552H923.085V229.179L986.158 241.75V259.639L982.788 259.156L981.825 242.233ZM981.343 242.717V258.672H980.862V242.717H981.343ZM980.38 242.717V258.189L972.195 256.738V241.267L980.38 242.717ZM971.232 240.783V257.222H970.751V240.783H971.232ZM970.27 240.3V256.255H969.307V240.3H970.27ZM969.307 240.783V256.255L957.27 253.838V237.882L969.307 240.783ZM956.788 237.398V253.838H956.307V237.398H956.788ZM955.825 237.398V253.838H954.862V237.882L955.825 237.398ZM942.344 234.981L955.344 237.398H954.862L942.344 234.981ZM954.381 237.882V253.838L941.862 251.42V235.465L954.381 237.882ZM941.862 234.498V250.937H941.381V234.498H941.862ZM927.418 231.597L939.937 234.014H939.455L927.418 231.597ZM939.455 234.498V250.453L927.418 248.036V232.08L939.455 234.498ZM939.937 234.498L940.899 234.014V250.453H939.937V234.498ZM924.048 278.013V247.552L994.343 261.573V291.551L924.048 278.013ZM922.122 228.695L853.752 238.849L848.456 237.882V237.398L923.566 226.278L992.899 240.3L985.195 241.267L922.122 228.695ZM781.531 871.751V870.784L828.715 872.234V853.378L781.531 851.927V850.96L831.604 852.411V873.685L783.938 872.234L781.531 871.751ZM783.457 872.234V904.145H781.049V872.718L783.457 872.234ZM781.531 870.3V851.927L794.049 852.411V870.784L781.531 870.3ZM794.049 870.784V852.411H795.012V870.784H794.049ZM795.494 870.784V852.411H795.975V870.784H795.494ZM796.456 870.784V852.411L809.938 852.894V871.267L796.456 870.784ZM810.419 871.267V852.894H811.382V871.267H810.419ZM811.864 871.267V852.894H812.827V871.267H811.864ZM812.827 871.267V852.894L826.789 853.378V871.751L812.827 871.267ZM827.271 871.751V853.378H828.234V871.751H827.271ZM828.234 818.566C828.715 818.566 828.715 818.566 828.234 818.566C828.715 818.082 828.715 818.082 828.234 818.566L828.715 799.709L781.531 797.775V796.325L831.604 798.742V819.533L783.938 817.599H781.531V816.631L828.234 818.566ZM781.531 816.148V797.775L793.568 798.259V816.631L781.531 816.148ZM794.049 816.631V798.259H795.012V816.631H794.049ZM795.494 816.631V798.259H795.975V816.631H795.494ZM796.456 816.631V798.259L809.938 798.742V817.115L796.456 816.631ZM810.419 817.115V798.742H811.382V817.115H810.419ZM811.864 817.115V798.742H812.827V817.115H811.864ZM812.827 817.115V798.742L826.789 799.226V817.599L812.827 817.115ZM827.271 818.082V799.709H828.234V818.082H827.271ZM828.234 764.414L828.715 745.557L781.531 742.656V741.206L831.604 744.106V764.897L783.938 762.479H781.531V761.513L828.234 764.414ZM781.531 761.513V743.14L793.568 743.623V761.996L781.531 761.513ZM794.049 762.479V744.106H795.012V762.479H794.049ZM795.494 762.479V744.106H796.456V762.479H795.494ZM796.456 762.479V744.106L809.938 745.073V763.446L796.456 762.479ZM810.419 762.963V744.59H811.382V762.963H810.419ZM811.864 763.446V745.073H812.345V763.446H811.864ZM812.827 763.446V745.073L826.789 746.041V764.414L812.827 763.446ZM827.271 763.93V745.557H828.234V763.93H827.271ZM828.234 710.745L828.715 691.889L781.531 688.504V687.054L831.604 690.921V711.229L783.938 707.844H781.531V707.36L828.234 710.745ZM781.531 707.36V688.988L794.049 689.954V708.328L781.531 707.36ZM794.049 707.844V689.471H794.531V707.844H794.049ZM795.494 708.328V689.954H796.456V708.328H795.494ZM796.456 708.328V689.954L809.938 690.921V709.294L796.456 708.328ZM810.419 709.294V690.921H811.382V709.294H810.419ZM811.864 709.294V690.921H812.827V709.294H811.864ZM812.827 709.294V690.921L826.789 691.889V709.778L812.827 709.294ZM827.271 710.262V692.372H828.234V710.262H827.271ZM828.234 476.731L781.049 470.446V469.478L831.123 476.248V496.071L828.234 495.587V476.731C828.715 476.731 828.715 476.731 828.234 476.731ZM828.234 477.214V495.104H827.271V477.214H828.234ZM826.789 477.214V494.621L812.827 492.686V474.797L826.789 477.214ZM812.345 475.281V493.17H811.382V475.281H812.345ZM811.382 475.281V493.17H810.419V475.281H811.382ZM809.938 475.281V493.17L796.456 491.236V473.347L809.938 475.281ZM795.975 472.863V491.236H795.494V472.863H795.975ZM795.012 472.863V490.753H794.049V472.863H795.012ZM793.568 472.863V490.753L783.938 489.302L781.531 489.785V471.413L793.568 472.863ZM783.457 489.785V521.696H781.049V490.269L783.457 489.785ZM783.938 522.18L846.048 529.432L832.086 530.883V529.432L781.531 523.63V522.18H783.938ZM831.604 529.916V549.74L828.715 549.256V530.883L781.531 525.081V524.114L831.604 529.916ZM828.234 530.883V548.773H827.271V530.883H828.234ZM826.789 531.367V549.256L812.827 547.806V529.916L826.789 531.367ZM812.345 528.949V547.322H811.382V528.949H812.345ZM811.382 528.949V547.322H810.419V529.432L811.382 528.949ZM809.938 528.949V546.839L796.456 545.388V527.499L809.938 528.949ZM795.975 527.015V545.388H795.494V527.015H795.975ZM795.012 527.015V545.388H794.049V527.015H795.012ZM793.568 527.015V544.904L783.938 543.938L781.531 544.421V525.565L793.568 527.015ZM783.457 544.421V576.332H781.049V544.904L783.457 544.421ZM783.938 576.816L846.048 583.101L832.086 584.068V583.101L781.531 577.782V576.816H783.938ZM831.604 583.584V603.408L828.715 602.924V584.552L781.531 579.716V578.75L831.604 583.584ZM828.234 584.552V602.924H827.752V584.552H828.234ZM826.789 584.552V602.924L812.827 601.474V583.101L826.789 584.552ZM812.345 583.101V601.474H811.382V583.101H812.345ZM811.382 583.101V601.474H810.419V583.101H811.382ZM809.938 582.617V600.991L796.456 599.54V581.167L809.938 582.617ZM795.975 581.167V599.54H795.012V581.167H795.975ZM795.012 581.167V599.54H794.049V580.684L795.012 581.167ZM793.568 581.167V600.024L783.457 599.056L781.049 599.54V580.2L793.568 581.167ZM783.457 599.056V630.968H781.049V599.54L783.457 599.056ZM783.938 631.451L845.567 636.769L832.086 637.737V636.769L781.531 632.418V631.934L783.938 631.451ZM831.604 637.253V657.56L828.715 657.076V638.22L781.531 633.869V632.418L831.604 637.253ZM828.234 638.704V657.076H827.271V638.22L828.234 638.704ZM826.789 638.22V656.593L812.827 655.626V637.253L826.789 638.22ZM812.345 637.253V655.626H811.382V637.253H812.345ZM811.382 636.769V655.143H810.419V636.769H811.382ZM809.938 636.769V655.143L796.456 654.176V635.802L809.938 636.769ZM795.975 635.802V654.176H795.012V635.802H795.975ZM795.012 635.319V653.692H794.049V635.319H795.012ZM793.568 635.319V653.692L781.049 652.725V634.352L793.568 635.319ZM822.938 656.593L783.938 653.208H781.531V652.725L822.938 656.593ZM783.457 653.692V685.603H781.049V654.176L783.457 653.692ZM783.938 686.086L845.086 690.438L832.567 690.921V690.438L782.012 686.57V686.086H783.938ZM783.457 708.328V740.239H781.049V708.811L783.457 708.328ZM783.938 740.722L844.604 744.106L832.567 744.59V744.106L782.012 741.206L783.938 740.722ZM783.457 762.963V794.874H781.049V763.446L783.457 762.963ZM783.938 795.357L843.16 797.775L832.086 798.259V797.775L781.531 795.357H783.938ZM831.604 851.444L782.975 849.993H783.457L839.789 851.927L831.604 851.444C832.086 851.444 832.086 851.444 831.604 851.444ZM783.457 817.599V849.509H781.049V818.082L783.457 817.599ZM783.938 872.234L847.974 873.685V904.629L783.938 903.661V872.234ZM846.048 873.201L832.086 872.718V851.927L846.048 851.444V873.201ZM783.938 849.509V817.599L847.974 820.016V850.96L783.938 849.509ZM846.048 819.533L831.604 819.049V798.742L846.048 798.259V819.533ZM783.938 794.874V762.963L847.974 766.347V797.292L783.938 794.874ZM846.048 765.864L832.086 764.897V745.073L846.048 744.106V765.864ZM783.938 740.239V708.328L847.974 712.679V743.623L783.938 740.239ZM846.048 712.195L832.086 711.229V691.889L846.048 690.921V712.195ZM783.938 685.603V653.692L847.974 659.01V689.954L783.938 685.603ZM846.048 658.527L832.086 657.56V638.22L846.048 637.253V658.527ZM783.938 630.968V599.056L847.974 605.342V636.286L783.938 630.968ZM846.048 604.859L832.086 603.408V584.552L846.048 583.584V604.859ZM783.938 576.332V544.421L847.974 551.674V582.617L783.938 576.332ZM846.048 551.19L832.086 549.74V531.367L846.048 529.916V551.19ZM783.938 521.696V489.785L847.974 498.005V528.949L783.938 521.696ZM832.086 495.587V477.698L846.048 476.248V497.522L832.086 495.587ZM832.086 477.214V475.764L781.531 468.995V468.028H783.938L846.53 476.248L832.086 477.214ZM828.234 423.063L781.049 415.81V414.843L831.123 422.096V441.436L828.234 440.952V423.063C828.715 423.063 828.715 423.063 828.234 423.063ZM828.234 423.546V440.952H827.271V423.546H828.234ZM826.789 423.546V440.952L812.827 439.018V421.612L826.789 423.546ZM812.345 421.129V439.018H811.382V421.129H812.345ZM811.382 421.129V439.018H810.419V421.612L811.382 421.129ZM809.938 421.129V438.534L796.456 436.601V419.194L809.938 421.129ZM795.975 418.711V436.601H795.012V418.711H795.975ZM795.012 418.711V436.601H794.049V419.194L795.012 418.711ZM793.568 418.711V436.117L783.938 434.667L781.531 435.15V416.777L793.568 418.711ZM783.457 435.634V467.544H781.049V436.117L783.457 435.634ZM783.938 467.061V435.15L847.974 444.337V475.281L783.938 467.061ZM832.086 441.919V424.513L846.048 423.063V444.337L832.086 441.919ZM832.086 424.029V422.096L781.531 414.843V413.392H783.938L846.53 422.579L832.086 424.029ZM828.715 369.394L781.531 361.658V360.691L831.604 368.911V387.767L828.715 387.284V369.394ZM828.234 369.878V387.284H827.271V369.878H828.234ZM826.789 369.878V386.8L812.827 384.383V367.46L826.789 369.878ZM812.345 366.977V384.383H811.382V366.977H812.345ZM811.382 366.977V384.383H810.419V366.977H811.382ZM809.938 366.977V384.383L796.456 382.448V365.042L809.938 366.977ZM795.975 364.559V382.448H795.494V364.559H795.975ZM795.012 364.559V381.965H794.049V364.559H795.012ZM793.568 364.559V381.965L783.938 380.514L781.531 380.998V362.625L793.568 364.559ZM783.457 380.998V412.909H781.049V381.482L783.457 380.998ZM783.938 412.426V380.514L847.974 390.668V421.612L783.938 412.426ZM846.048 390.184L832.086 387.767V370.845L846.048 369.394V390.184ZM832.086 370.361V368.427L781.531 360.208V358.757L783.938 358.273L847.011 368.427L832.086 370.361ZM828.234 315.726L781.049 307.506V306.539L831.123 315.726V334.582L828.234 334.098V315.726C828.715 315.726 828.715 315.726 828.234 315.726ZM828.234 316.209V333.615H827.271V316.693L828.234 316.209ZM826.789 316.209V333.132L812.827 330.714V313.792L826.789 316.209ZM812.345 313.308V330.714H811.864V313.308H812.345ZM811.382 313.308V330.714H810.419V313.792L811.382 313.308ZM809.938 313.308V330.23L796.456 327.813V310.891L809.938 313.308ZM795.975 310.407V327.813H795.012V310.407H795.975ZM795.012 310.407V327.813H794.049V310.407H795.012ZM793.568 310.407V327.329L783.938 325.879L781.531 326.363V308.473L793.568 310.407ZM783.457 326.363V357.79L781.049 358.273V326.846L783.457 326.363ZM783.938 357.79V325.879L847.974 337V367.944L783.938 357.79ZM846.048 336.516L832.086 334.098V317.176L846.048 315.242V336.516ZM832.086 316.693V314.758L781.531 305.572V304.122L783.938 303.638L847.011 314.758L832.086 316.693ZM828.234 262.057L781.049 252.871V251.903L831.123 261.573V280.43L828.234 279.947V262.057C828.715 262.057 828.715 262.057 828.234 262.057ZM828.234 262.541V279.463H827.271V262.541H828.234ZM826.789 262.541V278.979L812.827 276.562V259.639L826.789 262.541ZM812.345 259.156V276.562H811.382V259.156H812.345ZM811.382 259.156V276.078H810.419V259.156H811.382ZM809.938 259.156V276.078L796.456 273.661V256.738L809.938 259.156ZM795.975 256.255V273.661H795.494V256.255H795.975ZM795.012 255.772V273.177H794.049V256.255L795.012 255.772ZM793.568 256.255V273.177L783.938 271.243L781.531 271.727V253.838L793.568 256.255ZM783.457 271.727V303.638L781.049 304.122V272.694L783.457 271.727ZM783.938 303.154V271.243L847.974 283.331V314.275L783.938 303.154ZM846.048 282.848L832.086 280.43V263.991L846.048 262.057V282.848ZM832.086 263.508V261.09L781.531 251.42V249.486L783.938 249.003L847.011 261.09L832.086 263.508ZM831.604 207.422L781.049 196.785V193.883L846.53 207.422L831.604 209.355V207.422C832.086 207.422 832.086 207.422 831.604 207.422ZM831.604 207.905V226.278L828.715 225.795V208.872L781.531 199.202V198.235L831.604 207.905ZM828.234 208.872V225.795H827.271V209.355L828.234 208.872ZM826.789 208.872V225.311L812.827 222.41V205.971L826.789 208.872ZM812.345 205.488V222.41H811.382V205.488H812.345ZM811.382 205.004V221.927H810.419V205.488L811.382 205.004ZM809.938 205.488V221.927L796.456 219.025V202.587L809.938 205.488ZM795.975 202.103V219.025H795.012V202.103H795.975ZM795.012 201.62V218.542H794.049V202.103L795.012 201.62ZM793.568 202.103V218.542L783.938 216.608L781.531 217.092V199.686L793.568 202.103ZM783.457 217.092V249.003L781.049 249.486V217.575L783.457 217.092ZM783.938 248.519V216.608L847.974 229.663V261.09L783.938 248.519ZM832.086 226.278V210.323L847.974 207.905V206.938L923.085 195.334V225.795L848.456 236.915V229.663L832.086 226.278ZM916.826 161.005L945.714 167.291V179.862L916.826 173.577V161.005ZM887.456 165.357L916.344 160.522V173.093L914.9 172.61V169.225L897.567 165.357L887.937 166.807H887.456V165.357ZM914.9 169.708V173.093L897.567 169.225V165.84L914.9 169.708ZM897.085 165.84V169.225L888.9 167.291L897.085 165.84ZM880.233 66.723H883.604V165.84L880.233 164.873V66.723ZM845.567 158.105L986.64 189.048V208.389L924.048 194.851L848.937 206.455V175.994L846.048 175.51V158.105H845.567ZM845.086 158.105V175.027L800.308 165.357L845.086 158.105ZM847.974 175.994V207.422L687.643 174.06V141.665L847.974 175.994ZM748.79 870.784L687.643 869.333H686.68V847.576L745.42 849.026H748.79V870.784ZM755.049 871.751V903.661L687.643 902.211V869.816L755.049 871.751ZM597.607 190.016H598.088H598.57H597.607ZM597.607 190.499V888.19H596.644V190.016L597.607 190.499ZM595.681 145.533L611.088 142.633V154.72L598.088 157.138V161.489L596.162 161.973V145.533H595.681ZM680.421 179.862L662.606 182.763L610.607 191.466V209.355L606.273 209.839V190.499L686.198 177.445V196.785L680.421 197.752V179.862C680.421 180.346 680.421 180.346 680.421 179.862ZM679.939 180.829V198.235L664.05 200.652V183.73L679.939 180.829ZM663.569 183.73V201.136H663.087V183.247L663.569 183.73ZM662.606 183.247V201.136H661.643V183.73L662.606 183.247ZM661.161 184.214V201.62L645.273 204.037V186.631L661.161 184.214ZM644.31 186.631V204.037H643.828V186.148L644.31 186.631ZM643.347 186.631V204.52H642.384V186.631H643.347ZM641.902 187.115V204.52L626.495 206.938V189.532L641.902 187.115ZM626.014 190.016V207.422H625.532V189.532L626.014 190.016ZM624.569 189.532V207.422H623.606V189.532H624.569ZM623.125 190.499V207.905L612.051 209.839V192.433L623.125 190.499ZM611.57 192.433V209.839H611.088V192.433H611.57ZM687.161 197.752V230.146L598.088 243.684V211.773L687.161 197.752ZM741.568 190.016L690.05 179.378V197.268L687.643 196.785H686.68V177.445L748.79 190.016V208.872L742.05 207.422L741.568 190.016C742.05 190.499 741.568 190.499 741.568 190.016ZM725.679 187.598L740.605 190.499H740.124L725.679 187.598ZM740.124 190.982V207.905L725.679 205.004V188.082L740.124 190.982ZM740.605 190.982L741.568 190.499V207.905H740.605V190.982ZM725.198 187.115V204.52H724.235V187.115H725.198ZM708.828 184.214L723.272 187.115H722.791L708.828 184.214ZM722.791 187.598V204.52L708.828 201.62V184.697L722.791 187.598ZM723.272 187.598H724.235V205.004H723.272V187.598ZM708.346 183.73V201.136H707.383V183.73H708.346ZM690.532 180.345L706.42 183.247H705.939L690.532 180.345ZM705.457 183.73V200.652L690.05 197.752V180.829L705.457 183.73ZM705.939 183.73H706.902V201.136H705.939V183.73ZM680.421 235.948C679.939 235.465 680.421 235.465 680.421 235.948L610.607 246.585V264.958L606.273 265.441V246.102L686.198 234.014V253.838L680.421 254.804V235.948ZM679.939 236.915V254.804L664.05 257.222V239.333L679.939 236.915ZM663.569 239.333V257.222H663.087V238.849L663.569 239.333ZM662.606 238.849V257.222H661.643V238.849H662.606ZM661.161 239.816V257.706L645.273 260.123V242.717L661.161 239.816ZM644.31 242.233V260.123H643.828V241.75L644.31 242.233ZM643.347 241.75V260.123H642.384V241.75H643.347ZM641.902 242.717V260.607L626.495 263.024V245.618L641.902 242.717ZM626.014 244.651V262.541H625.532V244.651H626.014ZM624.569 262.541H623.606V244.651H624.569V262.541ZM623.125 245.618V263.024L612.051 264.474V247.068L623.125 245.618ZM611.57 247.068V264.474H611.088V246.585L611.57 247.068ZM687.161 253.838V286.232L598.088 298.803V266.892L687.161 253.838ZM680.421 291.551L611.088 301.221V319.594L606.755 320.077V300.253L686.68 289.133V309.44L680.902 310.407L680.421 291.551ZM679.939 292.517V310.407L664.05 312.341V294.452L679.939 292.517ZM663.569 294.452V312.341H663.087V293.968L663.569 294.452ZM662.606 294.452V312.824H661.643V294.452H662.606ZM661.161 294.935V312.824L645.273 315.242V297.353L661.161 294.935ZM644.31 297.353V315.242H643.828V296.869L644.31 297.353ZM643.347 296.869V315.242H642.384V296.869H643.347ZM641.902 297.836V315.726L626.495 317.659V299.77L641.902 297.836ZM626.014 299.77V317.659H625.532V299.77H626.014ZM624.569 299.77V318.143H623.606V299.77H624.569ZM623.606 300.253V318.143L612.532 319.594V301.704L623.606 300.253ZM611.57 302.188V320.077H610.607V302.188H611.57ZM687.161 309.923V342.318L598.088 353.922V322.011L687.161 309.923ZM680.421 347.153L611.088 356.339V374.713L606.755 375.196V355.372L686.68 345.219V365.526L680.902 366.493L680.421 347.153ZM679.939 348.12V366.493L664.05 368.427V350.538L679.939 348.12ZM663.569 350.054V368.427H663.087V350.054H663.569ZM662.606 350.054V368.427H661.643V350.054H662.606ZM644.791 352.471L660.68 350.538V368.911L644.791 370.845V352.471ZM644.31 352.471V370.361H643.828V351.988L644.31 352.471ZM643.347 352.471V370.845H642.384V352.471H643.347ZM641.902 352.955V370.845L626.495 372.779V354.889L641.902 352.955ZM626.014 354.889V372.779H625.051V354.406L626.014 354.889ZM624.569 354.889V373.262H623.606V354.889H624.569ZM623.125 355.372V373.262L612.051 374.713V356.823L623.125 355.372ZM611.57 356.823V374.713H610.607V356.339L611.57 356.823ZM687.161 366.009V398.404L598.088 409.041V377.13L687.161 366.009ZM680.421 402.755C679.939 402.755 679.939 402.755 680.421 402.755L610.607 410.975V429.832L606.273 430.315V410.008L686.198 400.338V420.645L680.421 421.129V402.755ZM679.939 403.723V422.096L664.532 424.029V405.657L679.939 403.723ZM663.569 405.657V424.029H663.087V405.173L663.569 405.657ZM662.606 405.173V424.029H661.643V405.173H662.606ZM661.161 406.14V424.513L645.273 426.447V408.074L661.161 406.14ZM644.31 408.074V426.447H643.828V407.591L644.31 408.074ZM643.347 407.591V426.447H642.384V407.591H643.347ZM641.902 408.074V426.447L626.495 428.381V410.008L641.902 408.074ZM626.014 410.008V428.381H625.051V410.008H626.014ZM624.569 410.008V428.865H623.606V410.008H624.569ZM623.125 410.492V428.865L612.051 430.315V411.942L623.125 410.492ZM611.57 411.942V430.315H610.607V411.942H611.57ZM687.161 421.612V454.007L598.088 463.677V431.766L687.161 421.612ZM680.421 458.358L663.087 460.292L611.088 465.611V484.467L606.755 484.951V464.643L686.68 455.941V476.731L680.902 477.214L680.421 458.358C680.421 458.842 680.421 458.842 680.421 458.358ZM679.939 459.325V478.182L664.05 479.632V460.776L679.939 459.325ZM663.569 461.259V480.116H663.087V461.259H663.569ZM662.606 460.776V479.632H661.643V460.776H662.606ZM661.161 461.259V480.116L645.273 481.566V463.193L661.161 461.259ZM644.791 463.193V482.049H644.31V463.193H644.791ZM643.347 462.71V481.566H642.384V462.71H643.347ZM641.902 463.677V482.049L626.495 483.5V465.127L641.902 463.677ZM626.014 465.127V483.5H625.532V464.643L626.014 465.127ZM625.051 465.127V483.983H624.088V465.127H625.051ZM623.125 465.611V483.983L612.051 484.951V466.578L623.125 465.611ZM611.57 466.578V484.951H610.607V466.094L611.57 466.578ZM687.161 477.698V510.093L598.088 518.795V486.884L687.161 477.698ZM680.421 514.444C679.939 514.444 679.939 514.444 680.421 514.444L611.088 521.213V540.069L606.755 540.553V520.246L686.68 512.51V533.301L680.902 533.784L680.421 514.444ZM679.939 514.927V533.784L664.05 535.234V516.378L679.939 514.927ZM663.569 516.378V535.234H663.087V516.378H663.569ZM662.606 516.378V535.234H661.643V516.378H662.606ZM661.161 516.862V535.718L644.791 537.169V518.312L661.161 516.862ZM644.31 518.312V537.169H643.828V518.312H644.31ZM643.347 518.312V537.169H642.384V518.312H643.347ZM641.902 518.312V537.169L626.014 538.619V519.763L641.902 518.312ZM626.014 520.246V539.103H625.051V520.246H626.014ZM624.569 520.246V539.103H623.606V520.729L624.569 520.246ZM623.125 520.246V538.619L612.051 539.586V521.213L623.125 520.246ZM611.57 521.213V539.586H611.088V521.213H611.57ZM687.161 533.784V566.179L598.088 573.431V541.52L687.161 533.784ZM687.161 589.87V622.265L598.088 628.55V596.639L687.161 589.87ZM606.273 595.672V574.881L686.198 568.113V589.386L606.273 595.672ZM687.161 645.956V678.351L598.088 683.669V651.758L687.161 645.956ZM606.273 650.791V630.001L686.198 624.199V645.472L606.273 650.791ZM687.161 702.042V734.437L598.088 738.788V706.877L687.161 702.042ZM606.273 705.91V685.12L686.198 680.284V702.042L606.273 705.91ZM687.161 757.644V790.039L598.088 793.424V761.513L687.161 757.644ZM606.273 761.029V739.755L686.198 735.887V757.644L606.273 761.029ZM687.161 813.731V846.125L598.088 848.543V816.631L687.161 813.731ZM606.273 816.148V794.391L686.198 791.49V813.247L606.273 816.148ZM606.273 849.026L687.643 847.092L739.642 848.543L686.68 847.092L606.273 849.026ZM686.198 847.576V869.333L606.273 871.267V849.509L686.198 847.576ZM605.792 816.148L598.088 816.631V794.391L605.792 794.874V816.148ZM605.792 761.029L598.088 761.513V739.271L605.792 739.755V761.029ZM605.792 705.91L598.088 706.394V684.153L605.792 684.636V705.91ZM605.792 650.791L598.088 651.275V629.034L605.792 629.517V650.791ZM605.792 595.672L598.088 596.156V573.914L605.792 574.881V595.672ZM605.792 540.553L598.088 541.037V518.795L605.792 519.763V540.553ZM605.792 485.917L598.088 486.884V464.643L605.792 465.611V485.917ZM605.792 430.798L598.088 431.766V409.525L605.792 410.492V430.798ZM605.792 375.679L598.088 376.647V354.406L605.792 355.372V375.679ZM605.792 320.561L598.088 321.527V299.286L605.792 300.737V320.561ZM605.792 265.441L598.088 266.409V244.167L605.792 245.618V265.441ZM605.792 210.323L598.088 211.773V190.499L599.533 190.016L605.792 190.982V210.323ZM598.088 849.026L605.792 849.509V871.267H598.088V849.026ZM598.088 871.751L687.161 869.816V902.211L598.088 903.661V871.751ZM687.643 846.125V813.731L755.049 816.631V848.543L687.643 846.125ZM748.79 815.664L687.643 813.247H686.68V791.49L745.42 794.391H748.79V815.664ZM745.42 793.907L686.68 791.006L606.273 793.907H603.384L687.643 791.006L749.753 793.907H745.42ZM687.643 790.039V757.644L755.049 761.513V793.424L687.643 790.039ZM748.79 760.546L687.643 757.161H686.68V735.404L745.42 739.271H748.79V760.546ZM745.42 738.788L686.68 734.92L606.273 738.788L601.94 738.305L687.643 734.437L751.198 738.305L745.42 738.788ZM687.643 734.437V702.042L755.049 706.877V738.788L687.643 734.437ZM748.79 705.427L687.643 701.075H686.68V679.801L745.42 684.153H748.309V705.427H748.79ZM745.42 684.153L686.198 679.801L605.792 684.636L600.977 684.153L687.161 678.834L751.679 683.669L745.42 684.153ZM687.643 678.351V645.956L755.049 651.758V683.669L687.643 678.351ZM705.457 646.44L690.532 644.989V626.133L705.457 627.583V646.44ZM705.939 646.44V627.583H706.902V646.44H705.939ZM707.383 646.44V627.583H708.346V646.44H707.383ZM708.346 646.923V628.066L722.309 629.517V648.374L708.346 646.923ZM723.272 647.89V629.034H724.235V647.89H723.272ZM724.235 647.89V629.034H725.198V647.89H724.235ZM725.679 648.374V629.517L740.124 630.968V649.341L725.679 648.374ZM740.605 649.824V631.451H741.568V649.824H740.605ZM748.79 650.307L742.05 649.824V630.968L690.532 626.133V645.472L701.124 646.44L688.124 645.472H687.161V624.199L745.901 629.517H749.272V650.307H748.79ZM745.42 629.034L686.68 623.715L606.273 629.517L600.977 629.034L687.643 622.748L752.642 628.55L745.42 629.034ZM687.643 622.265V589.87L741.568 595.189L755.049 596.639V628.55L687.643 622.265ZM690.532 589.386V570.53L705.457 571.981V590.837L690.532 589.386ZM705.939 590.837V571.981H706.902V590.837H705.939ZM707.383 590.837V571.981H708.346V590.837H707.383ZM708.346 591.32V572.464L722.309 573.914V592.771L708.346 591.32ZM723.272 592.771V573.914H724.235V592.771H723.272ZM724.235 592.771V573.914H725.198V592.771H724.235ZM725.679 592.771V573.914L740.124 575.365V593.738L725.679 592.771ZM740.605 575.849H741.568V594.221H740.605V575.849ZM748.79 595.189L742.05 594.705V575.849L690.532 570.046V589.386H688.124H687.161V568.113L745.901 574.398L749.272 573.914V595.189H748.79ZM745.42 573.914L686.68 567.629L606.273 574.398L600.496 573.914L687.643 566.662L752.642 573.431L745.42 573.914ZM687.643 566.179V533.784L755.049 541.037V572.948L687.643 566.179ZM690.532 533.784V514.927L705.457 516.862V535.718L690.532 533.784ZM705.939 535.234V516.378H706.902V535.234H705.939ZM707.383 535.718V516.862H708.346V535.718H707.383ZM708.346 535.718V516.862L722.309 518.312V537.169L708.346 535.718ZM723.272 537.169V518.312H724.235V537.169H723.272ZM724.235 537.652V518.795H725.198V537.652H724.235ZM725.679 537.652V518.795L740.124 520.246V539.103L725.679 537.652ZM740.605 539.103V520.246H741.568V539.103H740.605ZM748.79 540.069L742.05 539.103V520.246L690.532 514.444V533.301L688.124 532.817H687.161V512.51L745.901 519.763L749.272 519.279V540.069H748.79ZM745.42 519.279L686.68 512.027L606.273 519.763L600.496 518.795L688.124 510.576L753.605 518.312L745.42 519.279ZM687.643 510.093V477.698L755.049 486.401V518.312L687.643 510.093ZM705.457 461.259V479.632L690.532 477.698V459.325L705.457 461.259ZM705.939 479.632V461.259H706.902V480.116L705.939 479.632ZM707.383 480.116V461.259H708.346V480.116H707.383ZM708.346 480.116V461.742L722.309 463.677V482.049L708.346 480.116ZM723.272 482.049V463.677H724.235V482.049H723.272ZM724.235 482.049V463.193H725.198V482.049H724.235ZM725.679 482.049V464.16L740.124 466.094V484.467L725.679 482.049ZM740.605 483.983V465.611H741.568V483.983H740.605ZM748.79 485.434L742.05 484.467V465.611L690.532 458.358V477.698L688.124 477.214H687.161V456.424L745.901 464.16L749.272 463.677V485.434H748.79ZM745.42 464.16L686.68 456.424L606.273 465.127L600.014 464.643L687.643 454.973L753.605 463.677L745.42 464.16ZM687.643 454.49V422.096L755.049 431.766V463.677L687.643 454.49ZM705.457 406.14V424.029L690.532 422.096V404.206L705.457 406.14ZM705.939 424.029V406.14H706.902V424.513L705.939 424.029ZM707.383 424.029V405.657H708.346V424.029H707.383ZM708.346 424.513V406.14L722.309 408.074V425.964L708.346 424.513ZM723.272 426.447V408.558H724.235V426.931L723.272 426.447ZM724.235 426.447V408.074H725.198V426.447H724.235ZM740.124 410.975V428.865L725.679 426.931V409.041L740.124 410.975ZM740.605 428.865V410.975H741.568V429.348L740.605 428.865ZM748.79 429.832L742.05 428.865V410.492L690.532 403.239V421.612L688.124 421.129H687.161V401.305L745.901 410.008L749.272 409.525V429.832H748.79ZM745.42 409.525L686.68 400.822L606.273 410.492L600.014 409.525L687.643 398.888L753.605 408.558L745.42 409.525ZM687.643 398.404V366.009L755.049 376.163V408.074L687.643 398.404ZM705.457 350.538V368.427L690.532 366.009V348.12L705.457 350.538ZM705.939 367.944V350.054H706.902V367.944H705.939ZM707.383 368.427V350.054H708.346V368.427H707.383ZM722.791 352.955V370.361L708.828 368.427V350.538L722.791 352.955ZM723.272 370.845V352.955H724.235V370.845H723.272ZM724.235 370.845V352.955H725.198V370.845H724.235ZM740.124 355.856V373.262L725.679 370.845V353.439L740.124 355.856ZM740.605 373.262V355.856H741.568V373.746L740.605 373.262ZM748.79 374.713L742.05 373.746V355.372L690.532 347.153V365.526L688.124 365.042H687.161V344.736L745.901 354.406L749.272 353.922V374.713H748.79ZM745.42 354.406L686.68 344.736L606.273 354.889L600.014 353.922L688.124 342.318L754.087 352.955L745.42 354.406ZM687.643 342.318V309.923L755.049 321.527V352.955L687.643 342.318ZM705.457 294.935V312.341L690.532 309.923V292.034L705.457 294.935ZM705.939 312.341V294.935H706.902V312.824L705.939 312.341ZM707.383 312.824V294.935H708.346V312.824H707.383ZM722.791 297.836V315.242L708.828 312.824V295.419L722.791 297.836ZM723.272 315.242V297.836H724.235V315.726L723.272 315.242ZM724.235 315.726V297.836H725.198V315.726H724.235ZM725.679 315.726V298.319L740.124 300.737V318.143L725.679 315.726ZM740.605 318.143V300.737H741.568V318.627L740.605 318.143ZM748.79 319.594L742.05 318.627V300.737L690.532 291.067V309.44L688.124 308.957H687.161V289.133L745.901 299.77L749.272 299.286V319.594H748.79ZM745.42 299.286L686.68 288.65L606.273 299.77L599.533 298.803L687.643 286.232L753.605 297.836L745.42 299.286ZM687.643 286.232V253.838L755.049 266.409V298.319L687.643 286.232ZM705.457 239.333V256.738L690.532 253.838V236.432L705.457 239.333ZM705.939 256.738V239.333H706.902V257.222L705.939 256.738ZM707.383 257.222V239.333H708.346V257.222H707.383ZM722.791 242.717V260.123L708.828 257.706V240.3L722.791 242.717ZM708.346 239.333L722.791 242.233H722.309L708.346 239.333ZM723.272 260.123V242.717H724.235V260.123H723.272ZM724.235 260.123V242.233H725.198V260.123H724.235ZM740.124 246.102V263.508L725.679 260.607V243.201L740.124 246.102ZM740.605 263.024V245.618H741.568V263.024H740.605ZM748.79 264.474L742.05 263.024V245.135L724.235 241.75L690.05 235.465V253.354L687.643 252.871H686.68V233.047L745.42 244.167L748.309 243.684V264.474H748.79ZM745.42 244.651L686.198 233.531L605.792 245.618L599.051 244.167L687.161 230.63L753.605 243.201L745.42 244.651ZM687.643 230.146V197.752L755.049 211.29V243.201L687.643 230.146ZM686.68 177.445L606.273 190.499L599.533 189.532L687.643 175.027L756.975 189.532L749.272 190.982L686.68 177.445ZM688.124 43.515H690.532V89.931L688.124 89.4475V43.515ZM686.198 89.4475L751.198 104.436V155.203L687.643 141.665L686.198 142.149V89.4475ZM687.161 141.665V174.06L598.088 189.048V157.138L687.161 141.665ZM672.717 0.483502H676.569V90.898L672.717 91.3815V0.483502ZM685.717 89.4475V141.665L613.495 154.237V102.502L685.717 89.4475ZM586.533 91.865L613.977 98.1505V101.535L612.532 102.018V105.403L586.533 110.238V91.865ZM612.532 105.887V154.237H611.088V141.665L594.236 144.567V161.973L597.607 161.489V174.06L584.607 176.477V110.722L612.532 105.887ZM595.199 145.533V161.973H594.718V145.05L595.199 145.533ZM507.571 966.516V121.842L575.94 109.271V576.332V966.516H507.571ZM584.125 966.516H576.422V513.961V109.271L584.125 110.722V966.516ZM575.94 108.788L549.459 113.623V98.634L586.051 91.865V110.238L584.125 110.722L575.94 108.788ZM605.792 966.516H584.607V176.961L597.607 174.544V189.048L596.644 189.532V888.19H597.607V903.178H605.31V966.516H605.792ZM686.198 966.516H606.273V903.661L686.198 902.695V966.516ZM748.79 966.516H686.68V902.695H687.643L748.79 903.661V966.516ZM757.938 966.516H749.272V903.661H755.531V871.267H749.272V849.026H755.531V816.631L749.272 816.148V794.391H755.531V761.996L749.272 761.513V739.755L755.531 739.271V706.877L749.272 706.394V685.12L755.531 684.636V652.241L749.272 651.758V630.484L755.531 630.001V597.606L749.272 597.122V575.849L755.531 575.365V542.971L749.272 542.487V521.696L755.531 521.213V488.818L749.272 487.852V464.16L755.531 463.677V431.282L749.272 430.315V409.525L755.531 408.558V376.163L749.272 375.196V354.889L755.531 354.406V322.011L749.272 321.044V300.737L755.531 299.77V265.925L749.272 264.958V244.651L755.531 243.684V211.29L749.272 209.839V190.982L757.938 189.532V966.516ZM781.049 966.516H758.42V189.532L781.049 194.367V966.516ZM831.604 966.516H781.531V904.145H783.938L831.604 905.112V966.516ZM846.048 966.516H831.604V905.112H846.048V966.516ZM857.123 966.516H846.53V905.596H847.974V874.168H846.53V852.411H847.974V820.983H846.048V799.709H847.974V768.281H846.048V744.59H847.974V713.163H846.048V691.889H847.974V660.461H846.048V639.187H847.974V607.759H846.048V586.486H847.974V555.058H846.048V533.784H847.974V498.005H846.048V476.731H847.974V445.303L846.048 444.82V423.546H847.974V392.118L846.048 391.635V370.361H847.974V338.934L846.048 338.45V317.176H847.974V285.748L846.048 285.265V264.474H847.974V241.267L852.789 242.233L921.159 232.08V250.453L917.789 250.937V233.531L861.456 241.75V256.255L849.419 258.189V288.65L856.641 290.1L921.64 281.397V299.77L918.27 300.253V282.848L881.196 287.682L861.937 290.1V307.506L849.419 309.44V339.901L856.641 341.351L921.64 333.132V351.988L918.27 352.471V335.066L899.974 337.483L861.937 342.318V359.724L849.9 361.174V391.635L857.123 393.086L922.122 385.349V404.206L918.752 404.689V386.8L862.419 393.086V410.975L850.382 412.426V442.886L857.604 443.853L922.603 437.084V456.424L919.233 456.908V439.018L862.9 444.82V462.71L850.863 464.16V494.621L858.085 495.587L923.085 489.302V508.642L919.715 509.126V490.753L863.382 496.071V513.961L851.345 514.927V545.388H851.826L859.048 546.355L924.048 541.037V560.376L920.677 560.86V542.971L864.345 547.806V565.695L892.752 563.278L851.826 566.662V597.122H852.308L859.53 598.089L924.529 593.255V613.078L851.826 618.396V648.857H852.308L859.53 649.824L924.529 645.956V665.779L851.826 670.131V700.591H852.308L859.53 701.075L924.529 697.691V717.997L851.826 721.382V751.843H852.308L859.53 752.326L924.529 749.425V769.732L851.826 772.633V803.094H852.308L859.048 803.577L924.048 801.643V821.95L851.345 823.884V854.344H852.308H859.048L924.048 852.894V873.201L851.345 874.651V905.112H859.53V966.516H857.123ZM881.678 547.322V564.728H881.196V547.322H881.678ZM880.715 547.322V564.728H879.752V547.322H880.715ZM879.27 547.806V565.211L862.9 566.662V549.74L879.27 547.806ZM862.419 548.773V566.179H861.937V548.773H862.419ZM922.122 966.516H858.085V908.013L922.122 907.046V966.516ZM985.195 966.516H922.122V907.046H923.566L985.195 908.013V966.516ZM995.788 966.516H985.677V908.013H993.862V878.036H985.195V857.729L993.862 857.246V827.269L985.195 826.785V806.961L993.862 806.478V776.501L985.195 776.018V756.194L993.862 755.711V725.734L985.195 725.25V705.427L993.862 704.943V674.966L985.195 674.482V655.143L993.862 654.659V624.682L985.195 623.715V604.375L993.862 603.891V573.914L985.195 572.948V554.091L993.862 553.607V523.63L985.195 522.664V503.807L993.862 502.84V472.863L985.195 471.413V452.556L993.862 451.589V415.81L985.195 414.359V395.987L993.862 395.02V365.042L985.195 363.592V345.703L993.862 344.736V314.758L985.195 313.308V295.419L993.862 294.452V264.474L985.195 262.541V241.75L993.862 240.3V216.124L994.825 216.608V966.516H995.788ZM1003.01 966.516H995.788V216.608L1003.01 215.641V966.516ZM1057.42 966.516H1003.49V215.641L1056.94 226.762V966.516H1057.42ZM1111.82 367.46C1111.34 367.46 1111.34 367.46 1110.86 367.46H1110.38H1109.9C1107.49 366.977 1105.08 363.592 1105.08 360.208C1105.08 355.856 1107.97 351.988 1111.82 351.021H1112.31H1112.79H1113.27C1116.16 351.504 1118.08 354.406 1118.08 358.273C1118.56 363.109 1115.68 366.493 1111.82 367.46ZM1112.79 367.944C1116.64 366.977 1119.05 363.108 1119.05 358.757C1119.05 355.856 1117.6 353.439 1115.68 351.988C1118.08 352.955 1120.01 355.856 1120.01 359.241C1120.01 363.592 1117.12 367.46 1113.27 368.427C1113.27 367.944 1112.79 367.944 1112.79 367.944ZM1114.23 367.944V385.833H1113.27V368.427C1113.27 368.427 1113.27 368.427 1113.75 368.427C1113.75 367.944 1113.75 367.944 1114.23 367.944ZM1094.01 369.878C1094.01 372.779 1092.08 375.196 1089.68 376.163C1092.08 375.196 1093.53 372.779 1093.53 369.878C1093.53 367.944 1092.56 366.493 1091.6 365.526C1093.05 366.009 1094.01 367.46 1094.01 369.878ZM1090.64 376.163V388.251H1089.68V376.163C1090.16 376.163 1090.16 376.163 1090.64 376.163ZM1088.23 359.241C1087.75 359.241 1087.27 359.241 1087.27 359.241H1086.79H1086.31C1082.94 358.757 1080.53 354.406 1080.53 349.571C1080.53 343.769 1084.38 338.45 1088.71 337.966C1089.19 337.966 1089.19 337.966 1089.68 337.966H1090.16H1090.64C1094.01 338.45 1096.9 342.802 1096.9 347.153C1096.42 353.439 1093.05 357.79 1088.23 359.241ZM1088.71 359.724C1093.53 358.273 1097.38 353.439 1097.38 347.637C1097.38 343.769 1095.45 340.384 1093.05 338.45C1096.42 339.417 1098.82 343.285 1098.82 347.637C1098.82 353.439 1095.45 358.273 1090.64 359.241C1089.68 359.724 1089.19 359.724 1088.71 359.724ZM1090.64 359.724V364.076H1089.68V359.724C1090.16 359.724 1090.16 359.724 1090.64 359.724ZM1088.71 375.679H1088.23C1088.23 375.679 1088.23 375.679 1087.75 375.679H1087.27C1085.34 375.196 1083.9 373.262 1083.9 370.845C1083.9 367.944 1085.82 365.043 1088.23 364.559H1088.71C1088.71 364.559 1088.71 364.559 1089.19 364.559H1089.68C1091.6 365.043 1093.05 366.977 1093.05 369.394C1093.05 372.779 1091.12 375.196 1088.71 375.679ZM1064.64 966.516H1057.9V445.787L1064.64 446.754V966.516ZM1135.9 966.516H1065.12V799.709L1135.9 797.292V966.516ZM1135.9 797.292L1065.12 799.709V664.329L1135.9 659.978V797.292ZM1135.9 659.494L1065.12 663.846V527.982L1135.9 521.696V659.494ZM1135.9 521.213L1065.12 527.499V447.238L1057.9 446.271V393.086L1135.9 384.383V521.213ZM1193.19 966.516H1135.9V891.574L1193.19 893.024V966.516ZM1193.19 892.541L1135.9 891.091V815.181L1193.19 817.599V892.541ZM1193.19 817.599L1135.9 815.181V738.788L1193.19 742.656V817.599ZM1193.19 742.172L1135.9 738.305V662.395L1193.19 667.714V742.172ZM1193.19 666.746L1135.9 661.428V585.035L1193.19 591.32V666.746ZM1193.19 591.32L1135.9 585.035V509.126L1193.19 516.862V591.32ZM1193.19 515.894L1135.9 508.158V432.249L1193.19 441.436V515.894ZM1205.23 966.516H1193.67V893.024L1205.23 893.508V966.516ZM1205.23 893.024L1193.67 892.541V817.599L1205.23 818.082V893.024ZM1205.23 818.082L1193.67 817.599V742.656L1205.23 743.623V818.082ZM1205.23 742.656L1193.67 741.689V667.23L1205.23 668.197V742.656ZM1205.23 667.714L1193.67 666.746V591.804L1205.23 593.255V667.714ZM1205.23 592.771L1193.67 591.32V516.378L1205.23 517.828V592.771ZM1205.23 517.828L1193.67 516.378V441.436L1205.23 443.37V517.828ZM1260.6 966.516H1205.71V893.508L1260.12 894.959V966.516H1260.6ZM1260.6 894.475L1206.19 893.024V818.566L1260.6 820.983V894.475ZM1260.6 820.5L1206.19 818.082V743.623L1260.6 747.491V820.5ZM1260.6 746.524L1206.19 742.656V668.197L1260.6 673.032V746.524ZM1260.6 673.032L1206.19 668.197V593.738L1260.6 600.024V673.032ZM1260.6 599.056L1206.19 592.771V518.312L1260.6 525.565V599.056ZM1260.6 525.081L1206.19 517.828V443.37L1260.6 452.073V525.081ZM1260.6 451.589L1136.38 432.249V384.383L1260.6 405.657V451.589ZM1328.01 966.516H1261.08V641.121L1328.01 636.769V966.516ZM1456.56 966.516H1328.49V636.769L1456.56 650.307V966.516Z" fill="black" fill-opacity="0.6"/>
</svg>
