<svg width="54" height="54" viewBox="0 0 54 54" fill="none" xmlns="http://www.w3.org/2000/svg">
<path d="M27 54C12.1116 54 0 41.8884 0 27C0 12.1116 12.1116 0 27 0C41.8884 0 54 12.1116 54 27C54 41.8884 41.8884 54 27 54ZM27 3.375C13.9725 3.375 3.375 13.9725 3.375 27C3.375 40.0275 13.9725 50.625 27 50.625C40.0275 50.625 50.625 40.0275 50.625 27C50.625 13.9725 40.0275 3.375 27 3.375Z" fill="#E7E7E7"/>
<path d="M18.6482 37.0393C18.216 37.0393 17.7838 36.8753 17.4555 36.5445C16.7963 35.8853 16.7963 34.8166 17.4555 34.1574L34.1616 17.4509C34.8211 16.7917 35.8898 16.7917 36.549 17.4509C37.2082 18.1101 37.2082 19.1788 36.549 19.8384L19.8425 36.5445C19.5096 36.8753 19.0779 37.0393 18.6482 37.0393Z" fill="#E7E7E7"/>
<path d="M35.3518 37.0393C34.9201 37.0393 34.4879 36.8753 34.1596 36.5445L17.4535 19.8405C16.7939 19.1813 16.7939 18.1126 17.4535 17.4534C18.1126 16.7938 19.1813 16.7938 19.8405 17.4534L36.5466 34.1595C37.2062 34.8187 37.2062 35.8874 36.5466 36.5466C36.2162 36.8753 35.784 37.0393 35.3518 37.0393Z" fill="#E7E7E7"/>
</svg>
