<svg width="22" height="22" viewBox="0 0 22 22" fill="none" xmlns="http://www.w3.org/2000/svg">
<path d="M5.95467 12.8278C6.31861 12.8278 6.66765 12.6833 6.92499 12.4259C7.18234 12.1686 7.32692 11.8195 7.32692 11.4556C7.32692 11.0916 7.18234 10.7426 6.92499 10.4853C6.66765 10.2279 6.31861 10.0833 5.95467 10.0833C5.59072 10.0833 5.24169 10.2279 4.98434 10.4853C4.72699 10.7426 4.58242 11.0916 4.58242 11.4556C4.58242 11.8195 4.72699 12.1686 4.98434 12.4259C5.24169 12.6833 5.59072 12.8278 5.95467 12.8278ZM7.32783 16.0398C7.32783 16.4038 7.18326 16.7528 6.92591 17.0102C6.66856 17.2675 6.31953 17.4121 5.95558 17.4121C5.59164 17.4121 5.2426 17.2675 4.98526 17.0102C4.72791 16.7528 4.58333 16.4038 4.58333 16.0398C4.58333 15.6759 4.72791 15.3269 4.98526 15.0695C5.2426 14.8122 5.59164 14.6676 5.95558 14.6676C6.31953 14.6676 6.66856 14.8122 6.92591 15.0695C7.18326 15.3269 7.32783 15.6759 7.32783 16.0398ZM11 12.826C11.3637 12.826 11.7125 12.6815 11.9697 12.4243C12.2269 12.1672 12.3713 11.8184 12.3713 11.4547C12.3713 11.091 12.2269 10.7422 11.9697 10.485C11.7125 10.2278 11.3637 10.0833 11 10.0833C10.6361 10.0833 10.287 10.2279 10.0297 10.4853C9.77233 10.7426 9.62775 11.0916 9.62775 11.4556C9.62775 11.8195 9.77233 12.1686 10.0297 12.4259C10.287 12.6833 10.6361 12.8278 11 12.8278V12.826ZM12.3732 16.038C12.3732 16.4019 12.2286 16.751 11.9712 17.0083C11.7139 17.2657 11.3649 17.4102 11.0009 17.4102C10.637 17.4102 10.2879 17.2657 10.0306 17.0083C9.77324 16.751 9.62867 16.4019 9.62867 16.038C9.62867 15.6741 9.77324 15.325 10.0306 15.0677C10.2879 14.8103 10.637 14.6658 11.0009 14.6658C11.3649 14.6658 11.7139 14.8103 11.9712 15.0677C12.2286 15.325 12.3732 15.6741 12.3732 16.038ZM16.0398 12.826C16.4038 12.826 16.7528 12.6814 17.0102 12.4241C17.2675 12.1667 17.4121 11.8177 17.4121 11.4538C17.4121 11.0898 17.2675 10.7408 17.0102 10.4834C16.7528 10.2261 16.4038 10.0815 16.0398 10.0815C15.6759 10.0815 15.3269 10.2261 15.0695 10.4834C14.8122 10.7408 14.6676 11.0898 14.6676 11.4538C14.6676 11.8177 14.8122 12.1667 15.0695 12.4241C15.3269 12.6814 15.6759 12.826 16.0398 12.826ZM22 4.58333C22 3.36776 21.5171 2.20197 20.6576 1.34243C19.798 0.482886 18.6322 0 17.4167 0H4.58333C3.36776 0 2.20197 0.482886 1.34243 1.34243C0.482886 2.20197 0 3.36776 0 4.58333V17.4167C0 18.6322 0.482886 19.798 1.34243 20.6576C2.20197 21.5171 3.36776 22 4.58333 22H17.4167C18.6322 22 19.798 21.5171 20.6576 20.6576C21.5171 19.798 22 18.6322 22 17.4167V4.58333ZM1.83333 7.33333H20.1667V17.4167C20.1667 18.146 19.8769 18.8455 19.3612 19.3612C18.8455 19.8769 18.146 20.1667 17.4167 20.1667H4.58333C3.85399 20.1667 3.15451 19.8769 2.63879 19.3612C2.12306 18.8455 1.83333 18.146 1.83333 17.4167V7.33333ZM4.58333 1.83333H17.4167C18.146 1.83333 18.8455 2.12306 19.3612 2.63879C19.8769 3.15451 20.1667 3.85399 20.1667 4.58333V5.5H1.83333V4.58333C1.83333 3.85399 2.12306 3.15451 2.63879 2.63879C3.15451 2.12306 3.85399 1.83333 4.58333 1.83333Z" fill="#4EA2DA"/>
</svg>
