<svg width="24" height="21" viewBox="0 0 24 21" fill="none" xmlns="http://www.w3.org/2000/svg">
<path fill-rule="evenodd" clip-rule="evenodd" d="M17.5386 2.76924C17.5386 2.25944 17.9518 1.84616 18.4617 1.84616H23.077C23.5868 1.84616 24.0001 2.25944 24.0001 2.76924C24.0001 3.27904 23.5868 3.69231 23.077 3.69231H18.4617C17.9518 3.69231 17.5386 3.27904 17.5386 2.76924Z" fill="#4EA2DA"/>
<path fill-rule="evenodd" clip-rule="evenodd" d="M0 2.76924C0 2.25944 0.413276 1.84616 0.923077 1.84616H14.7692C15.279 1.84616 15.6923 2.25944 15.6923 2.76924C15.6923 3.27904 15.279 3.69231 14.7692 3.69231H0.923077C0.413276 3.69231 0 3.27904 0 2.76924Z" fill="#4EA2DA"/>
<path fill-rule="evenodd" clip-rule="evenodd" d="M17.5386 17.5385C17.5386 17.0287 17.9518 16.6154 18.4617 16.6154H23.077C23.5868 16.6154 24.0001 17.0287 24.0001 17.5385C24.0001 18.0483 23.5868 18.4615 23.077 18.4615H18.4617C17.9518 18.4615 17.5386 18.0483 17.5386 17.5385Z" fill="#4EA2DA"/>
<path fill-rule="evenodd" clip-rule="evenodd" d="M0 17.5385C0 17.0287 0.413276 16.6154 0.923077 16.6154H14.7692C15.279 16.6154 15.6923 17.0287 15.6923 17.5385C15.6923 18.0483 15.279 18.4615 14.7692 18.4615H0.923077C0.413276 18.4615 0 18.0483 0 17.5385Z" fill="#4EA2DA"/>
<path fill-rule="evenodd" clip-rule="evenodd" d="M8.30762 10.1539C8.30762 9.64405 8.72089 9.23077 9.23069 9.23077H23.0768C23.5866 9.23077 23.9999 9.64405 23.9999 10.1539C23.9999 10.6637 23.5866 11.0769 23.0768 11.0769H9.23069C8.72089 11.0769 8.30762 10.6637 8.30762 10.1539Z" fill="#4EA2DA"/>
<path fill-rule="evenodd" clip-rule="evenodd" d="M0 10.1539C0 9.64405 0.413276 9.23077 0.923077 9.23077H5.53846C6.04826 9.23077 6.46154 9.64405 6.46154 10.1539C6.46154 10.6637 6.04826 11.0769 5.53846 11.0769H0.923077C0.413276 11.0769 0 10.6637 0 10.1539Z" fill="#4EA2DA"/>
<path fill-rule="evenodd" clip-rule="evenodd" d="M16.6154 1.84615C16.1056 1.84615 15.6923 2.25943 15.6923 2.76923C15.6923 3.27903 16.1056 3.69231 16.6154 3.69231C17.1252 3.69231 17.5385 3.27903 17.5385 2.76923C17.5385 2.25943 17.1252 1.84615 16.6154 1.84615ZM13.8462 2.76923C13.8462 1.23983 15.086 0 16.6154 0C18.1448 0 19.3847 1.23983 19.3847 2.76923C19.3847 4.29864 18.1448 5.53846 16.6154 5.53846C15.086 5.53846 13.8462 4.29864 13.8462 2.76923Z" fill="#4EA2DA"/>
<path fill-rule="evenodd" clip-rule="evenodd" d="M7.38447 9.23077C6.87466 9.23077 6.46139 9.64404 6.46139 10.1538C6.46139 10.6636 6.87466 11.0769 7.38447 11.0769C7.89427 11.0769 8.30754 10.6636 8.30754 10.1538C8.30754 9.64404 7.89427 9.23077 7.38447 9.23077ZM4.61523 10.1538C4.61523 8.62444 5.85506 7.38461 7.38447 7.38461C8.91387 7.38461 10.1537 8.62444 10.1537 10.1538C10.1537 11.6832 8.91387 12.9231 7.38447 12.9231C5.85506 12.9231 4.61523 11.6832 4.61523 10.1538Z" fill="#4EA2DA"/>
<path fill-rule="evenodd" clip-rule="evenodd" d="M16.6154 16.6154C16.1056 16.6154 15.6923 17.0287 15.6923 17.5385C15.6923 18.0483 16.1056 18.4615 16.6154 18.4615C17.1252 18.4615 17.5385 18.0483 17.5385 17.5385C17.5385 17.0287 17.1252 16.6154 16.6154 16.6154ZM13.8462 17.5385C13.8462 16.0091 15.086 14.7692 16.6154 14.7692C18.1448 14.7692 19.3847 16.0091 19.3847 17.5385C19.3847 19.0679 18.1448 20.3077 16.6154 20.3077C15.086 20.3077 13.8462 19.0679 13.8462 17.5385Z" fill="#4EA2DA"/>
</svg>
