<svg width="13" height="15" viewBox="0 0 13 15" fill="none" xmlns="http://www.w3.org/2000/svg">
<path d="M9.03555 1.20889L9.29901 0.813231L9.17917 0.733337H9.03555V1.20889ZM11.8889 3.11111H12.3644V2.85622L12.1523 2.71545L11.8889 3.11111ZM10.9378 12.1467H3.32889V13.0978H10.9378V12.1467ZM2.85333 11.6711V2.16H1.90222V11.6711H2.85333ZM3.32889 1.68445H9.03555V0.733337H3.32889V1.68445ZM11.4133 3.11111V11.6711H12.3644V3.11111H11.4133ZM8.7721 1.60456L11.6254 3.50678L12.1523 2.71545L9.29901 0.813231L8.7721 1.60456ZM3.32889 12.1467C3.20276 12.1467 3.0818 12.0966 2.99262 12.0074C2.90344 11.9182 2.85333 11.7972 2.85333 11.6711H1.90222C1.90222 12.0495 2.05253 12.4124 2.32008 12.6799C2.58764 12.9475 2.95051 13.0978 3.32889 13.0978V12.1467ZM10.9378 13.0978C11.3162 13.0978 11.679 12.9475 11.9466 12.6799C12.2141 12.4124 12.3644 12.0495 12.3644 11.6711H11.4133C11.4133 11.7972 11.3632 11.9182 11.274 12.0074C11.1849 12.0966 11.0639 12.1467 10.9378 12.1467V13.0978ZM2.85333 2.16C2.85333 2.03388 2.90344 1.91292 2.99262 1.82374C3.0818 1.73455 3.20276 1.68445 3.32889 1.68445V0.733337C2.95051 0.733337 2.58764 0.883646 2.32008 1.1512C2.05253 1.41875 1.90222 1.78163 1.90222 2.16H2.85333ZM0 4.06223V13.5733H0.951111V4.06223H0ZM1.42667 15H9.03555V14.0489H1.42667V15ZM1.42667 3.58667H2.37778V2.63556H1.42667V3.58667ZM10.4622 13.5733V12.6222H9.51111V13.5733H10.4622ZM9.03555 15C9.41393 15 9.77681 14.8497 10.0444 14.5821C10.3119 14.3146 10.4622 13.9517 10.4622 13.5733H9.51111C9.51111 13.6995 9.46101 13.8204 9.37182 13.9096C9.28264 13.9988 9.16168 14.0489 9.03555 14.0489V15ZM0 13.5733C0 13.9517 0.150309 14.3146 0.417861 14.5821C0.685413 14.8497 1.04829 15 1.42667 15V14.0489C1.30054 14.0489 1.17958 13.9988 1.0904 13.9096C1.00121 13.8204 0.951111 13.6995 0.951111 13.5733H0ZM0.951111 4.06223C0.951111 3.9361 1.00121 3.81514 1.0904 3.72596C1.17958 3.63677 1.30054 3.58667 1.42667 3.58667V2.63556C1.04829 2.63556 0.685413 2.78587 0.417861 3.05342C0.150309 3.32097 0 3.68385 0 4.06223H0.951111Z" fill="white"/>
<path fill-rule="evenodd" clip-rule="evenodd" d="M9.97044 4.95715C10.2299 5.18233 10.2649 5.58394 10.0487 5.85416L6.99159 9.67558C6.88162 9.81305 6.7212 9.89598 6.54959 9.90409C6.37798 9.9122 6.21101 9.84474 6.08954 9.7182L4.25525 7.80749C4.01648 7.55877 4.01648 7.1555 4.25525 6.90678C4.49403 6.65805 4.88117 6.65805 5.11994 6.90678L6.48079 8.32433L9.1093 5.03869C9.32548 4.76847 9.71103 4.73196 9.97044 4.95715Z" fill="white"/>
</svg>
