<svg width="28" height="28" viewBox="0 0 28 28" fill="none" xmlns="http://www.w3.org/2000/svg">
<path d="M19.6004 9.34968C19.6004 9.21234 19.4841 9.09998 19.342 9.09998L17.2105 9.10934L14.0004 12.8081L10.7935 9.11246L8.65875 9.1031C8.51665 9.1031 8.40039 9.21234 8.40039 9.3528C8.40039 9.4121 8.423 9.46829 8.46175 9.51511L12.6634 14.3531L8.46175 19.188C8.42273 19.2337 8.40107 19.291 8.40039 19.3503C8.40039 19.4876 8.51665 19.6 8.65875 19.6L10.7935 19.5906L14.0004 15.8919L17.2073 19.5875L19.3388 19.5969C19.4809 19.5969 19.5972 19.4876 19.5972 19.3472C19.5972 19.2878 19.5746 19.2317 19.5358 19.1848L15.3406 14.35L19.5423 9.51199C19.581 9.46829 19.6004 9.40898 19.6004 9.34968Z" fill="black"/>
<path d="M14 0C6.26875 0 0 6.26875 0 14C0 21.7313 6.26875 28 14 28C21.7313 28 28 21.7313 28 14C28 6.26875 21.7313 0 14 0ZM14 25.625C7.58125 25.625 2.375 20.4188 2.375 14C2.375 7.58125 7.58125 2.375 14 2.375C20.4188 2.375 25.625 7.58125 25.625 14C25.625 20.4188 20.4188 25.625 14 25.625Z" fill="black"/>
</svg>
