<svg width="16" height="16" viewBox="0 0 16 16" fill="none" xmlns="http://www.w3.org/2000/svg">
<path fill-rule="evenodd" clip-rule="evenodd" d="M1.84615 1.23077C1.50629 1.23077 1.23077 1.50629 1.23077 1.84615V14.1538C1.23077 14.4937 1.50629 14.7692 1.84615 14.7692H14.1538C14.4937 14.7692 14.7692 14.4937 14.7692 14.1538V1.84615C14.7692 1.50629 14.4937 1.23077 14.1538 1.23077H1.84615ZM0 1.84615C0 0.826551 0.826551 0 1.84615 0H14.1538C15.1734 0 16 0.826551 16 1.84615V14.1538C16 15.1734 15.1734 16 14.1538 16H1.84615C0.826551 16 0 15.1734 0 14.1538V1.84615Z" fill="#4EA2DA"/>
<path fill-rule="evenodd" clip-rule="evenodd" d="M0 7.60001C0 7.3791 0.275517 7.20001 0.615385 7.20001H15.3846C15.7245 7.20001 16 7.3791 16 7.60001C16 7.82093 15.7245 8.00001 15.3846 8.00001H0.615385C0.275517 8.00001 0 7.82093 0 7.60001Z" fill="#4EA2DA"/>
<path fill-rule="evenodd" clip-rule="evenodd" d="M9.5998 0C10.0416 0 10.3998 0.282768 10.3998 0.631579V7.36842C10.3998 7.71723 10.0416 8 9.5998 8C9.15798 8 8.7998 7.71723 8.7998 7.36842V0.631579C8.7998 0.282768 9.15798 0 9.5998 0Z" fill="#4EA2DA"/>
<path fill-rule="evenodd" clip-rule="evenodd" d="M8 0.4C8 0.179086 8.23878 0 8.53333 0H10.6667C10.9612 0 11.2 0.179086 11.2 0.4C11.2 0.620914 10.9612 0.8 10.6667 0.8H8.53333C8.23878 0.8 8 0.620914 8 0.4Z" fill="#4EA2DA"/>
<path fill-rule="evenodd" clip-rule="evenodd" d="M0.4 5.59998C0.620914 5.59998 0.8 5.83876 0.8 6.13331V8.26664C0.8 8.56119 0.620914 8.79998 0.4 8.79998C0.179086 8.79998 0 8.56119 0 8.26664V6.13331C0 5.83876 0.179086 5.59998 0.4 5.59998Z" fill="#4EA2DA"/>
<path fill-rule="evenodd" clip-rule="evenodd" d="M15.6002 5.59998C15.8211 5.59998 16.0002 5.83876 16.0002 6.13331V8.26664C16.0002 8.56119 15.8211 8.79998 15.6002 8.79998C15.3793 8.79998 15.2002 8.56119 15.2002 8.26664V6.13331C15.2002 5.83876 15.3793 5.59998 15.6002 5.59998Z" fill="#4EA2DA"/>
<rect x="0.799805" y="8.79999" width="1.6" height="14.4" transform="rotate(-90 0.799805 8.79999)" fill="#4EA2DA"/>
</svg>
