<svg width="13" height="18" viewBox="0 0 13 18" fill="none" xmlns="http://www.w3.org/2000/svg">
<path d="M0.374402 8.25892C0.258934 8.34149 0.164523 8.45198 0.099301 8.58087C0.0340786 8.70975 5.6669e-07 8.85318 5.60325e-07 8.99878C5.53961e-07 9.14438 0.0340786 9.2878 0.0993009 9.41669C0.164523 9.54558 0.258934 9.65607 0.374402 9.73864L11.6403 17.8393C11.7702 17.933 11.9224 17.988 12.0804 17.9983C12.2383 18.0085 12.3959 17.9736 12.536 17.8973C12.6762 17.8211 12.7935 17.7064 12.8753 17.5657C12.9571 17.425 13.0002 17.2637 13 17.0994L13 0.898146C12.9993 0.734192 12.9557 0.573525 12.8737 0.433422C12.7917 0.293319 12.6745 0.179082 12.5346 0.102995C12.3948 0.0269086 12.2376 -0.00814852 12.0801 0.0015938C11.9225 0.0113361 11.7704 0.0655093 11.6403 0.158288L0.374402 8.25892Z" fill="white"/>
</svg>
