<svg width="21" height="21" viewBox="0 0 21 21" fill="none" xmlns="http://www.w3.org/2000/svg">
<path fill-rule="evenodd" clip-rule="evenodd" d="M2.42308 1.61538C1.977 1.61538 1.61538 1.977 1.61538 2.42308V18.5769C1.61538 19.023 1.977 19.3846 2.42308 19.3846H18.5769C19.023 19.3846 19.3846 19.023 19.3846 18.5769V2.42308C19.3846 1.977 19.023 1.61538 18.5769 1.61538H2.42308ZM0 2.42308C0 1.08485 1.08485 0 2.42308 0H18.5769C19.9152 0 21 1.08485 21 2.42308V18.5769C21 19.9152 19.9152 21 18.5769 21H2.42308C1.08485 21 0 19.9152 0 18.5769V2.42308Z" fill="#4EA2DA"/>
<path fill-rule="evenodd" clip-rule="evenodd" d="M0 6.19231C0 5.74623 0.361616 5.38461 0.807692 5.38461H20.1923C20.6384 5.38461 21 5.74623 21 6.19231C21 6.63838 20.6384 7 20.1923 7H0.807692C0.361616 7 0 6.63838 0 6.19231Z" fill="#4EA2DA"/>
<path fill-rule="evenodd" clip-rule="evenodd" d="M0.807692 3.76923C1.25377 3.76923 1.61538 4.13084 1.61538 4.57692V7.80769C1.61538 8.25376 1.25377 8.61538 0.807692 8.61538C0.361616 8.61538 0 8.25376 0 7.80769V4.57692C0 4.13084 0.361616 3.76923 0.807692 3.76923Z" fill="#4EA2DA"/>
<path fill-rule="evenodd" clip-rule="evenodd" d="M20.1925 3.76923C20.6385 3.76923 21.0002 4.13084 21.0002 4.57692V7.80769C21.0002 8.25376 20.6385 8.61538 20.1925 8.61538C19.7464 8.61538 19.3848 8.25376 19.3848 7.80769V4.57692C19.3848 4.13084 19.7464 3.76923 20.1925 3.76923Z" fill="#4EA2DA"/>
<path fill-rule="evenodd" clip-rule="evenodd" d="M5.92285 13.7308C5.92285 13.2847 6.28447 12.9231 6.73054 12.9231H20.1921C20.6382 12.9231 20.9998 13.2847 20.9998 13.7308C20.9998 14.1768 20.6382 14.5385 20.1921 14.5385H6.73054C6.28447 14.5385 5.92285 14.1768 5.92285 13.7308Z" fill="#4EA2DA"/>
<path fill-rule="evenodd" clip-rule="evenodd" d="M6.73054 5.38461C7.17662 5.38461 7.53824 5.74623 7.53824 6.19231V20.1923C7.53824 20.6384 7.17662 21 6.73054 21C6.28447 21 5.92285 20.6384 5.92285 20.1923V6.19231C5.92285 5.74623 6.28447 5.38461 6.73054 5.38461Z" fill="#4EA2DA"/>
<path fill-rule="evenodd" clip-rule="evenodd" d="M4.30762 20.1923C4.30762 19.7462 4.66923 19.3846 5.11531 19.3846H8.34608C8.79215 19.3846 9.15377 19.7462 9.15377 20.1923C9.15377 20.6384 8.79215 21 8.34608 21H5.11531C4.66923 21 4.30762 20.6384 4.30762 20.1923Z" fill="#4EA2DA"/>
<path fill-rule="evenodd" clip-rule="evenodd" d="M20.1925 11.3077C20.6385 11.3077 21.0002 11.6693 21.0002 12.1154V15.3462C21.0002 15.7922 20.6385 16.1538 20.1925 16.1538C19.7464 16.1538 19.3848 15.7922 19.3848 15.3462V12.1154C19.3848 11.6693 19.7464 11.3077 20.1925 11.3077Z" fill="#4EA2DA"/>
</svg>
