<svg width="21" height="21" viewBox="0 0 21 21" fill="none" xmlns="http://www.w3.org/2000/svg">
<path d="M9.48579 0L19.3848 1.415L20.7988 11.315L11.6068 20.507C11.4193 20.6945 11.165 20.7998 10.8998 20.7998C10.6346 20.7998 10.3803 20.6945 10.1928 20.507L0.292786 10.607C0.105315 10.4195 0 10.1652 0 9.9C0 9.63484 0.105315 9.38053 0.292786 9.193L9.48579 0ZM10.1928 2.122L2.41379 9.9L10.8998 18.385L18.6778 10.607L17.6178 3.182L10.1928 2.122ZM12.3128 8.486C11.9376 8.11072 11.7269 7.60178 11.727 7.07115C11.7271 6.8084 11.7789 6.54824 11.8795 6.30552C11.9801 6.06279 12.1275 5.84225 12.3133 5.6565C12.4991 5.47075 12.7197 5.32341 12.9625 5.2229C13.2052 5.1224 13.4654 5.0707 13.7281 5.07074C14.2588 5.07084 14.7676 5.28172 15.1428 5.657C15.5179 6.03228 15.7286 6.54122 15.7285 7.07185C15.7285 7.60249 15.5176 8.11135 15.1423 8.4865C14.767 8.86165 14.2581 9.07235 13.7274 9.07226C13.1968 9.07216 12.6879 8.86128 12.3128 8.486Z" fill="#4EA2DA"/>
</svg>
