<svg width="18" height="15" viewBox="0 0 18 15" fill="none" xmlns="http://www.w3.org/2000/svg">
<path d="M8.64917 3.27271C8.52518 3.27271 8.40626 3.32196 8.31858 3.40964C8.2309 3.49732 8.18164 3.61624 8.18164 3.74024C8.18164 3.86423 8.2309 3.98315 8.31858 4.07083C8.40626 4.15851 8.52518 4.20777 8.64917 4.20777H13.1328L8.80813 8.53245C8.75919 8.57436 8.71944 8.62594 8.69138 8.68394C8.66332 8.74194 8.64755 8.80512 8.64506 8.86951C8.64257 8.9339 8.65342 8.99811 8.67693 9.0581C8.70043 9.1181 8.73609 9.17259 8.78165 9.21815C8.82721 9.26371 8.8817 9.29937 8.9417 9.32287C9.00169 9.34638 9.0659 9.35723 9.13029 9.35474C9.19468 9.35225 9.25786 9.33648 9.31586 9.30842C9.37386 9.28036 9.42544 9.24061 9.46735 9.19167L13.792 4.86699V9.35063C13.792 9.47462 13.8413 9.59354 13.929 9.68122C14.0166 9.7689 14.1356 9.81816 14.2596 9.81816C14.3836 9.81816 14.5025 9.7689 14.5902 9.68122C14.6778 9.59354 14.7271 9.47462 14.7271 9.35063V3.27271H8.64917Z" fill="#4EA2DA"/>
<path d="M18 9.81818H16.3636V11.4545H18V9.81818ZM18 6.54545H16.3636V8.18182H18V6.54545ZM18 13.0909H16.3636V14.7273C17.1818 14.7273 18 13.9091 18 13.0909ZM11.4545 0H9.81818V1.63636H11.4545V0ZM18 3.27273H16.3636V4.90909H18V3.27273ZM16.3636 0V1.63636H18C18 0.818182 17.1818 0 16.3636 0ZM1.63636 14.7273H8.18182V9.81818H0V13.0909C0 13.9909 0.736364 14.7273 1.63636 14.7273ZM1.63636 3.27273H0V4.90909H1.63636V3.27273ZM11.4545 13.0909H9.81818V14.7273H11.4545V13.0909ZM14.7273 0H13.0909V1.63636H14.7273V0ZM14.7273 13.0909H13.0909V14.7273H14.7273V13.0909ZM1.63636 0C0.818182 0 0 0.818182 0 1.63636H1.63636V0ZM1.63636 6.54545H0V8.18182H1.63636V6.54545ZM8.18182 0H6.54545V1.63636H8.18182V0ZM4.90909 0H3.27273V1.63636H4.90909V0Z" fill="#4EA2DA"/>
</svg>
